<svg width="500" height="120" viewBox="0 0 500 120" fill="none" xmlns="http://www.w3.org/2000/svg">
<rect width="500" height="120" rx="15" fill="#292B3C"/>
<path d="M116 56.307C116 54.4017 117.545 52.8571 119.45 52.8571H123.639C125.545 52.8571 127.089 54.4017 127.089 56.307V74.0497C127.089 75.9551 125.545 77.4997 123.639 77.4997H119.45C117.545 77.4997 116 75.9551 116 74.0497V56.307Z" fill="url(#paint0_linear)"/>
<path d="M131.229 46.45C131.229 44.5446 132.774 43 134.679 43H138.868C140.774 43 142.318 44.5446 142.318 46.45V74.0497C142.318 75.9551 140.774 77.4997 138.868 77.4997H134.679C132.774 77.4997 131.229 75.9551 131.229 74.0497V46.45Z" fill="url(#paint1_linear)"/>
<path d="M146.458 60.0034C146.458 58.0981 148.003 56.5535 149.908 56.5535H154.097C156.003 56.5535 157.547 58.0981 157.547 60.0034V74.0497C157.547 75.9551 156.003 77.4997 154.097 77.4997H149.908C148.003 77.4997 146.458 75.9551 146.458 74.0497V60.0034Z" fill="url(#paint2_linear)"/>
<path d="M189.315 75.4984C188.636 75.7949 188.018 76.0728 187.462 76.3323C186.919 76.5917 186.202 76.8635 185.313 77.1476C184.559 77.3823 183.738 77.58 182.848 77.7406C181.971 77.9135 181.001 78 179.939 78C177.938 78 176.116 77.722 174.473 77.1661C172.842 76.5979 171.421 75.7146 170.211 74.5163C169.025 73.3427 168.098 71.8542 167.431 70.0506C166.764 68.2346 166.431 66.1284 166.431 63.7318C166.431 61.4588 166.752 59.4266 167.394 57.6354C168.036 55.8441 168.963 54.3309 170.174 53.0955C171.347 51.8972 172.762 50.9831 174.417 50.3531C176.085 49.723 177.932 49.408 179.958 49.408C181.44 49.408 182.916 49.5871 184.386 49.9454C185.869 50.3036 187.512 50.9337 189.315 51.8355V56.19H189.037C187.518 54.9176 186.011 53.9911 184.516 53.4105C183.021 52.8299 181.421 52.5396 179.717 52.5396C178.321 52.5396 177.061 52.7681 175.936 53.2252C174.825 53.6699 173.83 54.3679 172.953 55.3191C172.101 56.2456 171.434 57.4192 170.952 58.8398C170.482 60.2481 170.248 61.8788 170.248 63.7318C170.248 65.6713 170.507 67.339 171.026 68.7349C171.557 70.1309 172.237 71.2674 173.064 72.1445C173.929 73.0586 174.936 73.738 176.085 74.1828C177.246 74.6151 178.469 74.8313 179.754 74.8313C181.52 74.8313 183.176 74.5287 184.72 73.9233C186.264 73.318 187.709 72.4101 189.056 71.1994H189.315V75.4984Z" fill="white"/>
<path d="M210.659 57.5175C211.578 58.5282 212.281 59.7663 212.766 61.2319C213.261 62.6975 213.509 64.3601 213.509 66.2199C213.509 68.0796 213.256 69.7473 212.751 71.223C212.255 72.6886 211.558 73.9116 210.659 74.892C209.729 75.9128 208.627 76.681 207.353 77.1964C206.09 77.7119 204.645 77.9697 203.017 77.9697C201.431 77.9697 199.985 77.7069 198.681 77.1813C197.388 76.6557 196.286 75.8926 195.376 74.892C194.467 73.8913 193.764 72.6633 193.269 71.2078C192.784 69.7524 192.541 68.0897 192.541 66.2199C192.541 64.3803 192.784 62.7329 193.269 61.2774C193.754 59.8118 194.462 58.5585 195.391 57.5175C196.281 56.5269 197.383 55.7689 198.697 55.2433C200.021 54.7177 201.461 54.4549 203.017 54.4549C204.635 54.4549 206.085 54.7228 207.369 55.2585C208.662 55.7841 209.759 56.5371 210.659 57.5175ZM210.386 66.2199C210.386 63.2888 209.729 61.0298 208.415 59.4429C207.101 57.846 205.307 57.0475 203.033 57.0475C200.738 57.0475 198.934 57.846 197.62 59.4429C196.316 61.0298 195.664 63.2888 195.664 66.2199C195.664 69.1813 196.331 71.4504 197.666 73.0272C199 74.5938 200.789 75.3771 203.033 75.3771C205.276 75.3771 207.06 74.5938 208.384 73.0272C209.719 71.4504 210.386 69.1813 210.386 66.2199Z" fill="white"/>
<path d="M237.342 66.235C237.342 68.2868 236.892 70.1466 235.993 71.8143C235.103 73.482 233.916 74.7757 232.43 75.6955C231.399 76.3323 230.247 76.7921 228.973 77.0752C227.71 77.3582 226.042 77.4997 223.97 77.4997H218.269V54.9249H223.909C226.113 54.9249 227.861 55.0867 229.155 55.4101C230.459 55.7234 231.56 56.158 232.46 56.7139C233.996 57.6741 235.194 58.9527 236.053 60.5497C236.912 62.1466 237.342 64.0417 237.342 66.235ZM234.204 66.1896C234.204 64.4208 233.895 62.9299 233.279 61.7171C232.662 60.5042 231.742 59.549 230.519 58.8516C229.63 58.3463 228.685 57.9976 227.684 57.8055C226.684 57.6034 225.486 57.5023 224.091 57.5023H221.271V74.9223H224.091C225.537 74.9223 226.795 74.8162 227.866 74.6039C228.948 74.3917 229.938 73.9975 230.838 73.4214C231.96 72.7037 232.799 71.7587 233.355 70.5862C233.921 69.4138 234.204 67.9482 234.204 66.1896Z" fill="white"/>
<path d="M257.066 77.4997H242.193V54.9249H257.066V57.5933H245.195V63.779H257.066V66.4473H245.195V74.8313H257.066V77.4997Z" fill="white"/>
<path d="M276.26 57.5933H264.844V63.9609H274.653V66.6292H264.844V77.4997H261.842V54.9249H276.26V57.5933Z" fill="white"/>
<path d="M296.53 57.5175C297.45 58.5282 298.153 59.7663 298.638 61.2319C299.133 62.6975 299.381 64.3601 299.381 66.2199C299.381 68.0796 299.128 69.7473 298.623 71.223C298.127 72.6886 297.43 73.9116 296.53 74.892C295.601 75.9128 294.499 76.681 293.225 77.1964C291.962 77.7119 290.517 77.9697 288.889 77.9697C287.302 77.9697 285.857 77.7069 284.553 77.1813C283.259 76.6557 282.158 75.8926 281.248 74.892C280.338 73.8913 279.636 72.6633 279.141 71.2078C278.656 69.7524 278.413 68.0897 278.413 66.2199C278.413 64.3803 278.656 62.7329 279.141 61.2774C279.626 59.8118 280.333 58.5585 281.263 57.5175C282.153 56.5269 283.254 55.7689 284.568 55.2433C285.892 54.7177 287.333 54.4549 288.889 54.4549C290.506 54.4549 291.957 54.7228 293.24 55.2585C294.534 55.7841 295.631 56.5371 296.53 57.5175ZM296.258 66.2199C296.258 63.2888 295.601 61.0298 294.287 59.4429C292.973 57.846 291.179 57.0475 288.904 57.0475C286.61 57.0475 284.806 57.846 283.492 59.4429C282.188 61.0298 281.536 63.2888 281.536 66.2199C281.536 69.1813 282.203 71.4504 283.537 73.0272C284.872 74.5938 286.661 75.3771 288.904 75.3771C291.148 75.3771 292.932 74.5938 294.256 73.0272C295.59 71.4504 296.258 69.1813 296.258 66.2199Z" fill="white"/>
<path d="M322.82 77.4997H318.923L311.373 68.5244H307.143V77.4997H304.141V54.9249H310.463C311.828 54.9249 312.965 55.0159 313.875 55.1978C314.784 55.3697 315.603 55.683 316.331 56.1378C317.149 56.6533 317.786 57.3052 318.241 58.0936C318.706 58.8719 318.938 59.8624 318.938 61.0651C318.938 62.6924 318.529 64.0569 317.71 65.1586C316.892 66.2502 315.765 67.0739 314.329 67.6299L322.82 77.4997ZM315.8 61.2774C315.8 60.6305 315.684 60.0595 315.451 59.5642C315.229 59.0588 314.855 58.6343 314.329 58.2907C313.895 57.9976 313.379 57.7954 312.783 57.6842C312.187 57.563 311.484 57.5023 310.676 57.5023H307.143V66.0228H310.175C311.125 66.0228 311.954 65.9419 312.662 65.7802C313.369 65.6084 313.971 65.2951 314.466 64.8402C314.921 64.4157 315.254 63.9306 315.466 63.3848C315.689 62.8289 315.8 62.1264 315.8 61.2774Z" fill="white"/>
<path d="M343.166 75.8623C342.61 76.1048 342.104 76.3323 341.65 76.5445C341.205 76.7568 340.619 76.9791 339.891 77.2116C339.274 77.4036 338.602 77.5654 337.874 77.6968C337.157 77.8383 336.363 77.909 335.494 77.909C333.857 77.909 332.366 77.6816 331.022 77.2268C329.688 76.7618 328.525 76.0392 327.535 75.0587C326.564 74.0985 325.806 72.8806 325.26 71.4049C324.715 69.9192 324.442 68.1959 324.442 66.235C324.442 64.3753 324.705 62.7126 325.23 61.2471C325.756 59.7815 326.514 58.5434 327.504 57.5326C328.465 56.5522 329.622 55.8043 330.976 55.2888C332.341 54.7733 333.852 54.5156 335.509 54.5156C336.722 54.5156 337.93 54.6621 339.133 54.9553C340.346 55.2484 341.69 55.7638 343.166 56.5017V60.0645H342.938C341.695 59.0235 340.462 58.2654 339.239 57.7904C338.016 57.3153 336.707 57.0778 335.312 57.0778C334.17 57.0778 333.139 57.2648 332.219 57.6388C331.31 58.0026 330.496 58.5737 329.778 59.3519C329.081 60.11 328.535 61.0702 328.141 62.2325C327.757 63.3848 327.565 64.7189 327.565 66.235C327.565 67.8219 327.777 69.1864 328.202 70.3285C328.636 71.4706 329.192 72.4005 329.869 73.1181C330.577 73.8661 331.401 74.422 332.341 74.7858C333.291 75.1396 334.291 75.3165 335.343 75.3165C336.788 75.3165 338.142 75.0688 339.406 74.5736C340.669 74.0783 341.852 73.3354 342.953 72.3449H343.166V75.8623Z" fill="white"/>
<path d="M362.284 77.4997H347.411V54.9249H362.284V57.5933H350.413V63.779H362.284V66.4473H350.413V74.8313H362.284V77.4997Z" fill="white"/>
<path d="M383.464 71.0562C383.464 71.9356 383.256 72.8048 382.842 73.6639C382.438 74.5231 381.867 75.2508 381.129 75.8471C380.32 76.494 379.375 76.9993 378.294 77.3632C377.222 77.7271 375.929 77.909 374.412 77.909C372.785 77.909 371.32 77.7574 370.016 77.4542C368.722 77.151 367.403 76.7012 366.059 76.1048V72.3449H366.271C367.413 73.295 368.732 74.0278 370.228 74.5433C371.724 75.0587 373.129 75.3165 374.443 75.3165C376.303 75.3165 377.748 74.9678 378.779 74.2704C379.82 73.573 380.34 72.6431 380.34 71.4807C380.34 70.4801 380.093 69.7423 379.598 69.2672C379.112 68.7922 378.369 68.4233 377.369 68.1605C376.611 67.9583 375.787 67.7916 374.898 67.6602C374.018 67.5288 373.083 67.362 372.093 67.1599C370.092 66.7354 368.606 66.0127 367.635 64.9918C366.675 63.9609 366.195 62.6217 366.195 60.9742C366.195 59.0841 366.994 57.5377 368.591 56.3349C370.188 55.122 372.214 54.5156 374.67 54.5156C376.257 54.5156 377.712 54.6672 379.037 54.9704C380.361 55.2736 381.533 55.6476 382.554 56.0923V59.64H382.342C381.483 58.9123 380.35 58.3109 378.946 57.8358C377.551 57.3507 376.121 57.1081 374.655 57.1081C373.048 57.1081 371.754 57.4417 370.774 58.1087C369.803 58.7758 369.318 59.635 369.318 60.6861C369.318 61.6261 369.561 62.3639 370.046 62.8996C370.531 63.4353 371.385 63.8447 372.608 64.1277C373.255 64.2692 374.175 64.441 375.368 64.6431C376.56 64.8453 377.571 65.0525 378.4 65.2647C380.078 65.7095 381.341 66.3816 382.19 67.2811C383.039 68.1807 383.464 69.4391 383.464 71.0562Z" fill="white"/>
<defs>
<linearGradient id="paint0_linear" x1="116" y1="52.8571" x2="129.077" y2="76.3954" gradientUnits="userSpaceOnUse">
<stop stop-color="#FCD975"/>
<stop offset="1" stop-color="#F5C43B"/>
</linearGradient>
<linearGradient id="paint1_linear" x1="131.229" y1="43" x2="152.128" y2="69.8699" gradientUnits="userSpaceOnUse">
<stop stop-color="#1C99D4"/>
<stop offset="1" stop-color="#1580C5"/>
</linearGradient>
<linearGradient id="paint2_linear" x1="146.458" y1="56.5535" x2="156.568" y2="77.9622" gradientUnits="userSpaceOnUse">
<stop stop-color="#C21C24"/>
<stop offset="1" stop-color="#B01F26"/>
</linearGradient>
</defs>
</svg>
