<svg width="35" height="46" viewBox="0 0 35 46" fill="none" xmlns="http://www.w3.org/2000/svg">
<path d="M29.0203 30.6691C29.6798 30.9989 30.6691 31.2411 31.3287 31.6147C31.9882 31.9882 33.3073 32.9776 33.6371 33.3073C33.9669 33.6371 33.9669 33.6371 33.9669 33.9669C33.9669 34.2967 33.3073 34.9562 33.3073 34.9562L30.3394 37.5944L28.3607 38.9135C28.3607 38.9135 27.4158 39.552 27.384 39.552L27.4422 39.8738C27.7758 41.8367 27.1299 43.0925 26.5317 43.7942C25.6211 44.8653 24.1282 45.4774 22.4288 45.4774C20.8035 45.4774 19.1994 44.9128 18.1459 43.9736C17.8812 43.7415 17.6588 43.4882 17.4682 43.2244C17.2829 43.4829 17.0553 43.7362 16.7906 43.9736C15.7318 44.9128 14.133 45.4774 12.5077 45.4774C10.8083 45.4774 9.31537 44.8653 8.40479 43.7942C7.84892 43.1452 7.26128 41.6045 7.43069 39.895C7.44657 39.7525 2.62898 37.2409 1.11487 36.2859C-0.854515 35.0459 0.220178 33.5633 1.04076 32.9565C2.66074 31.7587 8.24068 29.073 8.24068 29.073V26.9466L8.23538 26.7936C6.73187 25.2635 6.1707 23.3376 5.72071 21.7863C5.49836 21.0371 5.29718 20.33 5.03248 19.8657L4.89483 19.4647C4.63013 17.5705 3.98425 15.8767 3.29603 14.088L3.27078 14.0222C2.93436 13.1454 2.58455 12.2336 2.29016 11.2968L2.26369 11.2124C1.85604 9.40784 2.05722 7.60859 2.86721 5.85154L2.97838 5.66159C3.02603 5.593 3.06838 5.52968 3.11603 5.46636L3.11685 5.46521C3.76787 4.5526 4.57293 3.42405 7.04422 2.61182L7.31951 2.55906C8.43656 2.47991 9.71243 1.90478 10.9459 1.34549C12.0948 0.82312 13.18 0.332414 14.2441 0.179398C15.0912 0.0580405 15.9435 0 16.8647 0C19.03 0 21.1317 0.332414 23.0746 0.69121L23.154 0.707039C23.3817 0.76508 23.6517 0.82312 23.964 0.886437C24.7211 1.04473 25.6634 1.24523 26.7117 1.61986C30.2004 2.84399 32.8686 5.32918 34.8645 9.22317L34.9863 9.66111C35.1769 12.6528 33.3504 15.1961 31.5822 17.6549C30.5551 19.0795 29.5016 20.5516 28.7869 22.1346C28.7075 22.5092 28.6281 22.8838 28.554 23.2531C27.9716 26.0919 27.6011 27.7012 26.6269 28.3291V30.2813C26.7646 30.2338 26.8916 30.2022 27.0028 30.1916C27.1299 30.1652 27.2622 30.1547 27.3946 30.1547C27.4793 30.1547 28.3607 30.3394 29.0203 30.6691Z" fill="white"/>
<path d="M28.88 32.0726C30.0446 32.4525 31.0029 32.9906 31.7493 33.6871C31.9135 33.8032 31.9929 33.9351 31.9929 34.0881C31.9929 34.3361 31.8076 34.5736 31.4317 34.8057C30.9923 35.0801 30.3358 35.5655 29.4676 36.262C28.6629 36.9005 28.0117 37.3648 27.5194 37.6603C27.4241 37.7078 27.3288 37.7341 27.2335 37.7341C27.0906 37.7341 26.9635 37.6814 26.8629 37.5864C26.757 37.4862 26.7041 37.3701 26.7041 37.2382C26.7041 37.1221 26.7465 37.0218 26.8312 36.9216C26.9476 36.7316 27.2123 36.5206 27.6359 36.2937C27.9111 36.1512 28.2553 35.9191 28.6682 35.5919C29.1658 35.1909 29.5099 34.9271 29.7005 34.8057C30.1188 34.5947 30.3305 34.4469 30.3305 34.3625C30.3305 34.3414 30.3252 34.3256 30.3146 34.3045C30.087 33.9035 29.7058 33.6027 29.1817 33.4022C28.7158 33.2703 28.2394 33.1331 27.7629 32.9854C27.2017 32.8165 26.7835 32.5738 26.5135 32.2572C26.4923 32.2308 26.487 32.1939 26.487 32.157C26.487 32.0409 26.5559 31.9143 26.6882 31.7771C26.8206 31.6399 26.9529 31.5713 27.0747 31.5713C27.1488 31.5502 27.2282 31.5449 27.3023 31.5449C27.5247 31.5449 27.7947 31.6135 28.1176 31.7454C28.3664 31.8509 28.6205 31.9565 28.88 32.0726ZM6.51256 31.603C6.72962 31.603 6.90962 31.661 7.05256 31.7771C7.1902 31.8932 7.25902 32.0251 7.25902 32.1781C7.25902 32.2942 7.21667 32.3944 7.13197 32.4788C6.81432 32.8218 6.16845 33.1912 5.18375 33.5816C4.27318 33.9457 3.66436 34.3625 3.34672 34.8374C3.88142 35.1593 4.58553 35.5128 5.45375 35.8927C6.84079 36.51 7.55549 36.8319 7.60314 36.853C7.78314 36.9374 7.87313 37.0746 7.87313 37.2698C7.89431 37.5073 7.79902 37.7078 7.59255 37.8766C7.38608 38.0455 7.14785 38.1246 6.88315 38.1246C6.77727 38.1246 6.67668 38.1035 6.58139 38.0666C6.46492 37.9505 6.31139 37.8186 6.11021 37.6656C4.85023 36.9796 3.50024 36.3253 2.06555 35.708C1.92261 35.65 1.77967 35.5972 1.63674 35.5497C1.45674 35.4653 1.35086 35.3387 1.31909 35.1804C1.31909 34.7688 1.49909 34.3889 1.86438 34.0354C2.30379 33.6819 3.02907 33.2809 4.04553 32.8218C5.03023 32.3839 5.73963 31.9776 6.18433 31.6082C6.18433 31.603 6.29021 31.603 6.51256 31.603Z" fill="#5B4538"/>
<path d="M15.5072 31.5818C15.269 31.2389 15.0466 30.9962 14.8455 30.8537C14.6443 30.7112 14.4114 30.6426 14.1414 30.6426C14.0461 30.6426 13.9614 30.6585 13.8925 30.6849L12.3043 31.2336C12.2143 31.2653 12.1084 31.2758 11.992 31.2758C11.7802 31.2758 11.6108 31.2283 11.4837 31.1281C11.3514 31.0331 11.1926 30.8379 11.0073 30.5477L10.5679 30.8379C10.8432 31.2336 11.0814 31.4974 11.272 31.6241C11.4679 31.756 11.7114 31.8193 12.0131 31.8193C12.1455 31.8193 12.2779 31.7982 12.4049 31.7612L13.8608 31.2336C13.9561 31.1967 14.0619 31.1756 14.1731 31.1756C14.3584 31.1756 14.5119 31.2125 14.6231 31.2916C14.7343 31.3655 14.8931 31.5396 15.0943 31.814L15.5072 31.5818Z" fill="#5B4538"/>
<path fill-rule="evenodd" clip-rule="evenodd" d="M26.2383 40.3249C27.0377 45.0842 21.1984 45.5432 18.8002 43.4063C17.1431 41.9289 17.609 39.8764 19.986 40.003C22.0772 40.1138 23.3107 42.8048 26.2383 40.3249Z" fill="#5B4538"/>
<path fill-rule="evenodd" clip-rule="evenodd" d="M8.50327 40.3249C7.70387 45.0842 13.5432 45.5432 15.9414 43.4063C17.5985 41.9289 17.1326 39.8764 14.7556 40.003C12.6644 40.1138 11.4309 42.8048 8.50327 40.3249Z" fill="#5B4538"/>
<path d="M14.2367 33.418C13.972 33.2334 13.6438 33.1384 13.252 33.1384C12.7809 33.1384 12.3997 33.2809 12.1032 33.5605C11.7591 33.8718 11.6268 34.315 11.7062 34.8954C11.7538 35.365 11.9232 35.7766 12.2091 36.1354C12.5003 36.4942 12.8497 36.6736 13.252 36.6736C13.5009 36.6736 13.7603 36.605 14.025 36.4625C14.4961 36.1829 14.7291 35.6447 14.7291 34.848C14.7291 34.1304 14.565 33.6555 14.2367 33.418ZM13.2309 35.3123C12.9556 35.3123 12.7279 35.0907 12.7279 34.811C12.7279 34.5366 12.9503 34.3098 13.2309 34.3098C13.5062 34.3098 13.7338 34.5314 13.7338 34.811C13.7338 35.0907 13.5062 35.3123 13.2309 35.3123Z" fill="#5B4538"/>
<path d="M17.7307 39.5967C17.879 39.5967 18.0219 39.5703 18.1543 39.5176C18.2866 39.4648 18.4084 39.4015 18.5196 39.3171C18.6307 39.2326 18.7313 39.1377 18.8213 39.0374C18.9113 38.9319 18.9907 38.8316 19.0543 38.7208C19.1231 38.6153 19.176 38.5151 19.2184 38.4148C19.2607 38.3198 19.2925 38.2407 19.3084 38.1721C19.3031 38.1615 19.2978 38.1457 19.2872 38.1246C19.2766 38.1088 19.266 38.0929 19.2607 38.0771C19.2501 38.0666 19.2395 38.0613 19.2343 38.0613C19.1072 38.2934 18.9696 38.4834 18.8107 38.6311C18.6519 38.7789 18.4772 38.8844 18.2919 38.953C18.1013 39.0216 17.8949 39.0532 17.6778 39.0532C17.4872 39.0532 17.3178 39.0269 17.1696 38.9794C17.016 38.9319 16.8837 38.858 16.7619 38.7683C16.6402 38.6733 16.5343 38.5625 16.4337 38.4359C16.3384 38.3093 16.2484 38.1615 16.169 38.0032C16.1637 38.0032 16.1584 38.0085 16.1478 38.0191C16.1372 38.0296 16.1266 38.0455 16.1214 38.0613C16.1108 38.0771 16.1108 38.0877 16.1055 38.0982C16.1796 38.304 16.2696 38.4939 16.3808 38.6786C16.4866 38.858 16.6084 39.0163 16.746 39.1535C16.8837 39.2907 17.0319 39.4015 17.2013 39.4806C17.3602 39.5492 17.5402 39.5914 17.7307 39.5967Z" fill="#5B4538"/>
<path d="M22.3842 33.3864C22.1195 33.2017 21.7913 33.1067 21.3995 33.1067C20.9283 33.1067 20.5472 33.2492 20.2507 33.5288C19.9066 33.8401 19.7742 34.2886 19.8536 34.8638C19.9013 35.3334 20.0707 35.7449 20.3566 36.1037C20.6477 36.4625 20.9972 36.6419 21.3995 36.6419C21.6483 36.6419 21.9077 36.5733 22.1724 36.4309C22.6436 36.1512 22.8765 35.613 22.8765 34.8163C22.8818 34.0934 22.7177 33.6185 22.3842 33.3864ZM21.2301 35.3703C20.9548 35.3703 20.7272 35.1434 20.7272 34.869C20.7272 34.5947 20.9495 34.3678 21.2301 34.3678C21.5054 34.3678 21.733 34.5894 21.733 34.869C21.733 35.1487 21.5054 35.3703 21.2301 35.3703Z" fill="#5B4538"/>
<path d="M25.836 27.709C26.6512 27.3554 27.0695 24.6117 27.6201 22.0579C29.6053 17.536 34.0365 14.2066 33.7717 10.0013C30.1347 2.90455 25.0418 2.65128 22.8607 2.0867C20.0337 1.56434 17.2119 1.17916 14.3902 1.58544C12.3838 1.88092 9.78437 3.80681 7.38087 3.97038C5.08854 4.72491 4.51678 5.72743 3.8762 6.60859C3.1615 8.15985 2.99739 9.70584 3.34679 11.2571C4.22561 14.0431 5.57559 16.5757 5.99382 19.6097C6.92028 21.2401 6.98381 24.3215 9.10144 26.3899C15.5814 23.3137 20.8754 25.6986 25.836 27.709Z" fill="url(#paint0_linear_239:2278)"/>
<path d="M25.7566 27.7406L25.1477 27.4926C20.2825 25.514 15.2479 23.4614 9.04322 26.411L9.00616 26.4268L8.97969 26.4004C7.59794 25.0496 7.08971 23.3032 6.64501 21.7572C6.40678 20.9446 6.18443 20.1795 5.86149 19.6044L5.85619 19.5833C5.57561 17.5677 4.87679 15.7368 4.19915 13.9692C3.86033 13.0827 3.50563 12.1647 3.21446 11.236C2.85976 9.66363 3.03975 8.08599 3.74386 6.55055C3.79681 6.47668 3.84445 6.40809 3.8921 6.33949C4.47974 5.51637 5.1415 4.58245 7.2803 3.88069C8.60381 3.78571 9.96968 3.16837 11.2879 2.57214C12.3679 2.08143 13.3896 1.62238 14.3002 1.49047C16.9843 1.10529 19.6313 1.41133 22.7813 1.99173C23.0354 2.05505 23.316 2.11836 23.6389 2.18696C26.0371 2.69349 30.5 3.62742 33.7294 9.93801L33.7347 9.95911C33.8988 12.5762 32.263 14.8556 30.5265 17.2669C29.4518 18.7654 28.3348 20.3167 27.5777 22.0421C27.493 22.4431 27.4083 22.8599 27.3236 23.2715C26.8683 25.4929 26.4766 27.4135 25.7619 27.7248L25.7566 27.7406ZM15.359 24.8228C18.8849 24.8228 22.0719 26.1208 25.1954 27.3924L25.7566 27.6193C26.4024 27.3027 26.8048 25.3346 27.2336 23.2557C27.3183 22.8441 27.403 22.4273 27.493 22.0157C28.2607 20.2692 29.3777 18.7127 30.4577 17.2089C32.1783 14.8134 33.8035 12.5551 33.6447 9.98022C30.4312 3.73295 26.1748 2.84123 23.6284 2.30304C23.3001 2.23445 23.0195 2.17641 22.7654 2.10781C19.6313 1.53268 16.9896 1.22665 14.3214 1.61183C13.4267 1.74374 12.4155 2.20279 11.3408 2.68294C10.012 3.28445 8.64087 3.90179 7.30677 3.99677C5.21561 4.68798 4.56444 5.6008 3.98739 6.41336C3.93975 6.48196 3.8921 6.54527 3.84445 6.61387C3.15093 8.11764 2.97623 9.67419 3.32563 11.2149C3.61681 12.1383 3.96622 13.0511 4.31033 13.9375C4.98797 15.7051 5.69208 17.536 5.97266 19.5622C6.3009 20.1426 6.52325 20.9129 6.76148 21.7255C7.20089 23.2451 7.70382 24.9652 9.04322 26.2949C11.2826 25.2343 13.3738 24.8228 15.359 24.8228Z" fill="#C8BCA8"/>
<path fill-rule="evenodd" clip-rule="evenodd" d="M9.28692 28.1838C11.6216 26.9492 17.4662 23.8941 25.2909 29.2497C25.5132 27.9939 25.5344 26.7381 25.3597 25.4823C25.1373 22.5117 13.4586 18.8762 9.22339 25.419L9.28692 28.1838Z" fill="url(#paint1_linear_239:2278)"/>
<path d="M25.312 29.2919L25.2802 29.2708C21.9291 26.9755 18.5515 25.9677 15.2321 26.2685C12.4898 26.5165 10.4145 27.614 9.29744 28.2049L9.26568 28.2208V28.1838L9.20215 25.4137L9.20744 25.4084C10.351 23.6461 12.0821 22.4959 14.3639 21.9999C16.2327 21.5883 18.4138 21.6569 20.505 22.1898C23.2896 22.8969 25.2961 24.2529 25.3861 25.4823C25.5608 26.7328 25.5396 28.0044 25.3173 29.255L25.312 29.2919ZM16.3809 26.1682C19.3244 26.1682 22.3102 27.1866 25.2749 29.2127C25.4867 27.9781 25.5079 26.7223 25.3331 25.4876C25.2431 24.2951 23.2049 22.9233 20.4838 22.232C18.4032 21.7044 16.2274 21.6358 14.3639 22.0421C12.098 22.5381 10.3721 23.6778 9.23921 25.4243L9.30274 28.1416C10.4304 27.5454 12.4951 26.4637 15.2215 26.2157C15.6133 26.1841 15.9997 26.1682 16.3809 26.1682Z" fill="#C8BCA8"/>
<path fill-rule="evenodd" clip-rule="evenodd" d="M5.99926 6.13898C5.63926 7.94879 7.24866 13.6631 6.70866 16.6601C6.43337 15.0878 5.4275 11.9694 5.46985 10.2124C4.9828 9.15709 4.49575 7.8802 3.96105 7.38949C3.47929 6.95155 5.0675 4.33972 5.99926 6.13898Z" fill="url(#paint2_linear_239:2278)"/>
<path d="M9.66803 24.5326C9.66273 24.5273 9.66273 24.5273 9.66273 24.522C7.54511 22.0526 6.67159 17.7999 5.93572 14.2172C5.35337 11.3732 4.85573 8.94603 3.89221 8.18095L3.88692 8.17568C3.76515 8.01739 3.69633 7.83271 3.66986 7.63748C3.62221 7.29979 3.70692 6.93044 3.88162 6.58748C4.05103 6.24451 4.31044 5.93848 4.6175 5.72742C4.82926 5.57968 5.06749 5.48471 5.31102 5.45305L5.31631 5.50054C5.07808 5.52692 4.85044 5.62717 4.64397 5.76436C4.41632 6.07567 4.24691 6.27617 4.0775 6.60858C3.60633 7.54778 4.58573 7.5003 4.9722 8.01211C5.94631 8.79302 6.02572 11.3521 6.61336 14.2066C7.34923 17.784 7.58746 22.0315 9.6945 24.4903C9.69979 24.4956 9.69979 24.4956 9.69979 24.5009L9.66803 24.5326Z" fill="#A99675"/>
<path fill-rule="evenodd" clip-rule="evenodd" d="M9.58854 5.40029C9.22855 7.2101 10.1497 11.3626 9.61501 14.3649C9.33972 12.7925 8.33385 9.67419 8.3762 7.91714C7.88915 6.86186 7.3068 5.65884 6.96269 5.03622C6.65034 4.47692 8.25973 3.7224 9.58854 5.40029Z" fill="url(#paint3_linear_239:2278)"/>
<path d="M8.88446 4.76712C8.42388 4.45581 8.23858 4.47164 7.84153 4.52441C7.67741 4.54551 7.53977 4.59828 7.43389 4.67215C7.32801 4.74602 7.25918 4.85154 7.23801 4.97818C7.21683 5.16813 7.08977 5.19979 7.26448 5.54803C8.43976 7.13623 9.33445 9.76916 9.58328 12.5709C9.89562 16.122 9.48269 20.0582 11.8438 22.8441L11.8068 22.8758C9.43504 20.074 9.08563 16.1325 8.77328 12.5762C8.52446 9.77971 8.29682 7.22065 7.13213 5.64301C6.8886 5.31587 6.81448 5.04677 6.85154 4.83572C6.87801 4.69325 6.95213 4.58245 7.0686 4.49803C7.17977 4.4136 7.32801 4.36084 7.50271 4.33973C7.91035 4.28697 8.44505 4.40833 8.91622 4.73019L8.88446 4.76712Z" fill="#A99675"/>
<path d="M15.3644 2.22389C16.455 4.03897 14.4486 12.2069 14.0939 17.3408C14.0621 17.7735 10.2186 0.398247 15.3644 2.22389Z" fill="url(#paint4_linear_239:2278)"/>
<path d="M14.9039 21.8732C13.6598 18.6441 12.3257 13.0405 12.1192 8.6189C12.0398 6.87768 12.1298 5.31587 12.4739 4.15506C12.818 2.98897 13.4162 2.22917 14.3427 2.09198C14.6445 2.04449 14.9833 2.07087 15.3592 2.16585L15.3433 2.21334C14.9727 2.11836 14.6286 2.19751 14.3321 2.24499C13.5592 2.41912 13.6492 2.90455 13.141 3.99676C12.8021 5.1523 12.6115 6.5822 12.7651 8.32342C13.4268 12.6342 14.2368 18.5122 14.9409 21.8574L14.9039 21.8732Z" fill="#B5A584"/>
<path d="M18.5251 21.5936C18.4774 21.2454 18.4298 20.8866 18.3768 20.5225C17.5668 14.7079 16.5768 7.59528 20.0498 2.48243L20.0921 2.50882C18.668 6.292 18.4774 13.4943 18.308 15.8212C18.2339 16.8237 18.3504 18.9765 18.4298 20.5119C18.4774 20.8707 18.5304 21.2295 18.578 21.583L18.5251 21.5936Z" fill="#CABB9C"/>
<path d="M22.2944 22.3428C22.4161 19.33 22.7391 15.8054 23.0303 12.7503C23.7608 8.89855 25.7249 7.07819 26.2385 3.1842L26.249 3.13671C24.3749 6.1812 23.332 9.47368 22.7867 12.7609C22.2467 16.0481 22.2044 19.33 22.3473 22.3428H22.2944Z" fill="url(#paint5_linear_239:2278)"/>
<path d="M31.379 7.75884C29.8173 12.592 27.9432 17.3144 26.0532 22.0949C26.1062 15.7684 29.5102 8.1493 31.379 7.75884Z" fill="url(#paint6_linear_239:2278)"/>
<path d="M25.1584 24.2265C25.9843 23.3665 26.0426 22.0474 26.1167 20.5172C26.1802 19.1031 26.2543 17.5097 26.9478 15.932C26.9637 15.874 26.9955 15.7737 27.0325 15.6365C27.4931 14.0378 29.3355 7.6111 31.4848 7.72718L31.4796 7.77467C29.7907 7.71136 27.6467 14.0694 27.1384 15.6576C27.1014 15.7895 27.0908 15.874 27.0696 15.9373V15.9426C26.4661 17.5097 26.429 19.1084 26.2278 20.5172C26.159 22.0526 26.0267 23.3823 25.1902 24.2529L25.1584 24.2265Z" fill="#A99675"/>
<defs>
<linearGradient id="paint0_linear_239:2278" x1="3.16971" y1="14.5615" x2="33.7818" y2="14.5615" gradientUnits="userSpaceOnUse">
<stop offset="0.0397" stop-color="#F9F9EC"/>
<stop offset="0.4183" stop-color="#F9F9EC"/>
<stop offset="0.4932" stop-color="#F3F1E2"/>
<stop offset="0.6217" stop-color="#E4DDC6"/>
<stop offset="0.7873" stop-color="#CCBC9A"/>
<stop offset="0.7969" stop-color="#CABA97"/>
<stop offset="1" stop-color="#BAA685"/>
</linearGradient>
<linearGradient id="paint1_linear_239:2278" x1="9.22286" y1="25.5043" x2="25.478" y2="25.5043" gradientUnits="userSpaceOnUse">
<stop stop-color="#F9F9EC"/>
<stop offset="0.0526" stop-color="#F9F9EC"/>
<stop offset="0.3844" stop-color="#F9F9EC"/>
<stop offset="0.5145" stop-color="#F5F4E5"/>
<stop offset="0.7094" stop-color="#EAE5D0"/>
<stop offset="0.9441" stop-color="#D9CCAF"/>
<stop offset="0.9987" stop-color="#D4C6A6"/>
</linearGradient>
<linearGradient id="paint2_linear_239:2278" x1="3.87211" y1="11.0902" x2="6.821" y2="11.0902" gradientUnits="userSpaceOnUse">
<stop stop-color="#E8DBCA"/>
<stop offset="1" stop-color="#F2ECDE"/>
</linearGradient>
<linearGradient id="paint3_linear_239:2278" x1="8.23432" y1="7.89773" x2="9.84579" y2="10.2572" gradientUnits="userSpaceOnUse">
<stop stop-color="#ECE1D1"/>
<stop offset="0.4318" stop-color="#EEE6D9"/>
<stop offset="1" stop-color="#EFE9DE"/>
</linearGradient>
<linearGradient id="paint4_linear_239:2278" x1="12.6848" y1="9.72014" x2="15.6834" y2="9.72014" gradientUnits="userSpaceOnUse">
<stop stop-color="#ECE1D1"/>
<stop offset="1" stop-color="#EDE4D5"/>
</linearGradient>
<linearGradient id="paint5_linear_239:2278" x1="24.2872" y1="9.5198" x2="24.2101" y2="13.4709" gradientUnits="userSpaceOnUse">
<stop stop-color="#BAA68A"/>
<stop offset="1" stop-color="#C7BAA0"/>
</linearGradient>
<linearGradient id="paint6_linear_239:2278" x1="26.0544" y1="14.9269" x2="31.3784" y2="14.9269" gradientUnits="userSpaceOnUse">
<stop stop-color="#BDAE99"/>
<stop offset="0.2551" stop-color="#BFB19C"/>
<stop offset="1" stop-color="#C2B5A1"/>
</linearGradient>
</defs>
</svg>
