<svg width="700" height="400" viewBox="0 0 700 400" fill="none" xmlns="http://www.w3.org/2000/svg">
<rect width="700" height="400" rx="15" fill="#222432"/>
<path d="M41.2751 45.19V44.245H43.8251V55H42.7601V45.19H41.2751ZM39.473 84.175C41.313 82.795 42.733 81.56 43.733 80.47C44.743 79.37 45.248 78.295 45.248 77.245C45.248 76.555 45.073 76.005 44.723 75.595C44.383 75.175 43.823 74.965 43.043 74.965C42.283 74.965 41.693 75.205 41.273 75.685C40.863 76.155 40.633 76.785 40.583 77.575H39.563C39.623 76.465 39.963 75.605 40.583 74.995C41.213 74.375 42.033 74.065 43.043 74.065C44.013 74.065 44.798 74.34 45.398 74.89C45.998 75.43 46.298 76.2 46.298 77.2C46.298 78.41 45.793 79.585 44.783 80.725C43.783 81.855 42.548 82.96 41.078 84.04H46.628V84.925H39.473V84.175ZM39.5428 106.99C39.6128 106.08 39.9628 105.365 40.5928 104.845C41.2328 104.315 42.0578 104.05 43.0678 104.05C43.7378 104.05 44.3128 104.17 44.7928 104.41C45.2728 104.65 45.6328 104.98 45.8728 105.4C46.1228 105.81 46.2478 106.275 46.2478 106.795C46.2478 107.425 46.0628 107.97 45.6928 108.43C45.3228 108.89 44.7978 109.175 44.1178 109.285V109.36C44.8278 109.5 45.3928 109.81 45.8128 110.29C46.2328 110.76 46.4428 111.38 46.4428 112.15C46.4428 113.01 46.1528 113.715 45.5728 114.265C45.0028 114.805 44.1728 115.075 43.0828 115.075C42.0428 115.075 41.1878 114.805 40.5178 114.265C39.8478 113.715 39.4628 112.94 39.3628 111.94H40.3828C40.4728 112.61 40.7528 113.155 41.2228 113.575C41.6928 113.985 42.3128 114.19 43.0828 114.19C43.8428 114.19 44.4228 113.99 44.8228 113.59C45.2328 113.19 45.4378 112.68 45.4378 112.06C45.4378 110.54 44.3428 109.78 42.1528 109.78H41.8228V108.895H42.1678C44.2078 108.895 45.2278 108.23 45.2278 106.9C45.2278 106.32 45.0378 105.855 44.6578 105.505C44.2778 105.145 43.7378 104.965 43.0378 104.965C42.3578 104.965 41.7928 105.145 41.3428 105.505C40.9028 105.855 40.6428 106.35 40.5628 106.99H39.5428ZM38.9104 142.45V141.655L44.3704 134.305H45.6154V141.535H47.2204V142.45H45.6154V145H44.5804V142.45H38.9104ZM44.6254 135.46L40.1254 141.535H44.6254V135.46ZM46.1261 165.145H40.6361V168.985C40.8861 168.635 41.2511 168.35 41.7311 168.13C42.2111 167.9 42.7311 167.785 43.2911 167.785C44.1111 167.785 44.7811 167.955 45.3011 168.295C45.8211 168.625 46.1961 169.06 46.4261 169.6C46.6561 170.13 46.7711 170.7 46.7711 171.31C46.7711 172.01 46.6361 172.645 46.3661 173.215C46.1061 173.775 45.7011 174.22 45.1511 174.55C44.6111 174.88 43.9361 175.045 43.1261 175.045C42.0961 175.045 41.2611 174.78 40.6211 174.25C39.9811 173.71 39.5911 172.985 39.4511 172.075H40.4861C40.6161 172.735 40.9161 173.245 41.3861 173.605C41.8561 173.965 42.4361 174.145 43.1261 174.145C43.9961 174.145 44.6511 173.89 45.0911 173.38C45.5411 172.86 45.7661 172.175 45.7661 171.325C45.7661 170.495 45.5411 169.85 45.0911 169.39C44.6411 168.92 43.9961 168.685 43.1561 168.685C42.5761 168.685 42.0661 168.82 41.6261 169.09C41.1861 169.36 40.8611 169.725 40.6511 170.185H39.6611V164.23H46.1261V165.145ZM45.4382 196.87C45.2182 195.57 44.4632 194.92 43.1732 194.92C42.1932 194.92 41.4582 195.3 40.9682 196.06C40.4782 196.82 40.2532 198.065 40.2932 199.795C40.4932 199.195 40.8732 198.725 41.4332 198.385C42.0032 198.035 42.6532 197.86 43.3832 197.86C44.4332 197.86 45.2632 198.185 45.8732 198.835C46.4932 199.475 46.8032 200.36 46.8032 201.49C46.8032 202.15 46.6732 202.75 46.4132 203.29C46.1632 203.82 45.7732 204.245 45.2432 204.565C44.7232 204.885 44.0732 205.045 43.2932 205.045C41.8032 205.045 40.7732 204.57 40.2032 203.62C39.6432 202.67 39.3632 201.325 39.3632 199.585C39.3632 195.885 40.6332 194.035 43.1732 194.035C44.1332 194.035 44.8882 194.3 45.4382 194.83C45.9882 195.35 46.3132 196.03 46.4132 196.87H45.4382ZM43.1882 198.76C42.7182 198.76 42.2732 198.855 41.8532 199.045C41.4332 199.235 41.0882 199.525 40.8182 199.915C40.5582 200.295 40.4282 200.765 40.4282 201.325C40.4282 202.135 40.6682 202.81 41.1482 203.35C41.6282 203.89 42.3282 204.16 43.2482 204.16C44.0182 204.16 44.6332 203.925 45.0932 203.455C45.5532 202.985 45.7832 202.345 45.7832 201.535C45.7832 200.665 45.5582 199.985 45.1082 199.495C44.6582 199.005 44.0182 198.76 43.1882 198.76ZM46.411 225.07L42.226 235H41.161L45.391 225.16H39.391V224.26H46.411V225.07ZM41.3798 259.42C40.7598 259.22 40.2848 258.905 39.9548 258.475C39.6348 258.045 39.4748 257.525 39.4748 256.915C39.4748 256.375 39.6098 255.895 39.8798 255.475C40.1598 255.045 40.5648 254.71 41.0948 254.47C41.6248 254.22 42.2598 254.095 42.9998 254.095C43.7398 254.095 44.3748 254.22 44.9048 254.47C45.4348 254.71 45.8348 255.045 46.1048 255.475C46.3848 255.895 46.5248 256.375 46.5248 256.915C46.5248 257.515 46.3598 258.035 46.0298 258.475C45.7098 258.915 45.2398 259.23 44.6198 259.42C45.2998 259.59 45.8348 259.915 46.2248 260.395C46.6148 260.875 46.8098 261.46 46.8098 262.15C46.8098 262.79 46.6498 263.35 46.3298 263.83C46.0198 264.3 45.5748 264.665 44.9948 264.925C44.4248 265.185 43.7598 265.315 42.9998 265.315C42.2398 265.315 41.5698 265.185 40.9898 264.925C40.4198 264.665 39.9748 264.3 39.6548 263.83C39.3448 263.35 39.1898 262.79 39.1898 262.15C39.1898 261.46 39.3848 260.875 39.7748 260.395C40.1648 259.915 40.6998 259.59 41.3798 259.42ZM45.5048 257.035C45.5048 256.375 45.2798 255.865 44.8298 255.505C44.3798 255.145 43.7698 254.965 42.9998 254.965C42.2298 254.965 41.6198 255.145 41.1698 255.505C40.7198 255.855 40.4948 256.365 40.4948 257.035C40.4948 257.655 40.7248 258.15 41.1848 258.52C41.6448 258.89 42.2498 259.075 42.9998 259.075C43.7498 259.075 44.3548 258.89 44.8148 258.52C45.2748 258.15 45.5048 257.655 45.5048 257.035ZM42.9998 259.885C42.1798 259.885 41.5098 260.07 40.9898 260.44C40.4698 260.81 40.2098 261.37 40.2098 262.12C40.2098 262.84 40.4598 263.405 40.9598 263.815C41.4598 264.225 42.1398 264.43 42.9998 264.43C43.8498 264.43 44.5248 264.225 45.0248 263.815C45.5248 263.395 45.7748 262.83 45.7748 262.12C45.7748 261.38 45.5148 260.825 44.9948 260.455C44.4848 260.075 43.8198 259.885 42.9998 259.885ZM40.6825 292.135C40.7925 292.785 41.0425 293.285 41.4325 293.635C41.8225 293.985 42.3575 294.16 43.0375 294.16C43.9775 294.16 44.6725 293.795 45.1225 293.065C45.5825 292.325 45.7925 291.105 45.7525 289.405C45.5625 289.955 45.1975 290.39 44.6575 290.71C44.1275 291.02 43.5175 291.175 42.8275 291.175C41.7775 291.175 40.9325 290.86 40.2925 290.23C39.6625 289.6 39.3475 288.725 39.3475 287.605C39.3475 286.935 39.4775 286.33 39.7375 285.79C39.9975 285.25 40.3925 284.825 40.9225 284.515C41.4525 284.205 42.1025 284.05 42.8725 284.05C44.2925 284.05 45.2825 284.515 45.8425 285.445C46.4025 286.365 46.6825 287.69 46.6825 289.42C46.6825 291.29 46.4025 292.695 45.8425 293.635C45.2925 294.575 44.3425 295.045 42.9925 295.045C42.0025 295.045 41.2325 294.78 40.6825 294.25C40.1325 293.71 39.8075 293.005 39.7075 292.135H40.6825ZM42.9925 290.275C43.4625 290.275 43.8925 290.18 44.2825 289.99C44.6825 289.79 45.0025 289.5 45.2425 289.12C45.4825 288.74 45.6025 288.285 45.6025 287.755C45.6025 286.935 45.3675 286.26 44.8975 285.73C44.4375 285.2 43.7725 284.935 42.9025 284.935C42.1325 284.935 41.5125 285.175 41.0425 285.655C40.5825 286.135 40.3525 286.775 40.3525 287.575C40.3525 288.415 40.5825 289.075 41.0425 289.555C41.5025 290.035 42.1525 290.275 42.9925 290.275ZM35.9035 315.19V314.245H38.4535V325H37.3885V315.19H35.9035ZM42.2934 319.525C42.2934 317.805 42.5584 316.47 43.0884 315.52C43.6184 314.57 44.5684 314.095 45.9384 314.095C47.3084 314.095 48.2584 314.57 48.7884 315.52C49.3184 316.47 49.5834 317.805 49.5834 319.525C49.5834 321.275 49.3184 322.63 48.7884 323.59C48.2584 324.55 47.3084 325.03 45.9384 325.03C44.5584 325.03 43.6034 324.55 43.0734 323.59C42.5534 322.63 42.2934 321.275 42.2934 319.525ZM48.5484 319.525C48.5484 318.595 48.4834 317.81 48.3534 317.17C48.2234 316.53 47.9684 316.015 47.5884 315.625C47.2084 315.235 46.6584 315.04 45.9384 315.04C45.2184 315.04 44.6684 315.235 44.2884 315.625C43.9084 316.015 43.6534 316.53 43.5234 317.17C43.3934 317.81 43.3284 318.595 43.3284 319.525C43.3284 320.485 43.3934 321.29 43.5234 321.94C43.6534 322.58 43.9084 323.095 44.2884 323.485C44.6684 323.875 45.2184 324.07 45.9384 324.07C46.6584 324.07 47.2084 323.875 47.5884 323.485C47.9684 323.095 48.2234 322.58 48.3534 321.94C48.4834 321.29 48.5484 320.485 48.5484 319.525ZM38.3351 345.19V344.245H40.8851V355H39.8201V345.19H38.3351ZM44.215 345.19V344.245H46.765V355H45.7V345.19H44.215Z" fill="#4A4E73"/>
<path d="M71.58 47.8L70.82 51.4H73.58V53H70.48L69.62 57H67.88L68.74 53H64.54L63.68 57H61.94L62.8 53H59.66V51.4H63.14L63.9 47.8H60.8V46.2H64.24L65.1 42.2H66.84L65.98 46.2H70.18L71.04 42.2H72.78L71.92 46.2H74.7V47.8H71.58ZM69.84 47.8H65.64L64.88 51.4H69.08L69.84 47.8ZM179.125 54.28L174.305 49.68L179.125 45.1H181.425L176.585 49.68L181.425 54.28H179.125ZM293.032 45.1H295.332L300.172 49.68L295.332 54.28H293.032L297.872 49.68L293.032 45.1ZM70.26 106.04V117H68.44V115.38C68.0933 115.94 67.6067 116.38 66.98 116.7C66.3667 117.007 65.6867 117.16 64.94 117.16C64.0867 117.16 63.32 116.987 62.64 116.64C61.96 116.28 61.42 115.747 61.02 115.04C60.6333 114.333 60.44 113.473 60.44 112.46V106.04H62.24V112.22C62.24 113.3 62.5133 114.133 63.06 114.72C63.6067 115.293 64.3533 115.58 65.3 115.58C66.2733 115.58 67.04 115.28 67.6 114.68C68.16 114.08 68.44 113.207 68.44 112.06V106.04H70.26ZM79.213 117.18C78.373 117.18 77.6196 117.04 76.953 116.76C76.2863 116.467 75.7596 116.067 75.373 115.56C74.9863 115.04 74.773 114.447 74.733 113.78H76.613C76.6663 114.327 76.9196 114.773 77.373 115.12C77.8396 115.467 78.4463 115.64 79.193 115.64C79.8863 115.64 80.433 115.487 80.833 115.18C81.233 114.873 81.433 114.487 81.433 114.02C81.433 113.54 81.2196 113.187 80.793 112.96C80.3663 112.72 79.7063 112.487 78.813 112.26C77.9996 112.047 77.333 111.833 76.813 111.62C76.3063 111.393 75.8663 111.067 75.493 110.64C75.133 110.2 74.953 109.627 74.953 108.92C74.953 108.36 75.1196 107.847 75.453 107.38C75.7863 106.913 76.2596 106.547 76.873 106.28C77.4863 106 78.1863 105.86 78.973 105.86C80.1863 105.86 81.1663 106.167 81.913 106.78C82.6596 107.393 83.0596 108.233 83.113 109.3H81.293C81.253 108.727 81.0196 108.267 80.593 107.92C80.1796 107.573 79.6196 107.4 78.913 107.4C78.2596 107.4 77.7396 107.54 77.353 107.82C76.9663 108.1 76.773 108.467 76.773 108.92C76.773 109.28 76.8863 109.58 77.113 109.82C77.353 110.047 77.6463 110.233 77.993 110.38C78.353 110.513 78.8463 110.667 79.473 110.84C80.2596 111.053 80.8996 111.267 81.393 111.48C81.8863 111.68 82.3063 111.987 82.653 112.4C83.013 112.813 83.1996 113.353 83.213 114.02C83.213 114.62 83.0463 115.16 82.713 115.64C82.3796 116.12 81.9063 116.5 81.293 116.78C80.693 117.047 79.9996 117.18 79.213 117.18ZM88.7222 104.26C88.3755 104.26 88.0822 104.14 87.8422 103.9C87.6022 103.66 87.4822 103.367 87.4822 103.02C87.4822 102.673 87.6022 102.38 87.8422 102.14C88.0822 101.9 88.3755 101.78 88.7222 101.78C89.0555 101.78 89.3355 101.9 89.5622 102.14C89.8022 102.38 89.9222 102.673 89.9222 103.02C89.9222 103.367 89.8022 103.66 89.5622 103.9C89.3355 104.14 89.0555 104.26 88.7222 104.26ZM89.6022 106.04V117H87.7822V106.04H89.6022ZM100.044 105.84C101.377 105.84 102.457 106.247 103.284 107.06C104.111 107.86 104.524 109.02 104.524 110.54V117H102.724V110.8C102.724 109.707 102.451 108.873 101.904 108.3C101.357 107.713 100.611 107.42 99.6641 107.42C98.7041 107.42 97.9374 107.72 97.3641 108.32C96.8041 108.92 96.5241 109.793 96.5241 110.94V117H94.7041V106.04H96.5241V107.6C96.8841 107.04 97.3707 106.607 97.9841 106.3C98.6107 105.993 99.2974 105.84 100.044 105.84ZM114.017 105.86C114.964 105.86 115.79 106.067 116.497 106.48C117.217 106.893 117.75 107.413 118.097 108.04V106.04H119.937V117.24C119.937 118.24 119.724 119.127 119.297 119.9C118.87 120.687 118.257 121.3 117.457 121.74C116.67 122.18 115.75 122.4 114.697 122.4C113.257 122.4 112.057 122.06 111.097 121.38C110.137 120.7 109.57 119.773 109.397 118.6H111.197C111.397 119.267 111.81 119.8 112.437 120.2C113.064 120.613 113.817 120.82 114.697 120.82C115.697 120.82 116.51 120.507 117.137 119.88C117.777 119.253 118.097 118.373 118.097 117.24V114.94C117.737 115.58 117.204 116.113 116.497 116.54C115.79 116.967 114.964 117.18 114.017 117.18C113.044 117.18 112.157 116.94 111.357 116.46C110.57 115.98 109.95 115.307 109.497 114.44C109.044 113.573 108.817 112.587 108.817 111.48C108.817 110.36 109.044 109.38 109.497 108.54C109.95 107.687 110.57 107.027 111.357 106.56C112.157 106.093 113.044 105.86 114.017 105.86ZM118.097 111.5C118.097 110.673 117.93 109.953 117.597 109.34C117.264 108.727 116.81 108.26 116.237 107.94C115.677 107.607 115.057 107.44 114.377 107.44C113.697 107.44 113.077 107.6 112.517 107.92C111.957 108.24 111.51 108.707 111.177 109.32C110.844 109.933 110.677 110.653 110.677 111.48C110.677 112.32 110.844 113.053 111.177 113.68C111.51 114.293 111.957 114.767 112.517 115.1C113.077 115.42 113.697 115.58 114.377 115.58C115.057 115.58 115.677 115.42 116.237 115.1C116.81 114.767 117.264 114.293 117.597 113.68C117.93 113.053 118.097 112.327 118.097 111.5ZM317.334 108.54C316.988 108.54 316.694 108.42 316.454 108.18C316.214 107.94 316.094 107.647 316.094 107.3C316.094 106.953 316.214 106.66 316.454 106.42C316.694 106.18 316.988 106.06 317.334 106.06C317.668 106.06 317.948 106.18 318.174 106.42C318.414 106.66 318.534 106.953 318.534 107.3C318.534 107.647 318.414 107.94 318.174 108.18C317.948 108.42 317.668 108.54 317.334 108.54ZM318.654 114.48L316.414 119.86H315.194L316.654 114.48H318.654ZM234.315 174.48L232.075 179.86H230.855L232.315 174.48H234.315ZM213.725 196.76V198.3H203.325V196.76H213.725ZM213.725 201.06V202.6H203.325V201.06H213.725ZM236.096 198.54C235.749 198.54 235.456 198.42 235.216 198.18C234.976 197.94 234.856 197.647 234.856 197.3C234.856 196.953 234.976 196.66 235.216 196.42C235.456 196.18 235.749 196.06 236.096 196.06C236.429 196.06 236.709 196.18 236.936 196.42C237.176 196.66 237.296 196.953 237.296 197.3C237.296 197.647 237.176 197.94 236.936 198.18C236.709 198.42 236.429 198.54 236.096 198.54ZM237.416 204.48L235.176 209.86H233.956L235.416 204.48H237.416ZM204.584 226.76V228.3H194.184V226.76H204.584ZM204.584 231.06V232.6H194.184V231.06H204.584ZM226.955 228.54C226.609 228.54 226.315 228.42 226.075 228.18C225.835 227.94 225.715 227.647 225.715 227.3C225.715 226.953 225.835 226.66 226.075 226.42C226.315 226.18 226.609 226.06 226.955 226.06C227.289 226.06 227.569 226.18 227.795 226.42C228.035 226.66 228.155 226.953 228.155 227.3C228.155 227.647 228.035 227.94 227.795 228.18C227.569 228.42 227.289 228.54 226.955 228.54ZM228.275 234.48L226.035 239.86H224.815L226.275 234.48H228.275ZM305.963 228.54C305.617 228.54 305.323 228.42 305.083 228.18C304.843 227.94 304.723 227.647 304.723 227.3C304.723 226.953 304.843 226.66 305.083 226.42C305.323 226.18 305.617 226.06 305.963 226.06C306.297 226.06 306.577 226.18 306.803 226.42C307.043 226.66 307.163 226.953 307.163 227.3C307.163 227.647 307.043 227.94 306.803 228.18C306.577 228.42 306.297 228.54 305.963 228.54ZM307.283 234.48L305.043 239.86H303.823L305.283 234.48H307.283ZM336.831 230.46H332.571V234.78H330.871V230.46H326.631V228.92H330.871V224.58H332.571V228.92H336.831V230.46ZM352.483 230.46H348.223V234.78H346.523V230.46H342.283V228.92H346.523V224.58H348.223V228.92H352.483V230.46ZM200.041 253.6L200.761 254.9L197.981 256.06L200.781 257.2L200.021 258.54L197.601 256.78L197.921 259.8H196.421L196.721 256.78L194.301 258.56L193.521 257.2L196.301 256.04L193.521 254.92L194.261 253.58L196.741 255.36L196.421 252.32H197.941L197.601 255.36L200.041 253.6ZM216.447 256.76V258.3H206.047V256.76H216.447ZM216.447 261.06V262.6H206.047V261.06H216.447ZM241.983 258.54C241.636 258.54 241.343 258.42 241.103 258.18C240.863 257.94 240.743 257.647 240.743 257.3C240.743 256.953 240.863 256.66 241.103 256.42C241.343 256.18 241.636 256.06 241.983 256.06C242.316 256.06 242.596 256.18 242.823 256.42C243.063 256.66 243.183 256.953 243.183 257.3C243.183 257.647 243.063 257.94 242.823 258.18C242.596 258.42 242.316 258.54 241.983 258.54ZM243.303 264.48L241.063 269.86H239.843L241.303 264.48H243.303ZM237.768 318.54C237.421 318.54 237.128 318.42 236.888 318.18C236.648 317.94 236.528 317.647 236.528 317.3C236.528 316.953 236.648 316.66 236.888 316.42C237.128 316.18 237.421 316.06 237.768 316.06C238.101 316.06 238.381 316.18 238.608 316.42C238.848 316.66 238.968 316.953 238.968 317.3C238.968 317.647 238.848 317.94 238.608 318.18C238.381 318.42 238.101 318.54 237.768 318.54ZM239.088 324.48L236.848 329.86H235.628L237.088 324.48H239.088Z" fill="#76F7FF"/>
<path d="M80.2769 44.26C79.9302 44.26 79.6369 44.14 79.3969 43.9C79.1569 43.66 79.0369 43.3667 79.0369 43.02C79.0369 42.6733 79.1569 42.38 79.3969 42.14C79.6369 41.9 79.9302 41.78 80.2769 41.78C80.6102 41.78 80.8902 41.9 81.1169 42.14C81.3569 42.38 81.4769 42.6733 81.4769 43.02C81.4769 43.3667 81.3569 43.66 81.1169 43.9C80.8902 44.14 80.6102 44.26 80.2769 44.26ZM81.1569 46.04V57H79.3369V46.04H81.1569ZM91.5988 45.84C92.9321 45.84 94.0121 46.2467 94.8388 47.06C95.6654 47.86 96.0788 49.02 96.0788 50.54V57H94.2788V50.8C94.2788 49.7067 94.0054 48.8733 93.4588 48.3C92.9121 47.7133 92.1654 47.42 91.2188 47.42C90.2588 47.42 89.4921 47.72 88.9188 48.32C88.3588 48.92 88.0788 49.7933 88.0788 50.94V57H86.2588V46.04H88.0788V47.6C88.4388 47.04 88.9254 46.6067 89.5388 46.3C90.1654 45.9933 90.8521 45.84 91.5988 45.84ZM100.372 51.5C100.372 50.3667 100.598 49.38 101.052 48.54C101.505 47.6867 102.132 47.0267 102.932 46.56C103.745 46.0933 104.672 45.86 105.712 45.86C107.058 45.86 108.165 46.1867 109.032 46.84C109.912 47.4933 110.492 48.4 110.772 49.56H108.812C108.625 48.8933 108.258 48.3667 107.712 47.98C107.178 47.5933 106.512 47.4 105.712 47.4C104.672 47.4 103.832 47.76 103.192 48.48C102.552 49.1867 102.232 50.1933 102.232 51.5C102.232 52.82 102.552 53.84 103.192 54.56C103.832 55.28 104.672 55.64 105.712 55.64C106.512 55.64 107.178 55.4533 107.712 55.08C108.245 54.7067 108.612 54.1733 108.812 53.48H110.772C110.478 54.6 109.892 55.5 109.012 56.18C108.132 56.8467 107.032 57.18 105.712 57.18C104.672 57.18 103.745 56.9467 102.932 56.48C102.132 56.0133 101.505 55.3533 101.052 54.5C100.598 53.6467 100.372 52.6467 100.372 51.5ZM117.02 42.2V57H115.2V42.2H117.02ZM131.842 46.04V57H130.022V55.38C129.675 55.94 129.189 56.38 128.562 56.7C127.949 57.0067 127.269 57.16 126.522 57.16C125.669 57.16 124.902 56.9867 124.222 56.64C123.542 56.28 123.002 55.7467 122.602 55.04C122.215 54.3333 122.022 53.4733 122.022 52.46V46.04H123.822V52.22C123.822 53.3 124.095 54.1333 124.642 54.72C125.189 55.2933 125.935 55.58 126.882 55.58C127.855 55.58 128.622 55.28 129.182 54.68C129.742 54.08 130.022 53.2067 130.022 52.06V46.04H131.842ZM136.235 51.48C136.235 50.36 136.462 49.38 136.915 48.54C137.368 47.6867 137.988 47.0267 138.775 46.56C139.575 46.0933 140.468 45.86 141.455 45.86C142.308 45.86 143.102 46.06 143.835 46.46C144.568 46.8467 145.128 47.36 145.515 48V42.2H147.355V57H145.515V54.94C145.155 55.5933 144.622 56.1333 143.915 56.56C143.208 56.9733 142.382 57.18 141.435 57.18C140.462 57.18 139.575 56.94 138.775 56.46C137.988 55.98 137.368 55.3067 136.915 54.44C136.462 53.5733 136.235 52.5867 136.235 51.48ZM145.515 51.5C145.515 50.6733 145.348 49.9533 145.015 49.34C144.682 48.7267 144.228 48.26 143.655 47.94C143.095 47.6067 142.475 47.44 141.795 47.44C141.115 47.44 140.495 47.6 139.935 47.92C139.375 48.24 138.928 48.7067 138.595 49.32C138.262 49.9333 138.095 50.6533 138.095 51.48C138.095 52.32 138.262 53.0533 138.595 53.68C138.928 54.2933 139.375 54.7667 139.935 55.1C140.495 55.42 141.115 55.58 141.795 55.58C142.475 55.58 143.095 55.42 143.655 55.1C144.228 54.7667 144.682 54.2933 145.015 53.68C145.348 53.0533 145.515 52.3267 145.515 51.5ZM162.431 51.1C162.431 51.4467 162.411 51.8133 162.371 52.2H153.611C153.677 53.28 154.044 54.1267 154.711 54.74C155.391 55.34 156.211 55.64 157.171 55.64C157.957 55.64 158.611 55.46 159.131 55.1C159.664 54.7267 160.037 54.2333 160.251 53.62H162.211C161.917 54.6733 161.331 55.5333 160.451 56.2C159.571 56.8533 158.477 57.18 157.171 57.18C156.131 57.18 155.197 56.9467 154.371 56.48C153.557 56.0133 152.917 55.3533 152.451 54.5C151.984 53.6333 151.751 52.6333 151.751 51.5C151.751 50.3667 151.977 49.3733 152.431 48.52C152.884 47.6667 153.517 47.0133 154.331 46.56C155.157 46.0933 156.104 45.86 157.171 45.86C158.211 45.86 159.131 46.0867 159.931 46.54C160.731 46.9933 161.344 47.62 161.771 48.42C162.211 49.2067 162.431 50.1 162.431 51.1ZM160.551 50.72C160.551 50.0267 160.397 49.4333 160.091 48.94C159.784 48.4333 159.364 48.0533 158.831 47.8C158.311 47.5333 157.731 47.4 157.091 47.4C156.171 47.4 155.384 47.6933 154.731 48.28C154.091 48.8667 153.724 49.68 153.631 50.72H160.551ZM137.685 105.84C139.018 105.84 140.098 106.247 140.925 107.06C141.751 107.86 142.165 109.02 142.165 110.54V117H140.365V110.8C140.365 109.707 140.091 108.873 139.545 108.3C138.998 107.713 138.251 107.42 137.305 107.42C136.345 107.42 135.578 107.72 135.005 108.32C134.445 108.92 134.165 109.793 134.165 110.94V117H132.345V106.04H134.165V107.6C134.525 107.04 135.011 106.607 135.625 106.3C136.251 105.993 136.938 105.84 137.685 105.84ZM146.458 111.48C146.458 110.36 146.684 109.38 147.138 108.54C147.591 107.687 148.211 107.027 148.998 106.56C149.798 106.093 150.684 105.86 151.658 105.86C152.618 105.86 153.451 106.067 154.158 106.48C154.864 106.893 155.391 107.413 155.738 108.04V106.04H157.578V117H155.738V114.96C155.378 115.6 154.838 116.133 154.118 116.56C153.411 116.973 152.584 117.18 151.638 117.18C150.664 117.18 149.784 116.94 148.998 116.46C148.211 115.98 147.591 115.307 147.138 114.44C146.684 113.573 146.458 112.587 146.458 111.48ZM155.738 111.5C155.738 110.673 155.571 109.953 155.238 109.34C154.904 108.727 154.451 108.26 153.878 107.94C153.318 107.607 152.698 107.44 152.018 107.44C151.338 107.44 150.718 107.6 150.158 107.92C149.598 108.24 149.151 108.707 148.818 109.32C148.484 109.933 148.318 110.653 148.318 111.48C148.318 112.32 148.484 113.053 148.818 113.68C149.151 114.293 149.598 114.767 150.158 115.1C150.718 115.42 151.338 115.58 152.018 115.58C152.698 115.58 153.318 115.42 153.878 115.1C154.451 114.767 154.904 114.293 155.238 113.68C155.571 113.053 155.738 112.327 155.738 111.5ZM175.833 105.84C176.687 105.84 177.447 106.02 178.113 106.38C178.78 106.727 179.307 107.253 179.693 107.96C180.08 108.667 180.273 109.527 180.273 110.54V117H178.473V110.8C178.473 109.707 178.2 108.873 177.653 108.3C177.12 107.713 176.393 107.42 175.473 107.42C174.527 107.42 173.773 107.727 173.213 108.34C172.653 108.94 172.373 109.813 172.373 110.96V117H170.573V110.8C170.573 109.707 170.3 108.873 169.753 108.3C169.22 107.713 168.493 107.42 167.573 107.42C166.627 107.42 165.873 107.727 165.313 108.34C164.753 108.94 164.473 109.813 164.473 110.96V117H162.653V106.04H164.473V107.62C164.833 107.047 165.313 106.607 165.913 106.3C166.527 105.993 167.2 105.84 167.933 105.84C168.853 105.84 169.667 106.047 170.373 106.46C171.08 106.873 171.607 107.48 171.953 108.28C172.26 107.507 172.767 106.907 173.473 106.48C174.18 106.053 174.967 105.84 175.833 105.84ZM195.259 111.1C195.259 111.447 195.239 111.813 195.199 112.2H186.439C186.505 113.28 186.872 114.127 187.539 114.74C188.219 115.34 189.039 115.64 189.999 115.64C190.785 115.64 191.439 115.46 191.959 115.1C192.492 114.727 192.865 114.233 193.079 113.62H195.039C194.745 114.673 194.159 115.533 193.279 116.2C192.399 116.853 191.305 117.18 189.999 117.18C188.959 117.18 188.025 116.947 187.199 116.48C186.385 116.013 185.745 115.353 185.279 114.5C184.812 113.633 184.579 112.633 184.579 111.5C184.579 110.367 184.805 109.373 185.259 108.52C185.712 107.667 186.345 107.013 187.159 106.56C187.985 106.093 188.932 105.86 189.999 105.86C191.039 105.86 191.959 106.087 192.759 106.54C193.559 106.993 194.172 107.62 194.599 108.42C195.039 109.207 195.259 110.1 195.259 111.1ZM193.379 110.72C193.379 110.027 193.225 109.433 192.919 108.94C192.612 108.433 192.192 108.053 191.659 107.8C191.139 107.533 190.559 107.4 189.919 107.4C188.999 107.4 188.212 107.693 187.559 108.28C186.919 108.867 186.552 109.68 186.459 110.72H193.379ZM203.541 117.18C202.701 117.18 201.948 117.04 201.281 116.76C200.614 116.467 200.088 116.067 199.701 115.56C199.314 115.04 199.101 114.447 199.061 113.78H200.941C200.994 114.327 201.248 114.773 201.701 115.12C202.168 115.467 202.774 115.64 203.521 115.64C204.214 115.64 204.761 115.487 205.161 115.18C205.561 114.873 205.761 114.487 205.761 114.02C205.761 113.54 205.548 113.187 205.121 112.96C204.694 112.72 204.034 112.487 203.141 112.26C202.328 112.047 201.661 111.833 201.141 111.62C200.634 111.393 200.194 111.067 199.821 110.64C199.461 110.2 199.281 109.627 199.281 108.92C199.281 108.36 199.448 107.847 199.781 107.38C200.114 106.913 200.588 106.547 201.201 106.28C201.814 106 202.514 105.86 203.301 105.86C204.514 105.86 205.494 106.167 206.241 106.78C206.988 107.393 207.388 108.233 207.441 109.3H205.621C205.581 108.727 205.348 108.267 204.921 107.92C204.508 107.573 203.948 107.4 203.241 107.4C202.588 107.4 202.068 107.54 201.681 107.82C201.294 108.1 201.101 108.467 201.101 108.92C201.101 109.28 201.214 109.58 201.441 109.82C201.681 110.047 201.974 110.233 202.321 110.38C202.681 110.513 203.174 110.667 203.801 110.84C204.588 111.053 205.228 111.267 205.721 111.48C206.214 111.68 206.634 111.987 206.981 112.4C207.341 112.813 207.528 113.353 207.541 114.02C207.541 114.62 207.374 115.16 207.041 115.64C206.708 116.12 206.234 116.5 205.621 116.78C205.021 117.047 204.328 117.18 203.541 117.18ZM213.93 108.06C214.29 107.433 214.824 106.913 215.53 106.5C216.25 106.073 217.084 105.86 218.03 105.86C219.004 105.86 219.884 106.093 220.67 106.56C221.47 107.027 222.097 107.687 222.55 108.54C223.004 109.38 223.23 110.36 223.23 111.48C223.23 112.587 223.004 113.573 222.55 114.44C222.097 115.307 221.47 115.98 220.67 116.46C219.884 116.94 219.004 117.18 218.03 117.18C217.097 117.18 216.27 116.973 215.55 116.56C214.844 116.133 214.304 115.607 213.93 114.98V122.2H212.11V106.04H213.93V108.06ZM221.37 111.48C221.37 110.653 221.204 109.933 220.87 109.32C220.537 108.707 220.084 108.24 219.51 107.92C218.95 107.6 218.33 107.44 217.65 107.44C216.984 107.44 216.364 107.607 215.79 107.94C215.23 108.26 214.777 108.733 214.43 109.36C214.097 109.973 213.93 110.687 213.93 111.5C213.93 112.327 214.097 113.053 214.43 113.68C214.777 114.293 215.23 114.767 215.79 115.1C216.364 115.42 216.984 115.58 217.65 115.58C218.33 115.58 218.95 115.42 219.51 115.1C220.084 114.767 220.537 114.293 220.87 113.68C221.204 113.053 221.37 112.32 221.37 111.48ZM226.946 111.48C226.946 110.36 227.173 109.38 227.626 108.54C228.079 107.687 228.699 107.027 229.486 106.56C230.286 106.093 231.173 105.86 232.146 105.86C233.106 105.86 233.939 106.067 234.646 106.48C235.353 106.893 235.879 107.413 236.226 108.04V106.04H238.066V117H236.226V114.96C235.866 115.6 235.326 116.133 234.606 116.56C233.899 116.973 233.073 117.18 232.126 117.18C231.153 117.18 230.273 116.94 229.486 116.46C228.699 115.98 228.079 115.307 227.626 114.44C227.173 113.573 226.946 112.587 226.946 111.48ZM236.226 111.5C236.226 110.673 236.059 109.953 235.726 109.34C235.393 108.727 234.939 108.26 234.366 107.94C233.806 107.607 233.186 107.44 232.506 107.44C231.826 107.44 231.206 107.6 230.646 107.92C230.086 108.24 229.639 108.707 229.306 109.32C228.973 109.933 228.806 110.653 228.806 111.48C228.806 112.32 228.973 113.053 229.306 113.68C229.639 114.293 230.086 114.767 230.646 115.1C231.206 115.42 231.826 115.58 232.506 115.58C233.186 115.58 233.806 115.42 234.366 115.1C234.939 114.767 235.393 114.293 235.726 113.68C236.059 113.053 236.226 112.327 236.226 111.5ZM242.462 111.5C242.462 110.367 242.688 109.38 243.142 108.54C243.595 107.687 244.222 107.027 245.022 106.56C245.835 106.093 246.762 105.86 247.802 105.86C249.148 105.86 250.255 106.187 251.122 106.84C252.002 107.493 252.582 108.4 252.862 109.56H250.902C250.715 108.893 250.348 108.367 249.802 107.98C249.268 107.593 248.602 107.4 247.802 107.4C246.762 107.4 245.922 107.76 245.282 108.48C244.642 109.187 244.322 110.193 244.322 111.5C244.322 112.82 244.642 113.84 245.282 114.56C245.922 115.28 246.762 115.64 247.802 115.64C248.602 115.64 249.268 115.453 249.802 115.08C250.335 114.707 250.702 114.173 250.902 113.48H252.862C252.568 114.6 251.982 115.5 251.102 116.18C250.222 116.847 249.122 117.18 247.802 117.18C246.762 117.18 245.835 116.947 245.022 116.48C244.222 116.013 243.595 115.353 243.142 114.5C242.688 113.647 242.462 112.647 242.462 111.5ZM267.29 111.1C267.29 111.447 267.27 111.813 267.23 112.2H258.47C258.537 113.28 258.903 114.127 259.57 114.74C260.25 115.34 261.07 115.64 262.03 115.64C262.817 115.64 263.47 115.46 263.99 115.1C264.523 114.727 264.897 114.233 265.11 113.62H267.07C266.777 114.673 266.19 115.533 265.31 116.2C264.43 116.853 263.337 117.18 262.03 117.18C260.99 117.18 260.057 116.947 259.23 116.48C258.417 116.013 257.777 115.353 257.31 114.5C256.843 113.633 256.61 112.633 256.61 111.5C256.61 110.367 256.837 109.373 257.29 108.52C257.743 107.667 258.377 107.013 259.19 106.56C260.017 106.093 260.963 105.86 262.03 105.86C263.07 105.86 263.99 106.087 264.79 106.54C265.59 106.993 266.203 107.62 266.63 108.42C267.07 109.207 267.29 110.1 267.29 111.1ZM265.41 110.72C265.41 110.027 265.257 109.433 264.95 108.94C264.643 108.433 264.223 108.053 263.69 107.8C263.17 107.533 262.59 107.4 261.95 107.4C261.03 107.4 260.243 107.693 259.59 108.28C258.95 108.867 258.583 109.68 258.49 110.72H265.41ZM61.48 164.26C61.1333 164.26 60.84 164.14 60.6 163.9C60.36 163.66 60.24 163.367 60.24 163.02C60.24 162.673 60.36 162.38 60.6 162.14C60.84 161.9 61.1333 161.78 61.48 161.78C61.8133 161.78 62.0933 161.9 62.32 162.14C62.56 162.38 62.68 162.673 62.68 163.02C62.68 163.367 62.56 163.66 62.32 163.9C62.0933 164.14 61.8133 164.26 61.48 164.26ZM62.36 166.04V177H60.54V166.04H62.36ZM72.8019 165.84C74.1352 165.84 75.2152 166.247 76.0419 167.06C76.8685 167.86 77.2819 169.02 77.2819 170.54V177H75.4819V170.8C75.4819 169.707 75.2085 168.873 74.6619 168.3C74.1152 167.713 73.3685 167.42 72.4219 167.42C71.4619 167.42 70.6952 167.72 70.1219 168.32C69.5619 168.92 69.2819 169.793 69.2819 170.94V177H67.4619V166.04H69.2819V167.6C69.6419 167.04 70.1285 166.607 70.7419 166.3C71.3685 165.993 72.0552 165.84 72.8019 165.84ZM84.4748 167.54V174C84.4748 174.533 84.5882 174.913 84.8148 175.14C85.0415 175.353 85.4348 175.46 85.9948 175.46H87.3348V177H85.6948C84.6815 177 83.9215 176.767 83.4148 176.3C82.9082 175.833 82.6548 175.067 82.6548 174V167.54H81.2348V166.04H82.6548V163.28H84.4748V166.04H87.3348V167.54H84.4748ZM183.472 164.26C183.126 164.26 182.832 164.14 182.592 163.9C182.352 163.66 182.232 163.367 182.232 163.02C182.232 162.673 182.352 162.38 182.592 162.14C182.832 161.9 183.126 161.78 183.472 161.78C183.806 161.78 184.086 161.9 184.312 162.14C184.552 162.38 184.672 162.673 184.672 163.02C184.672 163.367 184.552 163.66 184.312 163.9C184.086 164.14 183.806 164.26 183.472 164.26ZM184.352 166.04V177H182.532V166.04H184.352ZM194.794 165.84C196.127 165.84 197.207 166.247 198.034 167.06C198.861 167.86 199.274 169.02 199.274 170.54V177H197.474V170.8C197.474 169.707 197.201 168.873 196.654 168.3C196.107 167.713 195.361 167.42 194.414 167.42C193.454 167.42 192.687 167.72 192.114 168.32C191.554 168.92 191.274 169.793 191.274 170.94V177H189.454V166.04H191.274V167.6C191.634 167.04 192.121 166.607 192.734 166.3C193.361 165.993 194.047 165.84 194.794 165.84ZM206.467 167.54V174C206.467 174.533 206.58 174.913 206.807 175.14C207.034 175.353 207.427 175.46 207.987 175.46H209.327V177H207.687C206.674 177 205.914 176.767 205.407 176.3C204.9 175.833 204.647 175.067 204.647 174V167.54H203.227V166.04H204.647V163.28H206.467V166.04H209.327V167.54H206.467ZM246.671 164.26C246.325 164.26 246.031 164.14 245.791 163.9C245.551 163.66 245.431 163.367 245.431 163.02C245.431 162.673 245.551 162.38 245.791 162.14C246.031 161.9 246.325 161.78 246.671 161.78C247.005 161.78 247.285 161.9 247.511 162.14C247.751 162.38 247.871 162.673 247.871 163.02C247.871 163.367 247.751 163.66 247.511 163.9C247.285 164.14 247.005 164.26 246.671 164.26ZM247.551 166.04V177H245.731V166.04H247.551ZM257.993 165.84C259.327 165.84 260.407 166.247 261.233 167.06C262.06 167.86 262.473 169.02 262.473 170.54V177H260.673V170.8C260.673 169.707 260.4 168.873 259.853 168.3C259.307 167.713 258.56 167.42 257.613 167.42C256.653 167.42 255.887 167.72 255.313 168.32C254.753 168.92 254.473 169.793 254.473 170.94V177H252.653V166.04H254.473V167.6C254.833 167.04 255.32 166.607 255.933 166.3C256.56 165.993 257.247 165.84 257.993 165.84ZM269.666 167.54V174C269.666 174.533 269.78 174.913 270.006 175.14C270.233 175.353 270.626 175.46 271.186 175.46H272.526V177H270.886C269.873 177 269.113 176.767 268.606 176.3C268.1 175.833 267.846 175.067 267.846 174V167.54H266.426V166.04H267.846V163.28H269.666V166.04H272.526V167.54H269.666ZM90.8081 194.26C90.4615 194.26 90.1681 194.14 89.9281 193.9C89.6881 193.66 89.5681 193.367 89.5681 193.02C89.5681 192.673 89.6881 192.38 89.9281 192.14C90.1681 191.9 90.4615 191.78 90.8081 191.78C91.1415 191.78 91.4215 191.9 91.6481 192.14C91.8881 192.38 92.0081 192.673 92.0081 193.02C92.0081 193.367 91.8881 193.66 91.6481 193.9C91.4215 194.14 91.1415 194.26 90.8081 194.26ZM91.6881 196.04V207H89.8681V196.04H91.6881ZM102.13 195.84C103.463 195.84 104.543 196.247 105.37 197.06C106.197 197.86 106.61 199.02 106.61 200.54V207H104.81V200.8C104.81 199.707 104.537 198.873 103.99 198.3C103.443 197.713 102.697 197.42 101.75 197.42C100.79 197.42 100.023 197.72 99.45 198.32C98.89 198.92 98.61 199.793 98.61 200.94V207H96.79V196.04H98.61V197.6C98.97 197.04 99.4567 196.607 100.07 196.3C100.697 195.993 101.383 195.84 102.13 195.84ZM113.803 197.54V204C113.803 204.533 113.916 204.913 114.143 205.14C114.37 205.353 114.763 205.46 115.323 205.46H116.663V207H115.023C114.01 207 113.25 206.767 112.743 206.3C112.236 205.833 111.983 205.067 111.983 204V197.54H110.563V196.04H111.983V193.28H113.803V196.04H116.663V197.54H113.803ZM94.3281 227.54H92.0281V237H90.2081V227.54H88.7881V226.04H90.2081V225.26C90.2081 224.033 90.5215 223.14 91.1481 222.58C91.7881 222.007 92.8081 221.72 94.2081 221.72V223.24C93.4081 223.24 92.8415 223.4 92.5081 223.72C92.1881 224.027 92.0281 224.54 92.0281 225.26V226.04H94.3281V227.54ZM103.23 237.18C102.203 237.18 101.27 236.947 100.43 236.48C99.6035 236.013 98.9502 235.353 98.4702 234.5C98.0035 233.633 97.7702 232.633 97.7702 231.5C97.7702 230.38 98.0102 229.393 98.4902 228.54C98.9835 227.673 99.6502 227.013 100.49 226.56C101.33 226.093 102.27 225.86 103.31 225.86C104.35 225.86 105.29 226.093 106.13 226.56C106.97 227.013 107.63 227.667 108.11 228.52C108.603 229.373 108.85 230.367 108.85 231.5C108.85 232.633 108.597 233.633 108.09 234.5C107.597 235.353 106.923 236.013 106.07 236.48C105.217 236.947 104.27 237.18 103.23 237.18ZM103.23 235.58C103.883 235.58 104.497 235.427 105.07 235.12C105.643 234.813 106.103 234.353 106.45 233.74C106.81 233.127 106.99 232.38 106.99 231.5C106.99 230.62 106.817 229.873 106.47 229.26C106.123 228.647 105.67 228.193 105.11 227.9C104.55 227.593 103.943 227.44 103.29 227.44C102.623 227.44 102.01 227.593 101.45 227.9C100.903 228.193 100.463 228.647 100.13 229.26C99.7968 229.873 99.6302 230.62 99.6302 231.5C99.6302 232.393 99.7902 233.147 100.11 233.76C100.443 234.373 100.883 234.833 101.43 235.14C101.977 235.433 102.577 235.58 103.23 235.58ZM115.063 227.82C115.383 227.193 115.836 226.707 116.423 226.36C117.023 226.013 117.75 225.84 118.603 225.84V227.72H118.123C116.083 227.72 115.063 228.827 115.063 231.04V237H113.243V226.04H115.063V227.82ZM142.058 224.26C141.711 224.26 141.418 224.14 141.178 223.9C140.938 223.66 140.818 223.367 140.818 223.02C140.818 222.673 140.938 222.38 141.178 222.14C141.418 221.9 141.711 221.78 142.058 221.78C142.391 221.78 142.671 221.9 142.898 222.14C143.138 222.38 143.258 222.673 143.258 223.02C143.258 223.367 143.138 223.66 142.898 223.9C142.671 224.14 142.391 224.26 142.058 224.26ZM142.938 226.04V237H141.118V226.04H142.938ZM153.38 225.84C154.713 225.84 155.793 226.247 156.62 227.06C157.447 227.86 157.86 229.02 157.86 230.54V237H156.06V230.8C156.06 229.707 155.787 228.873 155.24 228.3C154.693 227.713 153.947 227.42 153 227.42C152.04 227.42 151.273 227.72 150.7 228.32C150.14 228.92 149.86 229.793 149.86 230.94V237H148.04V226.04H149.86V227.6C150.22 227.04 150.707 226.607 151.32 226.3C151.947 225.993 152.633 225.84 153.38 225.84ZM165.053 227.54V234C165.053 234.533 165.166 234.913 165.393 235.14C165.62 235.353 166.013 235.46 166.573 235.46H167.913V237H166.273C165.26 237 164.5 236.767 163.993 236.3C163.486 235.833 163.233 235.067 163.233 234V227.54H161.813V226.04H163.233V223.28H165.053V226.04H167.913V227.54H165.053ZM259.715 234.28L254.895 229.68L259.715 225.1H262.015L257.175 229.68L262.015 234.28H259.715ZM278.729 226.76V228.3H268.329V226.76H278.729ZM278.729 231.06V232.6H268.329V231.06H278.729ZM91.6881 317.82C92.0081 317.193 92.4615 316.707 93.0481 316.36C93.6481 316.013 94.3748 315.84 95.2281 315.84V317.72H94.7481C92.7081 317.72 91.6881 318.827 91.6881 321.04V327H89.8681V316.04H91.6881V317.82ZM109.329 321.1C109.329 321.447 109.309 321.813 109.269 322.2H100.509C100.576 323.28 100.942 324.127 101.609 324.74C102.289 325.34 103.109 325.64 104.069 325.64C104.856 325.64 105.509 325.46 106.029 325.1C106.562 324.727 106.936 324.233 107.149 323.62H109.109C108.816 324.673 108.229 325.533 107.349 326.2C106.469 326.853 105.376 327.18 104.069 327.18C103.029 327.18 102.096 326.947 101.269 326.48C100.456 326.013 99.8157 325.353 99.3491 324.5C98.8824 323.633 98.6491 322.633 98.6491 321.5C98.6491 320.367 98.8757 319.373 99.3291 318.52C99.7824 317.667 100.416 317.013 101.229 316.56C102.056 316.093 103.002 315.86 104.069 315.86C105.109 315.86 106.029 316.087 106.829 316.54C107.629 316.993 108.242 317.62 108.669 318.42C109.109 319.207 109.329 320.1 109.329 321.1ZM107.449 320.72C107.449 320.027 107.296 319.433 106.989 318.94C106.682 318.433 106.262 318.053 105.729 317.8C105.209 317.533 104.629 317.4 103.989 317.4C103.069 317.4 102.282 317.693 101.629 318.28C100.989 318.867 100.622 319.68 100.529 320.72H107.449ZM115.951 317.54V324C115.951 324.533 116.065 324.913 116.291 325.14C116.518 325.353 116.911 325.46 117.471 325.46H118.811V327H117.171C116.158 327 115.398 326.767 114.891 326.3C114.385 325.833 114.131 325.067 114.131 324V317.54H112.711V316.04H114.131V313.28H115.951V316.04H118.811V317.54H115.951ZM132.737 316.04V327H130.917V325.38C130.57 325.94 130.083 326.38 129.457 326.7C128.843 327.007 128.163 327.16 127.417 327.16C126.563 327.16 125.797 326.987 125.117 326.64C124.437 326.28 123.897 325.747 123.497 325.04C123.11 324.333 122.917 323.473 122.917 322.46V316.04H124.717V322.22C124.717 323.3 124.99 324.133 125.537 324.72C126.083 325.293 126.83 325.58 127.777 325.58C128.75 325.58 129.517 325.28 130.077 324.68C130.637 324.08 130.917 323.207 130.917 322.06V316.04H132.737ZM139.63 317.82C139.95 317.193 140.403 316.707 140.99 316.36C141.59 316.013 142.316 315.84 143.17 315.84V317.72H142.69C140.65 317.72 139.63 318.827 139.63 321.04V327H137.81V316.04H139.63V317.82ZM152.61 315.84C153.944 315.84 155.024 316.247 155.85 317.06C156.677 317.86 157.09 319.02 157.09 320.54V327H155.29V320.8C155.29 319.707 155.017 318.873 154.47 318.3C153.924 317.713 153.177 317.42 152.23 317.42C151.27 317.42 150.504 317.72 149.93 318.32C149.37 318.92 149.09 319.793 149.09 320.94V327H147.27V316.04H149.09V317.6C149.45 317.04 149.937 316.607 150.55 316.3C151.177 315.993 151.864 315.84 152.61 315.84Z" fill="#FFB1F7"/>
<path d="M176.13 180.72C174.85 179.467 173.85 177.873 173.13 175.94C172.423 174.007 172.07 171.92 172.07 169.68C172.07 167.387 172.443 165.247 173.19 163.26C173.95 161.26 175.03 159.613 176.43 158.32H178.33V158.5C176.837 159.9 175.71 161.587 174.95 163.56C174.203 165.52 173.83 167.56 173.83 169.68C173.83 171.747 174.183 173.72 174.89 175.6C175.61 177.48 176.657 179.127 178.03 180.54V180.72H176.13ZM296.753 180.72V180.54C298.126 179.127 299.166 177.48 299.873 175.6C300.593 173.72 300.953 171.747 300.953 169.68C300.953 167.56 300.573 165.52 299.813 163.56C299.066 161.587 297.946 159.9 296.453 158.5V158.32H298.353C299.753 159.613 300.826 161.26 301.573 163.26C302.333 165.247 302.713 167.387 302.713 169.68C302.713 171.92 302.353 174.007 301.633 175.94C300.926 177.873 299.933 179.467 298.653 180.72H296.753ZM308.975 168.82C310.335 168.567 311.015 167.867 311.015 166.72C311.015 166.213 310.948 165.347 310.815 164.12C310.682 162.813 310.615 161.867 310.615 161.28C310.615 160.32 310.882 159.587 311.415 159.08C311.962 158.573 312.688 158.32 313.595 158.32H314.755V159.9H313.935C313.415 159.9 313.028 160.02 312.775 160.26C312.522 160.487 312.395 160.867 312.395 161.4C312.395 161.787 312.422 162.267 312.475 162.84C312.528 163.4 312.562 163.78 312.575 163.98C312.708 165.26 312.775 166.193 312.775 166.78C312.775 167.487 312.595 168.08 312.235 168.56C311.888 169.027 311.348 169.34 310.615 169.5V169.54C311.348 169.7 311.888 170.02 312.235 170.5C312.595 170.98 312.775 171.573 312.775 172.28C312.775 172.867 312.708 173.8 312.575 175.08C312.562 175.28 312.528 175.667 312.475 176.24C312.422 176.8 312.395 177.273 312.395 177.66C312.395 178.193 312.522 178.573 312.775 178.8C313.028 179.04 313.415 179.16 313.935 179.16H314.755V180.74H313.595C312.688 180.74 311.962 180.487 311.415 179.98C310.882 179.473 310.615 178.74 310.615 177.78C310.615 177.193 310.682 176.247 310.815 174.94C310.948 173.713 311.015 172.847 311.015 172.34C311.015 171.193 310.335 170.493 308.975 170.24V168.82ZM130.02 197.82C130.34 197.193 130.793 196.707 131.38 196.36C131.98 196.013 132.707 195.84 133.56 195.84V197.72H133.08C131.04 197.72 130.02 198.827 130.02 201.04V207H128.2V196.04H130.02V197.82ZM147.661 201.1C147.661 201.447 147.641 201.813 147.601 202.2H138.841C138.908 203.28 139.274 204.127 139.941 204.74C140.621 205.34 141.441 205.64 142.401 205.64C143.188 205.64 143.841 205.46 144.361 205.1C144.894 204.727 145.268 204.233 145.481 203.62H147.441C147.148 204.673 146.561 205.533 145.681 206.2C144.801 206.853 143.708 207.18 142.401 207.18C141.361 207.18 140.428 206.947 139.601 206.48C138.788 206.013 138.148 205.353 137.681 204.5C137.214 203.633 136.981 202.633 136.981 201.5C136.981 200.367 137.208 199.373 137.661 198.52C138.114 197.667 138.748 197.013 139.561 196.56C140.388 196.093 141.334 195.86 142.401 195.86C143.441 195.86 144.361 196.087 145.161 196.54C145.961 196.993 146.574 197.62 147.001 198.42C147.441 199.207 147.661 200.1 147.661 201.1ZM145.781 200.72C145.781 200.027 145.628 199.433 145.321 198.94C145.014 198.433 144.594 198.053 144.061 197.8C143.541 197.533 142.961 197.4 142.321 197.4C141.401 197.4 140.614 197.693 139.961 198.28C139.321 198.867 138.954 199.68 138.861 200.72H145.781ZM155.943 207.18C155.103 207.18 154.35 207.04 153.683 206.76C153.017 206.467 152.49 206.067 152.103 205.56C151.717 205.04 151.503 204.447 151.463 203.78H153.343C153.397 204.327 153.65 204.773 154.103 205.12C154.57 205.467 155.177 205.64 155.923 205.64C156.617 205.64 157.163 205.487 157.563 205.18C157.963 204.873 158.163 204.487 158.163 204.02C158.163 203.54 157.95 203.187 157.523 202.96C157.097 202.72 156.437 202.487 155.543 202.26C154.73 202.047 154.063 201.833 153.543 201.62C153.037 201.393 152.597 201.067 152.223 200.64C151.863 200.2 151.683 199.627 151.683 198.92C151.683 198.36 151.85 197.847 152.183 197.38C152.517 196.913 152.99 196.547 153.603 196.28C154.217 196 154.917 195.86 155.703 195.86C156.917 195.86 157.897 196.167 158.643 196.78C159.39 197.393 159.79 198.233 159.843 199.3H158.023C157.983 198.727 157.75 198.267 157.323 197.92C156.91 197.573 156.35 197.4 155.643 197.4C154.99 197.4 154.47 197.54 154.083 197.82C153.697 198.1 153.503 198.467 153.503 198.92C153.503 199.28 153.617 199.58 153.843 199.82C154.083 200.047 154.377 200.233 154.723 200.38C155.083 200.513 155.577 200.667 156.203 200.84C156.99 201.053 157.63 201.267 158.123 201.48C158.617 201.68 159.037 201.987 159.383 202.4C159.743 202.813 159.93 203.353 159.943 204.02C159.943 204.62 159.777 205.16 159.443 205.64C159.11 206.12 158.637 206.5 158.023 206.78C157.423 207.047 156.73 207.18 155.943 207.18ZM174.233 196.04V207H172.413V205.38C172.066 205.94 171.579 206.38 170.953 206.7C170.339 207.007 169.659 207.16 168.913 207.16C168.059 207.16 167.293 206.987 166.613 206.64C165.933 206.28 165.393 205.747 164.993 205.04C164.606 204.333 164.413 203.473 164.413 202.46V196.04H166.213V202.22C166.213 203.3 166.486 204.133 167.033 204.72C167.579 205.293 168.326 205.58 169.273 205.58C170.246 205.58 171.013 205.28 171.573 204.68C172.133 204.08 172.413 203.207 172.413 202.06V196.04H174.233ZM181.126 192.2V207H179.306V192.2H181.126ZM188.448 197.54V204C188.448 204.533 188.561 204.913 188.788 205.14C189.014 205.353 189.408 205.46 189.967 205.46H191.308V207H189.668C188.654 207 187.894 206.767 187.388 206.3C186.881 205.833 186.628 205.067 186.628 204V197.54H185.208V196.04H186.628V193.28H188.448V196.04H191.308V197.54H188.448ZM134.716 240.72C133.436 239.467 132.436 237.873 131.716 235.94C131.009 234.007 130.656 231.92 130.656 229.68C130.656 227.387 131.029 225.247 131.776 223.26C132.536 221.26 133.616 219.613 135.016 218.32H136.916V218.5C135.423 219.9 134.296 221.587 133.536 223.56C132.789 225.52 132.416 227.56 132.416 229.68C132.416 231.747 132.769 233.72 133.476 235.6C134.196 237.48 135.243 239.127 136.616 240.54V240.72H134.716ZM180.39 224.26C180.043 224.26 179.75 224.14 179.51 223.9C179.27 223.66 179.15 223.367 179.15 223.02C179.15 222.673 179.27 222.38 179.51 222.14C179.75 221.9 180.043 221.78 180.39 221.78C180.723 221.78 181.003 221.9 181.23 222.14C181.47 222.38 181.59 222.673 181.59 223.02C181.59 223.367 181.47 223.66 181.23 223.9C181.003 224.14 180.723 224.26 180.39 224.26ZM181.27 226.04V237H179.45V226.04H181.27ZM241.441 224.26C241.094 224.26 240.801 224.14 240.561 223.9C240.321 223.66 240.201 223.367 240.201 223.02C240.201 222.673 240.321 222.38 240.561 222.14C240.801 221.9 241.094 221.78 241.441 221.78C241.774 221.78 242.054 221.9 242.281 222.14C242.521 222.38 242.641 222.673 242.641 223.02C242.641 223.367 242.521 223.66 242.281 223.9C242.054 224.14 241.774 224.26 241.441 224.26ZM242.321 226.04V237H240.501V226.04H242.321ZM320.449 224.26C320.102 224.26 319.809 224.14 319.569 223.9C319.329 223.66 319.209 223.367 319.209 223.02C319.209 222.673 319.329 222.38 319.569 222.14C319.809 221.9 320.102 221.78 320.449 221.78C320.782 221.78 321.062 221.9 321.289 222.14C321.529 222.38 321.649 222.673 321.649 223.02C321.649 223.367 321.529 223.66 321.289 223.9C321.062 224.14 320.782 224.26 320.449 224.26ZM321.329 226.04V237H319.509V226.04H321.329ZM357.155 240.72V240.54C358.529 239.127 359.569 237.48 360.275 235.6C360.995 233.72 361.355 231.747 361.355 229.68C361.355 227.56 360.975 225.52 360.215 223.56C359.469 221.587 358.349 219.9 356.855 218.5V218.32H358.755C360.155 219.613 361.229 221.26 361.975 223.26C362.735 225.247 363.115 227.387 363.115 229.68C363.115 231.92 362.755 234.007 362.035 235.94C361.329 237.873 360.335 239.467 359.055 240.72H357.155ZM369.377 228.82C370.737 228.567 371.417 227.867 371.417 226.72C371.417 226.213 371.351 225.347 371.217 224.12C371.084 222.813 371.017 221.867 371.017 221.28C371.017 220.32 371.284 219.587 371.817 219.08C372.364 218.573 373.091 218.32 373.997 218.32H375.157V219.9H374.337C373.817 219.9 373.431 220.02 373.177 220.26C372.924 220.487 372.797 220.867 372.797 221.4C372.797 221.787 372.824 222.267 372.877 222.84C372.931 223.4 372.964 223.78 372.977 223.98C373.111 225.26 373.177 226.193 373.177 226.78C373.177 227.487 372.997 228.08 372.637 228.56C372.291 229.027 371.751 229.34 371.017 229.5V229.54C371.751 229.7 372.291 230.02 372.637 230.5C372.997 230.98 373.177 231.573 373.177 232.28C373.177 232.867 373.111 233.8 372.977 235.08C372.964 235.28 372.931 235.667 372.877 236.24C372.824 236.8 372.797 237.273 372.797 237.66C372.797 238.193 372.924 238.573 373.177 238.8C373.431 239.04 373.817 239.16 374.337 239.16H375.157V240.74H373.997C373.091 240.74 372.364 240.487 371.817 239.98C371.284 239.473 371.017 238.74 371.017 237.78C371.017 237.193 371.084 236.247 371.217 234.94C371.351 233.713 371.417 232.847 371.417 232.34C371.417 231.193 370.737 230.493 369.377 230.24V228.82ZM121.016 257.82C121.336 257.193 121.79 256.707 122.376 256.36C122.976 256.013 123.703 255.84 124.556 255.84V257.72H124.076C122.036 257.72 121.016 258.827 121.016 261.04V267H119.196V256.04H121.016V257.82ZM138.657 261.1C138.657 261.447 138.637 261.813 138.597 262.2H129.837C129.904 263.28 130.271 264.127 130.937 264.74C131.617 265.34 132.437 265.64 133.397 265.64C134.184 265.64 134.837 265.46 135.357 265.1C135.891 264.727 136.264 264.233 136.477 263.62H138.437C138.144 264.673 137.557 265.533 136.677 266.2C135.797 266.853 134.704 267.18 133.397 267.18C132.357 267.18 131.424 266.947 130.597 266.48C129.784 266.013 129.144 265.353 128.677 264.5C128.211 263.633 127.977 262.633 127.977 261.5C127.977 260.367 128.204 259.373 128.657 258.52C129.111 257.667 129.744 257.013 130.557 256.56C131.384 256.093 132.331 255.86 133.397 255.86C134.437 255.86 135.357 256.087 136.157 256.54C136.957 256.993 137.571 257.62 137.997 258.42C138.437 259.207 138.657 260.1 138.657 261.1ZM136.777 260.72C136.777 260.027 136.624 259.433 136.317 258.94C136.011 258.433 135.591 258.053 135.057 257.8C134.537 257.533 133.957 257.4 133.317 257.4C132.397 257.4 131.611 257.693 130.957 258.28C130.317 258.867 129.951 259.68 129.857 260.72H136.777ZM146.94 267.18C146.1 267.18 145.346 267.04 144.68 266.76C144.013 266.467 143.486 266.067 143.1 265.56C142.713 265.04 142.5 264.447 142.46 263.78H144.34C144.393 264.327 144.646 264.773 145.1 265.12C145.566 265.467 146.173 265.64 146.92 265.64C147.613 265.64 148.16 265.487 148.56 265.18C148.96 264.873 149.16 264.487 149.16 264.02C149.16 263.54 148.946 263.187 148.52 262.96C148.093 262.72 147.433 262.487 146.54 262.26C145.726 262.047 145.06 261.833 144.54 261.62C144.033 261.393 143.593 261.067 143.22 260.64C142.86 260.2 142.68 259.627 142.68 258.92C142.68 258.36 142.846 257.847 143.18 257.38C143.513 256.913 143.986 256.547 144.6 256.28C145.213 256 145.913 255.86 146.7 255.86C147.913 255.86 148.893 256.167 149.64 256.78C150.386 257.393 150.786 258.233 150.84 259.3H149.02C148.98 258.727 148.746 258.267 148.32 257.92C147.906 257.573 147.346 257.4 146.64 257.4C145.986 257.4 145.466 257.54 145.08 257.82C144.693 258.1 144.5 258.467 144.5 258.92C144.5 259.28 144.613 259.58 144.84 259.82C145.08 260.047 145.373 260.233 145.72 260.38C146.08 260.513 146.573 260.667 147.2 260.84C147.986 261.053 148.626 261.267 149.12 261.48C149.613 261.68 150.033 261.987 150.38 262.4C150.74 262.813 150.926 263.353 150.94 264.02C150.94 264.62 150.773 265.16 150.44 265.64C150.106 266.12 149.633 266.5 149.02 266.78C148.42 267.047 147.726 267.18 146.94 267.18ZM165.229 256.04V267H163.409V265.38C163.062 265.94 162.575 266.38 161.949 266.7C161.335 267.007 160.655 267.16 159.909 267.16C159.055 267.16 158.289 266.987 157.609 266.64C156.929 266.28 156.389 265.747 155.989 265.04C155.602 264.333 155.409 263.473 155.409 262.46V256.04H157.209V262.22C157.209 263.3 157.482 264.133 158.029 264.72C158.575 265.293 159.322 265.58 160.269 265.58C161.242 265.58 162.009 265.28 162.569 264.68C163.129 264.08 163.409 263.207 163.409 262.06V256.04H165.229ZM172.122 252.2V267H170.302V252.2H172.122ZM179.444 257.54V264C179.444 264.533 179.557 264.913 179.784 265.14C180.01 265.353 180.404 265.46 180.964 265.46H182.304V267H180.664C179.65 267 178.89 266.767 178.384 266.3C177.877 265.833 177.624 265.067 177.624 264V257.54H176.204V256.04H177.624V253.28H179.444V256.04H182.304V257.54H179.444ZM95.4681 290.24C94.1081 290.493 93.4281 291.193 93.4281 292.34C93.4281 292.847 93.4948 293.713 93.6281 294.94C93.7615 296.247 93.8281 297.193 93.8281 297.78C93.8281 298.74 93.5548 299.473 93.0081 299.98C92.4748 300.487 91.7548 300.74 90.8481 300.74H89.6881V299.16H90.5081C91.0281 299.16 91.4148 299.04 91.6681 298.8C91.9215 298.573 92.0481 298.193 92.0481 297.66C92.0481 297.273 92.0215 296.8 91.9681 296.24C91.9148 295.667 91.8815 295.28 91.8681 295.08C91.7348 293.8 91.6681 292.867 91.6681 292.28C91.6681 291.573 91.8415 290.98 92.1881 290.5C92.5481 290.02 93.0948 289.7 93.8281 289.54V289.5C93.0948 289.34 92.5481 289.027 92.1881 288.56C91.8415 288.08 91.6681 287.487 91.6681 286.78C91.6681 286.193 91.7348 285.26 91.8681 283.98C91.8815 283.78 91.9148 283.4 91.9681 282.84C92.0215 282.267 92.0481 281.787 92.0481 281.4C92.0481 280.867 91.9215 280.487 91.6681 280.26C91.4148 280.02 91.0281 279.9 90.5081 279.9H89.6881V278.32H90.8481C91.7548 278.32 92.4748 278.573 93.0081 279.08C93.5548 279.587 93.8281 280.32 93.8281 281.28C93.8281 281.867 93.7615 282.813 93.6281 284.12C93.4948 285.347 93.4281 286.213 93.4281 286.72C93.4281 287.867 94.1081 288.567 95.4681 288.82V290.24ZM171.215 317.82C171.535 317.193 171.989 316.707 172.575 316.36C173.175 316.013 173.902 315.84 174.755 315.84V317.72H174.275C172.235 317.72 171.215 318.827 171.215 321.04V327H169.395V316.04H171.215V317.82ZM188.856 321.1C188.856 321.447 188.836 321.813 188.796 322.2H180.036C180.103 323.28 180.47 324.127 181.136 324.74C181.816 325.34 182.636 325.64 183.596 325.64C184.383 325.64 185.036 325.46 185.556 325.1C186.09 324.727 186.463 324.233 186.676 323.62H188.636C188.343 324.673 187.756 325.533 186.876 326.2C185.996 326.853 184.903 327.18 183.596 327.18C182.556 327.18 181.623 326.947 180.796 326.48C179.983 326.013 179.343 325.353 178.876 324.5C178.41 323.633 178.176 322.633 178.176 321.5C178.176 320.367 178.403 319.373 178.856 318.52C179.31 317.667 179.943 317.013 180.756 316.56C181.583 316.093 182.53 315.86 183.596 315.86C184.636 315.86 185.556 316.087 186.356 316.54C187.156 316.993 187.77 317.62 188.196 318.42C188.636 319.207 188.856 320.1 188.856 321.1ZM186.976 320.72C186.976 320.027 186.823 319.433 186.516 318.94C186.21 318.433 185.79 318.053 185.256 317.8C184.736 317.533 184.156 317.4 183.516 317.4C182.596 317.4 181.81 317.693 181.156 318.28C180.516 318.867 180.15 319.68 180.056 320.72H186.976ZM197.139 327.18C196.299 327.18 195.545 327.04 194.879 326.76C194.212 326.467 193.685 326.067 193.299 325.56C192.912 325.04 192.699 324.447 192.659 323.78H194.539C194.592 324.327 194.845 324.773 195.299 325.12C195.765 325.467 196.372 325.64 197.119 325.64C197.812 325.64 198.359 325.487 198.759 325.18C199.159 324.873 199.359 324.487 199.359 324.02C199.359 323.54 199.145 323.187 198.719 322.96C198.292 322.72 197.632 322.487 196.739 322.26C195.925 322.047 195.259 321.833 194.739 321.62C194.232 321.393 193.792 321.067 193.419 320.64C193.059 320.2 192.879 319.627 192.879 318.92C192.879 318.36 193.045 317.847 193.379 317.38C193.712 316.913 194.185 316.547 194.799 316.28C195.412 316 196.112 315.86 196.899 315.86C198.112 315.86 199.092 316.167 199.839 316.78C200.585 317.393 200.985 318.233 201.039 319.3H199.219C199.179 318.727 198.945 318.267 198.519 317.92C198.105 317.573 197.545 317.4 196.839 317.4C196.185 317.4 195.665 317.54 195.279 317.82C194.892 318.1 194.699 318.467 194.699 318.92C194.699 319.28 194.812 319.58 195.039 319.82C195.279 320.047 195.572 320.233 195.919 320.38C196.279 320.513 196.772 320.667 197.399 320.84C198.185 321.053 198.825 321.267 199.319 321.48C199.812 321.68 200.232 321.987 200.579 322.4C200.939 322.813 201.125 323.353 201.139 324.02C201.139 324.62 200.972 325.16 200.639 325.64C200.305 326.12 199.832 326.5 199.219 326.78C198.619 327.047 197.925 327.18 197.139 327.18ZM215.428 316.04V327H213.608V325.38C213.261 325.94 212.775 326.38 212.148 326.7C211.535 327.007 210.855 327.16 210.108 327.16C209.255 327.16 208.488 326.987 207.808 326.64C207.128 326.28 206.588 325.747 206.188 325.04C205.801 324.333 205.608 323.473 205.608 322.46V316.04H207.408V322.22C207.408 323.3 207.681 324.133 208.228 324.72C208.775 325.293 209.521 325.58 210.468 325.58C211.441 325.58 212.208 325.28 212.768 324.68C213.328 324.08 213.608 323.207 213.608 322.06V316.04H215.428ZM222.321 312.2V327H220.501V312.2H222.321ZM229.643 317.54V324C229.643 324.533 229.756 324.913 229.983 325.14C230.209 325.353 230.603 325.46 231.163 325.46H232.503V327H230.863C229.849 327 229.089 326.767 228.583 326.3C228.076 325.833 227.823 325.067 227.823 324V317.54H226.403V316.04H227.823V313.28H229.643V316.04H232.503V317.54H229.643ZM66.14 350.24C64.78 350.493 64.1 351.193 64.1 352.34C64.1 352.847 64.1667 353.713 64.3 354.94C64.4333 356.247 64.5 357.193 64.5 357.78C64.5 358.74 64.2267 359.473 63.68 359.98C63.1467 360.487 62.4267 360.74 61.52 360.74H60.36V359.16H61.18C61.7 359.16 62.0867 359.04 62.34 358.8C62.5933 358.573 62.72 358.193 62.72 357.66C62.72 357.273 62.6933 356.8 62.64 356.24C62.5867 355.667 62.5533 355.28 62.54 355.08C62.4067 353.8 62.34 352.867 62.34 352.28C62.34 351.573 62.5133 350.98 62.86 350.5C63.22 350.02 63.7667 349.7 64.5 349.54V349.5C63.7667 349.34 63.22 349.027 62.86 348.56C62.5133 348.08 62.34 347.487 62.34 346.78C62.34 346.193 62.4067 345.26 62.54 343.98C62.5533 343.78 62.5867 343.4 62.64 342.84C62.6933 342.267 62.72 341.787 62.72 341.4C62.72 340.867 62.5933 340.487 62.34 340.26C62.0867 340.02 61.7 339.9 61.18 339.9H60.36V338.32H61.52C62.4267 338.32 63.1467 338.573 63.68 339.08C64.2267 339.587 64.5 340.32 64.5 341.28C64.5 341.867 64.4333 342.813 64.3 344.12C64.1667 345.347 64.1 346.213 64.1 346.72C64.1 347.867 64.78 348.567 66.14 348.82V350.24Z" fill="#CFD4FF"/>
<path d="M188.199 44.26C187.852 44.26 187.559 44.14 187.319 43.9C187.079 43.66 186.959 43.3667 186.959 43.02C186.959 42.6733 187.079 42.38 187.319 42.14C187.559 41.9 187.852 41.78 188.199 41.78C188.532 41.78 188.812 41.9 189.039 42.14C189.279 42.38 189.399 42.6733 189.399 43.02C189.399 43.3667 189.279 43.66 189.039 43.9C188.812 44.14 188.532 44.26 188.199 44.26ZM189.079 46.04V57H187.259V46.04H189.079ZM198.961 57.18C197.934 57.18 197.001 56.9467 196.161 56.48C195.334 56.0133 194.681 55.3533 194.201 54.5C193.734 53.6333 193.501 52.6333 193.501 51.5C193.501 50.38 193.741 49.3933 194.221 48.54C194.714 47.6733 195.381 47.0133 196.221 46.56C197.061 46.0933 198.001 45.86 199.041 45.86C200.081 45.86 201.021 46.0933 201.861 46.56C202.701 47.0133 203.361 47.6667 203.841 48.52C204.334 49.3733 204.581 50.3667 204.581 51.5C204.581 52.6333 204.327 53.6333 203.821 54.5C203.327 55.3533 202.654 56.0133 201.801 56.48C200.947 56.9467 200.001 57.18 198.961 57.18ZM198.961 55.58C199.614 55.58 200.227 55.4267 200.801 55.12C201.374 54.8133 201.834 54.3533 202.181 53.74C202.541 53.1267 202.721 52.38 202.721 51.5C202.721 50.62 202.547 49.8733 202.201 49.26C201.854 48.6467 201.401 48.1933 200.841 47.9C200.281 47.5933 199.674 47.44 199.021 47.44C198.354 47.44 197.741 47.5933 197.181 47.9C196.634 48.1933 196.194 48.6467 195.861 49.26C195.527 49.8733 195.361 50.62 195.361 51.5C195.361 52.3933 195.521 53.1467 195.841 53.76C196.174 54.3733 196.614 54.8333 197.161 55.14C197.707 55.4333 198.307 55.58 198.961 55.58ZM212.854 57.18C212.014 57.18 211.26 57.04 210.594 56.76C209.927 56.4667 209.4 56.0667 209.014 55.56C208.627 55.04 208.414 54.4467 208.374 53.78H210.254C210.307 54.3267 210.56 54.7733 211.014 55.12C211.48 55.4667 212.087 55.64 212.834 55.64C213.527 55.64 214.074 55.4867 214.474 55.18C214.874 54.8733 215.074 54.4867 215.074 54.02C215.074 53.54 214.86 53.1867 214.434 52.96C214.007 52.72 213.347 52.4867 212.454 52.26C211.64 52.0467 210.974 51.8333 210.454 51.62C209.947 51.3933 209.507 51.0667 209.134 50.64C208.774 50.2 208.594 49.6267 208.594 48.92C208.594 48.36 208.76 47.8467 209.094 47.38C209.427 46.9133 209.9 46.5467 210.514 46.28C211.127 46 211.827 45.86 212.614 45.86C213.827 45.86 214.807 46.1667 215.554 46.78C216.3 47.3933 216.7 48.2333 216.754 49.3H214.934C214.894 48.7267 214.66 48.2667 214.234 47.92C213.82 47.5733 213.26 47.4 212.554 47.4C211.9 47.4 211.38 47.54 210.994 47.82C210.607 48.1 210.414 48.4667 210.414 48.92C210.414 49.28 210.527 49.58 210.754 49.82C210.994 50.0467 211.287 50.2333 211.634 50.38C211.994 50.5133 212.487 50.6667 213.114 50.84C213.9 51.0533 214.54 51.2667 215.034 51.48C215.527 51.68 215.947 51.9867 216.294 52.4C216.654 52.8133 216.84 53.3533 216.854 54.02C216.854 54.62 216.687 55.16 216.354 55.64C216.02 56.12 215.547 56.5 214.934 56.78C214.334 57.0467 213.64 57.18 212.854 57.18ZM223.643 47.54V54C223.643 54.5333 223.756 54.9133 223.983 55.14C224.209 55.3533 224.603 55.46 225.163 55.46H226.503V57H224.863C223.849 57 223.089 56.7667 222.583 56.3C222.076 55.8333 221.823 55.0667 221.823 54V47.54H220.403V46.04H221.823V43.28H223.643V46.04H226.503V47.54H223.643ZM232.528 47.82C232.848 47.1933 233.301 46.7067 233.888 46.36C234.488 46.0133 235.215 45.84 236.068 45.84V47.72H235.588C233.548 47.72 232.528 48.8267 232.528 51.04V57H230.708V46.04H232.528V47.82ZM250.169 51.1C250.169 51.4467 250.149 51.8133 250.109 52.2H241.349C241.416 53.28 241.782 54.1267 242.449 54.74C243.129 55.34 243.949 55.64 244.909 55.64C245.696 55.64 246.349 55.46 246.869 55.1C247.402 54.7267 247.776 54.2333 247.989 53.62H249.949C249.656 54.6733 249.069 55.5333 248.189 56.2C247.309 56.8533 246.216 57.18 244.909 57.18C243.869 57.18 242.936 56.9467 242.109 56.48C241.296 56.0133 240.656 55.3533 240.189 54.5C239.722 53.6333 239.489 52.6333 239.489 51.5C239.489 50.3667 239.716 49.3733 240.169 48.52C240.622 47.6667 241.256 47.0133 242.069 46.56C242.896 46.0933 243.842 45.86 244.909 45.86C245.949 45.86 246.869 46.0867 247.669 46.54C248.469 46.9933 249.082 47.62 249.509 48.42C249.949 49.2067 250.169 50.1 250.169 51.1ZM248.289 50.72C248.289 50.0267 248.136 49.4333 247.829 48.94C247.522 48.4333 247.102 48.0533 246.569 47.8C246.049 47.5333 245.469 47.4 244.829 47.4C243.909 47.4 243.122 47.6933 242.469 48.28C241.829 48.8667 241.462 49.68 241.369 50.72H248.289ZM253.891 51.48C253.891 50.36 254.118 49.38 254.571 48.54C255.025 47.6867 255.645 47.0267 256.431 46.56C257.231 46.0933 258.118 45.86 259.091 45.86C260.051 45.86 260.885 46.0667 261.591 46.48C262.298 46.8933 262.825 47.4133 263.171 48.04V46.04H265.011V57H263.171V54.96C262.811 55.6 262.271 56.1333 261.551 56.56C260.845 56.9733 260.018 57.18 259.071 57.18C258.098 57.18 257.218 56.94 256.431 56.46C255.645 55.98 255.025 55.3067 254.571 54.44C254.118 53.5733 253.891 52.5867 253.891 51.48ZM263.171 51.5C263.171 50.6733 263.005 49.9533 262.671 49.34C262.338 48.7267 261.885 48.26 261.311 47.94C260.751 47.6067 260.131 47.44 259.451 47.44C258.771 47.44 258.151 47.6 257.591 47.92C257.031 48.24 256.585 48.7067 256.251 49.32C255.918 49.9333 255.751 50.6533 255.751 51.48C255.751 52.32 255.918 53.0533 256.251 53.68C256.585 54.2933 257.031 54.7667 257.591 55.1C258.151 55.42 258.771 55.58 259.451 55.58C260.131 55.58 260.751 55.42 261.311 55.1C261.885 54.7667 262.338 54.2933 262.671 53.68C263.005 53.0533 263.171 52.3267 263.171 51.5ZM283.267 45.84C284.12 45.84 284.88 46.02 285.547 46.38C286.214 46.7267 286.74 47.2533 287.127 47.96C287.514 48.6667 287.707 49.5267 287.707 50.54V57H285.907V50.8C285.907 49.7067 285.634 48.8733 285.087 48.3C284.554 47.7133 283.827 47.42 282.907 47.42C281.96 47.42 281.207 47.7267 280.647 48.34C280.087 48.94 279.807 49.8133 279.807 50.96V57H278.007V50.8C278.007 49.7067 277.734 48.8733 277.187 48.3C276.654 47.7133 275.927 47.42 275.007 47.42C274.06 47.42 273.307 47.7267 272.747 48.34C272.187 48.94 271.907 49.8133 271.907 50.96V57H270.087V46.04H271.907V47.62C272.267 47.0467 272.747 46.6067 273.347 46.3C273.96 45.9933 274.634 45.84 275.367 45.84C276.287 45.84 277.1 46.0467 277.807 46.46C278.514 46.8733 279.04 47.48 279.387 48.28C279.694 47.5067 280.2 46.9067 280.907 46.48C281.614 46.0533 282.4 45.84 283.267 45.84Z" fill="#96FFBA"/>
<path d="M282.904 117.18C282.064 117.18 281.311 117.04 280.644 116.76C279.978 116.467 279.451 116.067 279.064 115.56C278.678 115.04 278.464 114.447 278.424 113.78H280.304C280.358 114.327 280.611 114.773 281.064 115.12C281.531 115.467 282.138 115.64 282.884 115.64C283.578 115.64 284.124 115.487 284.524 115.18C284.924 114.873 285.124 114.487 285.124 114.02C285.124 113.54 284.911 113.187 284.484 112.96C284.058 112.72 283.398 112.487 282.504 112.26C281.691 112.047 281.024 111.833 280.504 111.62C279.998 111.393 279.558 111.067 279.184 110.64C278.824 110.2 278.644 109.627 278.644 108.92C278.644 108.36 278.811 107.847 279.144 107.38C279.478 106.913 279.951 106.547 280.564 106.28C281.178 106 281.878 105.86 282.664 105.86C283.878 105.86 284.858 106.167 285.604 106.78C286.351 107.393 286.751 108.233 286.804 109.3H284.984C284.944 108.727 284.711 108.267 284.284 107.92C283.871 107.573 283.311 107.4 282.604 107.4C281.951 107.4 281.431 107.54 281.044 107.82C280.658 108.1 280.464 108.467 280.464 108.92C280.464 109.28 280.578 109.58 280.804 109.82C281.044 110.047 281.338 110.233 281.684 110.38C282.044 110.513 282.538 110.667 283.164 110.84C283.951 111.053 284.591 111.267 285.084 111.48C285.578 111.68 285.998 111.987 286.344 112.4C286.704 112.813 286.891 113.353 286.904 114.02C286.904 114.62 286.738 115.16 286.404 115.64C286.071 116.12 285.598 116.5 284.984 116.78C284.384 117.047 283.691 117.18 282.904 117.18ZM293.694 107.54V114C293.694 114.533 293.807 114.913 294.034 115.14C294.26 115.353 294.654 115.46 295.214 115.46H296.554V117H294.914C293.9 117 293.14 116.767 292.634 116.3C292.127 115.833 291.874 115.067 291.874 114V107.54H290.454V106.04H291.874V103.28H293.694V106.04H296.554V107.54H293.694ZM300.079 111.48C300.079 110.36 300.305 109.38 300.759 108.54C301.212 107.687 301.832 107.027 302.619 106.56C303.419 106.093 304.312 105.86 305.299 105.86C306.152 105.86 306.945 106.06 307.679 106.46C308.412 106.847 308.972 107.36 309.359 108V102.2H311.199V117H309.359V114.94C308.999 115.593 308.465 116.133 307.759 116.56C307.052 116.973 306.225 117.18 305.279 117.18C304.305 117.18 303.419 116.94 302.619 116.46C301.832 115.98 301.212 115.307 300.759 114.44C300.305 113.573 300.079 112.587 300.079 111.48ZM309.359 111.5C309.359 110.673 309.192 109.953 308.859 109.34C308.525 108.727 308.072 108.26 307.499 107.94C306.939 107.607 306.319 107.44 305.639 107.44C304.959 107.44 304.339 107.6 303.779 107.92C303.219 108.24 302.772 108.707 302.439 109.32C302.105 109.933 301.939 110.653 301.939 111.48C301.939 112.32 302.105 113.053 302.439 113.68C302.772 114.293 303.219 114.767 303.779 115.1C304.339 115.42 304.959 115.58 305.639 115.58C306.319 115.58 306.939 115.42 307.499 115.1C308.072 114.767 308.525 114.293 308.859 113.68C309.192 113.053 309.359 112.327 309.359 111.5Z" fill="#00A962"/>
<path d="M100.692 168.06C101.052 167.433 101.585 166.913 102.292 166.5C103.012 166.073 103.845 165.86 104.792 165.86C105.765 165.86 106.645 166.093 107.432 166.56C108.232 167.027 108.859 167.687 109.312 168.54C109.765 169.38 109.992 170.36 109.992 171.48C109.992 172.587 109.765 173.573 109.312 174.44C108.859 175.307 108.232 175.98 107.432 176.46C106.645 176.94 105.765 177.18 104.792 177.18C103.859 177.18 103.032 176.973 102.312 176.56C101.605 176.133 101.065 175.607 100.692 174.98V182.2H98.872V166.04H100.692V168.06ZM108.132 171.48C108.132 170.653 107.965 169.933 107.632 169.32C107.299 168.707 106.845 168.24 106.272 167.92C105.712 167.6 105.092 167.44 104.412 167.44C103.745 167.44 103.125 167.607 102.552 167.94C101.992 168.26 101.539 168.733 101.192 169.36C100.859 169.973 100.692 170.687 100.692 171.5C100.692 172.327 100.859 173.053 101.192 173.68C101.539 174.293 101.992 174.767 102.552 175.1C103.125 175.42 103.745 175.58 104.412 175.58C105.092 175.58 105.712 175.42 106.272 175.1C106.845 174.767 107.299 174.293 107.632 173.68C107.965 173.053 108.132 172.32 108.132 171.48ZM119.168 177.18C118.141 177.18 117.208 176.947 116.368 176.48C115.541 176.013 114.888 175.353 114.408 174.5C113.941 173.633 113.708 172.633 113.708 171.5C113.708 170.38 113.948 169.393 114.428 168.54C114.921 167.673 115.588 167.013 116.428 166.56C117.268 166.093 118.208 165.86 119.248 165.86C120.288 165.86 121.228 166.093 122.068 166.56C122.908 167.013 123.568 167.667 124.048 168.52C124.541 169.373 124.788 170.367 124.788 171.5C124.788 172.633 124.534 173.633 124.028 174.5C123.534 175.353 122.861 176.013 122.008 176.48C121.154 176.947 120.208 177.18 119.168 177.18ZM119.168 175.58C119.821 175.58 120.434 175.427 121.008 175.12C121.581 174.813 122.041 174.353 122.388 173.74C122.748 173.127 122.928 172.38 122.928 171.5C122.928 170.62 122.754 169.873 122.408 169.26C122.061 168.647 121.608 168.193 121.048 167.9C120.488 167.593 119.881 167.44 119.228 167.44C118.561 167.44 117.948 167.593 117.388 167.9C116.841 168.193 116.401 168.647 116.068 169.26C115.734 169.873 115.568 170.62 115.568 171.5C115.568 172.393 115.728 173.147 116.048 173.76C116.381 174.373 116.821 174.833 117.368 175.14C117.914 175.433 118.514 175.58 119.168 175.58ZM143.781 166.04L140.361 177H138.481L135.841 168.3L133.201 177H131.321L127.881 166.04H129.741L132.261 175.24L134.981 166.04H136.841L139.501 175.26L141.981 166.04H143.781ZM157.587 171.1C157.587 171.447 157.567 171.813 157.527 172.2H148.767C148.834 173.28 149.2 174.127 149.867 174.74C150.547 175.34 151.367 175.64 152.327 175.64C153.114 175.64 153.767 175.46 154.287 175.1C154.82 174.727 155.194 174.233 155.407 173.62H157.367C157.074 174.673 156.487 175.533 155.607 176.2C154.727 176.853 153.634 177.18 152.327 177.18C151.287 177.18 150.354 176.947 149.527 176.48C148.714 176.013 148.074 175.353 147.607 174.5C147.14 173.633 146.907 172.633 146.907 171.5C146.907 170.367 147.134 169.373 147.587 168.52C148.04 167.667 148.674 167.013 149.487 166.56C150.314 166.093 151.26 165.86 152.327 165.86C153.367 165.86 154.287 166.087 155.087 166.54C155.887 166.993 156.5 167.62 156.927 168.42C157.367 169.207 157.587 170.1 157.587 171.1ZM155.707 170.72C155.707 170.027 155.554 169.433 155.247 168.94C154.94 168.433 154.52 168.053 153.987 167.8C153.467 167.533 152.887 167.4 152.247 167.4C151.327 167.4 150.54 167.693 149.887 168.28C149.247 168.867 148.88 169.68 148.787 170.72H155.707ZM163.809 167.82C164.129 167.193 164.583 166.707 165.169 166.36C165.769 166.013 166.496 165.84 167.349 165.84V167.72H166.869C164.829 167.72 163.809 168.827 163.809 171.04V177H161.989V166.04H163.809V167.82Z" fill="#4FBAFF"/>
<path d="M226.584 177L223.984 172.92L221.484 177H219.584L223.124 171.56L219.584 166.04H221.644L224.244 170.1L226.724 166.04H228.624L225.104 171.46L228.644 177H226.584ZM293.503 166.04L286.903 182.16H285.023L287.183 176.88L282.763 166.04H284.783L288.223 174.92L291.623 166.04H293.503ZM301.074 226.04L294.474 242.16H292.594L294.754 236.88L290.334 226.04H292.354L295.794 234.92L299.194 226.04H301.074ZM235.073 267L232.473 262.92L229.973 267H228.073L231.613 261.56L228.073 256.04H230.133L232.733 260.1L235.213 256.04H237.113L233.593 261.46L237.133 267H235.073Z" fill="white"/>
<path d="M225.85 194.2V192.54H229.61V207H227.77V194.2H225.85ZM216.709 224.2V222.54H220.469V237H218.629V224.2H216.709Z" fill="#FFB445"/>
<rect width="700" height="400" rx="15" fill="url(#paint0_linear_322:3)"/>
<defs>
<linearGradient id="paint0_linear_322:3" x1="0" y1="0" x2="641.999" y2="-77.9152" gradientUnits="userSpaceOnUse">
<stop stop-color="#1B1C26" stop-opacity="0.1"/>
<stop offset="1" stop-color="#1B1C26"/>
</linearGradient>
</defs>
</svg>
