<svg width="268" height="35" viewBox="0 0 268 35" fill="none" xmlns="http://www.w3.org/2000/svg">
<path d="M0 13.307C0 11.4017 1.5446 9.85706 3.44997 9.85706H7.63922C9.54458 9.85706 11.0892 11.4017 11.0892 13.307V31.0497C11.0892 32.9551 9.54458 34.4997 7.63922 34.4997H3.44997C1.5446 34.4997 0 32.9551 0 31.0497V13.307Z" fill="url(#paint0_linear_237:2025)"/>
<path d="M15.2292 3.44997C15.2292 1.5446 16.7739 0 18.6792 0H22.8685C24.7738 0 26.3184 1.5446 26.3184 3.44997V31.0497C26.3184 32.9551 24.7738 34.4997 22.8685 34.4997H18.6792C16.7738 34.4997 15.2292 32.9551 15.2292 31.0497V3.44997Z" fill="url(#paint1_linear_237:2025)"/>
<path d="M30.4583 17.0034C30.4583 15.0981 32.0029 13.5535 33.9082 13.5535H38.0975C40.0028 13.5535 41.5474 15.0981 41.5474 17.0034V31.0497C41.5474 32.9551 40.0028 34.4997 38.0975 34.4997H33.9082C32.0029 34.4997 30.4583 32.9551 30.4583 31.0497V17.0034Z" fill="url(#paint2_linear_237:2025)"/>
<path d="M73.3151 32.4984C72.6357 32.7949 72.018 33.0729 71.4621 33.3323C70.9185 33.5917 70.202 33.8635 69.3126 34.1476C68.559 34.3823 67.7375 34.58 66.8481 34.7406C65.971 34.9135 65.0013 35 63.9389 35C61.9376 35 60.1155 34.7221 58.4725 34.1661C56.8418 33.5979 55.4212 32.7146 54.2106 31.5163C53.0246 30.3428 52.0981 28.8542 51.431 27.0506C50.764 25.2346 50.4304 23.1284 50.4304 20.7318C50.4304 18.4588 50.7516 16.4267 51.394 14.6354C52.0364 12.8442 52.9629 11.3309 54.1735 10.0955C55.3471 8.89726 56.7615 7.98311 58.4169 7.35309C60.0846 6.72306 61.9314 6.40805 63.9574 6.40805C65.4398 6.40805 66.916 6.58717 68.3861 6.94542C69.8685 7.30367 71.5115 7.9337 73.3151 8.83549V13.1901H73.0371C71.5177 11.9177 70.0106 10.9912 68.5158 10.4106C67.021 9.82994 65.4213 9.53964 63.7165 9.53964C62.3206 9.53964 61.0605 9.76818 59.9364 10.2253C58.8246 10.67 57.8301 11.3679 56.953 12.3192C56.1006 13.2457 55.4335 14.4192 54.9518 15.8399C54.4823 17.2482 54.2476 18.8788 54.2476 20.7318C54.2476 22.6713 54.507 24.339 55.0259 25.735C55.5571 27.1309 56.2365 28.2674 57.0642 29.1445C57.9289 30.0586 58.9357 30.7381 60.0846 31.1828C61.2458 31.6152 62.4688 31.8314 63.7536 31.8314C65.5201 31.8314 67.1755 31.5287 68.7196 30.9234C70.2638 30.3181 71.7092 29.4101 73.0557 28.1995H73.3151V32.4984Z" fill="white"/>
<path d="M94.6584 14.5175C95.5782 15.5282 96.2806 16.7664 96.7658 18.2319C97.2611 19.6975 97.5087 21.3602 97.5087 23.2199C97.5087 25.0797 97.256 26.7474 96.7506 28.223C96.2554 29.6886 95.558 30.9116 94.6584 31.892C93.7285 32.9128 92.6268 33.681 91.3533 34.1965C90.0899 34.7119 88.6446 34.9697 87.0173 34.9697C85.4304 34.9697 83.9851 34.7069 82.6812 34.1813C81.3875 33.6557 80.2858 32.8926 79.3761 31.892C78.4665 30.8914 77.764 29.6633 77.2688 28.2079C76.7836 26.7524 76.541 25.0898 76.541 23.2199C76.541 21.3804 76.7836 19.7329 77.2688 18.2774C77.7539 16.8119 78.4614 15.5586 79.3913 14.5175C80.2807 13.527 81.3824 12.7689 82.6964 12.2433C84.0204 11.7178 85.4607 11.455 87.0173 11.455C88.6344 11.455 90.0848 11.7228 91.3685 12.2585C92.6622 12.7841 93.7589 13.5371 94.6584 14.5175ZM94.3855 23.2199C94.3855 20.2888 93.7285 18.0298 92.4146 16.4429C91.1006 14.846 89.3066 14.0475 87.0324 14.0475C84.7381 14.0475 82.9339 14.846 81.62 16.4429C80.3161 18.0298 79.6642 20.2888 79.6642 23.2199C79.6642 26.1814 80.3313 28.4505 81.6654 30.0272C82.9996 31.5938 84.7886 32.3772 87.0324 32.3772C89.2763 32.3772 91.0602 31.5938 92.3843 30.0272C93.7184 28.4505 94.3855 26.1814 94.3855 23.2199Z" fill="white"/>
<path d="M121.342 23.2351C121.342 25.2869 120.892 27.1466 119.992 28.8143C119.103 30.482 117.915 31.7758 116.43 32.6955C115.399 33.3323 114.246 33.7922 112.973 34.0752C111.709 34.3582 110.042 34.4997 107.97 34.4997H102.269V11.925H107.909C110.113 11.925 111.861 12.0867 113.155 12.4101C114.459 12.7234 115.56 13.1581 116.46 13.714C117.996 14.6742 119.194 15.9527 120.053 17.5497C120.912 19.1467 121.342 21.0418 121.342 23.2351ZM118.203 23.1896C118.203 21.4208 117.895 19.93 117.279 18.7171C116.662 17.5042 115.742 16.5491 114.519 15.8517C113.63 15.3463 112.685 14.9976 111.684 14.8056C110.684 14.6034 109.486 14.5023 108.091 14.5023H105.271V31.9223H108.091C109.536 31.9223 110.795 31.8162 111.866 31.6039C112.948 31.3917 113.938 30.9975 114.838 30.4214C115.96 29.7038 116.799 28.7587 117.354 27.5863C117.92 26.4138 118.203 24.9483 118.203 23.1896Z" fill="white"/>
<path d="M141.066 34.4997H126.193V11.925H141.066V14.5933H129.195V20.779H141.066V23.4473H129.195V31.8314H141.066V34.4997Z" fill="white"/>
<path d="M160.26 14.5933H148.844V20.9609H158.653V23.6293H148.844V34.4997H145.842V11.925H160.26V14.5933Z" fill="white"/>
<path d="M180.53 14.5175C181.45 15.5282 182.153 16.7664 182.638 18.2319C183.133 19.6975 183.381 21.3602 183.381 23.2199C183.381 25.0797 183.128 26.7474 182.623 28.223C182.127 29.6886 181.43 30.9116 180.53 31.892C179.6 32.9128 178.499 33.681 177.225 34.1965C175.962 34.7119 174.516 34.9697 172.889 34.9697C171.302 34.9697 169.857 34.7069 168.553 34.1813C167.259 33.6557 166.158 32.8926 165.248 31.892C164.338 30.8914 163.636 29.6633 163.141 28.2079C162.655 26.7524 162.413 25.0898 162.413 23.2199C162.413 21.3804 162.655 19.7329 163.141 18.2774C163.626 16.8119 164.333 15.5586 165.263 14.5175C166.153 13.527 167.254 12.7689 168.568 12.2433C169.892 11.7178 171.333 11.455 172.889 11.455C174.506 11.455 175.957 11.7228 177.24 12.2585C178.534 12.7841 179.631 13.5371 180.53 14.5175ZM180.257 23.2199C180.257 20.2888 179.6 18.0298 178.286 16.4429C176.973 14.846 175.178 14.0475 172.904 14.0475C170.61 14.0475 168.806 14.846 167.492 16.4429C166.188 18.0298 165.536 20.2888 165.536 23.2199C165.536 26.1814 166.203 28.4505 167.537 30.0272C168.871 31.5938 170.66 32.3772 172.904 32.3772C175.148 32.3772 176.932 31.5938 178.256 30.0272C179.59 28.4505 180.257 26.1814 180.257 23.2199Z" fill="white"/>
<path d="M206.819 34.4997H202.923L195.373 25.5244H191.143V34.4997H188.141V11.925H194.463C195.828 11.925 196.965 12.0159 197.874 12.1979C198.784 12.3697 199.603 12.683 200.331 13.1378C201.149 13.6533 201.786 14.3052 202.241 15.0936C202.706 15.8719 202.938 16.8624 202.938 18.0652C202.938 19.6925 202.529 21.0569 201.71 22.1586C200.892 23.2502 199.765 24.074 198.329 24.6299L206.819 34.4997ZM199.8 18.2774C199.8 17.6306 199.684 17.0595 199.451 16.5642C199.229 16.0589 198.855 15.6344 198.329 15.2907C197.895 14.9976 197.379 14.7955 196.783 14.6843C196.187 14.563 195.484 14.5023 194.675 14.5023H191.143V23.0228H194.175C195.125 23.0228 195.954 22.942 196.662 22.7802C197.369 22.6084 197.97 22.2951 198.466 21.8403C198.921 21.4158 199.254 20.9306 199.466 20.3848C199.689 19.8289 199.8 19.1264 199.8 18.2774Z" fill="white"/>
<path d="M227.166 32.8623C226.61 33.1049 226.104 33.3323 225.649 33.5445C225.205 33.7568 224.618 33.9792 223.891 34.2116C223.274 34.4037 222.602 34.5654 221.874 34.6968C221.157 34.8383 220.363 34.909 219.494 34.909C217.857 34.909 216.366 34.6816 215.022 34.2268C213.687 33.7619 212.525 33.0392 211.535 32.0588C210.564 31.0986 209.806 29.8806 209.26 28.405C208.715 26.9192 208.442 25.1959 208.442 23.2351C208.442 21.3753 208.704 19.7127 209.23 18.2471C209.756 16.7815 210.514 15.5434 211.504 14.5327C212.464 13.5522 213.622 12.8043 214.976 12.2888C216.341 11.7734 217.852 11.5156 219.509 11.5156C220.722 11.5156 221.93 11.6622 223.133 11.9553C224.346 12.2484 225.69 12.7639 227.166 13.5017V17.0645H226.938C225.695 16.0235 224.462 15.2654 223.239 14.7904C222.016 14.3154 220.707 14.0778 219.312 14.0778C218.17 14.0778 217.139 14.2648 216.219 14.6388C215.31 15.0027 214.496 15.5737 213.778 16.352C213.081 17.11 212.535 18.0702 212.141 19.2326C211.757 20.3848 211.565 21.719 211.565 23.2351C211.565 24.8219 211.777 26.1864 212.202 27.3285C212.636 28.4707 213.192 29.4005 213.869 30.1182C214.577 30.8661 215.401 31.422 216.341 31.7859C217.291 32.1396 218.291 32.3165 219.342 32.3165C220.788 32.3165 222.142 32.0689 223.406 31.5736C224.669 31.0784 225.852 30.3355 226.953 29.345H227.166V32.8623Z" fill="white"/>
<path d="M246.284 34.4997H231.411V11.925H246.284V14.5933H234.412V20.779H246.284V23.4473H234.412V31.8314H246.284V34.4997Z" fill="white"/>
<path d="M267.463 28.0563C267.463 28.9356 267.256 29.8048 266.842 30.664C266.438 31.5231 265.866 32.2508 265.129 32.8471C264.32 33.494 263.375 33.9994 262.294 34.3632C261.222 34.7271 259.928 34.909 258.412 34.909C256.785 34.909 255.319 34.7574 254.016 34.4542C252.722 34.151 251.403 33.7012 250.059 33.1049V29.345H250.271C251.413 30.295 252.732 31.0278 254.228 31.5433C255.724 32.0588 257.129 32.3165 258.443 32.3165C260.302 32.3165 261.748 31.9678 262.779 31.2704C263.82 30.573 264.34 29.6431 264.34 28.4808C264.34 27.4802 264.093 26.7423 263.597 26.2673C263.112 25.7922 262.369 25.4233 261.369 25.1605C260.611 24.9584 259.787 24.7916 258.897 24.6602C258.018 24.5288 257.083 24.362 256.093 24.1599C254.091 23.7354 252.606 23.0127 251.635 21.9919C250.675 20.9609 250.195 19.6217 250.195 17.9742C250.195 16.0841 250.994 14.5377 252.59 13.3349C254.187 12.1221 256.214 11.5156 258.67 11.5156C260.257 11.5156 261.712 11.6672 263.036 11.9705C264.36 12.2737 265.533 12.6476 266.554 13.0924V16.64H266.342C265.482 15.9123 264.35 15.3109 262.945 14.8359C261.551 14.3507 260.12 14.1082 258.655 14.1082C257.048 14.1082 255.754 14.4417 254.774 15.1088C253.803 15.7759 253.318 16.635 253.318 17.6861C253.318 18.6261 253.561 19.364 254.046 19.8997C254.531 20.4353 255.385 20.8447 256.608 21.1277C257.255 21.2692 258.175 21.441 259.367 21.6432C260.56 21.8453 261.571 22.0525 262.4 22.2648C264.077 22.7095 265.341 23.3816 266.19 24.2812C267.039 25.1807 267.463 26.4391 267.463 28.0563Z" fill="white"/>
<defs>
<linearGradient id="paint0_linear_237:2025" x1="0" y1="9.85706" x2="13.0769" y2="33.3954" gradientUnits="userSpaceOnUse">
<stop stop-color="#FCD975"/>
<stop offset="1" stop-color="#F5C43B"/>
</linearGradient>
<linearGradient id="paint1_linear_237:2025" x1="15.2292" y1="0" x2="36.1281" y2="26.8699" gradientUnits="userSpaceOnUse">
<stop stop-color="#1C99D4"/>
<stop offset="1" stop-color="#1580C5"/>
</linearGradient>
<linearGradient id="paint2_linear_237:2025" x1="30.4583" y1="13.5535" x2="40.568" y2="34.9622" gradientUnits="userSpaceOnUse">
<stop stop-color="#C21C24"/>
<stop offset="1" stop-color="#B01F26"/>
</linearGradient>
</defs>
</svg>
