<svg width="1280" height="465" viewBox="0 0 1280 465" fill="none" xmlns="http://www.w3.org/2000/svg">
<rect width="1280" height="465" rx="15" fill="#222432"/>
<path d="M28.2751 65.19V64.245H30.8251V75H29.7601V65.19H28.2751ZM26.473 104.175C28.313 102.795 29.733 101.56 30.733 100.47C31.743 99.37 32.248 98.295 32.248 97.245C32.248 96.555 32.073 96.005 31.723 95.595C31.383 95.175 30.823 94.965 30.043 94.965C29.283 94.965 28.693 95.205 28.273 95.685C27.863 96.155 27.633 96.785 27.583 97.575H26.563C26.623 96.465 26.963 95.605 27.583 94.995C28.213 94.375 29.033 94.065 30.043 94.065C31.013 94.065 31.798 94.34 32.398 94.89C32.998 95.43 33.298 96.2 33.298 97.2C33.298 98.41 32.793 99.585 31.783 100.725C30.783 101.855 29.548 102.96 28.078 104.04H33.628V104.925H26.473V104.175ZM26.5428 126.99C26.6128 126.08 26.9628 125.365 27.5928 124.845C28.2328 124.315 29.0578 124.05 30.0678 124.05C30.7378 124.05 31.3128 124.17 31.7928 124.41C32.2728 124.65 32.6328 124.98 32.8728 125.4C33.1228 125.81 33.2478 126.275 33.2478 126.795C33.2478 127.425 33.0628 127.97 32.6928 128.43C32.3228 128.89 31.7978 129.175 31.1178 129.285V129.36C31.8278 129.5 32.3928 129.81 32.8128 130.29C33.2328 130.76 33.4428 131.38 33.4428 132.15C33.4428 133.01 33.1528 133.715 32.5728 134.265C32.0028 134.805 31.1728 135.075 30.0828 135.075C29.0428 135.075 28.1878 134.805 27.5178 134.265C26.8478 133.715 26.4628 132.94 26.3628 131.94H27.3828C27.4728 132.61 27.7528 133.155 28.2228 133.575C28.6928 133.985 29.3128 134.19 30.0828 134.19C30.8428 134.19 31.4228 133.99 31.8228 133.59C32.2328 133.19 32.4378 132.68 32.4378 132.06C32.4378 130.54 31.3428 129.78 29.1528 129.78H28.8228V128.895H29.1678C31.2078 128.895 32.2278 128.23 32.2278 126.9C32.2278 126.32 32.0378 125.855 31.6578 125.505C31.2778 125.145 30.7378 124.965 30.0378 124.965C29.3578 124.965 28.7928 125.145 28.3428 125.505C27.9028 125.855 27.6428 126.35 27.5628 126.99H26.5428ZM25.9104 162.45V161.655L31.3704 154.305H32.6154V161.535H34.2204V162.45H32.6154V165H31.5804V162.45H25.9104ZM31.6254 155.46L27.1254 161.535H31.6254V155.46ZM33.1261 185.145H27.6361V188.985C27.8861 188.635 28.2511 188.35 28.7311 188.13C29.2111 187.9 29.7311 187.785 30.2911 187.785C31.1111 187.785 31.7811 187.955 32.3011 188.295C32.8211 188.625 33.1961 189.06 33.4261 189.6C33.6561 190.13 33.7711 190.7 33.7711 191.31C33.7711 192.01 33.6361 192.645 33.3661 193.215C33.1061 193.775 32.7011 194.22 32.1511 194.55C31.6111 194.88 30.9361 195.045 30.1261 195.045C29.0961 195.045 28.2611 194.78 27.6211 194.25C26.9811 193.71 26.5911 192.985 26.4511 192.075H27.4861C27.6161 192.735 27.9161 193.245 28.3861 193.605C28.8561 193.965 29.4361 194.145 30.1261 194.145C30.9961 194.145 31.6511 193.89 32.0911 193.38C32.5411 192.86 32.7661 192.175 32.7661 191.325C32.7661 190.495 32.5411 189.85 32.0911 189.39C31.6411 188.92 30.9961 188.685 30.1561 188.685C29.5761 188.685 29.0661 188.82 28.6261 189.09C28.1861 189.36 27.8611 189.725 27.6511 190.185H26.6611V184.23H33.1261V185.145ZM32.4382 216.87C32.2182 215.57 31.4632 214.92 30.1732 214.92C29.1932 214.92 28.4582 215.3 27.9682 216.06C27.4782 216.82 27.2532 218.065 27.2932 219.795C27.4932 219.195 27.8732 218.725 28.4332 218.385C29.0032 218.035 29.6532 217.86 30.3832 217.86C31.4332 217.86 32.2632 218.185 32.8732 218.835C33.4932 219.475 33.8032 220.36 33.8032 221.49C33.8032 222.15 33.6732 222.75 33.4132 223.29C33.1632 223.82 32.7732 224.245 32.2432 224.565C31.7232 224.885 31.0732 225.045 30.2932 225.045C28.8032 225.045 27.7732 224.57 27.2032 223.62C26.6432 222.67 26.3632 221.325 26.3632 219.585C26.3632 215.885 27.6332 214.035 30.1732 214.035C31.1332 214.035 31.8882 214.3 32.4382 214.83C32.9882 215.35 33.3132 216.03 33.4132 216.87H32.4382ZM30.1882 218.76C29.7182 218.76 29.2732 218.855 28.8532 219.045C28.4332 219.235 28.0882 219.525 27.8182 219.915C27.5582 220.295 27.4282 220.765 27.4282 221.325C27.4282 222.135 27.6682 222.81 28.1482 223.35C28.6282 223.89 29.3282 224.16 30.2482 224.16C31.0182 224.16 31.6332 223.925 32.0932 223.455C32.5532 222.985 32.7832 222.345 32.7832 221.535C32.7832 220.665 32.5582 219.985 32.1082 219.495C31.6582 219.005 31.0182 218.76 30.1882 218.76ZM33.411 245.07L29.226 255H28.161L32.391 245.16H26.391V244.26H33.411V245.07ZM28.3798 279.42C27.7598 279.22 27.2848 278.905 26.9548 278.475C26.6348 278.045 26.4748 277.525 26.4748 276.915C26.4748 276.375 26.6098 275.895 26.8798 275.475C27.1598 275.045 27.5648 274.71 28.0948 274.47C28.6248 274.22 29.2598 274.095 29.9998 274.095C30.7398 274.095 31.3748 274.22 31.9048 274.47C32.4348 274.71 32.8348 275.045 33.1048 275.475C33.3848 275.895 33.5248 276.375 33.5248 276.915C33.5248 277.515 33.3598 278.035 33.0298 278.475C32.7098 278.915 32.2398 279.23 31.6198 279.42C32.2998 279.59 32.8348 279.915 33.2248 280.395C33.6148 280.875 33.8098 281.46 33.8098 282.15C33.8098 282.79 33.6498 283.35 33.3298 283.83C33.0198 284.3 32.5748 284.665 31.9948 284.925C31.4248 285.185 30.7598 285.315 29.9998 285.315C29.2398 285.315 28.5698 285.185 27.9898 284.925C27.4198 284.665 26.9748 284.3 26.6548 283.83C26.3448 283.35 26.1898 282.79 26.1898 282.15C26.1898 281.46 26.3848 280.875 26.7748 280.395C27.1648 279.915 27.6998 279.59 28.3798 279.42ZM32.5048 277.035C32.5048 276.375 32.2798 275.865 31.8298 275.505C31.3798 275.145 30.7698 274.965 29.9998 274.965C29.2298 274.965 28.6198 275.145 28.1698 275.505C27.7198 275.855 27.4948 276.365 27.4948 277.035C27.4948 277.655 27.7248 278.15 28.1848 278.52C28.6448 278.89 29.2498 279.075 29.9998 279.075C30.7498 279.075 31.3548 278.89 31.8148 278.52C32.2748 278.15 32.5048 277.655 32.5048 277.035ZM29.9998 279.885C29.1798 279.885 28.5098 280.07 27.9898 280.44C27.4698 280.81 27.2098 281.37 27.2098 282.12C27.2098 282.84 27.4598 283.405 27.9598 283.815C28.4598 284.225 29.1398 284.43 29.9998 284.43C30.8498 284.43 31.5248 284.225 32.0248 283.815C32.5248 283.395 32.7748 282.83 32.7748 282.12C32.7748 281.38 32.5148 280.825 31.9948 280.455C31.4848 280.075 30.8198 279.885 29.9998 279.885ZM27.6825 312.135C27.7925 312.785 28.0425 313.285 28.4325 313.635C28.8225 313.985 29.3575 314.16 30.0375 314.16C30.9775 314.16 31.6725 313.795 32.1225 313.065C32.5825 312.325 32.7925 311.105 32.7525 309.405C32.5625 309.955 32.1975 310.39 31.6575 310.71C31.1275 311.02 30.5175 311.175 29.8275 311.175C28.7775 311.175 27.9325 310.86 27.2925 310.23C26.6625 309.6 26.3475 308.725 26.3475 307.605C26.3475 306.935 26.4775 306.33 26.7375 305.79C26.9975 305.25 27.3925 304.825 27.9225 304.515C28.4525 304.205 29.1025 304.05 29.8725 304.05C31.2925 304.05 32.2825 304.515 32.8425 305.445C33.4025 306.365 33.6825 307.69 33.6825 309.42C33.6825 311.29 33.4025 312.695 32.8425 313.635C32.2925 314.575 31.3425 315.045 29.9925 315.045C29.0025 315.045 28.2325 314.78 27.6825 314.25C27.1325 313.71 26.8075 313.005 26.7075 312.135H27.6825ZM29.9925 310.275C30.4625 310.275 30.8925 310.18 31.2825 309.99C31.6825 309.79 32.0025 309.5 32.2425 309.12C32.4825 308.74 32.6025 308.285 32.6025 307.755C32.6025 306.935 32.3675 306.26 31.8975 305.73C31.4375 305.2 30.7725 304.935 29.9025 304.935C29.1325 304.935 28.5125 305.175 28.0425 305.655C27.5825 306.135 27.3525 306.775 27.3525 307.575C27.3525 308.415 27.5825 309.075 28.0425 309.555C28.5025 310.035 29.1525 310.275 29.9925 310.275ZM22.9035 335.19V334.245H25.4535V345H24.3885V335.19H22.9035ZM29.2934 339.525C29.2934 337.805 29.5584 336.47 30.0884 335.52C30.6184 334.57 31.5684 334.095 32.9384 334.095C34.3084 334.095 35.2584 334.57 35.7884 335.52C36.3184 336.47 36.5834 337.805 36.5834 339.525C36.5834 341.275 36.3184 342.63 35.7884 343.59C35.2584 344.55 34.3084 345.03 32.9384 345.03C31.5584 345.03 30.6034 344.55 30.0734 343.59C29.5534 342.63 29.2934 341.275 29.2934 339.525ZM35.5484 339.525C35.5484 338.595 35.4834 337.81 35.3534 337.17C35.2234 336.53 34.9684 336.015 34.5884 335.625C34.2084 335.235 33.6584 335.04 32.9384 335.04C32.2184 335.04 31.6684 335.235 31.2884 335.625C30.9084 336.015 30.6534 336.53 30.5234 337.17C30.3934 337.81 30.3284 338.595 30.3284 339.525C30.3284 340.485 30.3934 341.29 30.5234 341.94C30.6534 342.58 30.9084 343.095 31.2884 343.485C31.6684 343.875 32.2184 344.07 32.9384 344.07C33.6584 344.07 34.2084 343.875 34.5884 343.485C34.9684 343.095 35.2234 342.58 35.3534 341.94C35.4834 341.29 35.5484 340.485 35.5484 339.525ZM25.3351 365.19V364.245H27.8851V375H26.8201V365.19H25.3351ZM31.215 365.19V364.245H33.765V375H32.7V365.19H31.215Z" fill="#4A4E73"/>
<path d="M72.58 80.8L71.82 84.4H74.58V86H71.48L70.62 90H68.88L69.74 86H65.54L64.68 90H62.94L63.8 86H60.66V84.4H64.14L64.9 80.8H61.8V79.2H65.24L66.1 75.2H67.84L66.98 79.2H71.18L72.04 75.2H73.78L72.92 79.2H75.7V80.8H72.58ZM70.84 80.8H66.64L65.88 84.4H70.08L70.84 80.8ZM180.125 87.28L175.305 82.68L180.125 78.1H182.425L177.585 82.68L182.425 87.28H180.125ZM294.032 78.1H296.332L301.172 82.68L296.332 87.28H294.032L298.872 82.68L294.032 78.1ZM71.26 139.04V150H69.44V148.38C69.0933 148.94 68.6067 149.38 67.98 149.7C67.3667 150.007 66.6867 150.16 65.94 150.16C65.0867 150.16 64.32 149.987 63.64 149.64C62.96 149.28 62.42 148.747 62.02 148.04C61.6333 147.333 61.44 146.473 61.44 145.46V139.04H63.24V145.22C63.24 146.3 63.5133 147.133 64.06 147.72C64.6067 148.293 65.3533 148.58 66.3 148.58C67.2733 148.58 68.04 148.28 68.6 147.68C69.16 147.08 69.44 146.207 69.44 145.06V139.04H71.26ZM80.213 150.18C79.373 150.18 78.6196 150.04 77.953 149.76C77.2863 149.467 76.7596 149.067 76.373 148.56C75.9863 148.04 75.773 147.447 75.733 146.78H77.613C77.6663 147.327 77.9196 147.773 78.373 148.12C78.8396 148.467 79.4463 148.64 80.193 148.64C80.8863 148.64 81.433 148.487 81.833 148.18C82.233 147.873 82.433 147.487 82.433 147.02C82.433 146.54 82.2196 146.187 81.793 145.96C81.3663 145.72 80.7063 145.487 79.813 145.26C78.9996 145.047 78.333 144.833 77.813 144.62C77.3063 144.393 76.8663 144.067 76.493 143.64C76.133 143.2 75.953 142.627 75.953 141.92C75.953 141.36 76.1196 140.847 76.453 140.38C76.7863 139.913 77.2596 139.547 77.873 139.28C78.4863 139 79.1863 138.86 79.973 138.86C81.1863 138.86 82.1663 139.167 82.913 139.78C83.6596 140.393 84.0596 141.233 84.113 142.3H82.293C82.253 141.727 82.0196 141.267 81.593 140.92C81.1796 140.573 80.6196 140.4 79.913 140.4C79.2596 140.4 78.7396 140.54 78.353 140.82C77.9663 141.1 77.773 141.467 77.773 141.92C77.773 142.28 77.8863 142.58 78.113 142.82C78.353 143.047 78.6463 143.233 78.993 143.38C79.353 143.513 79.8463 143.667 80.473 143.84C81.2596 144.053 81.8996 144.267 82.393 144.48C82.8863 144.68 83.3063 144.987 83.653 145.4C84.013 145.813 84.1996 146.353 84.213 147.02C84.213 147.62 84.0463 148.16 83.713 148.64C83.3796 149.12 82.9063 149.5 82.293 149.78C81.693 150.047 80.9996 150.18 80.213 150.18ZM89.7222 137.26C89.3755 137.26 89.0822 137.14 88.8422 136.9C88.6022 136.66 88.4822 136.367 88.4822 136.02C88.4822 135.673 88.6022 135.38 88.8422 135.14C89.0822 134.9 89.3755 134.78 89.7222 134.78C90.0555 134.78 90.3355 134.9 90.5622 135.14C90.8022 135.38 90.9222 135.673 90.9222 136.02C90.9222 136.367 90.8022 136.66 90.5622 136.9C90.3355 137.14 90.0555 137.26 89.7222 137.26ZM90.6022 139.04V150H88.7822V139.04H90.6022ZM101.044 138.84C102.377 138.84 103.457 139.247 104.284 140.06C105.111 140.86 105.524 142.02 105.524 143.54V150H103.724V143.8C103.724 142.707 103.451 141.873 102.904 141.3C102.357 140.713 101.611 140.42 100.664 140.42C99.7041 140.42 98.9374 140.72 98.3641 141.32C97.8041 141.92 97.5241 142.793 97.5241 143.94V150H95.7041V139.04H97.5241V140.6C97.8841 140.04 98.3707 139.607 98.9841 139.3C99.6107 138.993 100.297 138.84 101.044 138.84ZM115.017 138.86C115.964 138.86 116.79 139.067 117.497 139.48C118.217 139.893 118.75 140.413 119.097 141.04V139.04H120.937V150.24C120.937 151.24 120.724 152.127 120.297 152.9C119.87 153.687 119.257 154.3 118.457 154.74C117.67 155.18 116.75 155.4 115.697 155.4C114.257 155.4 113.057 155.06 112.097 154.38C111.137 153.7 110.57 152.773 110.397 151.6H112.197C112.397 152.267 112.81 152.8 113.437 153.2C114.064 153.613 114.817 153.82 115.697 153.82C116.697 153.82 117.51 153.507 118.137 152.88C118.777 152.253 119.097 151.373 119.097 150.24V147.94C118.737 148.58 118.204 149.113 117.497 149.54C116.79 149.967 115.964 150.18 115.017 150.18C114.044 150.18 113.157 149.94 112.357 149.46C111.57 148.98 110.95 148.307 110.497 147.44C110.044 146.573 109.817 145.587 109.817 144.48C109.817 143.36 110.044 142.38 110.497 141.54C110.95 140.687 111.57 140.027 112.357 139.56C113.157 139.093 114.044 138.86 115.017 138.86ZM119.097 144.5C119.097 143.673 118.93 142.953 118.597 142.34C118.264 141.727 117.81 141.26 117.237 140.94C116.677 140.607 116.057 140.44 115.377 140.44C114.697 140.44 114.077 140.6 113.517 140.92C112.957 141.24 112.51 141.707 112.177 142.32C111.844 142.933 111.677 143.653 111.677 144.48C111.677 145.32 111.844 146.053 112.177 146.68C112.51 147.293 112.957 147.767 113.517 148.1C114.077 148.42 114.697 148.58 115.377 148.58C116.057 148.58 116.677 148.42 117.237 148.1C117.81 147.767 118.264 147.293 118.597 146.68C118.93 146.053 119.097 145.327 119.097 144.5ZM318.334 141.54C317.988 141.54 317.694 141.42 317.454 141.18C317.214 140.94 317.094 140.647 317.094 140.3C317.094 139.953 317.214 139.66 317.454 139.42C317.694 139.18 317.988 139.06 318.334 139.06C318.668 139.06 318.948 139.18 319.174 139.42C319.414 139.66 319.534 139.953 319.534 140.3C319.534 140.647 319.414 140.94 319.174 141.18C318.948 141.42 318.668 141.54 318.334 141.54ZM319.654 147.48L317.414 152.86H316.194L317.654 147.48H319.654ZM235.315 207.48L233.075 212.86H231.855L233.315 207.48H235.315ZM214.725 229.76V231.3H204.325V229.76H214.725ZM214.725 234.06V235.6H204.325V234.06H214.725ZM237.096 231.54C236.749 231.54 236.456 231.42 236.216 231.18C235.976 230.94 235.856 230.647 235.856 230.3C235.856 229.953 235.976 229.66 236.216 229.42C236.456 229.18 236.749 229.06 237.096 229.06C237.429 229.06 237.709 229.18 237.936 229.42C238.176 229.66 238.296 229.953 238.296 230.3C238.296 230.647 238.176 230.94 237.936 231.18C237.709 231.42 237.429 231.54 237.096 231.54ZM238.416 237.48L236.176 242.86H234.956L236.416 237.48H238.416ZM205.584 259.76V261.3H195.184V259.76H205.584ZM205.584 264.06V265.6H195.184V264.06H205.584ZM227.955 261.54C227.609 261.54 227.315 261.42 227.075 261.18C226.835 260.94 226.715 260.647 226.715 260.3C226.715 259.953 226.835 259.66 227.075 259.42C227.315 259.18 227.609 259.06 227.955 259.06C228.289 259.06 228.569 259.18 228.795 259.42C229.035 259.66 229.155 259.953 229.155 260.3C229.155 260.647 229.035 260.94 228.795 261.18C228.569 261.42 228.289 261.54 227.955 261.54ZM229.275 267.48L227.035 272.86H225.815L227.275 267.48H229.275ZM306.963 261.54C306.617 261.54 306.323 261.42 306.083 261.18C305.843 260.94 305.723 260.647 305.723 260.3C305.723 259.953 305.843 259.66 306.083 259.42C306.323 259.18 306.617 259.06 306.963 259.06C307.297 259.06 307.577 259.18 307.803 259.42C308.043 259.66 308.163 259.953 308.163 260.3C308.163 260.647 308.043 260.94 307.803 261.18C307.577 261.42 307.297 261.54 306.963 261.54ZM308.283 267.48L306.043 272.86H304.823L306.283 267.48H308.283ZM337.831 263.46H333.571V267.78H331.871V263.46H327.631V261.92H331.871V257.58H333.571V261.92H337.831V263.46ZM353.483 263.46H349.223V267.78H347.523V263.46H343.283V261.92H347.523V257.58H349.223V261.92H353.483V263.46ZM201.041 286.6L201.761 287.9L198.981 289.06L201.781 290.2L201.021 291.54L198.601 289.78L198.921 292.8H197.421L197.721 289.78L195.301 291.56L194.521 290.2L197.301 289.04L194.521 287.92L195.261 286.58L197.741 288.36L197.421 285.32H198.941L198.601 288.36L201.041 286.6ZM217.447 289.76V291.3H207.047V289.76H217.447ZM217.447 294.06V295.6H207.047V294.06H217.447ZM242.983 291.54C242.636 291.54 242.343 291.42 242.103 291.18C241.863 290.94 241.743 290.647 241.743 290.3C241.743 289.953 241.863 289.66 242.103 289.42C242.343 289.18 242.636 289.06 242.983 289.06C243.316 289.06 243.596 289.18 243.823 289.42C244.063 289.66 244.183 289.953 244.183 290.3C244.183 290.647 244.063 290.94 243.823 291.18C243.596 291.42 243.316 291.54 242.983 291.54ZM244.303 297.48L242.063 302.86H240.843L242.303 297.48H244.303ZM238.768 351.54C238.421 351.54 238.128 351.42 237.888 351.18C237.648 350.94 237.528 350.647 237.528 350.3C237.528 349.953 237.648 349.66 237.888 349.42C238.128 349.18 238.421 349.06 238.768 349.06C239.101 349.06 239.381 349.18 239.608 349.42C239.848 349.66 239.968 349.953 239.968 350.3C239.968 350.647 239.848 350.94 239.608 351.18C239.381 351.42 239.101 351.54 238.768 351.54ZM240.088 357.48L237.848 362.86H236.628L238.088 357.48H240.088Z" fill="#76F7FF"/>
<path d="M81.2769 77.26C80.9302 77.26 80.6369 77.14 80.3969 76.9C80.1569 76.66 80.0369 76.3667 80.0369 76.02C80.0369 75.6733 80.1569 75.38 80.3969 75.14C80.6369 74.9 80.9302 74.78 81.2769 74.78C81.6102 74.78 81.8902 74.9 82.1169 75.14C82.3569 75.38 82.4769 75.6733 82.4769 76.02C82.4769 76.3667 82.3569 76.66 82.1169 76.9C81.8902 77.14 81.6102 77.26 81.2769 77.26ZM82.1569 79.04V90H80.3369V79.04H82.1569ZM92.5988 78.84C93.9321 78.84 95.0121 79.2467 95.8388 80.06C96.6654 80.86 97.0788 82.02 97.0788 83.54V90H95.2788V83.8C95.2788 82.7067 95.0054 81.8733 94.4588 81.3C93.9121 80.7133 93.1654 80.42 92.2188 80.42C91.2588 80.42 90.4921 80.72 89.9188 81.32C89.3588 81.92 89.0788 82.7933 89.0788 83.94V90H87.2588V79.04H89.0788V80.6C89.4388 80.04 89.9254 79.6067 90.5388 79.3C91.1654 78.9933 91.8521 78.84 92.5988 78.84ZM101.372 84.5C101.372 83.3667 101.598 82.38 102.052 81.54C102.505 80.6867 103.132 80.0267 103.932 79.56C104.745 79.0933 105.672 78.86 106.712 78.86C108.058 78.86 109.165 79.1867 110.032 79.84C110.912 80.4933 111.492 81.4 111.772 82.56H109.812C109.625 81.8933 109.258 81.3667 108.712 80.98C108.178 80.5933 107.512 80.4 106.712 80.4C105.672 80.4 104.832 80.76 104.192 81.48C103.552 82.1867 103.232 83.1933 103.232 84.5C103.232 85.82 103.552 86.84 104.192 87.56C104.832 88.28 105.672 88.64 106.712 88.64C107.512 88.64 108.178 88.4533 108.712 88.08C109.245 87.7067 109.612 87.1733 109.812 86.48H111.772C111.478 87.6 110.892 88.5 110.012 89.18C109.132 89.8467 108.032 90.18 106.712 90.18C105.672 90.18 104.745 89.9467 103.932 89.48C103.132 89.0133 102.505 88.3533 102.052 87.5C101.598 86.6467 101.372 85.6467 101.372 84.5ZM118.02 75.2V90H116.2V75.2H118.02ZM132.842 79.04V90H131.022V88.38C130.675 88.94 130.189 89.38 129.562 89.7C128.949 90.0067 128.269 90.16 127.522 90.16C126.669 90.16 125.902 89.9867 125.222 89.64C124.542 89.28 124.002 88.7467 123.602 88.04C123.215 87.3333 123.022 86.4733 123.022 85.46V79.04H124.822V85.22C124.822 86.3 125.095 87.1333 125.642 87.72C126.189 88.2933 126.935 88.58 127.882 88.58C128.855 88.58 129.622 88.28 130.182 87.68C130.742 87.08 131.022 86.2067 131.022 85.06V79.04H132.842ZM137.235 84.48C137.235 83.36 137.462 82.38 137.915 81.54C138.368 80.6867 138.988 80.0267 139.775 79.56C140.575 79.0933 141.468 78.86 142.455 78.86C143.308 78.86 144.102 79.06 144.835 79.46C145.568 79.8467 146.128 80.36 146.515 81V75.2H148.355V90H146.515V87.94C146.155 88.5933 145.622 89.1333 144.915 89.56C144.208 89.9733 143.382 90.18 142.435 90.18C141.462 90.18 140.575 89.94 139.775 89.46C138.988 88.98 138.368 88.3067 137.915 87.44C137.462 86.5733 137.235 85.5867 137.235 84.48ZM146.515 84.5C146.515 83.6733 146.348 82.9533 146.015 82.34C145.682 81.7267 145.228 81.26 144.655 80.94C144.095 80.6067 143.475 80.44 142.795 80.44C142.115 80.44 141.495 80.6 140.935 80.92C140.375 81.24 139.928 81.7067 139.595 82.32C139.262 82.9333 139.095 83.6533 139.095 84.48C139.095 85.32 139.262 86.0533 139.595 86.68C139.928 87.2933 140.375 87.7667 140.935 88.1C141.495 88.42 142.115 88.58 142.795 88.58C143.475 88.58 144.095 88.42 144.655 88.1C145.228 87.7667 145.682 87.2933 146.015 86.68C146.348 86.0533 146.515 85.3267 146.515 84.5ZM163.431 84.1C163.431 84.4467 163.411 84.8133 163.371 85.2H154.611C154.677 86.28 155.044 87.1267 155.711 87.74C156.391 88.34 157.211 88.64 158.171 88.64C158.957 88.64 159.611 88.46 160.131 88.1C160.664 87.7267 161.037 87.2333 161.251 86.62H163.211C162.917 87.6733 162.331 88.5333 161.451 89.2C160.571 89.8533 159.477 90.18 158.171 90.18C157.131 90.18 156.197 89.9467 155.371 89.48C154.557 89.0133 153.917 88.3533 153.451 87.5C152.984 86.6333 152.751 85.6333 152.751 84.5C152.751 83.3667 152.977 82.3733 153.431 81.52C153.884 80.6667 154.517 80.0133 155.331 79.56C156.157 79.0933 157.104 78.86 158.171 78.86C159.211 78.86 160.131 79.0867 160.931 79.54C161.731 79.9933 162.344 80.62 162.771 81.42C163.211 82.2067 163.431 83.1 163.431 84.1ZM161.551 83.72C161.551 83.0267 161.397 82.4333 161.091 81.94C160.784 81.4333 160.364 81.0533 159.831 80.8C159.311 80.5333 158.731 80.4 158.091 80.4C157.171 80.4 156.384 80.6933 155.731 81.28C155.091 81.8667 154.724 82.68 154.631 83.72H161.551ZM138.685 138.84C140.018 138.84 141.098 139.247 141.925 140.06C142.751 140.86 143.165 142.02 143.165 143.54V150H141.365V143.8C141.365 142.707 141.091 141.873 140.545 141.3C139.998 140.713 139.251 140.42 138.305 140.42C137.345 140.42 136.578 140.72 136.005 141.32C135.445 141.92 135.165 142.793 135.165 143.94V150H133.345V139.04H135.165V140.6C135.525 140.04 136.011 139.607 136.625 139.3C137.251 138.993 137.938 138.84 138.685 138.84ZM147.458 144.48C147.458 143.36 147.684 142.38 148.138 141.54C148.591 140.687 149.211 140.027 149.998 139.56C150.798 139.093 151.684 138.86 152.658 138.86C153.618 138.86 154.451 139.067 155.158 139.48C155.864 139.893 156.391 140.413 156.738 141.04V139.04H158.578V150H156.738V147.96C156.378 148.6 155.838 149.133 155.118 149.56C154.411 149.973 153.584 150.18 152.638 150.18C151.664 150.18 150.784 149.94 149.998 149.46C149.211 148.98 148.591 148.307 148.138 147.44C147.684 146.573 147.458 145.587 147.458 144.48ZM156.738 144.5C156.738 143.673 156.571 142.953 156.238 142.34C155.904 141.727 155.451 141.26 154.878 140.94C154.318 140.607 153.698 140.44 153.018 140.44C152.338 140.44 151.718 140.6 151.158 140.92C150.598 141.24 150.151 141.707 149.818 142.32C149.484 142.933 149.318 143.653 149.318 144.48C149.318 145.32 149.484 146.053 149.818 146.68C150.151 147.293 150.598 147.767 151.158 148.1C151.718 148.42 152.338 148.58 153.018 148.58C153.698 148.58 154.318 148.42 154.878 148.1C155.451 147.767 155.904 147.293 156.238 146.68C156.571 146.053 156.738 145.327 156.738 144.5ZM176.833 138.84C177.687 138.84 178.447 139.02 179.113 139.38C179.78 139.727 180.307 140.253 180.693 140.96C181.08 141.667 181.273 142.527 181.273 143.54V150H179.473V143.8C179.473 142.707 179.2 141.873 178.653 141.3C178.12 140.713 177.393 140.42 176.473 140.42C175.527 140.42 174.773 140.727 174.213 141.34C173.653 141.94 173.373 142.813 173.373 143.96V150H171.573V143.8C171.573 142.707 171.3 141.873 170.753 141.3C170.22 140.713 169.493 140.42 168.573 140.42C167.627 140.42 166.873 140.727 166.313 141.34C165.753 141.94 165.473 142.813 165.473 143.96V150H163.653V139.04H165.473V140.62C165.833 140.047 166.313 139.607 166.913 139.3C167.527 138.993 168.2 138.84 168.933 138.84C169.853 138.84 170.667 139.047 171.373 139.46C172.08 139.873 172.607 140.48 172.953 141.28C173.26 140.507 173.767 139.907 174.473 139.48C175.18 139.053 175.967 138.84 176.833 138.84ZM196.259 144.1C196.259 144.447 196.239 144.813 196.199 145.2H187.439C187.505 146.28 187.872 147.127 188.539 147.74C189.219 148.34 190.039 148.64 190.999 148.64C191.785 148.64 192.439 148.46 192.959 148.1C193.492 147.727 193.865 147.233 194.079 146.62H196.039C195.745 147.673 195.159 148.533 194.279 149.2C193.399 149.853 192.305 150.18 190.999 150.18C189.959 150.18 189.025 149.947 188.199 149.48C187.385 149.013 186.745 148.353 186.279 147.5C185.812 146.633 185.579 145.633 185.579 144.5C185.579 143.367 185.805 142.373 186.259 141.52C186.712 140.667 187.345 140.013 188.159 139.56C188.985 139.093 189.932 138.86 190.999 138.86C192.039 138.86 192.959 139.087 193.759 139.54C194.559 139.993 195.172 140.62 195.599 141.42C196.039 142.207 196.259 143.1 196.259 144.1ZM194.379 143.72C194.379 143.027 194.225 142.433 193.919 141.94C193.612 141.433 193.192 141.053 192.659 140.8C192.139 140.533 191.559 140.4 190.919 140.4C189.999 140.4 189.212 140.693 188.559 141.28C187.919 141.867 187.552 142.68 187.459 143.72H194.379ZM204.541 150.18C203.701 150.18 202.948 150.04 202.281 149.76C201.614 149.467 201.088 149.067 200.701 148.56C200.314 148.04 200.101 147.447 200.061 146.78H201.941C201.994 147.327 202.248 147.773 202.701 148.12C203.168 148.467 203.774 148.64 204.521 148.64C205.214 148.64 205.761 148.487 206.161 148.18C206.561 147.873 206.761 147.487 206.761 147.02C206.761 146.54 206.548 146.187 206.121 145.96C205.694 145.72 205.034 145.487 204.141 145.26C203.328 145.047 202.661 144.833 202.141 144.62C201.634 144.393 201.194 144.067 200.821 143.64C200.461 143.2 200.281 142.627 200.281 141.92C200.281 141.36 200.448 140.847 200.781 140.38C201.114 139.913 201.588 139.547 202.201 139.28C202.814 139 203.514 138.86 204.301 138.86C205.514 138.86 206.494 139.167 207.241 139.78C207.988 140.393 208.388 141.233 208.441 142.3H206.621C206.581 141.727 206.348 141.267 205.921 140.92C205.508 140.573 204.948 140.4 204.241 140.4C203.588 140.4 203.068 140.54 202.681 140.82C202.294 141.1 202.101 141.467 202.101 141.92C202.101 142.28 202.214 142.58 202.441 142.82C202.681 143.047 202.974 143.233 203.321 143.38C203.681 143.513 204.174 143.667 204.801 143.84C205.588 144.053 206.228 144.267 206.721 144.48C207.214 144.68 207.634 144.987 207.981 145.4C208.341 145.813 208.528 146.353 208.541 147.02C208.541 147.62 208.374 148.16 208.041 148.64C207.708 149.12 207.234 149.5 206.621 149.78C206.021 150.047 205.328 150.18 204.541 150.18ZM214.93 141.06C215.29 140.433 215.824 139.913 216.53 139.5C217.25 139.073 218.084 138.86 219.03 138.86C220.004 138.86 220.884 139.093 221.67 139.56C222.47 140.027 223.097 140.687 223.55 141.54C224.004 142.38 224.23 143.36 224.23 144.48C224.23 145.587 224.004 146.573 223.55 147.44C223.097 148.307 222.47 148.98 221.67 149.46C220.884 149.94 220.004 150.18 219.03 150.18C218.097 150.18 217.27 149.973 216.55 149.56C215.844 149.133 215.304 148.607 214.93 147.98V155.2H213.11V139.04H214.93V141.06ZM222.37 144.48C222.37 143.653 222.204 142.933 221.87 142.32C221.537 141.707 221.084 141.24 220.51 140.92C219.95 140.6 219.33 140.44 218.65 140.44C217.984 140.44 217.364 140.607 216.79 140.94C216.23 141.26 215.777 141.733 215.43 142.36C215.097 142.973 214.93 143.687 214.93 144.5C214.93 145.327 215.097 146.053 215.43 146.68C215.777 147.293 216.23 147.767 216.79 148.1C217.364 148.42 217.984 148.58 218.65 148.58C219.33 148.58 219.95 148.42 220.51 148.1C221.084 147.767 221.537 147.293 221.87 146.68C222.204 146.053 222.37 145.32 222.37 144.48ZM227.946 144.48C227.946 143.36 228.173 142.38 228.626 141.54C229.079 140.687 229.699 140.027 230.486 139.56C231.286 139.093 232.173 138.86 233.146 138.86C234.106 138.86 234.939 139.067 235.646 139.48C236.353 139.893 236.879 140.413 237.226 141.04V139.04H239.066V150H237.226V147.96C236.866 148.6 236.326 149.133 235.606 149.56C234.899 149.973 234.073 150.18 233.126 150.18C232.153 150.18 231.273 149.94 230.486 149.46C229.699 148.98 229.079 148.307 228.626 147.44C228.173 146.573 227.946 145.587 227.946 144.48ZM237.226 144.5C237.226 143.673 237.059 142.953 236.726 142.34C236.393 141.727 235.939 141.26 235.366 140.94C234.806 140.607 234.186 140.44 233.506 140.44C232.826 140.44 232.206 140.6 231.646 140.92C231.086 141.24 230.639 141.707 230.306 142.32C229.973 142.933 229.806 143.653 229.806 144.48C229.806 145.32 229.973 146.053 230.306 146.68C230.639 147.293 231.086 147.767 231.646 148.1C232.206 148.42 232.826 148.58 233.506 148.58C234.186 148.58 234.806 148.42 235.366 148.1C235.939 147.767 236.393 147.293 236.726 146.68C237.059 146.053 237.226 145.327 237.226 144.5ZM243.462 144.5C243.462 143.367 243.688 142.38 244.142 141.54C244.595 140.687 245.222 140.027 246.022 139.56C246.835 139.093 247.762 138.86 248.802 138.86C250.148 138.86 251.255 139.187 252.122 139.84C253.002 140.493 253.582 141.4 253.862 142.56H251.902C251.715 141.893 251.348 141.367 250.802 140.98C250.268 140.593 249.602 140.4 248.802 140.4C247.762 140.4 246.922 140.76 246.282 141.48C245.642 142.187 245.322 143.193 245.322 144.5C245.322 145.82 245.642 146.84 246.282 147.56C246.922 148.28 247.762 148.64 248.802 148.64C249.602 148.64 250.268 148.453 250.802 148.08C251.335 147.707 251.702 147.173 251.902 146.48H253.862C253.568 147.6 252.982 148.5 252.102 149.18C251.222 149.847 250.122 150.18 248.802 150.18C247.762 150.18 246.835 149.947 246.022 149.48C245.222 149.013 244.595 148.353 244.142 147.5C243.688 146.647 243.462 145.647 243.462 144.5ZM268.29 144.1C268.29 144.447 268.27 144.813 268.23 145.2H259.47C259.537 146.28 259.903 147.127 260.57 147.74C261.25 148.34 262.07 148.64 263.03 148.64C263.817 148.64 264.47 148.46 264.99 148.1C265.523 147.727 265.897 147.233 266.11 146.62H268.07C267.777 147.673 267.19 148.533 266.31 149.2C265.43 149.853 264.337 150.18 263.03 150.18C261.99 150.18 261.057 149.947 260.23 149.48C259.417 149.013 258.777 148.353 258.31 147.5C257.843 146.633 257.61 145.633 257.61 144.5C257.61 143.367 257.837 142.373 258.29 141.52C258.743 140.667 259.377 140.013 260.19 139.56C261.017 139.093 261.963 138.86 263.03 138.86C264.07 138.86 264.99 139.087 265.79 139.54C266.59 139.993 267.203 140.62 267.63 141.42C268.07 142.207 268.29 143.1 268.29 144.1ZM266.41 143.72C266.41 143.027 266.257 142.433 265.95 141.94C265.643 141.433 265.223 141.053 264.69 140.8C264.17 140.533 263.59 140.4 262.95 140.4C262.03 140.4 261.243 140.693 260.59 141.28C259.95 141.867 259.583 142.68 259.49 143.72H266.41ZM62.48 197.26C62.1333 197.26 61.84 197.14 61.6 196.9C61.36 196.66 61.24 196.367 61.24 196.02C61.24 195.673 61.36 195.38 61.6 195.14C61.84 194.9 62.1333 194.78 62.48 194.78C62.8133 194.78 63.0933 194.9 63.32 195.14C63.56 195.38 63.68 195.673 63.68 196.02C63.68 196.367 63.56 196.66 63.32 196.9C63.0933 197.14 62.8133 197.26 62.48 197.26ZM63.36 199.04V210H61.54V199.04H63.36ZM73.8019 198.84C75.1352 198.84 76.2152 199.247 77.0419 200.06C77.8685 200.86 78.2819 202.02 78.2819 203.54V210H76.4819V203.8C76.4819 202.707 76.2085 201.873 75.6619 201.3C75.1152 200.713 74.3685 200.42 73.4219 200.42C72.4619 200.42 71.6952 200.72 71.1219 201.32C70.5619 201.92 70.2819 202.793 70.2819 203.94V210H68.4619V199.04H70.2819V200.6C70.6419 200.04 71.1285 199.607 71.7419 199.3C72.3685 198.993 73.0552 198.84 73.8019 198.84ZM85.4748 200.54V207C85.4748 207.533 85.5882 207.913 85.8148 208.14C86.0415 208.353 86.4348 208.46 86.9948 208.46H88.3348V210H86.6948C85.6815 210 84.9215 209.767 84.4148 209.3C83.9082 208.833 83.6548 208.067 83.6548 207V200.54H82.2348V199.04H83.6548V196.28H85.4748V199.04H88.3348V200.54H85.4748ZM184.472 197.26C184.126 197.26 183.832 197.14 183.592 196.9C183.352 196.66 183.232 196.367 183.232 196.02C183.232 195.673 183.352 195.38 183.592 195.14C183.832 194.9 184.126 194.78 184.472 194.78C184.806 194.78 185.086 194.9 185.312 195.14C185.552 195.38 185.672 195.673 185.672 196.02C185.672 196.367 185.552 196.66 185.312 196.9C185.086 197.14 184.806 197.26 184.472 197.26ZM185.352 199.04V210H183.532V199.04H185.352ZM195.794 198.84C197.127 198.84 198.207 199.247 199.034 200.06C199.861 200.86 200.274 202.02 200.274 203.54V210H198.474V203.8C198.474 202.707 198.201 201.873 197.654 201.3C197.107 200.713 196.361 200.42 195.414 200.42C194.454 200.42 193.687 200.72 193.114 201.32C192.554 201.92 192.274 202.793 192.274 203.94V210H190.454V199.04H192.274V200.6C192.634 200.04 193.121 199.607 193.734 199.3C194.361 198.993 195.047 198.84 195.794 198.84ZM207.467 200.54V207C207.467 207.533 207.58 207.913 207.807 208.14C208.034 208.353 208.427 208.46 208.987 208.46H210.327V210H208.687C207.674 210 206.914 209.767 206.407 209.3C205.9 208.833 205.647 208.067 205.647 207V200.54H204.227V199.04H205.647V196.28H207.467V199.04H210.327V200.54H207.467ZM247.671 197.26C247.325 197.26 247.031 197.14 246.791 196.9C246.551 196.66 246.431 196.367 246.431 196.02C246.431 195.673 246.551 195.38 246.791 195.14C247.031 194.9 247.325 194.78 247.671 194.78C248.005 194.78 248.285 194.9 248.511 195.14C248.751 195.38 248.871 195.673 248.871 196.02C248.871 196.367 248.751 196.66 248.511 196.9C248.285 197.14 248.005 197.26 247.671 197.26ZM248.551 199.04V210H246.731V199.04H248.551ZM258.993 198.84C260.327 198.84 261.407 199.247 262.233 200.06C263.06 200.86 263.473 202.02 263.473 203.54V210H261.673V203.8C261.673 202.707 261.4 201.873 260.853 201.3C260.307 200.713 259.56 200.42 258.613 200.42C257.653 200.42 256.887 200.72 256.313 201.32C255.753 201.92 255.473 202.793 255.473 203.94V210H253.653V199.04H255.473V200.6C255.833 200.04 256.32 199.607 256.933 199.3C257.56 198.993 258.247 198.84 258.993 198.84ZM270.666 200.54V207C270.666 207.533 270.78 207.913 271.006 208.14C271.233 208.353 271.626 208.46 272.186 208.46H273.526V210H271.886C270.873 210 270.113 209.767 269.606 209.3C269.1 208.833 268.846 208.067 268.846 207V200.54H267.426V199.04H268.846V196.28H270.666V199.04H273.526V200.54H270.666ZM91.8081 227.26C91.4615 227.26 91.1681 227.14 90.9281 226.9C90.6881 226.66 90.5681 226.367 90.5681 226.02C90.5681 225.673 90.6881 225.38 90.9281 225.14C91.1681 224.9 91.4615 224.78 91.8081 224.78C92.1415 224.78 92.4215 224.9 92.6481 225.14C92.8881 225.38 93.0081 225.673 93.0081 226.02C93.0081 226.367 92.8881 226.66 92.6481 226.9C92.4215 227.14 92.1415 227.26 91.8081 227.26ZM92.6881 229.04V240H90.8681V229.04H92.6881ZM103.13 228.84C104.463 228.84 105.543 229.247 106.37 230.06C107.197 230.86 107.61 232.02 107.61 233.54V240H105.81V233.8C105.81 232.707 105.537 231.873 104.99 231.3C104.443 230.713 103.697 230.42 102.75 230.42C101.79 230.42 101.023 230.72 100.45 231.32C99.89 231.92 99.61 232.793 99.61 233.94V240H97.79V229.04H99.61V230.6C99.97 230.04 100.457 229.607 101.07 229.3C101.697 228.993 102.383 228.84 103.13 228.84ZM114.803 230.54V237C114.803 237.533 114.916 237.913 115.143 238.14C115.37 238.353 115.763 238.46 116.323 238.46H117.663V240H116.023C115.01 240 114.25 239.767 113.743 239.3C113.236 238.833 112.983 238.067 112.983 237V230.54H111.563V229.04H112.983V226.28H114.803V229.04H117.663V230.54H114.803ZM95.3281 260.54H93.0281V270H91.2081V260.54H89.7881V259.04H91.2081V258.26C91.2081 257.033 91.5215 256.14 92.1481 255.58C92.7881 255.007 93.8081 254.72 95.2081 254.72V256.24C94.4081 256.24 93.8415 256.4 93.5081 256.72C93.1881 257.027 93.0281 257.54 93.0281 258.26V259.04H95.3281V260.54ZM104.23 270.18C103.203 270.18 102.27 269.947 101.43 269.48C100.603 269.013 99.9502 268.353 99.4702 267.5C99.0035 266.633 98.7702 265.633 98.7702 264.5C98.7702 263.38 99.0102 262.393 99.4902 261.54C99.9835 260.673 100.65 260.013 101.49 259.56C102.33 259.093 103.27 258.86 104.31 258.86C105.35 258.86 106.29 259.093 107.13 259.56C107.97 260.013 108.63 260.667 109.11 261.52C109.603 262.373 109.85 263.367 109.85 264.5C109.85 265.633 109.597 266.633 109.09 267.5C108.597 268.353 107.923 269.013 107.07 269.48C106.217 269.947 105.27 270.18 104.23 270.18ZM104.23 268.58C104.883 268.58 105.497 268.427 106.07 268.12C106.643 267.813 107.103 267.353 107.45 266.74C107.81 266.127 107.99 265.38 107.99 264.5C107.99 263.62 107.817 262.873 107.47 262.26C107.123 261.647 106.67 261.193 106.11 260.9C105.55 260.593 104.943 260.44 104.29 260.44C103.623 260.44 103.01 260.593 102.45 260.9C101.903 261.193 101.463 261.647 101.13 262.26C100.797 262.873 100.63 263.62 100.63 264.5C100.63 265.393 100.79 266.147 101.11 266.76C101.443 267.373 101.883 267.833 102.43 268.14C102.977 268.433 103.577 268.58 104.23 268.58ZM116.063 260.82C116.383 260.193 116.836 259.707 117.423 259.36C118.023 259.013 118.75 258.84 119.603 258.84V260.72H119.123C117.083 260.72 116.063 261.827 116.063 264.04V270H114.243V259.04H116.063V260.82ZM143.058 257.26C142.711 257.26 142.418 257.14 142.178 256.9C141.938 256.66 141.818 256.367 141.818 256.02C141.818 255.673 141.938 255.38 142.178 255.14C142.418 254.9 142.711 254.78 143.058 254.78C143.391 254.78 143.671 254.9 143.898 255.14C144.138 255.38 144.258 255.673 144.258 256.02C144.258 256.367 144.138 256.66 143.898 256.9C143.671 257.14 143.391 257.26 143.058 257.26ZM143.938 259.04V270H142.118V259.04H143.938ZM154.38 258.84C155.713 258.84 156.793 259.247 157.62 260.06C158.447 260.86 158.86 262.02 158.86 263.54V270H157.06V263.8C157.06 262.707 156.787 261.873 156.24 261.3C155.693 260.713 154.947 260.42 154 260.42C153.04 260.42 152.273 260.72 151.7 261.32C151.14 261.92 150.86 262.793 150.86 263.94V270H149.04V259.04H150.86V260.6C151.22 260.04 151.707 259.607 152.32 259.3C152.947 258.993 153.633 258.84 154.38 258.84ZM166.053 260.54V267C166.053 267.533 166.166 267.913 166.393 268.14C166.62 268.353 167.013 268.46 167.573 268.46H168.913V270H167.273C166.26 270 165.5 269.767 164.993 269.3C164.486 268.833 164.233 268.067 164.233 267V260.54H162.813V259.04H164.233V256.28H166.053V259.04H168.913V260.54H166.053ZM260.715 267.28L255.895 262.68L260.715 258.1H263.015L258.175 262.68L263.015 267.28H260.715ZM279.729 259.76V261.3H269.329V259.76H279.729ZM279.729 264.06V265.6H269.329V264.06H279.729ZM92.6881 350.82C93.0081 350.193 93.4615 349.707 94.0481 349.36C94.6481 349.013 95.3748 348.84 96.2281 348.84V350.72H95.7481C93.7081 350.72 92.6881 351.827 92.6881 354.04V360H90.8681V349.04H92.6881V350.82ZM110.329 354.1C110.329 354.447 110.309 354.813 110.269 355.2H101.509C101.576 356.28 101.942 357.127 102.609 357.74C103.289 358.34 104.109 358.64 105.069 358.64C105.856 358.64 106.509 358.46 107.029 358.1C107.562 357.727 107.936 357.233 108.149 356.62H110.109C109.816 357.673 109.229 358.533 108.349 359.2C107.469 359.853 106.376 360.18 105.069 360.18C104.029 360.18 103.096 359.947 102.269 359.48C101.456 359.013 100.816 358.353 100.349 357.5C99.8824 356.633 99.6491 355.633 99.6491 354.5C99.6491 353.367 99.8757 352.373 100.329 351.52C100.782 350.667 101.416 350.013 102.229 349.56C103.056 349.093 104.002 348.86 105.069 348.86C106.109 348.86 107.029 349.087 107.829 349.54C108.629 349.993 109.242 350.62 109.669 351.42C110.109 352.207 110.329 353.1 110.329 354.1ZM108.449 353.72C108.449 353.027 108.296 352.433 107.989 351.94C107.682 351.433 107.262 351.053 106.729 350.8C106.209 350.533 105.629 350.4 104.989 350.4C104.069 350.4 103.282 350.693 102.629 351.28C101.989 351.867 101.622 352.68 101.529 353.72H108.449ZM116.951 350.54V357C116.951 357.533 117.065 357.913 117.291 358.14C117.518 358.353 117.911 358.46 118.471 358.46H119.811V360H118.171C117.158 360 116.398 359.767 115.891 359.3C115.385 358.833 115.131 358.067 115.131 357V350.54H113.711V349.04H115.131V346.28H116.951V349.04H119.811V350.54H116.951ZM133.737 349.04V360H131.917V358.38C131.57 358.94 131.083 359.38 130.457 359.7C129.843 360.007 129.163 360.16 128.417 360.16C127.563 360.16 126.797 359.987 126.117 359.64C125.437 359.28 124.897 358.747 124.497 358.04C124.11 357.333 123.917 356.473 123.917 355.46V349.04H125.717V355.22C125.717 356.3 125.99 357.133 126.537 357.72C127.083 358.293 127.83 358.58 128.777 358.58C129.75 358.58 130.517 358.28 131.077 357.68C131.637 357.08 131.917 356.207 131.917 355.06V349.04H133.737ZM140.63 350.82C140.95 350.193 141.403 349.707 141.99 349.36C142.59 349.013 143.316 348.84 144.17 348.84V350.72H143.69C141.65 350.72 140.63 351.827 140.63 354.04V360H138.81V349.04H140.63V350.82ZM153.61 348.84C154.944 348.84 156.024 349.247 156.85 350.06C157.677 350.86 158.09 352.02 158.09 353.54V360H156.29V353.8C156.29 352.707 156.017 351.873 155.47 351.3C154.924 350.713 154.177 350.42 153.23 350.42C152.27 350.42 151.504 350.72 150.93 351.32C150.37 351.92 150.09 352.793 150.09 353.94V360H148.27V349.04H150.09V350.6C150.45 350.04 150.937 349.607 151.55 349.3C152.177 348.993 152.864 348.84 153.61 348.84Z" fill="#FFB1F7"/>
<path d="M177.13 213.72C175.85 212.467 174.85 210.873 174.13 208.94C173.423 207.007 173.07 204.92 173.07 202.68C173.07 200.387 173.443 198.247 174.19 196.26C174.95 194.26 176.03 192.613 177.43 191.32H179.33V191.5C177.837 192.9 176.71 194.587 175.95 196.56C175.203 198.52 174.83 200.56 174.83 202.68C174.83 204.747 175.183 206.72 175.89 208.6C176.61 210.48 177.657 212.127 179.03 213.54V213.72H177.13ZM297.753 213.72V213.54C299.126 212.127 300.166 210.48 300.873 208.6C301.593 206.72 301.953 204.747 301.953 202.68C301.953 200.56 301.573 198.52 300.813 196.56C300.066 194.587 298.946 192.9 297.453 191.5V191.32H299.353C300.753 192.613 301.826 194.26 302.573 196.26C303.333 198.247 303.713 200.387 303.713 202.68C303.713 204.92 303.353 207.007 302.633 208.94C301.926 210.873 300.933 212.467 299.653 213.72H297.753ZM309.975 201.82C311.335 201.567 312.015 200.867 312.015 199.72C312.015 199.213 311.948 198.347 311.815 197.12C311.682 195.813 311.615 194.867 311.615 194.28C311.615 193.32 311.882 192.587 312.415 192.08C312.962 191.573 313.688 191.32 314.595 191.32H315.755V192.9H314.935C314.415 192.9 314.028 193.02 313.775 193.26C313.522 193.487 313.395 193.867 313.395 194.4C313.395 194.787 313.422 195.267 313.475 195.84C313.528 196.4 313.562 196.78 313.575 196.98C313.708 198.26 313.775 199.193 313.775 199.78C313.775 200.487 313.595 201.08 313.235 201.56C312.888 202.027 312.348 202.34 311.615 202.5V202.54C312.348 202.7 312.888 203.02 313.235 203.5C313.595 203.98 313.775 204.573 313.775 205.28C313.775 205.867 313.708 206.8 313.575 208.08C313.562 208.28 313.528 208.667 313.475 209.24C313.422 209.8 313.395 210.273 313.395 210.66C313.395 211.193 313.522 211.573 313.775 211.8C314.028 212.04 314.415 212.16 314.935 212.16H315.755V213.74H314.595C313.688 213.74 312.962 213.487 312.415 212.98C311.882 212.473 311.615 211.74 311.615 210.78C311.615 210.193 311.682 209.247 311.815 207.94C311.948 206.713 312.015 205.847 312.015 205.34C312.015 204.193 311.335 203.493 309.975 203.24V201.82ZM131.02 230.82C131.34 230.193 131.793 229.707 132.38 229.36C132.98 229.013 133.707 228.84 134.56 228.84V230.72H134.08C132.04 230.72 131.02 231.827 131.02 234.04V240H129.2V229.04H131.02V230.82ZM148.661 234.1C148.661 234.447 148.641 234.813 148.601 235.2H139.841C139.908 236.28 140.274 237.127 140.941 237.74C141.621 238.34 142.441 238.64 143.401 238.64C144.188 238.64 144.841 238.46 145.361 238.1C145.894 237.727 146.268 237.233 146.481 236.62H148.441C148.148 237.673 147.561 238.533 146.681 239.2C145.801 239.853 144.708 240.18 143.401 240.18C142.361 240.18 141.428 239.947 140.601 239.48C139.788 239.013 139.148 238.353 138.681 237.5C138.214 236.633 137.981 235.633 137.981 234.5C137.981 233.367 138.208 232.373 138.661 231.52C139.114 230.667 139.748 230.013 140.561 229.56C141.388 229.093 142.334 228.86 143.401 228.86C144.441 228.86 145.361 229.087 146.161 229.54C146.961 229.993 147.574 230.62 148.001 231.42C148.441 232.207 148.661 233.1 148.661 234.1ZM146.781 233.72C146.781 233.027 146.628 232.433 146.321 231.94C146.014 231.433 145.594 231.053 145.061 230.8C144.541 230.533 143.961 230.4 143.321 230.4C142.401 230.4 141.614 230.693 140.961 231.28C140.321 231.867 139.954 232.68 139.861 233.72H146.781ZM156.943 240.18C156.103 240.18 155.35 240.04 154.683 239.76C154.017 239.467 153.49 239.067 153.103 238.56C152.717 238.04 152.503 237.447 152.463 236.78H154.343C154.397 237.327 154.65 237.773 155.103 238.12C155.57 238.467 156.177 238.64 156.923 238.64C157.617 238.64 158.163 238.487 158.563 238.18C158.963 237.873 159.163 237.487 159.163 237.02C159.163 236.54 158.95 236.187 158.523 235.96C158.097 235.72 157.437 235.487 156.543 235.26C155.73 235.047 155.063 234.833 154.543 234.62C154.037 234.393 153.597 234.067 153.223 233.64C152.863 233.2 152.683 232.627 152.683 231.92C152.683 231.36 152.85 230.847 153.183 230.38C153.517 229.913 153.99 229.547 154.603 229.28C155.217 229 155.917 228.86 156.703 228.86C157.917 228.86 158.897 229.167 159.643 229.78C160.39 230.393 160.79 231.233 160.843 232.3H159.023C158.983 231.727 158.75 231.267 158.323 230.92C157.91 230.573 157.35 230.4 156.643 230.4C155.99 230.4 155.47 230.54 155.083 230.82C154.697 231.1 154.503 231.467 154.503 231.92C154.503 232.28 154.617 232.58 154.843 232.82C155.083 233.047 155.377 233.233 155.723 233.38C156.083 233.513 156.577 233.667 157.203 233.84C157.99 234.053 158.63 234.267 159.123 234.48C159.617 234.68 160.037 234.987 160.383 235.4C160.743 235.813 160.93 236.353 160.943 237.02C160.943 237.62 160.777 238.16 160.443 238.64C160.11 239.12 159.637 239.5 159.023 239.78C158.423 240.047 157.73 240.18 156.943 240.18ZM175.233 229.04V240H173.413V238.38C173.066 238.94 172.579 239.38 171.953 239.7C171.339 240.007 170.659 240.16 169.913 240.16C169.059 240.16 168.293 239.987 167.613 239.64C166.933 239.28 166.393 238.747 165.993 238.04C165.606 237.333 165.413 236.473 165.413 235.46V229.04H167.213V235.22C167.213 236.3 167.486 237.133 168.033 237.72C168.579 238.293 169.326 238.58 170.273 238.58C171.246 238.58 172.013 238.28 172.573 237.68C173.133 237.08 173.413 236.207 173.413 235.06V229.04H175.233ZM182.126 225.2V240H180.306V225.2H182.126ZM189.448 230.54V237C189.448 237.533 189.561 237.913 189.788 238.14C190.014 238.353 190.408 238.46 190.967 238.46H192.308V240H190.668C189.654 240 188.894 239.767 188.388 239.3C187.881 238.833 187.628 238.067 187.628 237V230.54H186.208V229.04H187.628V226.28H189.448V229.04H192.308V230.54H189.448ZM135.716 273.72C134.436 272.467 133.436 270.873 132.716 268.94C132.009 267.007 131.656 264.92 131.656 262.68C131.656 260.387 132.029 258.247 132.776 256.26C133.536 254.26 134.616 252.613 136.016 251.32H137.916V251.5C136.423 252.9 135.296 254.587 134.536 256.56C133.789 258.52 133.416 260.56 133.416 262.68C133.416 264.747 133.769 266.72 134.476 268.6C135.196 270.48 136.243 272.127 137.616 273.54V273.72H135.716ZM181.39 257.26C181.043 257.26 180.75 257.14 180.51 256.9C180.27 256.66 180.15 256.367 180.15 256.02C180.15 255.673 180.27 255.38 180.51 255.14C180.75 254.9 181.043 254.78 181.39 254.78C181.723 254.78 182.003 254.9 182.23 255.14C182.47 255.38 182.59 255.673 182.59 256.02C182.59 256.367 182.47 256.66 182.23 256.9C182.003 257.14 181.723 257.26 181.39 257.26ZM182.27 259.04V270H180.45V259.04H182.27ZM242.441 257.26C242.094 257.26 241.801 257.14 241.561 256.9C241.321 256.66 241.201 256.367 241.201 256.02C241.201 255.673 241.321 255.38 241.561 255.14C241.801 254.9 242.094 254.78 242.441 254.78C242.774 254.78 243.054 254.9 243.281 255.14C243.521 255.38 243.641 255.673 243.641 256.02C243.641 256.367 243.521 256.66 243.281 256.9C243.054 257.14 242.774 257.26 242.441 257.26ZM243.321 259.04V270H241.501V259.04H243.321ZM321.449 257.26C321.102 257.26 320.809 257.14 320.569 256.9C320.329 256.66 320.209 256.367 320.209 256.02C320.209 255.673 320.329 255.38 320.569 255.14C320.809 254.9 321.102 254.78 321.449 254.78C321.782 254.78 322.062 254.9 322.289 255.14C322.529 255.38 322.649 255.673 322.649 256.02C322.649 256.367 322.529 256.66 322.289 256.9C322.062 257.14 321.782 257.26 321.449 257.26ZM322.329 259.04V270H320.509V259.04H322.329ZM358.155 273.72V273.54C359.529 272.127 360.569 270.48 361.275 268.6C361.995 266.72 362.355 264.747 362.355 262.68C362.355 260.56 361.975 258.52 361.215 256.56C360.469 254.587 359.349 252.9 357.855 251.5V251.32H359.755C361.155 252.613 362.229 254.26 362.975 256.26C363.735 258.247 364.115 260.387 364.115 262.68C364.115 264.92 363.755 267.007 363.035 268.94C362.329 270.873 361.335 272.467 360.055 273.72H358.155ZM370.377 261.82C371.737 261.567 372.417 260.867 372.417 259.72C372.417 259.213 372.351 258.347 372.217 257.12C372.084 255.813 372.017 254.867 372.017 254.28C372.017 253.32 372.284 252.587 372.817 252.08C373.364 251.573 374.091 251.32 374.997 251.32H376.157V252.9H375.337C374.817 252.9 374.431 253.02 374.177 253.26C373.924 253.487 373.797 253.867 373.797 254.4C373.797 254.787 373.824 255.267 373.877 255.84C373.931 256.4 373.964 256.78 373.977 256.98C374.111 258.26 374.177 259.193 374.177 259.78C374.177 260.487 373.997 261.08 373.637 261.56C373.291 262.027 372.751 262.34 372.017 262.5V262.54C372.751 262.7 373.291 263.02 373.637 263.5C373.997 263.98 374.177 264.573 374.177 265.28C374.177 265.867 374.111 266.8 373.977 268.08C373.964 268.28 373.931 268.667 373.877 269.24C373.824 269.8 373.797 270.273 373.797 270.66C373.797 271.193 373.924 271.573 374.177 271.8C374.431 272.04 374.817 272.16 375.337 272.16H376.157V273.74H374.997C374.091 273.74 373.364 273.487 372.817 272.98C372.284 272.473 372.017 271.74 372.017 270.78C372.017 270.193 372.084 269.247 372.217 267.94C372.351 266.713 372.417 265.847 372.417 265.34C372.417 264.193 371.737 263.493 370.377 263.24V261.82ZM122.016 290.82C122.336 290.193 122.79 289.707 123.376 289.36C123.976 289.013 124.703 288.84 125.556 288.84V290.72H125.076C123.036 290.72 122.016 291.827 122.016 294.04V300H120.196V289.04H122.016V290.82ZM139.657 294.1C139.657 294.447 139.637 294.813 139.597 295.2H130.837C130.904 296.28 131.271 297.127 131.937 297.74C132.617 298.34 133.437 298.64 134.397 298.64C135.184 298.64 135.837 298.46 136.357 298.1C136.891 297.727 137.264 297.233 137.477 296.62H139.437C139.144 297.673 138.557 298.533 137.677 299.2C136.797 299.853 135.704 300.18 134.397 300.18C133.357 300.18 132.424 299.947 131.597 299.48C130.784 299.013 130.144 298.353 129.677 297.5C129.211 296.633 128.977 295.633 128.977 294.5C128.977 293.367 129.204 292.373 129.657 291.52C130.111 290.667 130.744 290.013 131.557 289.56C132.384 289.093 133.331 288.86 134.397 288.86C135.437 288.86 136.357 289.087 137.157 289.54C137.957 289.993 138.571 290.62 138.997 291.42C139.437 292.207 139.657 293.1 139.657 294.1ZM137.777 293.72C137.777 293.027 137.624 292.433 137.317 291.94C137.011 291.433 136.591 291.053 136.057 290.8C135.537 290.533 134.957 290.4 134.317 290.4C133.397 290.4 132.611 290.693 131.957 291.28C131.317 291.867 130.951 292.68 130.857 293.72H137.777ZM147.94 300.18C147.1 300.18 146.346 300.04 145.68 299.76C145.013 299.467 144.486 299.067 144.1 298.56C143.713 298.04 143.5 297.447 143.46 296.78H145.34C145.393 297.327 145.646 297.773 146.1 298.12C146.566 298.467 147.173 298.64 147.92 298.64C148.613 298.64 149.16 298.487 149.56 298.18C149.96 297.873 150.16 297.487 150.16 297.02C150.16 296.54 149.946 296.187 149.52 295.96C149.093 295.72 148.433 295.487 147.54 295.26C146.726 295.047 146.06 294.833 145.54 294.62C145.033 294.393 144.593 294.067 144.22 293.64C143.86 293.2 143.68 292.627 143.68 291.92C143.68 291.36 143.846 290.847 144.18 290.38C144.513 289.913 144.986 289.547 145.6 289.28C146.213 289 146.913 288.86 147.7 288.86C148.913 288.86 149.893 289.167 150.64 289.78C151.386 290.393 151.786 291.233 151.84 292.3H150.02C149.98 291.727 149.746 291.267 149.32 290.92C148.906 290.573 148.346 290.4 147.64 290.4C146.986 290.4 146.466 290.54 146.08 290.82C145.693 291.1 145.5 291.467 145.5 291.92C145.5 292.28 145.613 292.58 145.84 292.82C146.08 293.047 146.373 293.233 146.72 293.38C147.08 293.513 147.573 293.667 148.2 293.84C148.986 294.053 149.626 294.267 150.12 294.48C150.613 294.68 151.033 294.987 151.38 295.4C151.74 295.813 151.926 296.353 151.94 297.02C151.94 297.62 151.773 298.16 151.44 298.64C151.106 299.12 150.633 299.5 150.02 299.78C149.42 300.047 148.726 300.18 147.94 300.18ZM166.229 289.04V300H164.409V298.38C164.062 298.94 163.575 299.38 162.949 299.7C162.335 300.007 161.655 300.16 160.909 300.16C160.055 300.16 159.289 299.987 158.609 299.64C157.929 299.28 157.389 298.747 156.989 298.04C156.602 297.333 156.409 296.473 156.409 295.46V289.04H158.209V295.22C158.209 296.3 158.482 297.133 159.029 297.72C159.575 298.293 160.322 298.58 161.269 298.58C162.242 298.58 163.009 298.28 163.569 297.68C164.129 297.08 164.409 296.207 164.409 295.06V289.04H166.229ZM173.122 285.2V300H171.302V285.2H173.122ZM180.444 290.54V297C180.444 297.533 180.557 297.913 180.784 298.14C181.01 298.353 181.404 298.46 181.964 298.46H183.304V300H181.664C180.65 300 179.89 299.767 179.384 299.3C178.877 298.833 178.624 298.067 178.624 297V290.54H177.204V289.04H178.624V286.28H180.444V289.04H183.304V290.54H180.444ZM96.4681 323.24C95.1081 323.493 94.4281 324.193 94.4281 325.34C94.4281 325.847 94.4948 326.713 94.6281 327.94C94.7615 329.247 94.8281 330.193 94.8281 330.78C94.8281 331.74 94.5548 332.473 94.0081 332.98C93.4748 333.487 92.7548 333.74 91.8481 333.74H90.6881V332.16H91.5081C92.0281 332.16 92.4148 332.04 92.6681 331.8C92.9215 331.573 93.0481 331.193 93.0481 330.66C93.0481 330.273 93.0215 329.8 92.9681 329.24C92.9148 328.667 92.8815 328.28 92.8681 328.08C92.7348 326.8 92.6681 325.867 92.6681 325.28C92.6681 324.573 92.8415 323.98 93.1881 323.5C93.5481 323.02 94.0948 322.7 94.8281 322.54V322.5C94.0948 322.34 93.5481 322.027 93.1881 321.56C92.8415 321.08 92.6681 320.487 92.6681 319.78C92.6681 319.193 92.7348 318.26 92.8681 316.98C92.8815 316.78 92.9148 316.4 92.9681 315.84C93.0215 315.267 93.0481 314.787 93.0481 314.4C93.0481 313.867 92.9215 313.487 92.6681 313.26C92.4148 313.02 92.0281 312.9 91.5081 312.9H90.6881V311.32H91.8481C92.7548 311.32 93.4748 311.573 94.0081 312.08C94.5548 312.587 94.8281 313.32 94.8281 314.28C94.8281 314.867 94.7615 315.813 94.6281 317.12C94.4948 318.347 94.4281 319.213 94.4281 319.72C94.4281 320.867 95.1081 321.567 96.4681 321.82V323.24ZM172.215 350.82C172.535 350.193 172.989 349.707 173.575 349.36C174.175 349.013 174.902 348.84 175.755 348.84V350.72H175.275C173.235 350.72 172.215 351.827 172.215 354.04V360H170.395V349.04H172.215V350.82ZM189.856 354.1C189.856 354.447 189.836 354.813 189.796 355.2H181.036C181.103 356.28 181.47 357.127 182.136 357.74C182.816 358.34 183.636 358.64 184.596 358.64C185.383 358.64 186.036 358.46 186.556 358.1C187.09 357.727 187.463 357.233 187.676 356.62H189.636C189.343 357.673 188.756 358.533 187.876 359.2C186.996 359.853 185.903 360.18 184.596 360.18C183.556 360.18 182.623 359.947 181.796 359.48C180.983 359.013 180.343 358.353 179.876 357.5C179.41 356.633 179.176 355.633 179.176 354.5C179.176 353.367 179.403 352.373 179.856 351.52C180.31 350.667 180.943 350.013 181.756 349.56C182.583 349.093 183.53 348.86 184.596 348.86C185.636 348.86 186.556 349.087 187.356 349.54C188.156 349.993 188.77 350.62 189.196 351.42C189.636 352.207 189.856 353.1 189.856 354.1ZM187.976 353.72C187.976 353.027 187.823 352.433 187.516 351.94C187.21 351.433 186.79 351.053 186.256 350.8C185.736 350.533 185.156 350.4 184.516 350.4C183.596 350.4 182.81 350.693 182.156 351.28C181.516 351.867 181.15 352.68 181.056 353.72H187.976ZM198.139 360.18C197.299 360.18 196.545 360.04 195.879 359.76C195.212 359.467 194.685 359.067 194.299 358.56C193.912 358.04 193.699 357.447 193.659 356.78H195.539C195.592 357.327 195.845 357.773 196.299 358.12C196.765 358.467 197.372 358.64 198.119 358.64C198.812 358.64 199.359 358.487 199.759 358.18C200.159 357.873 200.359 357.487 200.359 357.02C200.359 356.54 200.145 356.187 199.719 355.96C199.292 355.72 198.632 355.487 197.739 355.26C196.925 355.047 196.259 354.833 195.739 354.62C195.232 354.393 194.792 354.067 194.419 353.64C194.059 353.2 193.879 352.627 193.879 351.92C193.879 351.36 194.045 350.847 194.379 350.38C194.712 349.913 195.185 349.547 195.799 349.28C196.412 349 197.112 348.86 197.899 348.86C199.112 348.86 200.092 349.167 200.839 349.78C201.585 350.393 201.985 351.233 202.039 352.3H200.219C200.179 351.727 199.945 351.267 199.519 350.92C199.105 350.573 198.545 350.4 197.839 350.4C197.185 350.4 196.665 350.54 196.279 350.82C195.892 351.1 195.699 351.467 195.699 351.92C195.699 352.28 195.812 352.58 196.039 352.82C196.279 353.047 196.572 353.233 196.919 353.38C197.279 353.513 197.772 353.667 198.399 353.84C199.185 354.053 199.825 354.267 200.319 354.48C200.812 354.68 201.232 354.987 201.579 355.4C201.939 355.813 202.125 356.353 202.139 357.02C202.139 357.62 201.972 358.16 201.639 358.64C201.305 359.12 200.832 359.5 200.219 359.78C199.619 360.047 198.925 360.18 198.139 360.18ZM216.428 349.04V360H214.608V358.38C214.261 358.94 213.775 359.38 213.148 359.7C212.535 360.007 211.855 360.16 211.108 360.16C210.255 360.16 209.488 359.987 208.808 359.64C208.128 359.28 207.588 358.747 207.188 358.04C206.801 357.333 206.608 356.473 206.608 355.46V349.04H208.408V355.22C208.408 356.3 208.681 357.133 209.228 357.72C209.775 358.293 210.521 358.58 211.468 358.58C212.441 358.58 213.208 358.28 213.768 357.68C214.328 357.08 214.608 356.207 214.608 355.06V349.04H216.428ZM223.321 345.2V360H221.501V345.2H223.321ZM230.643 350.54V357C230.643 357.533 230.756 357.913 230.983 358.14C231.209 358.353 231.603 358.46 232.163 358.46H233.503V360H231.863C230.849 360 230.089 359.767 229.583 359.3C229.076 358.833 228.823 358.067 228.823 357V350.54H227.403V349.04H228.823V346.28H230.643V349.04H233.503V350.54H230.643ZM67.14 383.24C65.78 383.493 65.1 384.193 65.1 385.34C65.1 385.847 65.1667 386.713 65.3 387.94C65.4333 389.247 65.5 390.193 65.5 390.78C65.5 391.74 65.2267 392.473 64.68 392.98C64.1467 393.487 63.4267 393.74 62.52 393.74H61.36V392.16H62.18C62.7 392.16 63.0867 392.04 63.34 391.8C63.5933 391.573 63.72 391.193 63.72 390.66C63.72 390.273 63.6933 389.8 63.64 389.24C63.5867 388.667 63.5533 388.28 63.54 388.08C63.4067 386.8 63.34 385.867 63.34 385.28C63.34 384.573 63.5133 383.98 63.86 383.5C64.22 383.02 64.7667 382.7 65.5 382.54V382.5C64.7667 382.34 64.22 382.027 63.86 381.56C63.5133 381.08 63.34 380.487 63.34 379.78C63.34 379.193 63.4067 378.26 63.54 376.98C63.5533 376.78 63.5867 376.4 63.64 375.84C63.6933 375.267 63.72 374.787 63.72 374.4C63.72 373.867 63.5933 373.487 63.34 373.26C63.0867 373.02 62.7 372.9 62.18 372.9H61.36V371.32H62.52C63.4267 371.32 64.1467 371.573 64.68 372.08C65.2267 372.587 65.5 373.32 65.5 374.28C65.5 374.867 65.4333 375.813 65.3 377.12C65.1667 378.347 65.1 379.213 65.1 379.72C65.1 380.867 65.78 381.567 67.14 381.82V383.24Z" fill="#CFD4FF"/>
<path d="M189.199 77.26C188.852 77.26 188.559 77.14 188.319 76.9C188.079 76.66 187.959 76.3667 187.959 76.02C187.959 75.6733 188.079 75.38 188.319 75.14C188.559 74.9 188.852 74.78 189.199 74.78C189.532 74.78 189.812 74.9 190.039 75.14C190.279 75.38 190.399 75.6733 190.399 76.02C190.399 76.3667 190.279 76.66 190.039 76.9C189.812 77.14 189.532 77.26 189.199 77.26ZM190.079 79.04V90H188.259V79.04H190.079ZM199.961 90.18C198.934 90.18 198.001 89.9467 197.161 89.48C196.334 89.0133 195.681 88.3533 195.201 87.5C194.734 86.6333 194.501 85.6333 194.501 84.5C194.501 83.38 194.741 82.3933 195.221 81.54C195.714 80.6733 196.381 80.0133 197.221 79.56C198.061 79.0933 199.001 78.86 200.041 78.86C201.081 78.86 202.021 79.0933 202.861 79.56C203.701 80.0133 204.361 80.6667 204.841 81.52C205.334 82.3733 205.581 83.3667 205.581 84.5C205.581 85.6333 205.327 86.6333 204.821 87.5C204.327 88.3533 203.654 89.0133 202.801 89.48C201.947 89.9467 201.001 90.18 199.961 90.18ZM199.961 88.58C200.614 88.58 201.227 88.4267 201.801 88.12C202.374 87.8133 202.834 87.3533 203.181 86.74C203.541 86.1267 203.721 85.38 203.721 84.5C203.721 83.62 203.547 82.8733 203.201 82.26C202.854 81.6467 202.401 81.1933 201.841 80.9C201.281 80.5933 200.674 80.44 200.021 80.44C199.354 80.44 198.741 80.5933 198.181 80.9C197.634 81.1933 197.194 81.6467 196.861 82.26C196.527 82.8733 196.361 83.62 196.361 84.5C196.361 85.3933 196.521 86.1467 196.841 86.76C197.174 87.3733 197.614 87.8333 198.161 88.14C198.707 88.4333 199.307 88.58 199.961 88.58ZM213.854 90.18C213.014 90.18 212.26 90.04 211.594 89.76C210.927 89.4667 210.4 89.0667 210.014 88.56C209.627 88.04 209.414 87.4467 209.374 86.78H211.254C211.307 87.3267 211.56 87.7733 212.014 88.12C212.48 88.4667 213.087 88.64 213.834 88.64C214.527 88.64 215.074 88.4867 215.474 88.18C215.874 87.8733 216.074 87.4867 216.074 87.02C216.074 86.54 215.86 86.1867 215.434 85.96C215.007 85.72 214.347 85.4867 213.454 85.26C212.64 85.0467 211.974 84.8333 211.454 84.62C210.947 84.3933 210.507 84.0667 210.134 83.64C209.774 83.2 209.594 82.6267 209.594 81.92C209.594 81.36 209.76 80.8467 210.094 80.38C210.427 79.9133 210.9 79.5467 211.514 79.28C212.127 79 212.827 78.86 213.614 78.86C214.827 78.86 215.807 79.1667 216.554 79.78C217.3 80.3933 217.7 81.2333 217.754 82.3H215.934C215.894 81.7267 215.66 81.2667 215.234 80.92C214.82 80.5733 214.26 80.4 213.554 80.4C212.9 80.4 212.38 80.54 211.994 80.82C211.607 81.1 211.414 81.4667 211.414 81.92C211.414 82.28 211.527 82.58 211.754 82.82C211.994 83.0467 212.287 83.2333 212.634 83.38C212.994 83.5133 213.487 83.6667 214.114 83.84C214.9 84.0533 215.54 84.2667 216.034 84.48C216.527 84.68 216.947 84.9867 217.294 85.4C217.654 85.8133 217.84 86.3533 217.854 87.02C217.854 87.62 217.687 88.16 217.354 88.64C217.02 89.12 216.547 89.5 215.934 89.78C215.334 90.0467 214.64 90.18 213.854 90.18ZM224.643 80.54V87C224.643 87.5333 224.756 87.9133 224.983 88.14C225.209 88.3533 225.603 88.46 226.163 88.46H227.503V90H225.863C224.849 90 224.089 89.7667 223.583 89.3C223.076 88.8333 222.823 88.0667 222.823 87V80.54H221.403V79.04H222.823V76.28H224.643V79.04H227.503V80.54H224.643ZM233.528 80.82C233.848 80.1933 234.301 79.7067 234.888 79.36C235.488 79.0133 236.215 78.84 237.068 78.84V80.72H236.588C234.548 80.72 233.528 81.8267 233.528 84.04V90H231.708V79.04H233.528V80.82ZM251.169 84.1C251.169 84.4467 251.149 84.8133 251.109 85.2H242.349C242.416 86.28 242.782 87.1267 243.449 87.74C244.129 88.34 244.949 88.64 245.909 88.64C246.696 88.64 247.349 88.46 247.869 88.1C248.402 87.7267 248.776 87.2333 248.989 86.62H250.949C250.656 87.6733 250.069 88.5333 249.189 89.2C248.309 89.8533 247.216 90.18 245.909 90.18C244.869 90.18 243.936 89.9467 243.109 89.48C242.296 89.0133 241.656 88.3533 241.189 87.5C240.722 86.6333 240.489 85.6333 240.489 84.5C240.489 83.3667 240.716 82.3733 241.169 81.52C241.622 80.6667 242.256 80.0133 243.069 79.56C243.896 79.0933 244.842 78.86 245.909 78.86C246.949 78.86 247.869 79.0867 248.669 79.54C249.469 79.9933 250.082 80.62 250.509 81.42C250.949 82.2067 251.169 83.1 251.169 84.1ZM249.289 83.72C249.289 83.0267 249.136 82.4333 248.829 81.94C248.522 81.4333 248.102 81.0533 247.569 80.8C247.049 80.5333 246.469 80.4 245.829 80.4C244.909 80.4 244.122 80.6933 243.469 81.28C242.829 81.8667 242.462 82.68 242.369 83.72H249.289ZM254.891 84.48C254.891 83.36 255.118 82.38 255.571 81.54C256.025 80.6867 256.645 80.0267 257.431 79.56C258.231 79.0933 259.118 78.86 260.091 78.86C261.051 78.86 261.885 79.0667 262.591 79.48C263.298 79.8933 263.825 80.4133 264.171 81.04V79.04H266.011V90H264.171V87.96C263.811 88.6 263.271 89.1333 262.551 89.56C261.845 89.9733 261.018 90.18 260.071 90.18C259.098 90.18 258.218 89.94 257.431 89.46C256.645 88.98 256.025 88.3067 255.571 87.44C255.118 86.5733 254.891 85.5867 254.891 84.48ZM264.171 84.5C264.171 83.6733 264.005 82.9533 263.671 82.34C263.338 81.7267 262.885 81.26 262.311 80.94C261.751 80.6067 261.131 80.44 260.451 80.44C259.771 80.44 259.151 80.6 258.591 80.92C258.031 81.24 257.585 81.7067 257.251 82.32C256.918 82.9333 256.751 83.6533 256.751 84.48C256.751 85.32 256.918 86.0533 257.251 86.68C257.585 87.2933 258.031 87.7667 258.591 88.1C259.151 88.42 259.771 88.58 260.451 88.58C261.131 88.58 261.751 88.42 262.311 88.1C262.885 87.7667 263.338 87.2933 263.671 86.68C264.005 86.0533 264.171 85.3267 264.171 84.5ZM284.267 78.84C285.12 78.84 285.88 79.02 286.547 79.38C287.214 79.7267 287.74 80.2533 288.127 80.96C288.514 81.6667 288.707 82.5267 288.707 83.54V90H286.907V83.8C286.907 82.7067 286.634 81.8733 286.087 81.3C285.554 80.7133 284.827 80.42 283.907 80.42C282.96 80.42 282.207 80.7267 281.647 81.34C281.087 81.94 280.807 82.8133 280.807 83.96V90H279.007V83.8C279.007 82.7067 278.734 81.8733 278.187 81.3C277.654 80.7133 276.927 80.42 276.007 80.42C275.06 80.42 274.307 80.7267 273.747 81.34C273.187 81.94 272.907 82.8133 272.907 83.96V90H271.087V79.04H272.907V80.62C273.267 80.0467 273.747 79.6067 274.347 79.3C274.96 78.9933 275.634 78.84 276.367 78.84C277.287 78.84 278.1 79.0467 278.807 79.46C279.514 79.8733 280.04 80.48 280.387 81.28C280.694 80.5067 281.2 79.9067 281.907 79.48C282.614 79.0533 283.4 78.84 284.267 78.84Z" fill="#96FFBA"/>
<path d="M283.904 150.18C283.064 150.18 282.311 150.04 281.644 149.76C280.978 149.467 280.451 149.067 280.064 148.56C279.678 148.04 279.464 147.447 279.424 146.78H281.304C281.358 147.327 281.611 147.773 282.064 148.12C282.531 148.467 283.138 148.64 283.884 148.64C284.578 148.64 285.124 148.487 285.524 148.18C285.924 147.873 286.124 147.487 286.124 147.02C286.124 146.54 285.911 146.187 285.484 145.96C285.058 145.72 284.398 145.487 283.504 145.26C282.691 145.047 282.024 144.833 281.504 144.62C280.998 144.393 280.558 144.067 280.184 143.64C279.824 143.2 279.644 142.627 279.644 141.92C279.644 141.36 279.811 140.847 280.144 140.38C280.478 139.913 280.951 139.547 281.564 139.28C282.178 139 282.878 138.86 283.664 138.86C284.878 138.86 285.858 139.167 286.604 139.78C287.351 140.393 287.751 141.233 287.804 142.3H285.984C285.944 141.727 285.711 141.267 285.284 140.92C284.871 140.573 284.311 140.4 283.604 140.4C282.951 140.4 282.431 140.54 282.044 140.82C281.658 141.1 281.464 141.467 281.464 141.92C281.464 142.28 281.578 142.58 281.804 142.82C282.044 143.047 282.338 143.233 282.684 143.38C283.044 143.513 283.538 143.667 284.164 143.84C284.951 144.053 285.591 144.267 286.084 144.48C286.578 144.68 286.998 144.987 287.344 145.4C287.704 145.813 287.891 146.353 287.904 147.02C287.904 147.62 287.738 148.16 287.404 148.64C287.071 149.12 286.598 149.5 285.984 149.78C285.384 150.047 284.691 150.18 283.904 150.18ZM294.694 140.54V147C294.694 147.533 294.807 147.913 295.034 148.14C295.26 148.353 295.654 148.46 296.214 148.46H297.554V150H295.914C294.9 150 294.14 149.767 293.634 149.3C293.127 148.833 292.874 148.067 292.874 147V140.54H291.454V139.04H292.874V136.28H294.694V139.04H297.554V140.54H294.694ZM301.079 144.48C301.079 143.36 301.305 142.38 301.759 141.54C302.212 140.687 302.832 140.027 303.619 139.56C304.419 139.093 305.312 138.86 306.299 138.86C307.152 138.86 307.945 139.06 308.679 139.46C309.412 139.847 309.972 140.36 310.359 141V135.2H312.199V150H310.359V147.94C309.999 148.593 309.465 149.133 308.759 149.56C308.052 149.973 307.225 150.18 306.279 150.18C305.305 150.18 304.419 149.94 303.619 149.46C302.832 148.98 302.212 148.307 301.759 147.44C301.305 146.573 301.079 145.587 301.079 144.48ZM310.359 144.5C310.359 143.673 310.192 142.953 309.859 142.34C309.525 141.727 309.072 141.26 308.499 140.94C307.939 140.607 307.319 140.44 306.639 140.44C305.959 140.44 305.339 140.6 304.779 140.92C304.219 141.24 303.772 141.707 303.439 142.32C303.105 142.933 302.939 143.653 302.939 144.48C302.939 145.32 303.105 146.053 303.439 146.68C303.772 147.293 304.219 147.767 304.779 148.1C305.339 148.42 305.959 148.58 306.639 148.58C307.319 148.58 307.939 148.42 308.499 148.1C309.072 147.767 309.525 147.293 309.859 146.68C310.192 146.053 310.359 145.327 310.359 144.5Z" fill="#00A962"/>
<path d="M101.692 201.06C102.052 200.433 102.585 199.913 103.292 199.5C104.012 199.073 104.845 198.86 105.792 198.86C106.765 198.86 107.645 199.093 108.432 199.56C109.232 200.027 109.859 200.687 110.312 201.54C110.765 202.38 110.992 203.36 110.992 204.48C110.992 205.587 110.765 206.573 110.312 207.44C109.859 208.307 109.232 208.98 108.432 209.46C107.645 209.94 106.765 210.18 105.792 210.18C104.859 210.18 104.032 209.973 103.312 209.56C102.605 209.133 102.065 208.607 101.692 207.98V215.2H99.872V199.04H101.692V201.06ZM109.132 204.48C109.132 203.653 108.965 202.933 108.632 202.32C108.299 201.707 107.845 201.24 107.272 200.92C106.712 200.6 106.092 200.44 105.412 200.44C104.745 200.44 104.125 200.607 103.552 200.94C102.992 201.26 102.539 201.733 102.192 202.36C101.859 202.973 101.692 203.687 101.692 204.5C101.692 205.327 101.859 206.053 102.192 206.68C102.539 207.293 102.992 207.767 103.552 208.1C104.125 208.42 104.745 208.58 105.412 208.58C106.092 208.58 106.712 208.42 107.272 208.1C107.845 207.767 108.299 207.293 108.632 206.68C108.965 206.053 109.132 205.32 109.132 204.48ZM120.168 210.18C119.141 210.18 118.208 209.947 117.368 209.48C116.541 209.013 115.888 208.353 115.408 207.5C114.941 206.633 114.708 205.633 114.708 204.5C114.708 203.38 114.948 202.393 115.428 201.54C115.921 200.673 116.588 200.013 117.428 199.56C118.268 199.093 119.208 198.86 120.248 198.86C121.288 198.86 122.228 199.093 123.068 199.56C123.908 200.013 124.568 200.667 125.048 201.52C125.541 202.373 125.788 203.367 125.788 204.5C125.788 205.633 125.534 206.633 125.028 207.5C124.534 208.353 123.861 209.013 123.008 209.48C122.154 209.947 121.208 210.18 120.168 210.18ZM120.168 208.58C120.821 208.58 121.434 208.427 122.008 208.12C122.581 207.813 123.041 207.353 123.388 206.74C123.748 206.127 123.928 205.38 123.928 204.5C123.928 203.62 123.754 202.873 123.408 202.26C123.061 201.647 122.608 201.193 122.048 200.9C121.488 200.593 120.881 200.44 120.228 200.44C119.561 200.44 118.948 200.593 118.388 200.9C117.841 201.193 117.401 201.647 117.068 202.26C116.734 202.873 116.568 203.62 116.568 204.5C116.568 205.393 116.728 206.147 117.048 206.76C117.381 207.373 117.821 207.833 118.368 208.14C118.914 208.433 119.514 208.58 120.168 208.58ZM144.781 199.04L141.361 210H139.481L136.841 201.3L134.201 210H132.321L128.881 199.04H130.741L133.261 208.24L135.981 199.04H137.841L140.501 208.26L142.981 199.04H144.781ZM158.587 204.1C158.587 204.447 158.567 204.813 158.527 205.2H149.767C149.834 206.28 150.2 207.127 150.867 207.74C151.547 208.34 152.367 208.64 153.327 208.64C154.114 208.64 154.767 208.46 155.287 208.1C155.82 207.727 156.194 207.233 156.407 206.62H158.367C158.074 207.673 157.487 208.533 156.607 209.2C155.727 209.853 154.634 210.18 153.327 210.18C152.287 210.18 151.354 209.947 150.527 209.48C149.714 209.013 149.074 208.353 148.607 207.5C148.14 206.633 147.907 205.633 147.907 204.5C147.907 203.367 148.134 202.373 148.587 201.52C149.04 200.667 149.674 200.013 150.487 199.56C151.314 199.093 152.26 198.86 153.327 198.86C154.367 198.86 155.287 199.087 156.087 199.54C156.887 199.993 157.5 200.62 157.927 201.42C158.367 202.207 158.587 203.1 158.587 204.1ZM156.707 203.72C156.707 203.027 156.554 202.433 156.247 201.94C155.94 201.433 155.52 201.053 154.987 200.8C154.467 200.533 153.887 200.4 153.247 200.4C152.327 200.4 151.54 200.693 150.887 201.28C150.247 201.867 149.88 202.68 149.787 203.72H156.707ZM164.809 200.82C165.129 200.193 165.583 199.707 166.169 199.36C166.769 199.013 167.496 198.84 168.349 198.84V200.72H167.869C165.829 200.72 164.809 201.827 164.809 204.04V210H162.989V199.04H164.809V200.82Z" fill="#4FBAFF"/>
<path d="M227.584 210L224.984 205.92L222.484 210H220.584L224.124 204.56L220.584 199.04H222.644L225.244 203.1L227.724 199.04H229.624L226.104 204.46L229.644 210H227.584ZM294.503 199.04L287.903 215.16H286.023L288.183 209.88L283.763 199.04H285.783L289.223 207.92L292.623 199.04H294.503ZM302.074 259.04L295.474 275.16H293.594L295.754 269.88L291.334 259.04H293.354L296.794 267.92L300.194 259.04H302.074ZM236.073 300L233.473 295.92L230.973 300H229.073L232.613 294.56L229.073 289.04H231.133L233.733 293.1L236.213 289.04H238.113L234.593 294.46L238.133 300H236.073Z" fill="white"/>
<path d="M226.85 227.2V225.54H230.61V240H228.77V227.2H226.85ZM217.709 257.2V255.54H221.469V270H219.629V257.2H217.709Z" fill="#FFB445"/>
<rect width="1280" height="465" rx="15" fill="url(#paint0_linear_322:3)"/>
<defs>
<linearGradient id="paint0_linear_322:3" x1="0" y1="0" x2="1149.35" y2="-219.411" gradientUnits="userSpaceOnUse">
<stop stop-color="#1B1C26" stop-opacity="0.3"/>
<stop offset="1" stop-color="#1B1C26"/>
</linearGradient>
</defs>
</svg>
