<svg width="209" height="80" viewBox="0 0 209 80" fill="none" xmlns="http://www.w3.org/2000/svg">
<path d="M204.153 27.472C202.523 25.632 200.356 24.624 198.052 24.624C197.884 24.624 197.715 24.632 197.547 24.64L55.6736 33.872H55.6496H55.6255C48.6823 34.552 44.7171 38.752 44.1472 46L44.083 46.84C43.9465 46.824 43.8101 46.816 43.6817 46.816C43.481 46.816 43.2803 46.832 43.0877 46.872C42.9191 46.888 42.7265 46.936 42.5178 47.008V44.048C43.9947 43.096 44.5566 40.656 45.4395 36.352C45.5519 35.792 45.6723 35.224 45.7927 34.656C46.8763 32.256 48.4736 30.024 50.0308 27.864C52.7118 24.136 55.481 20.28 55.192 15.744L55.0074 15.08C51.9813 9.17601 47.9358 5.40801 42.6462 3.55201C41.0569 2.98401 39.6281 2.68001 38.4803 2.44001C38.0067 2.34401 37.5974 2.25601 37.2522 2.16801L37.1318 2.14401C34.186 1.60001 30.9994 1.09601 27.7164 1.09601C26.3198 1.09601 25.0275 1.18401 23.7432 1.36801C22.1298 1.60001 20.4843 2.34401 18.7425 3.13601C16.8723 3.98401 14.9378 4.85601 13.2442 4.97601L12.8268 5.05601C9.07831 6.28801 7.85824 8.00001 6.87095 9.38401C6.79871 9.48001 6.7345 9.57601 6.66226 9.68001L6.49369 9.96801C5.2656 12.632 4.96058 15.36 5.57864 18.096L5.61878 18.224C6.0763 19.68 6.62212 21.096 7.14386 22.456C8.18734 25.168 9.1666 27.736 9.56794 30.608L9.77664 31.216C10.178 31.92 10.483 32.992 10.8201 34.128C11.5024 36.48 12.3532 39.4 14.6328 41.72L14.6409 41.952V45.176C14.6409 45.176 6.18065 49.248 3.72446 51.064C2.48031 51.984 0.850883 54.232 3.83684 56.112C6.13249 57.56 13.4368 61.368 13.4128 61.584C13.1559 64.176 14.0469 66.512 14.8897 67.496C16.2703 69.12 18.5338 70.048 21.1104 70.048C23.5746 70.048 25.9987 69.192 27.6041 67.768C28.0054 67.408 28.3506 67.024 28.6315 66.632C28.9205 67.032 29.2576 67.416 29.6589 67.768C31.2562 69.192 33.6883 70.048 36.1526 70.048C38.7291 70.048 40.9927 69.12 42.3733 67.496C43.2803 66.432 44.2596 64.528 43.7539 61.552L43.6656 61.064C43.7138 61.064 44.974 60.44 44.974 60.44C44.974 60.44 44.974 60.448 44.982 60.544C45.1265 62.168 45.3753 65.016 49.6696 65.384L49.7178 65.392H49.7659L197.603 69.36C197.675 69.36 197.747 69.36 197.828 69.36C200.179 69.36 202.387 68.368 204.048 66.576C205.67 64.824 206.561 62.536 206.561 60.12V33.88C206.569 31.504 205.71 29.232 204.153 27.472Z" fill="white"/>
<path fill-rule="evenodd" clip-rule="evenodd" d="M55.786 35.568L197.651 26.336C201.608 26.08 204.859 29.728 204.859 33.88V60.112C204.859 64.256 201.616 67.76 197.651 67.656L49.8221 63.688C46.78 63.424 46.8041 61.648 46.6436 59.92C57.1024 58.032 51.1947 45.48 45.8569 46.136C46.4429 38.584 50.8175 36.056 55.786 35.568Z" fill="#292B3B"/>
<path d="M46.0737 49.32C47.8396 49.896 49.2924 50.712 50.4242 51.768C50.673 51.944 50.7934 52.144 50.7934 52.376C50.7934 52.752 50.5125 53.112 49.9426 53.464C49.2763 53.88 48.281 54.616 46.9646 55.672C45.7446 56.64 44.7573 57.344 44.0108 57.792C43.8663 57.864 43.7218 57.904 43.5773 57.904C43.3606 57.904 43.168 57.824 43.0155 57.68C42.8549 57.528 42.7747 57.352 42.7747 57.152C42.7747 56.976 42.8389 56.824 42.9673 56.672C43.1439 56.384 43.5452 56.064 44.1874 55.72C44.6048 55.504 45.1265 55.152 45.7526 54.656C46.5071 54.048 47.0289 53.648 47.3178 53.464C47.9519 53.144 48.273 52.92 48.273 52.792C48.273 52.76 48.265 52.736 48.2489 52.704C47.9038 52.096 47.3258 51.64 46.5312 51.336C45.8248 51.136 45.1024 50.928 44.38 50.704C43.5292 50.448 42.8951 50.08 42.4857 49.6C42.4536 49.56 42.4456 49.504 42.4456 49.448C42.4456 49.272 42.5499 49.08 42.7506 48.872C42.9513 48.664 43.1519 48.56 43.3365 48.56C43.4489 48.528 43.5693 48.52 43.6817 48.52C44.0188 48.52 44.4282 48.624 44.9178 48.824C45.2951 48.984 45.6804 49.144 46.0737 49.32ZM12.1606 48.608C12.4897 48.608 12.7626 48.696 12.9794 48.872C13.188 49.048 13.2924 49.248 13.2924 49.48C13.2924 49.656 13.2282 49.808 13.0998 49.936C12.6181 50.456 11.6389 51.016 10.1459 51.608C8.76531 52.16 7.84223 52.792 7.36062 53.512C8.17133 54 9.23888 54.536 10.5553 55.112C12.6583 56.048 13.7419 56.536 13.8141 56.568C14.087 56.696 14.2235 56.904 14.2235 57.2C14.2556 57.56 14.1111 57.864 13.7981 58.12C13.485 58.376 13.1238 58.496 12.7225 58.496C12.562 58.496 12.4095 58.464 12.265 58.408C12.0884 58.232 11.8556 58.032 11.5506 57.8C9.64022 56.76 7.5934 55.768 5.41815 54.832C5.20143 54.744 4.9847 54.664 4.76798 54.592C4.49507 54.464 4.33454 54.272 4.28638 54.032C4.28638 53.408 4.55929 52.832 5.11313 52.296C5.77935 51.76 6.87902 51.152 8.42016 50.456C9.91313 49.792 10.9887 49.176 11.663 48.616C11.663 48.608 11.8235 48.608 12.1606 48.608Z" fill="#5B4538"/>
<path d="M25.798 48.576C25.4368 48.056 25.0997 47.688 24.7947 47.472C24.4897 47.256 24.1365 47.152 23.7271 47.152C23.5827 47.152 23.4542 47.176 23.3499 47.216L20.9419 48.048C20.8054 48.096 20.6449 48.112 20.4683 48.112C20.1472 48.112 19.8904 48.04 19.6977 47.888C19.497 47.744 19.2562 47.448 18.9753 47.008L18.3091 47.448C18.7265 48.048 19.0877 48.448 19.3766 48.64C19.6736 48.84 20.0429 48.936 20.5004 48.936C20.7011 48.936 20.9017 48.904 21.0944 48.848L23.3017 48.048C23.4462 47.992 23.6067 47.96 23.7753 47.96C24.0562 47.96 24.289 48.016 24.4576 48.136C24.6261 48.248 24.8669 48.512 25.172 48.928L25.798 48.576Z" fill="#5B4538"/>
<path fill-rule="evenodd" clip-rule="evenodd" d="M42.0683 61.832C43.2804 69.048 34.4269 69.744 30.7907 66.504C28.2784 64.264 28.9847 61.152 32.5887 61.344C35.7593 61.512 37.6295 65.592 42.0683 61.832Z" fill="#5B4538"/>
<path fill-rule="evenodd" clip-rule="evenodd" d="M15.1787 61.832C13.9667 69.048 22.8202 69.744 26.4563 66.504C28.9687 64.264 28.2623 61.152 24.6583 61.344C21.4878 61.512 19.6175 65.592 15.1787 61.832Z" fill="#5B4538"/>
<path d="M23.8716 51.36C23.4703 51.08 22.9726 50.936 22.3787 50.936C21.6643 50.936 21.0863 51.152 20.6368 51.576C20.1151 52.048 19.9144 52.72 20.0348 53.6C20.1071 54.312 20.3639 54.936 20.7974 55.48C21.2389 56.024 21.7686 56.296 22.3787 56.296C22.7559 56.296 23.1492 56.192 23.5506 55.976C24.2649 55.552 24.6181 54.736 24.6181 53.528C24.6181 52.44 24.3693 51.72 23.8716 51.36ZM22.3465 54.232C21.9292 54.232 21.584 53.896 21.584 53.472C21.584 53.056 21.9211 52.712 22.3465 52.712C22.7639 52.712 23.1091 53.048 23.1091 53.472C23.1091 53.896 22.7639 54.232 22.3465 54.232Z" fill="#5B4538"/>
<path d="M29.1693 60.728C29.394 60.728 29.6108 60.688 29.8114 60.608C30.0121 60.528 30.1967 60.432 30.3653 60.304C30.5338 60.176 30.6863 60.032 30.8228 59.88C30.9593 59.72 31.0797 59.568 31.176 59.4C31.2803 59.24 31.3606 59.088 31.4248 58.936C31.489 58.792 31.5372 58.672 31.5613 58.568C31.5532 58.552 31.5452 58.528 31.5292 58.496C31.5131 58.472 31.497 58.448 31.489 58.424C31.473 58.408 31.4569 58.4 31.4489 58.4C31.2562 58.752 31.0476 59.04 30.8067 59.264C30.5659 59.488 30.3011 59.648 30.0201 59.752C29.7312 59.856 29.4181 59.904 29.089 59.904C28.8001 59.904 28.5432 59.864 28.3185 59.792C28.0857 59.72 27.885 59.608 27.7004 59.472C27.5158 59.328 27.3552 59.16 27.2027 58.968C27.0583 58.776 26.9218 58.552 26.8014 58.312C26.7934 58.312 26.7853 58.32 26.7693 58.336C26.7532 58.352 26.7372 58.376 26.7292 58.4C26.7131 58.424 26.7131 58.44 26.7051 58.456C26.8175 58.768 26.9539 59.056 27.1225 59.336C27.283 59.608 27.4676 59.848 27.6763 60.056C27.885 60.264 28.1098 60.432 28.3666 60.552C28.6074 60.656 28.8803 60.72 29.1693 60.728Z" fill="#5B4538"/>
<path d="M36.2249 51.312C35.8236 51.032 35.3259 50.888 34.7319 50.888C34.0175 50.888 33.4396 51.104 32.9901 51.528C32.4684 52 32.2677 52.68 32.3881 53.552C32.4604 54.264 32.7172 54.888 33.1507 55.432C33.5921 55.976 34.1219 56.248 34.7319 56.248C35.1092 56.248 35.5025 56.144 35.9038 55.928C36.6182 55.504 36.9714 54.688 36.9714 53.48C36.9794 52.384 36.7306 51.664 36.2249 51.312ZM34.4751 54.32C34.0577 54.32 33.7125 53.976 33.7125 53.56C33.7125 53.144 34.0497 52.8 34.4751 52.8C34.8925 52.8 35.2376 53.136 35.2376 53.56C35.2376 53.984 34.8925 54.32 34.4751 54.32Z" fill="#5B4538"/>
<path d="M41.4584 42.704C42.6945 42.168 43.3286 38.008 44.1634 34.136C47.1734 27.28 53.8918 22.232 53.4905 15.856C47.9761 5.09599 40.2543 4.71199 36.9473 3.85599C32.661 3.06399 28.3828 2.47999 24.1045 3.09599C21.0624 3.54399 17.1212 6.46399 13.4771 6.71199C10.0015 7.85599 9.13461 9.37599 8.16338 10.712C7.07976 13.064 6.83094 15.408 7.3607 17.76C8.69314 21.984 10.74 25.824 11.3741 30.424C12.7788 32.896 12.8751 37.568 16.0858 40.704C25.9105 36.04 33.9373 39.656 41.4584 42.704Z" fill="url(#paint0_linear_237:1948)"/>
<path d="M41.3379 42.752L40.4149 42.376C33.0383 39.376 25.4048 36.264 15.9975 40.736L15.9413 40.76L15.9011 40.72C13.8062 38.672 13.0356 36.024 12.3613 33.68C12.0001 32.448 11.663 31.288 11.1734 30.416L11.1654 30.384C10.7399 27.328 9.6804 24.552 8.65298 21.872C8.13926 20.528 7.60147 19.136 7.16 17.728C6.62221 15.344 6.89512 12.952 7.96268 10.624C8.04294 10.512 8.11518 10.408 8.18742 10.304C9.07839 9.05597 10.0817 7.63997 13.3245 6.57597C15.3312 6.43197 17.4021 5.49597 19.4008 4.59197C21.0383 3.84797 22.5874 3.15197 23.968 2.95197C28.0376 2.36797 32.051 2.83197 36.8269 3.71197C37.2122 3.80797 37.6376 3.90397 38.1272 4.00797C41.7633 4.77597 48.5299 6.19197 53.4262 15.76L53.4343 15.792C53.6831 19.76 51.2028 23.216 48.57 26.872C46.9406 29.144 45.247 31.496 44.0991 34.112C43.9707 34.72 43.8423 35.352 43.7139 35.976C43.0235 39.344 42.4296 42.256 41.346 42.728L41.3379 42.752ZM25.5734 38.328C30.9192 38.328 35.7513 40.296 40.4871 42.224L41.3379 42.568C42.3172 42.088 42.9272 39.104 43.5774 35.952C43.7058 35.328 43.8343 34.696 43.9707 34.072C45.1346 31.424 46.8282 29.064 48.4657 26.784C51.0744 23.152 53.5386 19.728 53.2978 15.824C48.4256 6.35197 41.972 4.99997 38.1112 4.18397C37.6135 4.07997 37.1881 3.99197 36.8028 3.88797C32.051 3.01597 28.0456 2.55197 24.0001 3.13597C22.6436 3.33597 21.1105 4.03197 19.4811 4.75997C17.4664 5.67197 15.3874 6.60797 13.3647 6.75197C10.1941 7.79997 9.20682 9.18397 8.33191 10.416C8.25967 10.52 8.18742 10.616 8.11518 10.72C7.06368 13 6.7988 15.36 7.32856 17.696C7.77003 19.096 8.2998 20.48 8.82154 21.824C9.84896 24.504 10.9165 27.28 11.3419 30.352C11.8396 31.232 12.1767 32.4 12.5379 33.632C13.2041 35.936 13.9667 38.544 15.9975 40.56C19.3928 38.952 22.5633 38.328 25.5734 38.328Z" fill="#C8BCA8"/>
<path fill-rule="evenodd" clip-rule="evenodd" d="M16.3668 43.4239C19.9066 41.5519 28.7682 36.9199 40.6317 45.0399C40.9688 43.1359 41.0009 41.2319 40.7361 39.3279C40.3989 34.8239 22.6919 29.3119 16.2705 39.2319L16.3668 43.4239Z" fill="url(#paint1_linear_237:1948)"/>
<path d="M40.6637 45.104L40.6155 45.072C35.5346 41.592 30.4135 40.064 25.3808 40.52C21.2229 40.896 18.0764 42.56 16.3828 43.456L16.3346 43.48V43.424L16.2383 39.224L16.2463 39.216C17.9801 36.544 20.6048 34.8 24.0644 34.048C26.8978 33.424 30.2048 33.5279 33.3754 34.3359C37.5975 35.4079 40.6396 37.464 40.7761 39.328C41.041 41.224 41.0089 43.152 40.6717 45.048L40.6637 45.104ZM27.1226 40.368C31.5854 40.368 36.1125 41.912 40.6075 44.984C40.9286 43.112 40.9607 41.208 40.6958 39.3359C40.5594 37.5279 37.4691 35.448 33.3433 34.3999C30.1888 33.5999 26.8898 33.4959 24.0644 34.1119C20.6289 34.8639 18.0122 36.5919 16.2945 39.24L16.3908 43.36C18.1005 42.456 21.2309 40.816 25.3647 40.44C25.9587 40.392 26.5446 40.368 27.1226 40.368Z" fill="#C8BCA8"/>
<path fill-rule="evenodd" clip-rule="evenodd" d="M11.3819 9.99995C10.8361 12.744 13.2763 21.408 12.4575 25.952C12.0401 23.568 10.5151 18.84 10.5793 16.176C9.8408 14.576 9.10234 12.64 8.29164 11.896C7.56121 11.232 9.96923 7.27195 11.3819 9.99995Z" fill="url(#paint2_linear_237:1948)"/>
<path d="M16.9445 37.888C16.9365 37.88 16.9365 37.88 16.9365 37.872C13.7258 34.128 12.4014 27.68 11.2857 22.248C10.4027 17.936 9.64821 14.256 8.18734 13.096L8.17932 13.088C7.9947 12.848 7.89035 12.568 7.85022 12.272C7.77798 11.76 7.90641 11.2 8.17129 10.68C8.42815 10.16 8.82146 9.69596 9.28701 9.37596C9.60808 9.15196 9.96928 9.00796 10.3385 8.95996L10.3465 9.03196C9.98534 9.07196 9.64019 9.22396 9.32714 9.43196C8.98199 9.90396 8.72514 10.208 8.46828 10.712C7.7539 12.136 9.23885 12.064 9.8248 12.84C11.3017 14.024 11.4221 17.904 12.3131 22.232C13.4288 27.656 13.79 34.096 16.9847 37.824C16.9927 37.832 16.9927 37.832 16.9927 37.84L16.9445 37.888Z" fill="#A99675"/>
<path fill-rule="evenodd" clip-rule="evenodd" d="M16.8241 8.87995C16.2783 11.624 17.675 17.92 16.8643 22.472C16.4469 20.088 14.9218 15.36 14.986 12.6959C14.2475 11.0959 13.3646 9.27195 12.8429 8.32795C12.3693 7.47995 14.8094 6.33595 16.8241 8.87995Z" fill="url(#paint3_linear_237:1948)"/>
<path d="M15.7566 7.91995C15.0583 7.44795 14.7773 7.47195 14.1753 7.55195C13.9265 7.58395 13.7178 7.66395 13.5572 7.77595C13.3967 7.88795 13.2924 8.04795 13.2603 8.23995C13.2282 8.52795 13.0355 8.57595 13.3004 9.10395C15.0823 11.512 16.4389 15.504 16.8161 19.752C17.2897 25.136 16.6636 31.1039 20.2435 35.3279L20.1874 35.3759C16.5914 31.128 16.0616 25.152 15.588 19.76C15.2108 15.52 14.8656 11.64 13.0997 9.24795C12.7305 8.75195 12.6181 8.34395 12.6743 8.02395C12.7144 7.80795 12.8268 7.63995 13.0034 7.51195C13.172 7.38395 13.3967 7.30395 13.6616 7.27195C14.2797 7.19195 15.0904 7.37595 15.8047 7.86395L15.7566 7.91995Z" fill="#A99675"/>
<path d="M25.5812 4.06398C27.2348 6.81598 24.1926 19.2 23.6548 26.984C23.6067 27.64 17.7792 1.29598 25.5812 4.06398Z" fill="url(#paint4_linear_237:1948)"/>
<path d="M24.883 33.856C22.9967 28.96 20.974 20.464 20.6609 13.76C20.5405 11.12 20.677 8.75196 21.1987 6.99196C21.7205 5.22396 22.6275 4.07196 24.0322 3.86396C24.4897 3.79196 25.0034 3.83196 25.5733 3.97596L25.5492 4.04796C24.9873 3.90396 24.4656 4.02396 24.0161 4.09596C22.8442 4.35996 22.9807 5.09596 22.2101 6.75196C21.6964 8.50396 21.4074 10.672 21.6402 13.312C22.6435 19.848 23.8716 28.76 24.9392 33.832L24.883 33.856Z" fill="#B5A584"/>
<path d="M30.3734 33.432C30.3012 32.904 30.2289 32.36 30.1487 31.808C28.9206 22.992 27.4196 12.208 32.6851 4.45599L32.7493 4.49599C30.5901 10.232 30.3012 21.152 30.0443 24.68C29.9319 26.2 30.1085 29.464 30.2289 31.792C30.3012 32.336 30.3814 32.88 30.4537 33.416L30.3734 33.432Z" fill="#CABB9C"/>
<path d="M36.0885 34.5679C36.2731 29.9999 36.7627 24.6559 37.2042 20.0239C38.3119 14.1839 41.2898 11.4239 42.0684 5.51994L42.0844 5.44794C39.243 10.0639 37.6617 15.0559 36.8349 20.0399C36.0162 25.0239 35.952 29.9999 36.1687 34.5679H36.0885Z" fill="url(#paint5_linear_237:1948)"/>
<path d="M49.8623 12.456C47.4944 19.784 44.6529 26.944 41.7874 34.192C41.8676 24.6 47.0288 13.048 49.8623 12.456Z" fill="url(#paint6_linear_237:1948)"/>
<path d="M40.4309 37.424C41.6831 36.12 41.7714 34.12 41.8838 31.8C41.9801 29.656 42.0924 27.24 43.144 24.848C43.168 24.76 43.2162 24.608 43.2724 24.4C43.9707 21.976 46.764 12.232 50.0229 12.408L50.0149 12.48C47.4543 12.384 44.2035 22.024 43.4329 24.432C43.3767 24.632 43.3607 24.76 43.3286 24.856V24.864C42.4135 27.24 42.3573 29.664 42.0523 31.8C41.948 34.128 41.7473 36.144 40.4791 37.464L40.4309 37.424Z" fill="#A99675"/>
<path d="M72.4094 56.184C72.4094 56.336 72.3131 56.536 72.1044 56.792C70.3224 58.896 67.9545 59.952 64.9927 59.952C61.9666 59.952 59.5184 58.928 57.6401 56.88C55.81 54.896 54.887 52.392 54.887 49.376C54.887 46.448 55.786 43.968 57.5759 41.936C59.4462 39.808 61.8301 38.736 64.7197 38.736C67.8582 38.736 70.3224 39.688 72.1044 41.608C72.297 41.816 72.3933 42.008 72.3933 42.168C72.3933 42.352 72.0642 43.032 71.3819 44.2C70.7077 45.376 70.2823 46.032 70.1137 46.176C70.0335 46.248 69.9371 46.288 69.8248 46.288C69.7766 46.288 69.5358 46.096 69.0943 45.712C68.5726 45.248 68.0589 44.888 67.5532 44.632C66.7906 44.248 65.988 44.056 65.1692 44.056C63.7485 44.056 62.6087 44.584 61.7579 45.64C60.9712 46.616 60.5779 47.832 60.5779 49.28C60.5779 50.736 60.9712 51.96 61.7579 52.96C62.6087 54.032 63.7485 54.576 65.1692 54.576C66.012 54.576 66.8147 54.392 67.5692 54.024C68.0589 53.784 68.5646 53.448 69.0863 53.016C69.5117 52.648 69.7445 52.472 69.7926 52.472C69.889 52.472 69.9853 52.528 70.0816 52.632C70.2341 52.808 70.6595 53.408 71.3498 54.432C72.0562 55.496 72.4094 56.08 72.4094 56.184Z" fill="white"/>
<path d="M93.2388 49.352C93.2388 52.352 92.2755 54.864 90.3491 56.896C88.3826 58.952 85.8862 59.984 82.8762 59.984C79.8822 59.984 77.3939 58.944 75.4194 56.872C73.4769 54.84 72.5137 52.336 72.5137 49.352C72.5137 46.36 73.4849 43.848 75.4194 41.808C77.402 39.72 79.8822 38.68 82.8762 38.68C85.8541 38.68 88.3344 39.72 90.317 41.808C92.2675 43.864 93.2388 46.384 93.2388 49.352ZM87.7324 49.32C87.7324 47.88 87.2909 46.648 86.408 45.64C85.4849 44.584 84.305 44.056 82.8762 44.056C81.5117 44.056 80.3478 44.6 79.4006 45.704C78.4776 46.76 78.012 47.976 78.012 49.352C78.012 50.824 78.4454 52.048 79.3043 53.032C80.2194 54.064 81.4073 54.576 82.8682 54.576C84.2327 54.576 85.3966 54.032 86.3598 52.944C87.2749 51.904 87.7324 50.696 87.7324 49.32Z" fill="white"/>
<path d="M113.45 49.224C113.45 52.048 112.535 54.504 110.697 56.576C109.075 58.432 106.804 59.408 103.882 59.504C103.32 59.52 101.771 59.536 99.2427 59.536C98.7691 59.536 98.0548 59.52 97.0996 59.488C96.1444 59.456 95.43 59.44 94.9564 59.44C94.6755 59.44 94.531 59.328 94.531 59.112C94.531 58.056 94.5792 56.464 94.6514 54.344C94.7397 52.224 94.7718 50.64 94.7718 49.576C94.7718 48.472 94.7317 46.816 94.6514 44.608C94.5711 42.4 94.531 40.752 94.531 39.648C94.531 39.448 94.6755 39.328 94.9564 39.288C95.6467 39.216 96.7705 39.176 98.3437 39.176C101.33 39.176 103.264 39.224 104.147 39.304C106.443 39.536 108.241 40.112 109.541 41.04C110.761 41.904 111.724 43.12 112.431 44.672C113.113 46.152 113.45 47.664 113.45 49.224ZM107.888 49.224C107.888 47.6 107.398 46.272 106.419 45.24C105.431 44.168 104.123 43.64 102.494 43.64C101.001 43.64 100.254 43.84 100.254 44.232C100.254 44.8 100.246 45.656 100.222 46.792C100.206 47.936 100.19 48.784 100.19 49.352C100.19 49.912 100.198 50.752 100.222 51.864C100.238 52.984 100.254 53.832 100.254 54.4C100.254 54.816 101.025 55.024 102.574 55.024C104.251 55.024 105.568 54.464 106.531 53.368C107.43 52.312 107.888 50.928 107.888 49.224Z" fill="white"/>
<path d="M129.664 54.96C129.664 55.376 129.584 56.128 129.415 57.24C129.239 58.44 129.086 59.152 128.95 59.384C128.837 59.568 128.669 59.656 128.468 59.656C128.38 59.656 128.235 59.64 128.035 59.608C127.328 59.512 125.265 59.464 121.838 59.464C121.092 59.464 119.984 59.456 118.507 59.448C117.038 59.44 115.93 59.432 115.2 59.432C114.879 59.432 114.718 59.296 114.718 59.016C114.718 57.936 114.774 56.32 114.895 54.16C115.015 52 115.079 50.384 115.079 49.304C115.079 48.208 115.023 46.168 114.903 43.176C114.871 42.408 114.823 41.264 114.742 39.728L114.726 39.528C114.71 39.304 114.823 39.2 115.087 39.2C115.81 39.2 116.885 39.216 118.322 39.256C119.759 39.296 120.835 39.312 121.557 39.312C122.263 39.312 123.331 39.296 124.752 39.256C126.172 39.224 127.24 39.2 127.954 39.2C128.452 39.2 128.749 39.384 128.829 39.76C128.877 39.984 128.95 40.648 129.054 41.776C129.15 42.896 129.207 43.576 129.207 43.816C129.207 44.016 129.11 44.12 128.918 44.12C128.861 44.12 128.757 44.112 128.613 44.104C126.028 43.896 123.716 43.784 121.661 43.784C121.148 43.784 120.835 43.904 120.722 44.152C120.674 44.264 120.65 44.632 120.65 45.256C120.65 45.912 120.746 46.344 120.939 46.552C121.1 46.736 121.413 46.824 121.878 46.824C121.974 46.824 122.167 46.816 122.44 46.808C122.721 46.792 122.954 46.792 123.138 46.792C124.358 46.792 125.595 46.76 126.847 46.688C126.959 46.68 127.216 46.656 127.649 46.616C127.978 46.584 128.243 46.56 128.436 46.56C128.669 46.56 128.789 46.672 128.789 46.888C128.789 46.688 128.701 47.424 128.524 49.096C128.444 49.872 128.412 50.64 128.412 51.408C128.412 51.6 128.267 51.696 127.986 51.696C127.986 51.696 127.553 51.648 126.678 51.552C126.124 51.496 124.864 51.472 122.898 51.472H121.356C120.963 51.472 120.722 51.568 120.658 51.76C120.65 51.808 120.642 52.112 120.642 52.656C120.642 53.392 120.69 53.856 120.786 54.072C120.955 54.44 121.573 54.656 122.649 54.72C122.633 54.72 123.339 54.72 124.776 54.72C125.289 54.72 126.052 54.672 127.071 54.584C128.083 54.496 128.845 54.448 129.343 54.448C129.552 54.44 129.664 54.616 129.664 54.96Z" fill="white"/>
<path d="M184.615 55.32C184.615 55.72 184.535 56.448 184.374 57.512C184.206 58.672 184.053 59.352 183.925 59.576C183.813 59.752 183.652 59.84 183.459 59.84C183.379 59.84 183.235 59.824 183.034 59.8C182.352 59.712 180.353 59.664 177.03 59.664C176.308 59.664 175.232 59.656 173.803 59.648C172.382 59.64 171.307 59.632 170.593 59.632C170.279 59.632 170.127 59.496 170.127 59.232C170.127 58.192 170.183 56.64 170.304 54.56C170.424 52.488 170.48 50.928 170.48 49.888C170.48 48.832 170.424 46.872 170.312 43.984C170.279 43.248 170.231 42.144 170.159 40.664L170.143 40.472C170.127 40.256 170.239 40.152 170.496 40.152C171.195 40.152 172.238 40.168 173.635 40.208C175.031 40.248 176.075 40.264 176.773 40.264C177.455 40.264 178.491 40.248 179.871 40.208C181.252 40.176 182.288 40.152 182.97 40.152C183.451 40.152 183.74 40.336 183.813 40.696C183.853 40.912 183.925 41.552 184.029 42.632C184.126 43.704 184.182 44.36 184.182 44.592C184.182 44.784 184.085 44.888 183.901 44.888C183.845 44.888 183.748 44.88 183.604 44.872C181.1 44.672 178.86 44.568 176.861 44.568C176.364 44.568 176.059 44.688 175.946 44.92C175.898 45.032 175.874 45.384 175.874 45.984C175.874 46.616 175.97 47.032 176.155 47.232C176.316 47.408 176.621 47.496 177.07 47.496C177.166 47.496 177.351 47.488 177.616 47.48C177.889 47.464 178.114 47.464 178.29 47.464C179.47 47.464 180.674 47.432 181.886 47.368C181.991 47.36 182.247 47.336 182.657 47.296C182.978 47.264 183.227 47.24 183.419 47.24C183.644 47.24 183.764 47.344 183.764 47.56C183.764 47.368 183.676 48.08 183.508 49.68C183.427 50.424 183.395 51.16 183.395 51.904C183.395 52.088 183.259 52.184 182.986 52.184C182.986 52.184 182.56 52.136 181.718 52.04C181.188 51.984 179.96 51.96 178.049 51.96H176.556C176.171 51.96 175.946 52.048 175.882 52.232C175.874 52.28 175.866 52.568 175.866 53.096C175.866 53.8 175.914 54.256 176.003 54.456C176.163 54.808 176.765 55.016 177.809 55.08C177.793 55.08 178.475 55.08 179.863 55.08C180.361 55.08 181.1 55.04 182.087 54.944C183.066 54.856 183.805 54.808 184.286 54.808C184.503 54.816 184.615 54.992 184.615 55.32Z" fill="#F8F3DE"/>
<path d="M200.139 44.688C200.139 44.784 200.043 44.84 199.858 44.84C199.16 44.84 198.092 44.776 196.655 44.664C195.219 44.544 194.151 44.48 193.437 44.48C192.538 44.48 192.016 44.512 191.855 44.576C191.51 44.736 191.334 45.176 191.334 45.912C191.334 46.792 191.558 47.288 192.008 47.408C192.201 47.456 192.481 47.48 192.867 47.48C193.517 47.48 194.488 47.44 195.772 47.376C197.065 47.304 198.036 47.272 198.686 47.272C198.999 47.272 199.152 48.088 199.152 49.712C199.152 51.128 199.096 51.952 198.999 52.184C198.935 52.352 198.807 52.432 198.622 52.432C198.742 52.432 198.445 52.4 197.731 52.336C196.728 52.24 195.203 52.2 193.164 52.2C192.506 52.2 192.136 52.208 192.048 52.216C191.574 52.288 191.334 52.488 191.334 52.816C191.334 54.128 191.39 55.64 191.502 57.352C191.599 58.896 191.639 59.584 191.639 59.416C191.639 59.656 191.342 59.792 190.756 59.832C190.916 59.824 190.499 59.816 189.504 59.816C187.746 59.816 186.614 59.752 186.108 59.64C185.835 59.576 185.699 59.432 185.699 59.208C185.699 58.176 185.731 56.64 185.803 54.576C185.875 52.52 185.908 50.976 185.908 49.944C185.908 48.72 185.851 47.184 185.739 45.336C185.57 42.48 185.482 40.944 185.466 40.728L185.45 40.56C185.442 40.328 185.586 40.208 185.875 40.208C186.574 40.208 187.625 40.224 189.022 40.248C190.427 40.28 191.478 40.288 192.184 40.288C192.931 40.288 194.063 40.232 195.572 40.12C197.081 40.008 198.205 39.952 198.959 39.952C199.425 39.952 199.69 40.144 199.746 40.52C199.746 40.92 199.762 41.512 199.802 42.312C199.818 42.52 199.882 42.912 199.986 43.496C200.091 44.016 200.139 44.408 200.139 44.688Z" fill="#F8F3DE"/>
<path d="M131.021 45.208C130.202 47.96 130.427 50.8 131.687 53.632C132.987 56.56 134.946 58.608 137.523 59.728C140.155 60.88 142.933 60.8 145.774 59.496C148.551 58.216 150.349 56.16 151.12 53.376C151.168 53.192 151.176 53.08 151.176 53.016C151.04 52.904 150.654 52.616 149.523 51.888C148.367 51.152 147.861 50.856 147.644 50.736C147.588 50.848 147.508 51.016 147.395 51.264C147.058 51.992 146.681 52.608 146.28 53.096C145.654 53.872 144.867 54.48 143.96 54.896C142.403 55.616 140.862 55.584 139.385 54.8C138.06 54.096 137.033 52.936 136.327 51.352C135.628 49.784 135.46 48.248 135.829 46.784C136.238 45.168 137.234 43.984 138.791 43.272C139.682 42.864 140.645 42.672 141.656 42.72C142.339 42.76 143.053 42.904 143.807 43.144C144.112 43.24 144.305 43.296 144.426 43.328C144.474 43.128 144.578 42.56 144.723 41.008C144.883 39.32 144.859 38.848 144.835 38.728C144.811 38.704 144.747 38.64 144.57 38.568C143.486 38.104 142.355 37.872 141.175 37.872C139.65 37.872 138.052 38.256 136.383 39.024C133.67 40.272 131.864 42.352 131.021 45.208Z" fill="#F8F3DE"/>
<path d="M168.337 54.68C168.241 52.664 168.193 51.152 168.193 50.144C168.193 49.072 168.233 47.464 168.321 45.312C168.409 43.16 168.458 41.56 168.458 40.496C168.458 40.272 168.321 40.168 168.048 40.168C167.767 40.168 167.35 40.184 166.788 40.208C166.226 40.24 165.817 40.248 165.544 40.248C165.263 40.248 164.837 40.232 164.284 40.208C163.722 40.184 163.304 40.168 163.031 40.168C162.799 40.168 162.678 40.312 162.678 40.592C162.678 41.272 162.71 42.28 162.783 43.632C162.847 44.976 162.879 45.984 162.879 46.648C162.879 46.968 162.767 47.16 162.542 47.216C162.221 47.288 161.057 47.328 159.042 47.328C156.883 47.328 155.679 47.296 155.438 47.216C155.262 47.16 155.173 46.968 155.173 46.648C155.173 45.952 155.221 44.912 155.326 43.528C155.43 42.144 155.478 41.104 155.478 40.408C155.478 40.24 155.398 40.16 155.237 40.16C154.94 40.16 154.491 40.176 153.881 40.2C153.271 40.232 152.821 40.24 152.516 40.24C152.219 40.24 151.786 40.224 151.2 40.2C150.614 40.176 150.173 40.16 149.884 40.16C149.683 40.16 149.587 40.256 149.587 40.464C149.587 41.536 149.635 43.152 149.731 45.304C149.819 47.456 149.868 49.072 149.868 50.144C149.868 50.368 149.868 50.616 149.86 50.88C149.932 50.928 149.996 50.968 150.076 51.016C151.979 52.248 152.035 52.376 152.115 52.552C152.235 52.824 152.235 53.168 152.115 53.64C151.633 55.392 150.783 56.88 149.595 58.104C149.587 58.52 149.579 58.896 149.579 59.208C149.579 59.448 149.715 59.592 149.988 59.64C150.333 59.696 151.144 59.728 152.404 59.728C153.873 59.728 154.756 59.696 155.053 59.64C155.31 59.592 155.43 59.432 155.43 59.152C155.43 58.432 155.406 57.352 155.366 55.912C155.318 54.48 155.294 53.392 155.294 52.672C155.294 52.304 155.398 52.096 155.599 52.048C155.928 51.976 157.076 51.936 159.034 51.936C160.993 51.936 162.124 51.976 162.445 52.048C162.654 52.104 162.759 52.312 162.759 52.672C162.759 53.408 162.718 54.504 162.654 55.968C162.582 57.44 162.55 58.536 162.55 59.264C162.55 59.456 162.678 59.584 162.935 59.64C163.192 59.696 164.059 59.728 165.536 59.728C166.579 59.728 167.39 59.696 167.96 59.64C168.185 59.624 168.313 59.6 168.353 59.568C168.433 59.528 168.482 59.4 168.482 59.208C168.49 58.208 168.441 56.696 168.337 54.68Z" fill="#F8F3DE"/>
<defs>
<linearGradient id="paint0_linear_237:1948" x1="7.09221" y1="22.7701" x2="53.5056" y2="22.7701" gradientUnits="userSpaceOnUse">
<stop offset="0.0397" stop-color="#F9F9EC"/>
<stop offset="0.4183" stop-color="#F9F9EC"/>
<stop offset="0.4932" stop-color="#F3F1E2"/>
<stop offset="0.6217" stop-color="#E4DDC6"/>
<stop offset="0.7873" stop-color="#CCBC9A"/>
<stop offset="0.7969" stop-color="#CABA97"/>
<stop offset="1" stop-color="#BAA685"/>
</linearGradient>
<linearGradient id="paint1_linear_237:1948" x1="16.2697" y1="39.3612" x2="40.9155" y2="39.3612" gradientUnits="userSpaceOnUse">
<stop stop-color="#F9F9EC"/>
<stop offset="0.0526" stop-color="#F9F9EC"/>
<stop offset="0.3844" stop-color="#F9F9EC"/>
<stop offset="0.5145" stop-color="#F5F4E5"/>
<stop offset="0.7094" stop-color="#EAE5D0"/>
<stop offset="0.9441" stop-color="#D9CCAF"/>
<stop offset="0.9987" stop-color="#D4C6A6"/>
</linearGradient>
<linearGradient id="paint2_linear_237:1948" x1="8.15679" y1="17.5068" x2="12.6279" y2="17.5068" gradientUnits="userSpaceOnUse">
<stop stop-color="#E8DBCA"/>
<stop offset="1" stop-color="#F2ECDE"/>
</linearGradient>
<linearGradient id="paint3_linear_237:1948" x1="14.7709" y1="12.6665" x2="17.2142" y2="16.244" gradientUnits="userSpaceOnUse">
<stop stop-color="#ECE1D1"/>
<stop offset="0.4318" stop-color="#EEE6D9"/>
<stop offset="1" stop-color="#EFE9DE"/>
</linearGradient>
<linearGradient id="paint4_linear_237:1948" x1="21.5184" y1="15.4297" x2="26.0649" y2="15.4297" gradientUnits="userSpaceOnUse">
<stop stop-color="#ECE1D1"/>
<stop offset="1" stop-color="#EDE4D5"/>
</linearGradient>
<linearGradient id="paint5_linear_237:1948" x1="39.11" y1="15.1259" x2="38.993" y2="21.1165" gradientUnits="userSpaceOnUse">
<stop stop-color="#BAA68A"/>
<stop offset="1" stop-color="#C7BAA0"/>
</linearGradient>
<linearGradient id="paint6_linear_237:1948" x1="41.7891" y1="23.3241" x2="49.8613" y2="23.3241" gradientUnits="userSpaceOnUse">
<stop stop-color="#BDAE99"/>
<stop offset="0.2551" stop-color="#BFB19C"/>
<stop offset="1" stop-color="#C2B5A1"/>
</linearGradient>
</defs>
</svg>
