<svg width="500" height="120" viewBox="0 0 500 120" fill="none" xmlns="http://www.w3.org/2000/svg">
<rect width="500" height="120" rx="15" fill="#292B3C"/>
<path d="M350.153 47.472C348.523 45.632 346.356 44.624 344.052 44.624C343.884 44.624 343.715 44.632 343.547 44.64L201.674 53.872H201.65H201.625C194.682 54.552 190.717 58.752 190.147 66L190.083 66.84C189.947 66.824 189.81 66.816 189.682 66.816C189.481 66.816 189.28 66.832 189.088 66.872C188.919 66.888 188.726 66.936 188.518 67.008V64.048C189.995 63.096 190.557 60.656 191.44 56.352C191.552 55.792 191.672 55.224 191.793 54.656C192.876 52.256 194.474 50.024 196.031 47.864C198.712 44.136 201.481 40.28 201.192 35.744L201.007 35.08C197.981 29.176 193.936 25.408 188.646 23.552C187.057 22.984 185.628 22.68 184.48 22.44C184.007 22.344 183.597 22.256 183.252 22.168L183.132 22.144C180.186 21.6 176.999 21.096 173.716 21.096C172.32 21.096 171.027 21.184 169.743 21.368C168.13 21.6 166.484 22.344 164.743 23.136C162.872 23.984 160.938 24.856 159.244 24.976L158.827 25.056C155.078 26.288 153.858 28 152.871 29.384C152.799 29.48 152.734 29.576 152.662 29.68L152.494 29.968C151.266 32.632 150.961 35.36 151.579 38.096L151.619 38.224C152.076 39.68 152.622 41.096 153.144 42.456C154.187 45.168 155.167 47.736 155.568 50.608L155.777 51.216C156.178 51.92 156.483 52.992 156.82 54.128C157.502 56.48 158.353 59.4 160.633 61.72L160.641 61.952V65.176C160.641 65.176 152.181 69.248 149.724 71.064C148.48 71.984 146.851 74.232 149.837 76.112C152.132 77.56 159.437 81.368 159.413 81.584C159.156 84.176 160.047 86.512 160.89 87.496C162.27 89.12 164.534 90.048 167.11 90.048C169.575 90.048 171.999 89.192 173.604 87.768C174.005 87.408 174.351 87.024 174.631 86.632C174.92 87.032 175.258 87.416 175.659 87.768C177.256 89.192 179.688 90.048 182.153 90.048C184.729 90.048 186.993 89.12 188.373 87.496C189.28 86.432 190.26 84.528 189.754 81.552L189.666 81.064C189.714 81.064 190.974 80.44 190.974 80.44C190.974 80.44 190.974 80.448 190.982 80.544C191.126 82.168 191.375 85.016 195.67 85.384L195.718 85.392H195.766L343.603 89.36C343.675 89.36 343.747 89.36 343.828 89.36C346.179 89.36 348.387 88.368 350.048 86.576C351.67 84.824 352.561 82.536 352.561 80.12V53.88C352.569 51.504 351.71 49.232 350.153 47.472Z" fill="white"/>
<path fill-rule="evenodd" clip-rule="evenodd" d="M201.786 55.568L343.651 46.336C347.608 46.08 350.859 49.728 350.859 53.88V80.112C350.859 84.256 347.616 87.76 343.651 87.656L195.822 83.688C192.78 83.424 192.804 81.648 192.643 79.92C203.102 78.032 197.195 65.48 191.857 66.136C192.443 58.584 196.817 56.056 201.786 55.568Z" fill="#292B3B"/>
<path d="M192.074 69.32C193.839 69.896 195.292 70.712 196.424 71.768C196.673 71.944 196.793 72.144 196.793 72.376C196.793 72.752 196.512 73.112 195.942 73.464C195.276 73.88 194.281 74.616 192.965 75.672C191.744 76.64 190.757 77.344 190.011 77.792C189.866 77.864 189.722 77.904 189.577 77.904C189.361 77.904 189.168 77.824 189.015 77.68C188.855 77.528 188.775 77.352 188.775 77.152C188.775 76.976 188.839 76.824 188.967 76.672C189.144 76.384 189.545 76.064 190.187 75.72C190.605 75.504 191.126 75.152 191.752 74.656C192.507 74.048 193.029 73.648 193.318 73.464C193.952 73.144 194.273 72.92 194.273 72.792C194.273 72.76 194.265 72.736 194.249 72.704C193.904 72.096 193.326 71.64 192.531 71.336C191.825 71.136 191.102 70.928 190.38 70.704C189.529 70.448 188.895 70.08 188.486 69.6C188.453 69.56 188.445 69.504 188.445 69.448C188.445 69.272 188.55 69.08 188.75 68.872C188.951 68.664 189.152 68.56 189.336 68.56C189.449 68.528 189.569 68.52 189.682 68.52C190.019 68.52 190.428 68.624 190.918 68.824C191.295 68.984 191.68 69.144 192.074 69.32ZM158.161 68.608C158.49 68.608 158.763 68.696 158.979 68.872C159.188 69.048 159.292 69.248 159.292 69.48C159.292 69.656 159.228 69.808 159.1 69.936C158.618 70.456 157.639 71.016 156.146 71.608C154.765 72.16 153.842 72.792 153.361 73.512C154.171 74 155.239 74.536 156.555 75.112C158.658 76.048 159.742 76.536 159.814 76.568C160.087 76.696 160.223 76.904 160.223 77.2C160.255 77.56 160.111 77.864 159.798 78.12C159.485 78.376 159.124 78.496 158.722 78.496C158.562 78.496 158.409 78.464 158.265 78.408C158.088 78.232 157.855 78.032 157.55 77.8C155.64 76.76 153.593 75.768 151.418 74.832C151.201 74.744 150.985 74.664 150.768 74.592C150.495 74.464 150.334 74.272 150.286 74.032C150.286 73.408 150.559 72.832 151.113 72.296C151.779 71.76 152.879 71.152 154.42 70.456C155.913 69.792 156.989 69.176 157.663 68.616C157.663 68.608 157.823 68.608 158.161 68.608Z" fill="#5B4538"/>
<path d="M171.798 68.576C171.437 68.056 171.1 67.688 170.795 67.472C170.49 67.256 170.136 67.152 169.727 67.152C169.583 67.152 169.454 67.176 169.35 67.216L166.942 68.048C166.805 68.096 166.645 68.112 166.468 68.112C166.147 68.112 165.89 68.04 165.698 67.888C165.497 67.744 165.256 67.448 164.975 67.008L164.309 67.448C164.726 68.048 165.088 68.448 165.377 68.64C165.674 68.84 166.043 68.936 166.5 68.936C166.701 68.936 166.902 68.904 167.094 68.848L169.302 68.048C169.446 67.992 169.607 67.96 169.775 67.96C170.056 67.96 170.289 68.016 170.457 68.136C170.626 68.248 170.867 68.512 171.172 68.928L171.798 68.576Z" fill="#5B4538"/>
<path fill-rule="evenodd" clip-rule="evenodd" d="M188.068 81.832C189.28 89.048 180.427 89.744 176.791 86.504C174.278 84.264 174.985 81.152 178.589 81.344C181.759 81.512 183.629 85.592 188.068 81.832Z" fill="#5B4538"/>
<path fill-rule="evenodd" clip-rule="evenodd" d="M161.179 81.832C159.967 89.048 168.82 89.744 172.456 86.504C174.969 84.264 174.262 81.152 170.658 81.344C167.488 81.512 165.617 85.592 161.179 81.832Z" fill="#5B4538"/>
<path d="M169.872 71.36C169.47 71.08 168.973 70.936 168.379 70.936C167.664 70.936 167.086 71.152 166.637 71.576C166.115 72.048 165.914 72.72 166.035 73.6C166.107 74.312 166.364 74.936 166.797 75.48C167.239 76.024 167.768 76.296 168.379 76.296C168.756 76.296 169.149 76.192 169.55 75.976C170.265 75.552 170.618 74.736 170.618 73.528C170.618 72.44 170.369 71.72 169.872 71.36ZM168.346 74.232C167.929 74.232 167.584 73.896 167.584 73.472C167.584 73.056 167.921 72.712 168.346 72.712C168.764 72.712 169.109 73.048 169.109 73.472C169.109 73.896 168.764 74.232 168.346 74.232Z" fill="#5B4538"/>
<path d="M175.169 80.728C175.394 80.728 175.611 80.688 175.811 80.608C176.012 80.528 176.197 80.432 176.365 80.304C176.534 80.176 176.686 80.032 176.823 79.88C176.959 79.72 177.08 79.568 177.176 79.4C177.28 79.24 177.36 79.088 177.425 78.936C177.489 78.792 177.537 78.672 177.561 78.568C177.553 78.552 177.545 78.528 177.529 78.496C177.513 78.472 177.497 78.448 177.489 78.424C177.473 78.408 177.457 78.4 177.449 78.4C177.256 78.752 177.047 79.04 176.807 79.264C176.566 79.488 176.301 79.648 176.02 79.752C175.731 79.856 175.418 79.904 175.089 79.904C174.8 79.904 174.543 79.864 174.318 79.792C174.086 79.72 173.885 79.608 173.7 79.472C173.516 79.328 173.355 79.16 173.203 78.968C173.058 78.776 172.922 78.552 172.801 78.312C172.793 78.312 172.785 78.32 172.769 78.336C172.753 78.352 172.737 78.376 172.729 78.4C172.713 78.424 172.713 78.44 172.705 78.456C172.817 78.768 172.954 79.056 173.122 79.336C173.283 79.608 173.467 79.848 173.676 80.056C173.885 80.264 174.11 80.432 174.366 80.552C174.607 80.656 174.88 80.72 175.169 80.728Z" fill="#5B4538"/>
<path d="M182.225 71.312C181.823 71.032 181.326 70.888 180.732 70.888C180.017 70.888 179.439 71.104 178.99 71.528C178.468 72 178.267 72.68 178.388 73.552C178.46 74.264 178.717 74.888 179.15 75.432C179.592 75.976 180.122 76.248 180.732 76.248C181.109 76.248 181.502 76.144 181.904 75.928C182.618 75.504 182.971 74.688 182.971 73.48C182.979 72.384 182.73 71.664 182.225 71.312ZM180.475 74.32C180.057 74.32 179.712 73.976 179.712 73.56C179.712 73.144 180.049 72.8 180.475 72.8C180.892 72.8 181.237 73.136 181.237 73.56C181.237 73.984 180.892 74.32 180.475 74.32Z" fill="#5B4538"/>
<path d="M187.458 62.704C188.694 62.168 189.328 58.008 190.163 54.136C193.173 47.28 199.892 42.232 199.49 35.856C193.976 25.096 186.254 24.712 182.947 23.856C178.661 23.064 174.383 22.48 170.104 23.096C167.062 23.544 163.121 26.464 159.477 26.712C156.001 27.856 155.134 29.376 154.163 30.712C153.08 33.064 152.831 35.408 153.361 37.76C154.693 41.984 156.74 45.824 157.374 50.424C158.779 52.896 158.875 57.568 162.086 60.704C171.91 56.04 179.937 59.656 187.458 62.704Z" fill="url(#paint0_linear)"/>
<path d="M187.338 62.752L186.415 62.376C179.038 59.376 171.405 56.264 161.997 60.736L161.941 60.76L161.901 60.72C159.806 58.672 159.035 56.024 158.361 53.68C158 52.448 157.663 51.288 157.173 50.416L157.165 50.384C156.74 47.328 155.68 44.552 154.653 41.872C154.139 40.528 153.601 39.136 153.16 37.728C152.622 35.344 152.895 32.952 153.963 30.624C154.043 30.512 154.115 30.408 154.187 30.304C155.078 29.056 156.082 27.64 159.324 26.576C161.331 26.432 163.402 25.496 165.401 24.592C167.038 23.848 168.587 23.152 169.968 22.952C174.037 22.368 178.051 22.832 182.827 23.712C183.212 23.808 183.637 23.904 184.127 24.008C187.763 24.776 194.53 26.192 199.426 35.76L199.434 35.792C199.683 39.76 197.203 43.216 194.57 46.872C192.94 49.144 191.247 51.496 190.099 54.112C189.971 54.72 189.842 55.352 189.714 55.976C189.023 59.344 188.429 62.256 187.346 62.728L187.338 62.752ZM171.573 58.328C176.919 58.328 181.751 60.296 186.487 62.224L187.338 62.568C188.317 62.088 188.927 59.104 189.577 55.952C189.706 55.328 189.834 54.696 189.971 54.072C191.134 51.424 192.828 49.064 194.466 46.784C197.074 43.152 199.538 39.728 199.298 35.824C194.425 26.352 187.972 25 184.111 24.184C183.613 24.08 183.188 23.992 182.803 23.888C178.051 23.016 174.045 22.552 170 23.136C168.643 23.336 167.11 24.032 165.481 24.76C163.466 25.672 161.387 26.608 159.365 26.752C156.194 27.8 155.207 29.184 154.332 30.416C154.26 30.52 154.187 30.616 154.115 30.72C153.064 33 152.799 35.36 153.328 37.696C153.77 39.096 154.3 40.48 154.821 41.824C155.849 44.504 156.916 47.28 157.342 50.352C157.839 51.232 158.177 52.4 158.538 53.632C159.204 55.936 159.967 58.544 161.997 60.56C165.393 58.952 168.563 58.328 171.573 58.328Z" fill="#C8BCA8"/>
<path fill-rule="evenodd" clip-rule="evenodd" d="M162.367 63.424C165.906 61.552 174.768 56.92 186.631 65.04C186.969 63.136 187.001 61.232 186.736 59.328C186.399 54.824 168.692 49.312 162.27 59.232L162.367 63.424Z" fill="url(#paint1_linear)"/>
<path d="M186.664 65.104L186.615 65.072C181.534 61.592 176.413 60.064 171.381 60.52C167.223 60.896 164.076 62.56 162.383 63.456L162.334 63.48V63.424L162.238 59.224L162.246 59.216C163.98 56.544 166.605 54.8 170.064 54.048C172.898 53.424 176.205 53.528 179.375 54.336C183.597 55.408 186.64 57.464 186.776 59.328C187.041 61.224 187.009 63.152 186.672 65.048L186.664 65.104ZM173.122 60.368C177.585 60.368 182.112 61.912 186.607 64.984C186.928 63.112 186.961 61.208 186.696 59.336C186.559 57.528 183.469 55.448 179.343 54.4C176.189 53.6 172.89 53.496 170.064 54.112C166.629 54.864 164.012 56.592 162.294 59.24L162.391 63.36C164.1 62.456 167.231 60.816 171.365 60.44C171.959 60.392 172.545 60.368 173.122 60.368Z" fill="#C8BCA8"/>
<path fill-rule="evenodd" clip-rule="evenodd" d="M157.382 30C156.836 32.744 159.276 41.408 158.458 45.952C158.04 43.568 156.515 38.84 156.579 36.176C155.841 34.576 155.102 32.64 154.292 31.896C153.561 31.232 155.969 27.272 157.382 30Z" fill="url(#paint2_linear)"/>
<path d="M162.945 57.888C162.937 57.88 162.937 57.88 162.937 57.872C159.726 54.128 158.401 47.68 157.286 42.248C156.403 37.936 155.648 34.256 154.187 33.096L154.179 33.088C153.995 32.848 153.89 32.568 153.85 32.272C153.778 31.76 153.906 31.2 154.171 30.68C154.428 30.16 154.821 29.696 155.287 29.376C155.608 29.152 155.969 29.008 156.339 28.96L156.347 29.032C155.985 29.072 155.64 29.224 155.327 29.432C154.982 29.904 154.725 30.208 154.468 30.712C153.754 32.136 155.239 32.064 155.825 32.84C157.302 34.024 157.422 37.904 158.313 42.232C159.429 47.656 159.79 54.096 162.985 57.824C162.993 57.832 162.993 57.832 162.993 57.84L162.945 57.888Z" fill="#A99675"/>
<path fill-rule="evenodd" clip-rule="evenodd" d="M162.824 28.88C162.278 31.624 163.675 37.92 162.864 42.472C162.447 40.088 160.922 35.36 160.986 32.696C160.248 31.096 159.365 29.272 158.843 28.328C158.369 27.48 160.809 26.336 162.824 28.88Z" fill="url(#paint3_linear)"/>
<path d="M161.757 27.92C161.058 27.448 160.777 27.472 160.175 27.552C159.926 27.584 159.718 27.664 159.557 27.776C159.397 27.888 159.292 28.048 159.26 28.24C159.228 28.528 159.036 28.576 159.3 29.104C161.082 31.512 162.439 35.504 162.816 39.752C163.29 45.136 162.664 51.104 166.244 55.328L166.187 55.376C162.591 51.128 162.062 45.152 161.588 39.76C161.211 35.52 160.866 31.64 159.1 29.248C158.73 28.752 158.618 28.344 158.674 28.024C158.714 27.808 158.827 27.64 159.003 27.512C159.172 27.384 159.397 27.304 159.662 27.272C160.28 27.192 161.09 27.376 161.805 27.864L161.757 27.92Z" fill="#A99675"/>
<path d="M171.581 24.064C173.235 26.816 170.193 39.2 169.655 46.984C169.607 47.64 163.779 21.296 171.581 24.064Z" fill="url(#paint4_linear)"/>
<path d="M170.883 53.856C168.997 48.96 166.974 40.464 166.661 33.76C166.541 31.12 166.677 28.752 167.199 26.992C167.72 25.224 168.627 24.072 170.032 23.864C170.49 23.792 171.003 23.832 171.573 23.976L171.549 24.048C170.987 23.904 170.466 24.024 170.016 24.096C168.844 24.36 168.981 25.096 168.21 26.752C167.696 28.504 167.407 30.672 167.64 33.312C168.644 39.848 169.872 48.76 170.939 53.832L170.883 53.856Z" fill="#B5A584"/>
<path d="M176.373 53.432C176.301 52.904 176.229 52.36 176.149 51.808C174.92 42.992 173.419 32.208 178.685 24.456L178.749 24.496C176.59 30.232 176.301 41.152 176.044 44.68C175.932 46.2 176.108 49.464 176.229 51.792C176.301 52.336 176.381 52.88 176.454 53.416L176.373 53.432Z" fill="#CABB9C"/>
<path d="M182.088 54.568C182.273 50 182.763 44.656 183.204 40.024C184.312 34.184 187.29 31.424 188.068 25.52L188.084 25.448C185.243 30.064 183.662 35.056 182.835 40.04C182.016 45.024 181.952 50 182.169 54.568H182.088Z" fill="url(#paint5_linear)"/>
<path d="M195.862 32.456C193.494 39.784 190.653 46.944 187.787 54.192C187.868 44.6 193.029 33.048 195.862 32.456Z" fill="url(#paint6_linear)"/>
<path d="M186.431 57.424C187.683 56.12 187.771 54.12 187.884 51.8C187.98 49.656 188.092 47.24 189.144 44.848C189.168 44.76 189.216 44.608 189.272 44.4C189.971 41.976 192.764 32.232 196.023 32.408L196.015 32.48C193.454 32.384 190.203 42.024 189.433 44.432C189.377 44.632 189.361 44.76 189.328 44.856V44.864C188.413 47.24 188.357 49.664 188.052 51.8C187.948 54.128 187.747 56.144 186.479 57.464L186.431 57.424Z" fill="#A99675"/>
<path d="M218.409 76.184C218.409 76.336 218.313 76.536 218.104 76.792C216.322 78.896 213.955 79.952 210.993 79.952C207.967 79.952 205.518 78.928 203.64 76.88C201.81 74.896 200.887 72.392 200.887 69.376C200.887 66.448 201.786 63.968 203.576 61.936C205.446 59.808 207.83 58.736 210.72 58.736C213.858 58.736 216.322 59.688 218.104 61.608C218.297 61.816 218.393 62.008 218.393 62.168C218.393 62.352 218.064 63.032 217.382 64.2C216.708 65.376 216.282 66.032 216.114 66.176C216.033 66.248 215.937 66.288 215.825 66.288C215.777 66.288 215.536 66.096 215.094 65.712C214.573 65.248 214.059 64.888 213.553 64.632C212.791 64.248 211.988 64.056 211.169 64.056C209.749 64.056 208.609 64.584 207.758 65.64C206.971 66.616 206.578 67.832 206.578 69.28C206.578 70.736 206.971 71.96 207.758 72.96C208.609 74.032 209.749 74.576 211.169 74.576C212.012 74.576 212.815 74.392 213.569 74.024C214.059 73.784 214.565 73.448 215.086 73.016C215.512 72.648 215.744 72.472 215.793 72.472C215.889 72.472 215.985 72.528 216.082 72.632C216.234 72.808 216.66 73.408 217.35 74.432C218.056 75.496 218.409 76.08 218.409 76.184Z" fill="white"/>
<path d="M239.239 69.352C239.239 72.352 238.276 74.864 236.349 76.896C234.383 78.952 231.886 79.984 228.876 79.984C225.882 79.984 223.394 78.944 221.419 76.872C219.477 74.84 218.514 72.336 218.514 69.352C218.514 66.36 219.485 63.848 221.419 61.808C223.402 59.72 225.882 58.68 228.876 58.68C231.854 58.68 234.334 59.72 236.317 61.808C238.268 63.864 239.239 66.384 239.239 69.352ZM233.732 69.32C233.732 67.88 233.291 66.648 232.408 65.64C231.485 64.584 230.305 64.056 228.876 64.056C227.512 64.056 226.348 64.6 225.401 65.704C224.478 66.76 224.012 67.976 224.012 69.352C224.012 70.824 224.445 72.048 225.304 73.032C226.219 74.064 227.407 74.576 228.868 74.576C230.233 74.576 231.397 74.032 232.36 72.944C233.275 71.904 233.732 70.696 233.732 69.32Z" fill="white"/>
<path d="M259.45 69.224C259.45 72.048 258.535 74.504 256.697 76.576C255.076 78.432 252.804 79.408 249.882 79.504C249.32 79.52 247.771 79.536 245.243 79.536C244.769 79.536 244.055 79.52 243.1 79.488C242.145 79.456 241.43 79.44 240.957 79.44C240.676 79.44 240.531 79.328 240.531 79.112C240.531 78.056 240.579 76.464 240.652 74.344C240.74 72.224 240.772 70.64 240.772 69.576C240.772 68.472 240.732 66.816 240.652 64.608C240.571 62.4 240.531 60.752 240.531 59.648C240.531 59.448 240.676 59.328 240.957 59.288C241.647 59.216 242.771 59.176 244.344 59.176C247.33 59.176 249.264 59.224 250.147 59.304C252.443 59.536 254.241 60.112 255.541 61.04C256.761 61.904 257.724 63.12 258.431 64.672C259.113 66.152 259.45 67.664 259.45 69.224ZM253.888 69.224C253.888 67.6 253.398 66.272 252.419 65.24C251.431 64.168 250.123 63.64 248.494 63.64C247.001 63.64 246.254 63.84 246.254 64.232C246.254 64.8 246.246 65.656 246.222 66.792C246.206 67.936 246.19 68.784 246.19 69.352C246.19 69.912 246.198 70.752 246.222 71.864C246.238 72.984 246.254 73.832 246.254 74.4C246.254 74.816 247.025 75.024 248.574 75.024C250.252 75.024 251.568 74.464 252.531 73.368C253.43 72.312 253.888 70.928 253.888 69.224Z" fill="white"/>
<path d="M275.664 74.96C275.664 75.376 275.584 76.128 275.415 77.24C275.239 78.44 275.086 79.152 274.95 79.384C274.837 79.568 274.669 79.656 274.468 79.656C274.38 79.656 274.235 79.64 274.035 79.608C273.328 79.512 271.266 79.464 267.838 79.464C267.092 79.464 265.984 79.456 264.507 79.448C263.038 79.44 261.93 79.432 261.2 79.432C260.879 79.432 260.718 79.296 260.718 79.016C260.718 77.936 260.775 76.32 260.895 74.16C261.015 72 261.08 70.384 261.08 69.304C261.08 68.208 261.023 66.168 260.903 63.176C260.871 62.408 260.823 61.264 260.742 59.728L260.726 59.528C260.71 59.304 260.823 59.2 261.088 59.2C261.81 59.2 262.886 59.216 264.322 59.256C265.759 59.296 266.835 59.312 267.557 59.312C268.264 59.312 269.331 59.296 270.752 59.256C272.173 59.224 273.24 59.2 273.955 59.2C274.452 59.2 274.749 59.384 274.829 59.76C274.878 59.984 274.95 60.648 275.054 61.776C275.15 62.896 275.207 63.576 275.207 63.816C275.207 64.016 275.11 64.12 274.918 64.12C274.862 64.12 274.757 64.112 274.613 64.104C272.028 63.896 269.716 63.784 267.662 63.784C267.148 63.784 266.835 63.904 266.722 64.152C266.674 64.264 266.65 64.632 266.65 65.256C266.65 65.912 266.746 66.344 266.939 66.552C267.1 66.736 267.413 66.824 267.878 66.824C267.975 66.824 268.167 66.816 268.44 66.808C268.721 66.792 268.954 66.792 269.138 66.792C270.359 66.792 271.595 66.76 272.847 66.688C272.959 66.68 273.216 66.656 273.649 66.616C273.979 66.584 274.243 66.56 274.436 66.56C274.669 66.56 274.789 66.672 274.789 66.888C274.789 66.688 274.701 67.424 274.524 69.096C274.444 69.872 274.412 70.64 274.412 71.408C274.412 71.6 274.268 71.696 273.987 71.696C273.987 71.696 273.553 71.648 272.678 71.552C272.124 71.496 270.864 71.472 268.898 71.472H267.357C266.963 71.472 266.722 71.568 266.658 71.76C266.65 71.808 266.642 72.112 266.642 72.656C266.642 73.392 266.69 73.856 266.787 74.072C266.955 74.44 267.573 74.656 268.649 74.72C268.633 74.72 269.339 74.72 270.776 74.72C271.29 74.72 272.052 74.672 273.072 74.584C274.083 74.496 274.845 74.448 275.343 74.448C275.552 74.44 275.664 74.616 275.664 74.96Z" fill="white"/>
<path d="M330.615 75.32C330.615 75.72 330.535 76.448 330.375 77.512C330.206 78.672 330.054 79.352 329.925 79.576C329.813 79.752 329.652 79.84 329.46 79.84C329.379 79.84 329.235 79.824 329.034 79.8C328.352 79.712 326.353 79.664 323.03 79.664C322.308 79.664 321.232 79.656 319.803 79.648C318.383 79.64 317.307 79.632 316.593 79.632C316.28 79.632 316.127 79.496 316.127 79.232C316.127 78.192 316.183 76.64 316.304 74.56C316.424 72.488 316.48 70.928 316.48 69.888C316.48 68.832 316.424 66.872 316.312 63.984C316.28 63.248 316.231 62.144 316.159 60.664L316.143 60.472C316.127 60.256 316.239 60.152 316.496 60.152C317.195 60.152 318.238 60.168 319.635 60.208C321.031 60.248 322.075 60.264 322.773 60.264C323.456 60.264 324.491 60.248 325.872 60.208C327.252 60.176 328.288 60.152 328.97 60.152C329.452 60.152 329.74 60.336 329.813 60.696C329.853 60.912 329.925 61.552 330.029 62.632C330.126 63.704 330.182 64.36 330.182 64.592C330.182 64.784 330.086 64.888 329.901 64.888C329.845 64.888 329.749 64.88 329.604 64.872C327.1 64.672 324.86 64.568 322.862 64.568C322.364 64.568 322.059 64.688 321.946 64.92C321.898 65.032 321.874 65.384 321.874 65.984C321.874 66.616 321.971 67.032 322.155 67.232C322.316 67.408 322.621 67.496 323.07 67.496C323.167 67.496 323.351 67.488 323.616 67.48C323.889 67.464 324.114 67.464 324.29 67.464C325.47 67.464 326.674 67.432 327.886 67.368C327.991 67.36 328.247 67.336 328.657 67.296C328.978 67.264 329.227 67.24 329.419 67.24C329.644 67.24 329.765 67.344 329.765 67.56C329.765 67.368 329.676 68.08 329.508 69.68C329.427 70.424 329.395 71.16 329.395 71.904C329.395 72.088 329.259 72.184 328.986 72.184C328.986 72.184 328.561 72.136 327.718 72.04C327.188 71.984 325.96 71.96 324.049 71.96H322.557C322.171 71.96 321.946 72.048 321.882 72.232C321.874 72.28 321.866 72.568 321.866 73.096C321.866 73.8 321.914 74.256 322.003 74.456C322.163 74.808 322.765 75.016 323.809 75.08C323.793 75.08 324.475 75.08 325.864 75.08C326.361 75.08 327.1 75.04 328.087 74.944C329.066 74.856 329.805 74.808 330.286 74.808C330.503 74.816 330.615 74.992 330.615 75.32Z" fill="#F8F3DE"/>
<path d="M346.139 64.688C346.139 64.784 346.043 64.84 345.858 64.84C345.16 64.84 344.092 64.776 342.656 64.664C341.219 64.544 340.151 64.48 339.437 64.48C338.538 64.48 338.016 64.512 337.856 64.576C337.51 64.736 337.334 65.176 337.334 65.912C337.334 66.792 337.559 67.288 338.008 67.408C338.201 67.456 338.482 67.48 338.867 67.48C339.517 67.48 340.488 67.44 341.773 67.376C343.065 67.304 344.036 67.272 344.686 67.272C344.999 67.272 345.152 68.088 345.152 69.712C345.152 71.128 345.096 71.952 344.999 72.184C344.935 72.352 344.807 72.432 344.622 72.432C344.742 72.432 344.445 72.4 343.731 72.336C342.728 72.24 341.203 72.2 339.164 72.2C338.506 72.2 338.136 72.208 338.048 72.216C337.575 72.288 337.334 72.488 337.334 72.816C337.334 74.128 337.39 75.64 337.502 77.352C337.599 78.896 337.639 79.584 337.639 79.416C337.639 79.656 337.342 79.792 336.756 79.832C336.916 79.824 336.499 79.816 335.504 79.816C333.746 79.816 332.614 79.752 332.108 79.64C331.835 79.576 331.699 79.432 331.699 79.208C331.699 78.176 331.731 76.64 331.803 74.576C331.876 72.52 331.908 70.976 331.908 69.944C331.908 68.72 331.851 67.184 331.739 65.336C331.571 62.48 331.482 60.944 331.466 60.728L331.45 60.56C331.442 60.328 331.587 60.208 331.876 60.208C332.574 60.208 333.625 60.224 335.022 60.248C336.427 60.28 337.478 60.288 338.185 60.288C338.931 60.288 340.063 60.232 341.572 60.12C343.081 60.008 344.205 59.952 344.959 59.952C345.425 59.952 345.69 60.144 345.746 60.52C345.746 60.92 345.762 61.512 345.802 62.312C345.818 62.52 345.882 62.912 345.987 63.496C346.091 64.016 346.139 64.408 346.139 64.688Z" fill="#F8F3DE"/>
<path d="M277.021 65.208C276.202 67.96 276.427 70.8 277.687 73.632C278.987 76.56 280.946 78.608 283.522 79.728C286.155 80.88 288.932 80.8 291.774 79.496C294.551 78.216 296.349 76.16 297.12 73.376C297.168 73.192 297.176 73.08 297.176 73.016C297.039 72.904 296.654 72.616 295.522 71.888C294.367 71.152 293.861 70.856 293.644 70.736C293.588 70.848 293.508 71.016 293.395 71.264C293.058 71.992 292.681 72.608 292.28 73.096C291.654 73.872 290.867 74.48 289.96 74.896C288.403 75.616 286.862 75.584 285.385 74.8C284.06 74.096 283.033 72.936 282.326 71.352C281.628 69.784 281.46 68.248 281.829 66.784C282.238 65.168 283.233 63.984 284.791 63.272C285.682 62.864 286.645 62.672 287.656 62.72C288.338 62.76 289.053 62.904 289.807 63.144C290.112 63.24 290.305 63.296 290.425 63.328C290.474 63.128 290.578 62.56 290.722 61.008C290.883 59.32 290.859 58.848 290.835 58.728C290.811 58.704 290.746 58.64 290.57 58.568C289.486 58.104 288.355 57.872 287.175 57.872C285.649 57.872 284.052 58.256 282.383 59.024C279.67 60.272 277.864 62.352 277.021 65.208Z" fill="#F8F3DE"/>
<path d="M314.337 74.68C314.241 72.664 314.193 71.152 314.193 70.144C314.193 69.072 314.233 67.464 314.321 65.312C314.409 63.16 314.458 61.56 314.458 60.496C314.458 60.272 314.321 60.168 314.048 60.168C313.767 60.168 313.35 60.184 312.788 60.208C312.226 60.24 311.817 60.248 311.544 60.248C311.263 60.248 310.837 60.232 310.284 60.208C309.722 60.184 309.304 60.168 309.031 60.168C308.799 60.168 308.678 60.312 308.678 60.592C308.678 61.272 308.71 62.28 308.783 63.632C308.847 64.976 308.879 65.984 308.879 66.648C308.879 66.968 308.767 67.16 308.542 67.216C308.221 67.288 307.057 67.328 305.042 67.328C302.883 67.328 301.679 67.296 301.438 67.216C301.262 67.16 301.173 66.968 301.173 66.648C301.173 65.952 301.221 64.912 301.326 63.528C301.43 62.144 301.478 61.104 301.478 60.408C301.478 60.24 301.398 60.16 301.237 60.16C300.94 60.16 300.491 60.176 299.881 60.2C299.271 60.232 298.821 60.24 298.516 60.24C298.219 60.24 297.786 60.224 297.2 60.2C296.614 60.176 296.173 60.16 295.884 60.16C295.683 60.16 295.587 60.256 295.587 60.464C295.587 61.536 295.635 63.152 295.731 65.304C295.819 67.456 295.868 69.072 295.868 70.144C295.868 70.368 295.868 70.616 295.86 70.88C295.932 70.928 295.996 70.968 296.076 71.016C297.979 72.248 298.035 72.376 298.115 72.552C298.235 72.824 298.235 73.168 298.115 73.64C297.633 75.392 296.783 76.88 295.595 78.104C295.587 78.52 295.579 78.896 295.579 79.208C295.579 79.448 295.715 79.592 295.988 79.64C296.333 79.696 297.144 79.728 298.404 79.728C299.873 79.728 300.756 79.696 301.053 79.64C301.31 79.592 301.43 79.432 301.43 79.152C301.43 78.432 301.406 77.352 301.366 75.912C301.318 74.48 301.294 73.392 301.294 72.672C301.294 72.304 301.398 72.096 301.599 72.048C301.928 71.976 303.076 71.936 305.034 71.936C306.993 71.936 308.124 71.976 308.445 72.048C308.654 72.104 308.759 72.312 308.759 72.672C308.759 73.408 308.718 74.504 308.654 75.968C308.582 77.44 308.55 78.536 308.55 79.264C308.55 79.456 308.678 79.584 308.935 79.64C309.192 79.696 310.059 79.728 311.536 79.728C312.579 79.728 313.39 79.696 313.96 79.64C314.185 79.624 314.313 79.6 314.353 79.568C314.433 79.528 314.482 79.4 314.482 79.208C314.49 78.208 314.441 76.696 314.337 74.68Z" fill="#F8F3DE"/>
<defs>
<linearGradient id="paint0_linear" x1="153.092" y1="42.7701" x2="199.506" y2="42.7701" gradientUnits="userSpaceOnUse">
<stop offset="0.0397" stop-color="#F9F9EC"/>
<stop offset="0.4183" stop-color="#F9F9EC"/>
<stop offset="0.4932" stop-color="#F3F1E2"/>
<stop offset="0.6217" stop-color="#E4DDC6"/>
<stop offset="0.7873" stop-color="#CCBC9A"/>
<stop offset="0.7969" stop-color="#CABA97"/>
<stop offset="1" stop-color="#BAA685"/>
</linearGradient>
<linearGradient id="paint1_linear" x1="162.269" y1="59.3613" x2="186.915" y2="59.3613" gradientUnits="userSpaceOnUse">
<stop stop-color="#F9F9EC"/>
<stop offset="0.0526" stop-color="#F9F9EC"/>
<stop offset="0.3844" stop-color="#F9F9EC"/>
<stop offset="0.5145" stop-color="#F5F4E5"/>
<stop offset="0.7094" stop-color="#EAE5D0"/>
<stop offset="0.9441" stop-color="#D9CCAF"/>
<stop offset="0.9987" stop-color="#D4C6A6"/>
</linearGradient>
<linearGradient id="paint2_linear" x1="154.157" y1="37.5069" x2="158.628" y2="37.5069" gradientUnits="userSpaceOnUse">
<stop stop-color="#E8DBCA"/>
<stop offset="1" stop-color="#F2ECDE"/>
</linearGradient>
<linearGradient id="paint3_linear" x1="160.771" y1="32.6666" x2="163.214" y2="36.244" gradientUnits="userSpaceOnUse">
<stop stop-color="#ECE1D1"/>
<stop offset="0.4318" stop-color="#EEE6D9"/>
<stop offset="1" stop-color="#EFE9DE"/>
</linearGradient>
<linearGradient id="paint4_linear" x1="167.519" y1="35.4297" x2="172.065" y2="35.4297" gradientUnits="userSpaceOnUse">
<stop stop-color="#ECE1D1"/>
<stop offset="1" stop-color="#EDE4D5"/>
</linearGradient>
<linearGradient id="paint5_linear" x1="185.11" y1="35.1259" x2="184.993" y2="41.1166" gradientUnits="userSpaceOnUse">
<stop stop-color="#BAA68A"/>
<stop offset="1" stop-color="#C7BAA0"/>
</linearGradient>
<linearGradient id="paint6_linear" x1="187.789" y1="43.3241" x2="195.861" y2="43.3241" gradientUnits="userSpaceOnUse">
<stop stop-color="#BDAE99"/>
<stop offset="0.2551" stop-color="#BFB19C"/>
<stop offset="1" stop-color="#C2B5A1"/>
</linearGradient>
</defs>
</svg>
