<svg width="569" height="400" viewBox="0 0 569 400" fill="none" xmlns="http://www.w3.org/2000/svg">
<rect width="569" height="400" rx="15" fill="#222432"/>
<path d="M31.1686 45.19V44.245H33.7186V55H32.6536V45.19H31.1686ZM29.3665 84.175C31.2065 82.795 32.6265 81.56 33.6265 80.47C34.6365 79.37 35.1415 78.295 35.1415 77.245C35.1415 76.555 34.9665 76.005 34.6165 75.595C34.2765 75.175 33.7165 74.965 32.9365 74.965C32.1765 74.965 31.5865 75.205 31.1665 75.685C30.7565 76.155 30.5265 76.785 30.4765 77.575H29.4565C29.5165 76.465 29.8565 75.605 30.4765 74.995C31.1065 74.375 31.9265 74.065 32.9365 74.065C33.9065 74.065 34.6915 74.34 35.2915 74.89C35.8915 75.43 36.1915 76.2 36.1915 77.2C36.1915 78.41 35.6865 79.585 34.6765 80.725C33.6765 81.855 32.4415 82.96 30.9715 84.04H36.5215V84.925H29.3665V84.175ZM29.4363 106.99C29.5063 106.08 29.8563 105.365 30.4863 104.845C31.1263 104.315 31.9513 104.05 32.9613 104.05C33.6313 104.05 34.2063 104.17 34.6863 104.41C35.1663 104.65 35.5263 104.98 35.7663 105.4C36.0163 105.81 36.1413 106.275 36.1413 106.795C36.1413 107.425 35.9563 107.97 35.5863 108.43C35.2163 108.89 34.6913 109.175 34.0113 109.285V109.36C34.7213 109.5 35.2863 109.81 35.7063 110.29C36.1263 110.76 36.3363 111.38 36.3363 112.15C36.3363 113.01 36.0463 113.715 35.4663 114.265C34.8963 114.805 34.0663 115.075 32.9763 115.075C31.9363 115.075 31.0813 114.805 30.4113 114.265C29.7413 113.715 29.3563 112.94 29.2563 111.94H30.2763C30.3663 112.61 30.6463 113.155 31.1163 113.575C31.5863 113.985 32.2063 114.19 32.9763 114.19C33.7363 114.19 34.3163 113.99 34.7163 113.59C35.1263 113.19 35.3313 112.68 35.3313 112.06C35.3313 110.54 34.2363 109.78 32.0463 109.78H31.7163V108.895H32.0613C34.1013 108.895 35.1213 108.23 35.1213 106.9C35.1213 106.32 34.9313 105.855 34.5513 105.505C34.1713 105.145 33.6313 104.965 32.9313 104.965C32.2513 104.965 31.6863 105.145 31.2363 105.505C30.7963 105.855 30.5363 106.35 30.4563 106.99H29.4363ZM28.8039 142.45V141.655L34.2639 134.305H35.5089V141.535H37.1139V142.45H35.5089V145H34.4739V142.45H28.8039ZM34.5189 135.46L30.0189 141.535H34.5189V135.46ZM36.0196 165.145H30.5296V168.985C30.7796 168.635 31.1446 168.35 31.6246 168.13C32.1046 167.9 32.6246 167.785 33.1846 167.785C34.0046 167.785 34.6746 167.955 35.1946 168.295C35.7146 168.625 36.0896 169.06 36.3196 169.6C36.5496 170.13 36.6646 170.7 36.6646 171.31C36.6646 172.01 36.5296 172.645 36.2596 173.215C35.9996 173.775 35.5946 174.22 35.0446 174.55C34.5046 174.88 33.8296 175.045 33.0196 175.045C31.9896 175.045 31.1546 174.78 30.5146 174.25C29.8746 173.71 29.4846 172.985 29.3446 172.075H30.3796C30.5096 172.735 30.8096 173.245 31.2796 173.605C31.7496 173.965 32.3296 174.145 33.0196 174.145C33.8896 174.145 34.5446 173.89 34.9846 173.38C35.4346 172.86 35.6596 172.175 35.6596 171.325C35.6596 170.495 35.4346 169.85 34.9846 169.39C34.5346 168.92 33.8896 168.685 33.0496 168.685C32.4696 168.685 31.9596 168.82 31.5196 169.09C31.0796 169.36 30.7546 169.725 30.5446 170.185H29.5546V164.23H36.0196V165.145ZM35.3317 196.87C35.1117 195.57 34.3567 194.92 33.0667 194.92C32.0867 194.92 31.3517 195.3 30.8617 196.06C30.3717 196.82 30.1467 198.065 30.1867 199.795C30.3867 199.195 30.7667 198.725 31.3267 198.385C31.8967 198.035 32.5467 197.86 33.2767 197.86C34.3267 197.86 35.1567 198.185 35.7667 198.835C36.3867 199.475 36.6967 200.36 36.6967 201.49C36.6967 202.15 36.5667 202.75 36.3067 203.29C36.0567 203.82 35.6667 204.245 35.1367 204.565C34.6167 204.885 33.9667 205.045 33.1867 205.045C31.6967 205.045 30.6667 204.57 30.0967 203.62C29.5367 202.67 29.2567 201.325 29.2567 199.585C29.2567 195.885 30.5267 194.035 33.0667 194.035C34.0267 194.035 34.7817 194.3 35.3317 194.83C35.8817 195.35 36.2067 196.03 36.3067 196.87H35.3317ZM33.0817 198.76C32.6117 198.76 32.1667 198.855 31.7467 199.045C31.3267 199.235 30.9817 199.525 30.7117 199.915C30.4517 200.295 30.3217 200.765 30.3217 201.325C30.3217 202.135 30.5617 202.81 31.0417 203.35C31.5217 203.89 32.2217 204.16 33.1417 204.16C33.9117 204.16 34.5267 203.925 34.9867 203.455C35.4467 202.985 35.6767 202.345 35.6767 201.535C35.6767 200.665 35.4517 199.985 35.0017 199.495C34.5517 199.005 33.9117 198.76 33.0817 198.76ZM36.3045 225.07L32.1195 235H31.0545L35.2845 225.16H29.2845V224.26H36.3045V225.07ZM31.2733 259.42C30.6533 259.22 30.1783 258.905 29.8483 258.475C29.5283 258.045 29.3683 257.525 29.3683 256.915C29.3683 256.375 29.5033 255.895 29.7733 255.475C30.0533 255.045 30.4583 254.71 30.9883 254.47C31.5183 254.22 32.1533 254.095 32.8933 254.095C33.6333 254.095 34.2683 254.22 34.7983 254.47C35.3283 254.71 35.7283 255.045 35.9983 255.475C36.2783 255.895 36.4183 256.375 36.4183 256.915C36.4183 257.515 36.2533 258.035 35.9233 258.475C35.6033 258.915 35.1333 259.23 34.5133 259.42C35.1933 259.59 35.7283 259.915 36.1183 260.395C36.5083 260.875 36.7033 261.46 36.7033 262.15C36.7033 262.79 36.5433 263.35 36.2233 263.83C35.9133 264.3 35.4683 264.665 34.8883 264.925C34.3183 265.185 33.6533 265.315 32.8933 265.315C32.1333 265.315 31.4633 265.185 30.8833 264.925C30.3133 264.665 29.8683 264.3 29.5483 263.83C29.2383 263.35 29.0833 262.79 29.0833 262.15C29.0833 261.46 29.2783 260.875 29.6683 260.395C30.0583 259.915 30.5933 259.59 31.2733 259.42ZM35.3983 257.035C35.3983 256.375 35.1733 255.865 34.7233 255.505C34.2733 255.145 33.6633 254.965 32.8933 254.965C32.1233 254.965 31.5133 255.145 31.0633 255.505C30.6133 255.855 30.3883 256.365 30.3883 257.035C30.3883 257.655 30.6183 258.15 31.0783 258.52C31.5383 258.89 32.1433 259.075 32.8933 259.075C33.6433 259.075 34.2483 258.89 34.7083 258.52C35.1683 258.15 35.3983 257.655 35.3983 257.035ZM32.8933 259.885C32.0733 259.885 31.4033 260.07 30.8833 260.44C30.3633 260.81 30.1033 261.37 30.1033 262.12C30.1033 262.84 30.3533 263.405 30.8533 263.815C31.3533 264.225 32.0333 264.43 32.8933 264.43C33.7433 264.43 34.4183 264.225 34.9183 263.815C35.4183 263.395 35.6683 262.83 35.6683 262.12C35.6683 261.38 35.4083 260.825 34.8883 260.455C34.3783 260.075 33.7133 259.885 32.8933 259.885ZM30.576 292.135C30.686 292.785 30.936 293.285 31.326 293.635C31.716 293.985 32.251 294.16 32.931 294.16C33.871 294.16 34.566 293.795 35.016 293.065C35.476 292.325 35.686 291.105 35.646 289.405C35.456 289.955 35.091 290.39 34.551 290.71C34.021 291.02 33.411 291.175 32.721 291.175C31.671 291.175 30.826 290.86 30.186 290.23C29.556 289.6 29.241 288.725 29.241 287.605C29.241 286.935 29.371 286.33 29.631 285.79C29.891 285.25 30.286 284.825 30.816 284.515C31.346 284.205 31.996 284.05 32.766 284.05C34.186 284.05 35.176 284.515 35.736 285.445C36.296 286.365 36.576 287.69 36.576 289.42C36.576 291.29 36.296 292.695 35.736 293.635C35.186 294.575 34.236 295.045 32.886 295.045C31.896 295.045 31.126 294.78 30.576 294.25C30.026 293.71 29.701 293.005 29.601 292.135H30.576ZM32.886 290.275C33.356 290.275 33.786 290.18 34.176 289.99C34.576 289.79 34.896 289.5 35.136 289.12C35.376 288.74 35.496 288.285 35.496 287.755C35.496 286.935 35.261 286.26 34.791 285.73C34.331 285.2 33.666 284.935 32.796 284.935C32.026 284.935 31.406 285.175 30.936 285.655C30.476 286.135 30.246 286.775 30.246 287.575C30.246 288.415 30.476 289.075 30.936 289.555C31.396 290.035 32.046 290.275 32.886 290.275ZM25.797 315.19V314.245H28.347V325H27.282V315.19H25.797ZM32.1869 319.525C32.1869 317.805 32.4519 316.47 32.9819 315.52C33.5119 314.57 34.4619 314.095 35.8319 314.095C37.2019 314.095 38.1519 314.57 38.6819 315.52C39.2119 316.47 39.4769 317.805 39.4769 319.525C39.4769 321.275 39.2119 322.63 38.6819 323.59C38.1519 324.55 37.2019 325.03 35.8319 325.03C34.4519 325.03 33.4969 324.55 32.9669 323.59C32.4469 322.63 32.1869 321.275 32.1869 319.525ZM38.4419 319.525C38.4419 318.595 38.3769 317.81 38.2469 317.17C38.1169 316.53 37.8619 316.015 37.4819 315.625C37.1019 315.235 36.5519 315.04 35.8319 315.04C35.1119 315.04 34.5619 315.235 34.1819 315.625C33.8019 316.015 33.5469 316.53 33.4169 317.17C33.2869 317.81 33.2219 318.595 33.2219 319.525C33.2219 320.485 33.2869 321.29 33.4169 321.94C33.5469 322.58 33.8019 323.095 34.1819 323.485C34.5619 323.875 35.1119 324.07 35.8319 324.07C36.5519 324.07 37.1019 323.875 37.4819 323.485C37.8619 323.095 38.1169 322.58 38.2469 321.94C38.3769 321.29 38.4419 320.485 38.4419 319.525ZM28.2286 345.19V344.245H30.7786V355H29.7136V345.19H28.2286ZM34.1085 345.19V344.245H36.6585V355H35.5935V345.19H34.1085Z" fill="#4A4E73"/>
<path d="M78.367 47.8L77.607 51.4H80.367V53H77.267L76.407 57H74.667L75.527 53H71.327L70.467 57H68.727L69.587 53H66.447V51.4H69.927L70.687 47.8H67.587V46.2H71.027L71.887 42.2H73.627L72.767 46.2H76.967L77.827 42.2H79.567L78.707 46.2H81.487V47.8H78.367ZM76.627 47.8H72.427L71.667 51.4H75.867L76.627 47.8ZM185.912 54.28L181.092 49.68L185.912 45.1H188.212L183.372 49.68L188.212 54.28H185.912ZM299.819 45.1H302.119L306.959 49.68L302.119 54.28H299.819L304.659 49.68L299.819 45.1ZM77.047 106.04V117H75.227V115.38C74.8804 115.94 74.3937 116.38 73.767 116.7C73.1537 117.007 72.4737 117.16 71.727 117.16C70.8737 117.16 70.107 116.987 69.427 116.64C68.747 116.28 68.207 115.747 67.807 115.04C67.4204 114.333 67.227 113.473 67.227 112.46V106.04H69.027V112.22C69.027 113.3 69.3004 114.133 69.847 114.72C70.3937 115.293 71.1404 115.58 72.087 115.58C73.0604 115.58 73.827 115.28 74.387 114.68C74.947 114.08 75.227 113.207 75.227 112.06V106.04H77.047ZM86 117.18C85.16 117.18 84.4067 117.04 83.74 116.76C83.0733 116.467 82.5467 116.067 82.16 115.56C81.7733 115.04 81.56 114.447 81.52 113.78H83.4C83.4533 114.327 83.7067 114.773 84.16 115.12C84.6267 115.467 85.2333 115.64 85.98 115.64C86.6733 115.64 87.22 115.487 87.62 115.18C88.02 114.873 88.22 114.487 88.22 114.02C88.22 113.54 88.0067 113.187 87.58 112.96C87.1533 112.72 86.4933 112.487 85.6 112.26C84.7867 112.047 84.12 111.833 83.6 111.62C83.0933 111.393 82.6533 111.067 82.28 110.64C81.92 110.2 81.74 109.627 81.74 108.92C81.74 108.36 81.9067 107.847 82.24 107.38C82.5733 106.913 83.0467 106.547 83.66 106.28C84.2733 106 84.9733 105.86 85.76 105.86C86.9733 105.86 87.9533 106.167 88.7 106.78C89.4467 107.393 89.8467 108.233 89.9 109.3H88.08C88.04 108.727 87.8067 108.267 87.38 107.92C86.9667 107.573 86.4067 107.4 85.7 107.4C85.0467 107.4 84.5267 107.54 84.14 107.82C83.7533 108.1 83.56 108.467 83.56 108.92C83.56 109.28 83.6733 109.58 83.9 109.82C84.14 110.047 84.4333 110.233 84.78 110.38C85.14 110.513 85.6333 110.667 86.26 110.84C87.0467 111.053 87.6867 111.267 88.18 111.48C88.6733 111.68 89.0933 111.987 89.44 112.4C89.8 112.813 89.9867 113.353 90 114.02C90 114.62 89.8333 115.16 89.5 115.64C89.1667 116.12 88.6933 116.5 88.08 116.78C87.48 117.047 86.7867 117.18 86 117.18ZM95.5092 104.26C95.1625 104.26 94.8692 104.14 94.6292 103.9C94.3892 103.66 94.2692 103.367 94.2692 103.02C94.2692 102.673 94.3892 102.38 94.6292 102.14C94.8692 101.9 95.1625 101.78 95.5092 101.78C95.8425 101.78 96.1225 101.9 96.3492 102.14C96.5892 102.38 96.7092 102.673 96.7092 103.02C96.7092 103.367 96.5892 103.66 96.3492 103.9C96.1225 104.14 95.8425 104.26 95.5092 104.26ZM96.3892 106.04V117H94.5692V106.04H96.3892ZM106.831 105.84C108.164 105.84 109.244 106.247 110.071 107.06C110.898 107.86 111.311 109.02 111.311 110.54V117H109.511V110.8C109.511 109.707 109.238 108.873 108.691 108.3C108.144 107.713 107.398 107.42 106.451 107.42C105.491 107.42 104.724 107.72 104.151 108.32C103.591 108.92 103.311 109.793 103.311 110.94V117H101.491V106.04H103.311V107.6C103.671 107.04 104.158 106.607 104.771 106.3C105.398 105.993 106.084 105.84 106.831 105.84ZM120.804 105.86C121.751 105.86 122.577 106.067 123.284 106.48C124.004 106.893 124.537 107.413 124.884 108.04V106.04H126.724V117.24C126.724 118.24 126.511 119.127 126.084 119.9C125.657 120.687 125.044 121.3 124.244 121.74C123.457 122.18 122.537 122.4 121.484 122.4C120.044 122.4 118.844 122.06 117.884 121.38C116.924 120.7 116.357 119.773 116.184 118.6H117.984C118.184 119.267 118.597 119.8 119.224 120.2C119.851 120.613 120.604 120.82 121.484 120.82C122.484 120.82 123.297 120.507 123.924 119.88C124.564 119.253 124.884 118.373 124.884 117.24V114.94C124.524 115.58 123.991 116.113 123.284 116.54C122.577 116.967 121.751 117.18 120.804 117.18C119.831 117.18 118.944 116.94 118.144 116.46C117.357 115.98 116.737 115.307 116.284 114.44C115.831 113.573 115.604 112.587 115.604 111.48C115.604 110.36 115.831 109.38 116.284 108.54C116.737 107.687 117.357 107.027 118.144 106.56C118.944 106.093 119.831 105.86 120.804 105.86ZM124.884 111.5C124.884 110.673 124.717 109.953 124.384 109.34C124.051 108.727 123.597 108.26 123.024 107.94C122.464 107.607 121.844 107.44 121.164 107.44C120.484 107.44 119.864 107.6 119.304 107.92C118.744 108.24 118.297 108.707 117.964 109.32C117.631 109.933 117.464 110.653 117.464 111.48C117.464 112.32 117.631 113.053 117.964 113.68C118.297 114.293 118.744 114.767 119.304 115.1C119.864 115.42 120.484 115.58 121.164 115.58C121.844 115.58 122.464 115.42 123.024 115.1C123.597 114.767 124.051 114.293 124.384 113.68C124.717 113.053 124.884 112.327 124.884 111.5ZM324.121 108.54C323.775 108.54 323.481 108.42 323.241 108.18C323.001 107.94 322.881 107.647 322.881 107.3C322.881 106.953 323.001 106.66 323.241 106.42C323.481 106.18 323.775 106.06 324.121 106.06C324.455 106.06 324.735 106.18 324.961 106.42C325.201 106.66 325.321 106.953 325.321 107.3C325.321 107.647 325.201 107.94 324.961 108.18C324.735 108.42 324.455 108.54 324.121 108.54ZM325.441 114.48L323.201 119.86H321.981L323.441 114.48H325.441ZM241.102 174.48L238.862 179.86H237.642L239.102 174.48H241.102ZM220.512 196.76V198.3H210.112V196.76H220.512ZM220.512 201.06V202.6H210.112V201.06H220.512ZM242.883 198.54C242.536 198.54 242.243 198.42 242.003 198.18C241.763 197.94 241.643 197.647 241.643 197.3C241.643 196.953 241.763 196.66 242.003 196.42C242.243 196.18 242.536 196.06 242.883 196.06C243.216 196.06 243.496 196.18 243.723 196.42C243.963 196.66 244.083 196.953 244.083 197.3C244.083 197.647 243.963 197.94 243.723 198.18C243.496 198.42 243.216 198.54 242.883 198.54ZM244.203 204.48L241.963 209.86H240.743L242.203 204.48H244.203ZM211.371 226.76V228.3H200.971V226.76H211.371ZM211.371 231.06V232.6H200.971V231.06H211.371ZM233.742 228.54C233.396 228.54 233.102 228.42 232.862 228.18C232.622 227.94 232.502 227.647 232.502 227.3C232.502 226.953 232.622 226.66 232.862 226.42C233.102 226.18 233.396 226.06 233.742 226.06C234.076 226.06 234.356 226.18 234.582 226.42C234.822 226.66 234.942 226.953 234.942 227.3C234.942 227.647 234.822 227.94 234.582 228.18C234.356 228.42 234.076 228.54 233.742 228.54ZM235.062 234.48L232.822 239.86H231.602L233.062 234.48H235.062ZM312.75 228.54C312.404 228.54 312.11 228.42 311.87 228.18C311.63 227.94 311.51 227.647 311.51 227.3C311.51 226.953 311.63 226.66 311.87 226.42C312.11 226.18 312.404 226.06 312.75 226.06C313.084 226.06 313.364 226.18 313.59 226.42C313.83 226.66 313.95 226.953 313.95 227.3C313.95 227.647 313.83 227.94 313.59 228.18C313.364 228.42 313.084 228.54 312.75 228.54ZM314.07 234.48L311.83 239.86H310.61L312.07 234.48H314.07ZM343.618 230.46H339.358V234.78H337.658V230.46H333.418V228.92H337.658V224.58H339.358V228.92H343.618V230.46ZM359.27 230.46H355.01V234.78H353.31V230.46H349.07V228.92H353.31V224.58H355.01V228.92H359.27V230.46ZM206.828 253.6L207.548 254.9L204.768 256.06L207.568 257.2L206.808 258.54L204.388 256.78L204.708 259.8H203.208L203.508 256.78L201.088 258.56L200.308 257.2L203.088 256.04L200.308 254.92L201.048 253.58L203.528 255.36L203.208 252.32H204.728L204.388 255.36L206.828 253.6ZM223.234 256.76V258.3H212.834V256.76H223.234ZM223.234 261.06V262.6H212.834V261.06H223.234ZM248.77 258.54C248.423 258.54 248.13 258.42 247.89 258.18C247.65 257.94 247.53 257.647 247.53 257.3C247.53 256.953 247.65 256.66 247.89 256.42C248.13 256.18 248.423 256.06 248.77 256.06C249.103 256.06 249.383 256.18 249.61 256.42C249.85 256.66 249.97 256.953 249.97 257.3C249.97 257.647 249.85 257.94 249.61 258.18C249.383 258.42 249.103 258.54 248.77 258.54ZM250.09 264.48L247.85 269.86H246.63L248.09 264.48H250.09ZM244.555 318.54C244.208 318.54 243.915 318.42 243.675 318.18C243.435 317.94 243.315 317.647 243.315 317.3C243.315 316.953 243.435 316.66 243.675 316.42C243.915 316.18 244.208 316.06 244.555 316.06C244.888 316.06 245.168 316.18 245.395 316.42C245.635 316.66 245.755 316.953 245.755 317.3C245.755 317.647 245.635 317.94 245.395 318.18C245.168 318.42 244.888 318.54 244.555 318.54ZM245.875 324.48L243.635 329.86H242.415L243.875 324.48H245.875Z" fill="#76F7FF"/>
<path d="M87.0639 44.26C86.7172 44.26 86.4239 44.14 86.1839 43.9C85.9439 43.66 85.8239 43.3667 85.8239 43.02C85.8239 42.6733 85.9439 42.38 86.1839 42.14C86.4239 41.9 86.7172 41.78 87.0639 41.78C87.3972 41.78 87.6772 41.9 87.9039 42.14C88.1439 42.38 88.2639 42.6733 88.2639 43.02C88.2639 43.3667 88.1439 43.66 87.9039 43.9C87.6772 44.14 87.3972 44.26 87.0639 44.26ZM87.9439 46.04V57H86.1239V46.04H87.9439ZM98.3858 45.84C99.7191 45.84 100.799 46.2467 101.626 47.06C102.452 47.86 102.866 49.02 102.866 50.54V57H101.066V50.8C101.066 49.7067 100.792 48.8733 100.246 48.3C99.6991 47.7133 98.9524 47.42 98.0058 47.42C97.0458 47.42 96.2791 47.72 95.7058 48.32C95.1458 48.92 94.8658 49.7933 94.8658 50.94V57H93.0458V46.04H94.8658V47.6C95.2258 47.04 95.7124 46.6067 96.3258 46.3C96.9524 45.9933 97.6391 45.84 98.3858 45.84ZM107.159 51.5C107.159 50.3667 107.385 49.38 107.839 48.54C108.292 47.6867 108.919 47.0267 109.719 46.56C110.532 46.0933 111.459 45.86 112.499 45.86C113.845 45.86 114.952 46.1867 115.819 46.84C116.699 47.4933 117.279 48.4 117.559 49.56H115.599C115.412 48.8933 115.045 48.3667 114.499 47.98C113.965 47.5933 113.299 47.4 112.499 47.4C111.459 47.4 110.619 47.76 109.979 48.48C109.339 49.1867 109.019 50.1933 109.019 51.5C109.019 52.82 109.339 53.84 109.979 54.56C110.619 55.28 111.459 55.64 112.499 55.64C113.299 55.64 113.965 55.4533 114.499 55.08C115.032 54.7067 115.399 54.1733 115.599 53.48H117.559C117.265 54.6 116.679 55.5 115.799 56.18C114.919 56.8467 113.819 57.18 112.499 57.18C111.459 57.18 110.532 56.9467 109.719 56.48C108.919 56.0133 108.292 55.3533 107.839 54.5C107.385 53.6467 107.159 52.6467 107.159 51.5ZM123.807 42.2V57H121.987V42.2H123.807ZM138.629 46.04V57H136.809V55.38C136.462 55.94 135.976 56.38 135.349 56.7C134.736 57.0067 134.056 57.16 133.309 57.16C132.456 57.16 131.689 56.9867 131.009 56.64C130.329 56.28 129.789 55.7467 129.389 55.04C129.002 54.3333 128.809 53.4733 128.809 52.46V46.04H130.609V52.22C130.609 53.3 130.882 54.1333 131.429 54.72C131.976 55.2933 132.722 55.58 133.669 55.58C134.642 55.58 135.409 55.28 135.969 54.68C136.529 54.08 136.809 53.2067 136.809 52.06V46.04H138.629ZM143.022 51.48C143.022 50.36 143.249 49.38 143.702 48.54C144.155 47.6867 144.775 47.0267 145.562 46.56C146.362 46.0933 147.255 45.86 148.242 45.86C149.095 45.86 149.889 46.06 150.622 46.46C151.355 46.8467 151.915 47.36 152.302 48V42.2H154.142V57H152.302V54.94C151.942 55.5933 151.409 56.1333 150.702 56.56C149.995 56.9733 149.169 57.18 148.222 57.18C147.249 57.18 146.362 56.94 145.562 56.46C144.775 55.98 144.155 55.3067 143.702 54.44C143.249 53.5733 143.022 52.5867 143.022 51.48ZM152.302 51.5C152.302 50.6733 152.135 49.9533 151.802 49.34C151.469 48.7267 151.015 48.26 150.442 47.94C149.882 47.6067 149.262 47.44 148.582 47.44C147.902 47.44 147.282 47.6 146.722 47.92C146.162 48.24 145.715 48.7067 145.382 49.32C145.049 49.9333 144.882 50.6533 144.882 51.48C144.882 52.32 145.049 53.0533 145.382 53.68C145.715 54.2933 146.162 54.7667 146.722 55.1C147.282 55.42 147.902 55.58 148.582 55.58C149.262 55.58 149.882 55.42 150.442 55.1C151.015 54.7667 151.469 54.2933 151.802 53.68C152.135 53.0533 152.302 52.3267 152.302 51.5ZM169.218 51.1C169.218 51.4467 169.198 51.8133 169.158 52.2H160.398C160.464 53.28 160.831 54.1267 161.498 54.74C162.178 55.34 162.998 55.64 163.958 55.64C164.744 55.64 165.398 55.46 165.918 55.1C166.451 54.7267 166.824 54.2333 167.038 53.62H168.998C168.704 54.6733 168.118 55.5333 167.238 56.2C166.358 56.8533 165.264 57.18 163.958 57.18C162.918 57.18 161.984 56.9467 161.158 56.48C160.344 56.0133 159.704 55.3533 159.238 54.5C158.771 53.6333 158.538 52.6333 158.538 51.5C158.538 50.3667 158.764 49.3733 159.218 48.52C159.671 47.6667 160.304 47.0133 161.118 46.56C161.944 46.0933 162.891 45.86 163.958 45.86C164.998 45.86 165.918 46.0867 166.718 46.54C167.518 46.9933 168.131 47.62 168.558 48.42C168.998 49.2067 169.218 50.1 169.218 51.1ZM167.338 50.72C167.338 50.0267 167.184 49.4333 166.878 48.94C166.571 48.4333 166.151 48.0533 165.618 47.8C165.098 47.5333 164.518 47.4 163.878 47.4C162.958 47.4 162.171 47.6933 161.518 48.28C160.878 48.8667 160.511 49.68 160.418 50.72H167.338ZM144.472 105.84C145.805 105.84 146.885 106.247 147.712 107.06C148.538 107.86 148.952 109.02 148.952 110.54V117H147.152V110.8C147.152 109.707 146.878 108.873 146.332 108.3C145.785 107.713 145.038 107.42 144.092 107.42C143.132 107.42 142.365 107.72 141.792 108.32C141.232 108.92 140.952 109.793 140.952 110.94V117H139.132V106.04H140.952V107.6C141.312 107.04 141.798 106.607 142.412 106.3C143.038 105.993 143.725 105.84 144.472 105.84ZM153.245 111.48C153.245 110.36 153.471 109.38 153.925 108.54C154.378 107.687 154.998 107.027 155.785 106.56C156.585 106.093 157.471 105.86 158.445 105.86C159.405 105.86 160.238 106.067 160.945 106.48C161.651 106.893 162.178 107.413 162.525 108.04V106.04H164.365V117H162.525V114.96C162.165 115.6 161.625 116.133 160.905 116.56C160.198 116.973 159.371 117.18 158.425 117.18C157.451 117.18 156.571 116.94 155.785 116.46C154.998 115.98 154.378 115.307 153.925 114.44C153.471 113.573 153.245 112.587 153.245 111.48ZM162.525 111.5C162.525 110.673 162.358 109.953 162.025 109.34C161.691 108.727 161.238 108.26 160.665 107.94C160.105 107.607 159.485 107.44 158.805 107.44C158.125 107.44 157.505 107.6 156.945 107.92C156.385 108.24 155.938 108.707 155.605 109.32C155.271 109.933 155.105 110.653 155.105 111.48C155.105 112.32 155.271 113.053 155.605 113.68C155.938 114.293 156.385 114.767 156.945 115.1C157.505 115.42 158.125 115.58 158.805 115.58C159.485 115.58 160.105 115.42 160.665 115.1C161.238 114.767 161.691 114.293 162.025 113.68C162.358 113.053 162.525 112.327 162.525 111.5ZM182.62 105.84C183.474 105.84 184.234 106.02 184.9 106.38C185.567 106.727 186.094 107.253 186.48 107.96C186.867 108.667 187.06 109.527 187.06 110.54V117H185.26V110.8C185.26 109.707 184.987 108.873 184.44 108.3C183.907 107.713 183.18 107.42 182.26 107.42C181.314 107.42 180.56 107.727 180 108.34C179.44 108.94 179.16 109.813 179.16 110.96V117H177.36V110.8C177.36 109.707 177.087 108.873 176.54 108.3C176.007 107.713 175.28 107.42 174.36 107.42C173.414 107.42 172.66 107.727 172.1 108.34C171.54 108.94 171.26 109.813 171.26 110.96V117H169.44V106.04H171.26V107.62C171.62 107.047 172.1 106.607 172.7 106.3C173.314 105.993 173.987 105.84 174.72 105.84C175.64 105.84 176.454 106.047 177.16 106.46C177.867 106.873 178.394 107.48 178.74 108.28C179.047 107.507 179.554 106.907 180.26 106.48C180.967 106.053 181.754 105.84 182.62 105.84ZM202.046 111.1C202.046 111.447 202.026 111.813 201.986 112.2H193.226C193.292 113.28 193.659 114.127 194.326 114.74C195.006 115.34 195.826 115.64 196.786 115.64C197.572 115.64 198.226 115.46 198.746 115.1C199.279 114.727 199.652 114.233 199.866 113.62H201.826C201.532 114.673 200.946 115.533 200.066 116.2C199.186 116.853 198.092 117.18 196.786 117.18C195.746 117.18 194.812 116.947 193.986 116.48C193.172 116.013 192.532 115.353 192.066 114.5C191.599 113.633 191.366 112.633 191.366 111.5C191.366 110.367 191.592 109.373 192.046 108.52C192.499 107.667 193.132 107.013 193.946 106.56C194.772 106.093 195.719 105.86 196.786 105.86C197.826 105.86 198.746 106.087 199.546 106.54C200.346 106.993 200.959 107.62 201.386 108.42C201.826 109.207 202.046 110.1 202.046 111.1ZM200.166 110.72C200.166 110.027 200.012 109.433 199.706 108.94C199.399 108.433 198.979 108.053 198.446 107.8C197.926 107.533 197.346 107.4 196.706 107.4C195.786 107.4 194.999 107.693 194.346 108.28C193.706 108.867 193.339 109.68 193.246 110.72H200.166ZM210.328 117.18C209.488 117.18 208.735 117.04 208.068 116.76C207.401 116.467 206.875 116.067 206.488 115.56C206.101 115.04 205.888 114.447 205.848 113.78H207.728C207.781 114.327 208.035 114.773 208.488 115.12C208.955 115.467 209.561 115.64 210.308 115.64C211.001 115.64 211.548 115.487 211.948 115.18C212.348 114.873 212.548 114.487 212.548 114.02C212.548 113.54 212.335 113.187 211.908 112.96C211.481 112.72 210.821 112.487 209.928 112.26C209.115 112.047 208.448 111.833 207.928 111.62C207.421 111.393 206.981 111.067 206.608 110.64C206.248 110.2 206.068 109.627 206.068 108.92C206.068 108.36 206.235 107.847 206.568 107.38C206.901 106.913 207.375 106.547 207.988 106.28C208.601 106 209.301 105.86 210.088 105.86C211.301 105.86 212.281 106.167 213.028 106.78C213.775 107.393 214.175 108.233 214.228 109.3H212.408C212.368 108.727 212.135 108.267 211.708 107.92C211.295 107.573 210.735 107.4 210.028 107.4C209.375 107.4 208.855 107.54 208.468 107.82C208.081 108.1 207.888 108.467 207.888 108.92C207.888 109.28 208.001 109.58 208.228 109.82C208.468 110.047 208.761 110.233 209.108 110.38C209.468 110.513 209.961 110.667 210.588 110.84C211.375 111.053 212.015 111.267 212.508 111.48C213.001 111.68 213.421 111.987 213.768 112.4C214.128 112.813 214.315 113.353 214.328 114.02C214.328 114.62 214.161 115.16 213.828 115.64C213.495 116.12 213.021 116.5 212.408 116.78C211.808 117.047 211.115 117.18 210.328 117.18ZM220.717 108.06C221.077 107.433 221.611 106.913 222.317 106.5C223.037 106.073 223.871 105.86 224.817 105.86C225.791 105.86 226.671 106.093 227.457 106.56C228.257 107.027 228.884 107.687 229.337 108.54C229.791 109.38 230.017 110.36 230.017 111.48C230.017 112.587 229.791 113.573 229.337 114.44C228.884 115.307 228.257 115.98 227.457 116.46C226.671 116.94 225.791 117.18 224.817 117.18C223.884 117.18 223.057 116.973 222.337 116.56C221.631 116.133 221.091 115.607 220.717 114.98V122.2H218.897V106.04H220.717V108.06ZM228.157 111.48C228.157 110.653 227.991 109.933 227.657 109.32C227.324 108.707 226.871 108.24 226.297 107.92C225.737 107.6 225.117 107.44 224.437 107.44C223.771 107.44 223.151 107.607 222.577 107.94C222.017 108.26 221.564 108.733 221.217 109.36C220.884 109.973 220.717 110.687 220.717 111.5C220.717 112.327 220.884 113.053 221.217 113.68C221.564 114.293 222.017 114.767 222.577 115.1C223.151 115.42 223.771 115.58 224.437 115.58C225.117 115.58 225.737 115.42 226.297 115.1C226.871 114.767 227.324 114.293 227.657 113.68C227.991 113.053 228.157 112.32 228.157 111.48ZM233.733 111.48C233.733 110.36 233.96 109.38 234.413 108.54C234.866 107.687 235.486 107.027 236.273 106.56C237.073 106.093 237.96 105.86 238.933 105.86C239.893 105.86 240.726 106.067 241.433 106.48C242.14 106.893 242.666 107.413 243.013 108.04V106.04H244.853V117H243.013V114.96C242.653 115.6 242.113 116.133 241.393 116.56C240.686 116.973 239.86 117.18 238.913 117.18C237.94 117.18 237.06 116.94 236.273 116.46C235.486 115.98 234.866 115.307 234.413 114.44C233.96 113.573 233.733 112.587 233.733 111.48ZM243.013 111.5C243.013 110.673 242.846 109.953 242.513 109.34C242.18 108.727 241.726 108.26 241.153 107.94C240.593 107.607 239.973 107.44 239.293 107.44C238.613 107.44 237.993 107.6 237.433 107.92C236.873 108.24 236.426 108.707 236.093 109.32C235.76 109.933 235.593 110.653 235.593 111.48C235.593 112.32 235.76 113.053 236.093 113.68C236.426 114.293 236.873 114.767 237.433 115.1C237.993 115.42 238.613 115.58 239.293 115.58C239.973 115.58 240.593 115.42 241.153 115.1C241.726 114.767 242.18 114.293 242.513 113.68C242.846 113.053 243.013 112.327 243.013 111.5ZM249.249 111.5C249.249 110.367 249.475 109.38 249.929 108.54C250.382 107.687 251.009 107.027 251.809 106.56C252.622 106.093 253.549 105.86 254.589 105.86C255.935 105.86 257.042 106.187 257.909 106.84C258.789 107.493 259.369 108.4 259.649 109.56H257.689C257.502 108.893 257.135 108.367 256.589 107.98C256.055 107.593 255.389 107.4 254.589 107.4C253.549 107.4 252.709 107.76 252.069 108.48C251.429 109.187 251.109 110.193 251.109 111.5C251.109 112.82 251.429 113.84 252.069 114.56C252.709 115.28 253.549 115.64 254.589 115.64C255.389 115.64 256.055 115.453 256.589 115.08C257.122 114.707 257.489 114.173 257.689 113.48H259.649C259.355 114.6 258.769 115.5 257.889 116.18C257.009 116.847 255.909 117.18 254.589 117.18C253.549 117.18 252.622 116.947 251.809 116.48C251.009 116.013 250.382 115.353 249.929 114.5C249.475 113.647 249.249 112.647 249.249 111.5ZM274.077 111.1C274.077 111.447 274.057 111.813 274.017 112.2H265.257C265.324 113.28 265.69 114.127 266.357 114.74C267.037 115.34 267.857 115.64 268.817 115.64C269.604 115.64 270.257 115.46 270.777 115.1C271.31 114.727 271.684 114.233 271.897 113.62H273.857C273.564 114.673 272.977 115.533 272.097 116.2C271.217 116.853 270.124 117.18 268.817 117.18C267.777 117.18 266.844 116.947 266.017 116.48C265.204 116.013 264.564 115.353 264.097 114.5C263.63 113.633 263.397 112.633 263.397 111.5C263.397 110.367 263.624 109.373 264.077 108.52C264.53 107.667 265.164 107.013 265.977 106.56C266.804 106.093 267.75 105.86 268.817 105.86C269.857 105.86 270.777 106.087 271.577 106.54C272.377 106.993 272.99 107.62 273.417 108.42C273.857 109.207 274.077 110.1 274.077 111.1ZM272.197 110.72C272.197 110.027 272.044 109.433 271.737 108.94C271.43 108.433 271.01 108.053 270.477 107.8C269.957 107.533 269.377 107.4 268.737 107.4C267.817 107.4 267.03 107.693 266.377 108.28C265.737 108.867 265.37 109.68 265.277 110.72H272.197ZM68.267 164.26C67.9204 164.26 67.627 164.14 67.387 163.9C67.147 163.66 67.027 163.367 67.027 163.02C67.027 162.673 67.147 162.38 67.387 162.14C67.627 161.9 67.9204 161.78 68.267 161.78C68.6004 161.78 68.8804 161.9 69.107 162.14C69.347 162.38 69.467 162.673 69.467 163.02C69.467 163.367 69.347 163.66 69.107 163.9C68.8804 164.14 68.6004 164.26 68.267 164.26ZM69.147 166.04V177H67.327V166.04H69.147ZM79.5889 165.84C80.9222 165.84 82.0022 166.247 82.8289 167.06C83.6556 167.86 84.0689 169.02 84.0689 170.54V177H82.2689V170.8C82.2689 169.707 81.9956 168.873 81.4489 168.3C80.9022 167.713 80.1556 167.42 79.2089 167.42C78.2489 167.42 77.4822 167.72 76.9089 168.32C76.3489 168.92 76.0689 169.793 76.0689 170.94V177H74.2489V166.04H76.0689V167.6C76.4289 167.04 76.9156 166.607 77.5289 166.3C78.1556 165.993 78.8422 165.84 79.5889 165.84ZM91.2619 167.54V174C91.2619 174.533 91.3752 174.913 91.6019 175.14C91.8285 175.353 92.2219 175.46 92.7819 175.46H94.1219V177H92.4819C91.4685 177 90.7085 176.767 90.2019 176.3C89.6952 175.833 89.4419 175.067 89.4419 174V167.54H88.0219V166.04H89.4419V163.28H91.2619V166.04H94.1219V167.54H91.2619ZM190.259 164.26C189.913 164.26 189.619 164.14 189.379 163.9C189.139 163.66 189.019 163.367 189.019 163.02C189.019 162.673 189.139 162.38 189.379 162.14C189.619 161.9 189.913 161.78 190.259 161.78C190.593 161.78 190.873 161.9 191.099 162.14C191.339 162.38 191.459 162.673 191.459 163.02C191.459 163.367 191.339 163.66 191.099 163.9C190.873 164.14 190.593 164.26 190.259 164.26ZM191.139 166.04V177H189.319V166.04H191.139ZM201.581 165.84C202.914 165.84 203.994 166.247 204.821 167.06C205.648 167.86 206.061 169.02 206.061 170.54V177H204.261V170.8C204.261 169.707 203.988 168.873 203.441 168.3C202.894 167.713 202.148 167.42 201.201 167.42C200.241 167.42 199.474 167.72 198.901 168.32C198.341 168.92 198.061 169.793 198.061 170.94V177H196.241V166.04H198.061V167.6C198.421 167.04 198.908 166.607 199.521 166.3C200.148 165.993 200.834 165.84 201.581 165.84ZM213.254 167.54V174C213.254 174.533 213.367 174.913 213.594 175.14C213.821 175.353 214.214 175.46 214.774 175.46H216.114V177H214.474C213.461 177 212.701 176.767 212.194 176.3C211.687 175.833 211.434 175.067 211.434 174V167.54H210.014V166.04H211.434V163.28H213.254V166.04H216.114V167.54H213.254ZM253.458 164.26C253.112 164.26 252.818 164.14 252.578 163.9C252.338 163.66 252.218 163.367 252.218 163.02C252.218 162.673 252.338 162.38 252.578 162.14C252.818 161.9 253.112 161.78 253.458 161.78C253.792 161.78 254.072 161.9 254.298 162.14C254.538 162.38 254.658 162.673 254.658 163.02C254.658 163.367 254.538 163.66 254.298 163.9C254.072 164.14 253.792 164.26 253.458 164.26ZM254.338 166.04V177H252.518V166.04H254.338ZM264.78 165.84C266.114 165.84 267.194 166.247 268.02 167.06C268.847 167.86 269.26 169.02 269.26 170.54V177H267.46V170.8C267.46 169.707 267.187 168.873 266.64 168.3C266.094 167.713 265.347 167.42 264.4 167.42C263.44 167.42 262.674 167.72 262.1 168.32C261.54 168.92 261.26 169.793 261.26 170.94V177H259.44V166.04H261.26V167.6C261.62 167.04 262.107 166.607 262.72 166.3C263.347 165.993 264.034 165.84 264.78 165.84ZM276.453 167.54V174C276.453 174.533 276.567 174.913 276.793 175.14C277.02 175.353 277.413 175.46 277.973 175.46H279.313V177H277.673C276.66 177 275.9 176.767 275.393 176.3C274.887 175.833 274.633 175.067 274.633 174V167.54H273.213V166.04H274.633V163.28H276.453V166.04H279.313V167.54H276.453ZM97.5951 194.26C97.2485 194.26 96.9551 194.14 96.7151 193.9C96.4751 193.66 96.3551 193.367 96.3551 193.02C96.3551 192.673 96.4751 192.38 96.7151 192.14C96.9551 191.9 97.2485 191.78 97.5951 191.78C97.9285 191.78 98.2085 191.9 98.4351 192.14C98.6751 192.38 98.7951 192.673 98.7951 193.02C98.7951 193.367 98.6751 193.66 98.4351 193.9C98.2085 194.14 97.9285 194.26 97.5951 194.26ZM98.4751 196.04V207H96.6551V196.04H98.4751ZM108.917 195.84C110.25 195.84 111.33 196.247 112.157 197.06C112.984 197.86 113.397 199.02 113.397 200.54V207H111.597V200.8C111.597 199.707 111.324 198.873 110.777 198.3C110.23 197.713 109.484 197.42 108.537 197.42C107.577 197.42 106.81 197.72 106.237 198.32C105.677 198.92 105.397 199.793 105.397 200.94V207H103.577V196.04H105.397V197.6C105.757 197.04 106.244 196.607 106.857 196.3C107.484 195.993 108.17 195.84 108.917 195.84ZM120.59 197.54V204C120.59 204.533 120.703 204.913 120.93 205.14C121.157 205.353 121.55 205.46 122.11 205.46H123.45V207H121.81C120.797 207 120.037 206.767 119.53 206.3C119.023 205.833 118.77 205.067 118.77 204V197.54H117.35V196.04H118.77V193.28H120.59V196.04H123.45V197.54H120.59ZM101.115 227.54H98.8151V237H96.9951V227.54H95.5751V226.04H96.9951V225.26C96.9951 224.033 97.3085 223.14 97.9351 222.58C98.5751 222.007 99.5951 221.72 100.995 221.72V223.24C100.195 223.24 99.6285 223.4 99.2951 223.72C98.9751 224.027 98.8151 224.54 98.8151 225.26V226.04H101.115V227.54ZM110.017 237.18C108.991 237.18 108.057 236.947 107.217 236.48C106.391 236.013 105.737 235.353 105.257 234.5C104.791 233.633 104.557 232.633 104.557 231.5C104.557 230.38 104.797 229.393 105.277 228.54C105.771 227.673 106.437 227.013 107.277 226.56C108.117 226.093 109.057 225.86 110.097 225.86C111.137 225.86 112.077 226.093 112.917 226.56C113.757 227.013 114.417 227.667 114.897 228.52C115.391 229.373 115.637 230.367 115.637 231.5C115.637 232.633 115.384 233.633 114.877 234.5C114.384 235.353 113.711 236.013 112.857 236.48C112.004 236.947 111.057 237.18 110.017 237.18ZM110.017 235.58C110.671 235.58 111.284 235.427 111.857 235.12C112.431 234.813 112.891 234.353 113.237 233.74C113.597 233.127 113.777 232.38 113.777 231.5C113.777 230.62 113.604 229.873 113.257 229.26C112.911 228.647 112.457 228.193 111.897 227.9C111.337 227.593 110.731 227.44 110.077 227.44C109.411 227.44 108.797 227.593 108.237 227.9C107.691 228.193 107.251 228.647 106.917 229.26C106.584 229.873 106.417 230.62 106.417 231.5C106.417 232.393 106.577 233.147 106.897 233.76C107.231 234.373 107.671 234.833 108.217 235.14C108.764 235.433 109.364 235.58 110.017 235.58ZM121.85 227.82C122.17 227.193 122.623 226.707 123.21 226.36C123.81 226.013 124.537 225.84 125.39 225.84V227.72H124.91C122.87 227.72 121.85 228.827 121.85 231.04V237H120.03V226.04H121.85V227.82ZM148.845 224.26C148.498 224.26 148.205 224.14 147.965 223.9C147.725 223.66 147.605 223.367 147.605 223.02C147.605 222.673 147.725 222.38 147.965 222.14C148.205 221.9 148.498 221.78 148.845 221.78C149.178 221.78 149.458 221.9 149.685 222.14C149.925 222.38 150.045 222.673 150.045 223.02C150.045 223.367 149.925 223.66 149.685 223.9C149.458 224.14 149.178 224.26 148.845 224.26ZM149.725 226.04V237H147.905V226.04H149.725ZM160.167 225.84C161.5 225.84 162.58 226.247 163.407 227.06C164.234 227.86 164.647 229.02 164.647 230.54V237H162.847V230.8C162.847 229.707 162.574 228.873 162.027 228.3C161.48 227.713 160.734 227.42 159.787 227.42C158.827 227.42 158.06 227.72 157.487 228.32C156.927 228.92 156.647 229.793 156.647 230.94V237H154.827V226.04H156.647V227.6C157.007 227.04 157.494 226.607 158.107 226.3C158.734 225.993 159.42 225.84 160.167 225.84ZM171.84 227.54V234C171.84 234.533 171.953 234.913 172.18 235.14C172.407 235.353 172.8 235.46 173.36 235.46H174.7V237H173.06C172.047 237 171.287 236.767 170.78 236.3C170.273 235.833 170.02 235.067 170.02 234V227.54H168.6V226.04H170.02V223.28H171.84V226.04H174.7V227.54H171.84ZM266.502 234.28L261.682 229.68L266.502 225.1H268.802L263.962 229.68L268.802 234.28H266.502ZM285.516 226.76V228.3H275.116V226.76H285.516ZM285.516 231.06V232.6H275.116V231.06H285.516ZM98.4751 317.82C98.7951 317.193 99.2485 316.707 99.8351 316.36C100.435 316.013 101.162 315.84 102.015 315.84V317.72H101.535C99.4951 317.72 98.4751 318.827 98.4751 321.04V327H96.6551V316.04H98.4751V317.82ZM116.116 321.1C116.116 321.447 116.096 321.813 116.056 322.2H107.296C107.363 323.28 107.729 324.127 108.396 324.74C109.076 325.34 109.896 325.64 110.856 325.64C111.643 325.64 112.296 325.46 112.816 325.1C113.349 324.727 113.723 324.233 113.936 323.62H115.896C115.603 324.673 115.016 325.533 114.136 326.2C113.256 326.853 112.163 327.18 110.856 327.18C109.816 327.18 108.883 326.947 108.056 326.48C107.243 326.013 106.603 325.353 106.136 324.5C105.669 323.633 105.436 322.633 105.436 321.5C105.436 320.367 105.663 319.373 106.116 318.52C106.569 317.667 107.203 317.013 108.016 316.56C108.843 316.093 109.789 315.86 110.856 315.86C111.896 315.86 112.816 316.087 113.616 316.54C114.416 316.993 115.029 317.62 115.456 318.42C115.896 319.207 116.116 320.1 116.116 321.1ZM114.236 320.72C114.236 320.027 114.083 319.433 113.776 318.94C113.469 318.433 113.049 318.053 112.516 317.8C111.996 317.533 111.416 317.4 110.776 317.4C109.856 317.4 109.069 317.693 108.416 318.28C107.776 318.867 107.409 319.68 107.316 320.72H114.236ZM122.738 317.54V324C122.738 324.533 122.852 324.913 123.078 325.14C123.305 325.353 123.698 325.46 124.258 325.46H125.598V327H123.958C122.945 327 122.185 326.767 121.678 326.3C121.172 325.833 120.918 325.067 120.918 324V317.54H119.498V316.04H120.918V313.28H122.738V316.04H125.598V317.54H122.738ZM139.524 316.04V327H137.704V325.38C137.357 325.94 136.87 326.38 136.244 326.7C135.63 327.007 134.95 327.16 134.204 327.16C133.35 327.16 132.584 326.987 131.904 326.64C131.224 326.28 130.684 325.747 130.284 325.04C129.897 324.333 129.704 323.473 129.704 322.46V316.04H131.504V322.22C131.504 323.3 131.777 324.133 132.324 324.72C132.87 325.293 133.617 325.58 134.564 325.58C135.537 325.58 136.304 325.28 136.864 324.68C137.424 324.08 137.704 323.207 137.704 322.06V316.04H139.524ZM146.417 317.82C146.737 317.193 147.19 316.707 147.777 316.36C148.377 316.013 149.103 315.84 149.957 315.84V317.72H149.477C147.437 317.72 146.417 318.827 146.417 321.04V327H144.597V316.04H146.417V317.82ZM159.397 315.84C160.731 315.84 161.811 316.247 162.637 317.06C163.464 317.86 163.877 319.02 163.877 320.54V327H162.077V320.8C162.077 319.707 161.804 318.873 161.257 318.3C160.711 317.713 159.964 317.42 159.017 317.42C158.057 317.42 157.291 317.72 156.717 318.32C156.157 318.92 155.877 319.793 155.877 320.94V327H154.057V316.04H155.877V317.6C156.237 317.04 156.724 316.607 157.337 316.3C157.964 315.993 158.651 315.84 159.397 315.84Z" fill="#FFB1F7"/>
<path d="M182.917 180.72C181.637 179.467 180.637 177.873 179.917 175.94C179.211 174.007 178.857 171.92 178.857 169.68C178.857 167.387 179.231 165.247 179.977 163.26C180.737 161.26 181.817 159.613 183.217 158.32H185.117V158.5C183.624 159.9 182.497 161.587 181.737 163.56C180.991 165.52 180.617 167.56 180.617 169.68C180.617 171.747 180.971 173.72 181.677 175.6C182.397 177.48 183.444 179.127 184.817 180.54V180.72H182.917ZM303.54 180.72V180.54C304.913 179.127 305.953 177.48 306.66 175.6C307.38 173.72 307.74 171.747 307.74 169.68C307.74 167.56 307.36 165.52 306.6 163.56C305.853 161.587 304.733 159.9 303.24 158.5V158.32H305.14C306.54 159.613 307.613 161.26 308.36 163.26C309.12 165.247 309.5 167.387 309.5 169.68C309.5 171.92 309.14 174.007 308.42 175.94C307.713 177.873 306.72 179.467 305.44 180.72H303.54ZM315.762 168.82C317.122 168.567 317.802 167.867 317.802 166.72C317.802 166.213 317.735 165.347 317.602 164.12C317.469 162.813 317.402 161.867 317.402 161.28C317.402 160.32 317.669 159.587 318.202 159.08C318.749 158.573 319.475 158.32 320.382 158.32H321.542V159.9H320.722C320.202 159.9 319.815 160.02 319.562 160.26C319.309 160.487 319.182 160.867 319.182 161.4C319.182 161.787 319.209 162.267 319.262 162.84C319.315 163.4 319.349 163.78 319.362 163.98C319.495 165.26 319.562 166.193 319.562 166.78C319.562 167.487 319.382 168.08 319.022 168.56C318.675 169.027 318.135 169.34 317.402 169.5V169.54C318.135 169.7 318.675 170.02 319.022 170.5C319.382 170.98 319.562 171.573 319.562 172.28C319.562 172.867 319.495 173.8 319.362 175.08C319.349 175.28 319.315 175.667 319.262 176.24C319.209 176.8 319.182 177.273 319.182 177.66C319.182 178.193 319.309 178.573 319.562 178.8C319.815 179.04 320.202 179.16 320.722 179.16H321.542V180.74H320.382C319.475 180.74 318.749 180.487 318.202 179.98C317.669 179.473 317.402 178.74 317.402 177.78C317.402 177.193 317.469 176.247 317.602 174.94C317.735 173.713 317.802 172.847 317.802 172.34C317.802 171.193 317.122 170.493 315.762 170.24V168.82ZM136.807 197.82C137.127 197.193 137.581 196.707 138.167 196.36C138.767 196.013 139.494 195.84 140.347 195.84V197.72H139.867C137.827 197.72 136.807 198.827 136.807 201.04V207H134.987V196.04H136.807V197.82ZM154.448 201.1C154.448 201.447 154.428 201.813 154.388 202.2H145.628C145.695 203.28 146.061 204.127 146.728 204.74C147.408 205.34 148.228 205.64 149.188 205.64C149.975 205.64 150.628 205.46 151.148 205.1C151.681 204.727 152.055 204.233 152.268 203.62H154.228C153.935 204.673 153.348 205.533 152.468 206.2C151.588 206.853 150.495 207.18 149.188 207.18C148.148 207.18 147.215 206.947 146.388 206.48C145.575 206.013 144.935 205.353 144.468 204.5C144.001 203.633 143.768 202.633 143.768 201.5C143.768 200.367 143.995 199.373 144.448 198.52C144.901 197.667 145.535 197.013 146.348 196.56C147.175 196.093 148.121 195.86 149.188 195.86C150.228 195.86 151.148 196.087 151.948 196.54C152.748 196.993 153.361 197.62 153.788 198.42C154.228 199.207 154.448 200.1 154.448 201.1ZM152.568 200.72C152.568 200.027 152.415 199.433 152.108 198.94C151.801 198.433 151.381 198.053 150.848 197.8C150.328 197.533 149.748 197.4 149.108 197.4C148.188 197.4 147.401 197.693 146.748 198.28C146.108 198.867 145.741 199.68 145.648 200.72H152.568ZM162.73 207.18C161.89 207.18 161.137 207.04 160.47 206.76C159.804 206.467 159.277 206.067 158.89 205.56C158.504 205.04 158.29 204.447 158.25 203.78H160.13C160.184 204.327 160.437 204.773 160.89 205.12C161.357 205.467 161.964 205.64 162.71 205.64C163.404 205.64 163.95 205.487 164.35 205.18C164.75 204.873 164.95 204.487 164.95 204.02C164.95 203.54 164.737 203.187 164.31 202.96C163.884 202.72 163.224 202.487 162.33 202.26C161.517 202.047 160.85 201.833 160.33 201.62C159.824 201.393 159.384 201.067 159.01 200.64C158.65 200.2 158.47 199.627 158.47 198.92C158.47 198.36 158.637 197.847 158.97 197.38C159.304 196.913 159.777 196.547 160.39 196.28C161.004 196 161.704 195.86 162.49 195.86C163.704 195.86 164.684 196.167 165.43 196.78C166.177 197.393 166.577 198.233 166.63 199.3H164.81C164.77 198.727 164.537 198.267 164.11 197.92C163.697 197.573 163.137 197.4 162.43 197.4C161.777 197.4 161.257 197.54 160.87 197.82C160.484 198.1 160.29 198.467 160.29 198.92C160.29 199.28 160.404 199.58 160.63 199.82C160.87 200.047 161.164 200.233 161.51 200.38C161.87 200.513 162.364 200.667 162.99 200.84C163.777 201.053 164.417 201.267 164.91 201.48C165.404 201.68 165.824 201.987 166.17 202.4C166.53 202.813 166.717 203.353 166.73 204.02C166.73 204.62 166.564 205.16 166.23 205.64C165.897 206.12 165.424 206.5 164.81 206.78C164.21 207.047 163.517 207.18 162.73 207.18ZM181.02 196.04V207H179.2V205.38C178.853 205.94 178.366 206.38 177.74 206.7C177.126 207.007 176.446 207.16 175.7 207.16C174.846 207.16 174.08 206.987 173.4 206.64C172.72 206.28 172.18 205.747 171.78 205.04C171.393 204.333 171.2 203.473 171.2 202.46V196.04H173V202.22C173 203.3 173.273 204.133 173.82 204.72C174.366 205.293 175.113 205.58 176.06 205.58C177.033 205.58 177.8 205.28 178.36 204.68C178.92 204.08 179.2 203.207 179.2 202.06V196.04H181.02ZM187.913 192.2V207H186.093V192.2H187.913ZM195.235 197.54V204C195.235 204.533 195.348 204.913 195.575 205.14C195.801 205.353 196.195 205.46 196.755 205.46H198.095V207H196.455C195.441 207 194.681 206.767 194.175 206.3C193.668 205.833 193.415 205.067 193.415 204V197.54H191.995V196.04H193.415V193.28H195.235V196.04H198.095V197.54H195.235ZM141.503 240.72C140.223 239.467 139.223 237.873 138.503 235.94C137.796 234.007 137.443 231.92 137.443 229.68C137.443 227.387 137.816 225.247 138.563 223.26C139.323 221.26 140.403 219.613 141.803 218.32H143.703V218.5C142.21 219.9 141.083 221.587 140.323 223.56C139.576 225.52 139.203 227.56 139.203 229.68C139.203 231.747 139.556 233.72 140.263 235.6C140.983 237.48 142.03 239.127 143.403 240.54V240.72H141.503ZM187.177 224.26C186.831 224.26 186.537 224.14 186.297 223.9C186.057 223.66 185.937 223.367 185.937 223.02C185.937 222.673 186.057 222.38 186.297 222.14C186.537 221.9 186.831 221.78 187.177 221.78C187.511 221.78 187.791 221.9 188.017 222.14C188.257 222.38 188.377 222.673 188.377 223.02C188.377 223.367 188.257 223.66 188.017 223.9C187.791 224.14 187.511 224.26 187.177 224.26ZM188.057 226.04V237H186.237V226.04H188.057ZM248.228 224.26C247.881 224.26 247.588 224.14 247.348 223.9C247.108 223.66 246.988 223.367 246.988 223.02C246.988 222.673 247.108 222.38 247.348 222.14C247.588 221.9 247.881 221.78 248.228 221.78C248.561 221.78 248.841 221.9 249.068 222.14C249.308 222.38 249.428 222.673 249.428 223.02C249.428 223.367 249.308 223.66 249.068 223.9C248.841 224.14 248.561 224.26 248.228 224.26ZM249.108 226.04V237H247.288V226.04H249.108ZM327.236 224.26C326.889 224.26 326.596 224.14 326.356 223.9C326.116 223.66 325.996 223.367 325.996 223.02C325.996 222.673 326.116 222.38 326.356 222.14C326.596 221.9 326.889 221.78 327.236 221.78C327.569 221.78 327.849 221.9 328.076 222.14C328.316 222.38 328.436 222.673 328.436 223.02C328.436 223.367 328.316 223.66 328.076 223.9C327.849 224.14 327.569 224.26 327.236 224.26ZM328.116 226.04V237H326.296V226.04H328.116ZM363.942 240.72V240.54C365.316 239.127 366.356 237.48 367.062 235.6C367.782 233.72 368.142 231.747 368.142 229.68C368.142 227.56 367.762 225.52 367.002 223.56C366.256 221.587 365.136 219.9 363.642 218.5V218.32H365.542C366.942 219.613 368.016 221.26 368.762 223.26C369.522 225.247 369.902 227.387 369.902 229.68C369.902 231.92 369.542 234.007 368.822 235.94C368.116 237.873 367.122 239.467 365.842 240.72H363.942ZM376.164 228.82C377.524 228.567 378.204 227.867 378.204 226.72C378.204 226.213 378.138 225.347 378.004 224.12C377.871 222.813 377.804 221.867 377.804 221.28C377.804 220.32 378.071 219.587 378.604 219.08C379.151 218.573 379.878 218.32 380.784 218.32H381.944V219.9H381.124C380.604 219.9 380.218 220.02 379.964 220.26C379.711 220.487 379.584 220.867 379.584 221.4C379.584 221.787 379.611 222.267 379.664 222.84C379.718 223.4 379.751 223.78 379.764 223.98C379.898 225.26 379.964 226.193 379.964 226.78C379.964 227.487 379.784 228.08 379.424 228.56C379.078 229.027 378.538 229.34 377.804 229.5V229.54C378.538 229.7 379.078 230.02 379.424 230.5C379.784 230.98 379.964 231.573 379.964 232.28C379.964 232.867 379.898 233.8 379.764 235.08C379.751 235.28 379.718 235.667 379.664 236.24C379.611 236.8 379.584 237.273 379.584 237.66C379.584 238.193 379.711 238.573 379.964 238.8C380.218 239.04 380.604 239.16 381.124 239.16H381.944V240.74H380.784C379.878 240.74 379.151 240.487 378.604 239.98C378.071 239.473 377.804 238.74 377.804 237.78C377.804 237.193 377.871 236.247 378.004 234.94C378.138 233.713 378.204 232.847 378.204 232.34C378.204 231.193 377.524 230.493 376.164 230.24V228.82ZM127.803 257.82C128.123 257.193 128.577 256.707 129.163 256.36C129.763 256.013 130.49 255.84 131.343 255.84V257.72H130.863C128.823 257.72 127.803 258.827 127.803 261.04V267H125.983V256.04H127.803V257.82ZM145.444 261.1C145.444 261.447 145.424 261.813 145.384 262.2H136.624C136.691 263.28 137.058 264.127 137.724 264.74C138.404 265.34 139.224 265.64 140.184 265.64C140.971 265.64 141.624 265.46 142.144 265.1C142.678 264.727 143.051 264.233 143.264 263.62H145.224C144.931 264.673 144.344 265.533 143.464 266.2C142.584 266.853 141.491 267.18 140.184 267.18C139.144 267.18 138.211 266.947 137.384 266.48C136.571 266.013 135.931 265.353 135.464 264.5C134.998 263.633 134.764 262.633 134.764 261.5C134.764 260.367 134.991 259.373 135.444 258.52C135.898 257.667 136.531 257.013 137.344 256.56C138.171 256.093 139.118 255.86 140.184 255.86C141.224 255.86 142.144 256.087 142.944 256.54C143.744 256.993 144.358 257.62 144.784 258.42C145.224 259.207 145.444 260.1 145.444 261.1ZM143.564 260.72C143.564 260.027 143.411 259.433 143.104 258.94C142.798 258.433 142.378 258.053 141.844 257.8C141.324 257.533 140.744 257.4 140.104 257.4C139.184 257.4 138.398 257.693 137.744 258.28C137.104 258.867 136.738 259.68 136.644 260.72H143.564ZM153.727 267.18C152.887 267.18 152.133 267.04 151.467 266.76C150.8 266.467 150.273 266.067 149.887 265.56C149.5 265.04 149.287 264.447 149.247 263.78H151.127C151.18 264.327 151.433 264.773 151.887 265.12C152.353 265.467 152.96 265.64 153.707 265.64C154.4 265.64 154.947 265.487 155.347 265.18C155.747 264.873 155.947 264.487 155.947 264.02C155.947 263.54 155.733 263.187 155.307 262.96C154.88 262.72 154.22 262.487 153.327 262.26C152.513 262.047 151.847 261.833 151.327 261.62C150.82 261.393 150.38 261.067 150.007 260.64C149.647 260.2 149.467 259.627 149.467 258.92C149.467 258.36 149.633 257.847 149.967 257.38C150.3 256.913 150.773 256.547 151.387 256.28C152 256 152.7 255.86 153.487 255.86C154.7 255.86 155.68 256.167 156.427 256.78C157.173 257.393 157.573 258.233 157.627 259.3H155.807C155.767 258.727 155.533 258.267 155.107 257.92C154.693 257.573 154.133 257.4 153.427 257.4C152.773 257.4 152.253 257.54 151.867 257.82C151.48 258.1 151.287 258.467 151.287 258.92C151.287 259.28 151.4 259.58 151.627 259.82C151.867 260.047 152.16 260.233 152.507 260.38C152.867 260.513 153.36 260.667 153.987 260.84C154.773 261.053 155.413 261.267 155.907 261.48C156.4 261.68 156.82 261.987 157.167 262.4C157.527 262.813 157.713 263.353 157.727 264.02C157.727 264.62 157.56 265.16 157.227 265.64C156.893 266.12 156.42 266.5 155.807 266.78C155.207 267.047 154.513 267.18 153.727 267.18ZM172.016 256.04V267H170.196V265.38C169.849 265.94 169.362 266.38 168.736 266.7C168.122 267.007 167.442 267.16 166.696 267.16C165.842 267.16 165.076 266.987 164.396 266.64C163.716 266.28 163.176 265.747 162.776 265.04C162.389 264.333 162.196 263.473 162.196 262.46V256.04H163.996V262.22C163.996 263.3 164.269 264.133 164.816 264.72C165.362 265.293 166.109 265.58 167.056 265.58C168.029 265.58 168.796 265.28 169.356 264.68C169.916 264.08 170.196 263.207 170.196 262.06V256.04H172.016ZM178.909 252.2V267H177.089V252.2H178.909ZM186.231 257.54V264C186.231 264.533 186.344 264.913 186.571 265.14C186.797 265.353 187.191 265.46 187.751 265.46H189.091V267H187.451C186.437 267 185.677 266.767 185.171 266.3C184.664 265.833 184.411 265.067 184.411 264V257.54H182.991V256.04H184.411V253.28H186.231V256.04H189.091V257.54H186.231ZM102.255 290.24C100.895 290.493 100.215 291.193 100.215 292.34C100.215 292.847 100.282 293.713 100.415 294.94C100.548 296.247 100.615 297.193 100.615 297.78C100.615 298.74 100.342 299.473 99.7951 299.98C99.2618 300.487 98.5418 300.74 97.6351 300.74H96.4751V299.16H97.2951C97.8151 299.16 98.2018 299.04 98.4551 298.8C98.7085 298.573 98.8351 298.193 98.8351 297.66C98.8351 297.273 98.8085 296.8 98.7551 296.24C98.7018 295.667 98.6685 295.28 98.6551 295.08C98.5218 293.8 98.4551 292.867 98.4551 292.28C98.4551 291.573 98.6285 290.98 98.9751 290.5C99.3351 290.02 99.8818 289.7 100.615 289.54V289.5C99.8818 289.34 99.3351 289.027 98.9751 288.56C98.6285 288.08 98.4551 287.487 98.4551 286.78C98.4551 286.193 98.5218 285.26 98.6551 283.98C98.6685 283.78 98.7018 283.4 98.7551 282.84C98.8085 282.267 98.8351 281.787 98.8351 281.4C98.8351 280.867 98.7085 280.487 98.4551 280.26C98.2018 280.02 97.8151 279.9 97.2951 279.9H96.4751V278.32H97.6351C98.5418 278.32 99.2618 278.573 99.7951 279.08C100.342 279.587 100.615 280.32 100.615 281.28C100.615 281.867 100.548 282.813 100.415 284.12C100.282 285.347 100.215 286.213 100.215 286.72C100.215 287.867 100.895 288.567 102.255 288.82V290.24ZM178.002 317.82C178.322 317.193 178.776 316.707 179.362 316.36C179.962 316.013 180.689 315.84 181.542 315.84V317.72H181.062C179.022 317.72 178.002 318.827 178.002 321.04V327H176.182V316.04H178.002V317.82ZM195.643 321.1C195.643 321.447 195.623 321.813 195.583 322.2H186.823C186.89 323.28 187.257 324.127 187.923 324.74C188.603 325.34 189.423 325.64 190.383 325.64C191.17 325.64 191.823 325.46 192.343 325.1C192.877 324.727 193.25 324.233 193.463 323.62H195.423C195.13 324.673 194.543 325.533 193.663 326.2C192.783 326.853 191.69 327.18 190.383 327.18C189.343 327.18 188.41 326.947 187.583 326.48C186.77 326.013 186.13 325.353 185.663 324.5C185.197 323.633 184.963 322.633 184.963 321.5C184.963 320.367 185.19 319.373 185.643 318.52C186.097 317.667 186.73 317.013 187.543 316.56C188.37 316.093 189.317 315.86 190.383 315.86C191.423 315.86 192.343 316.087 193.143 316.54C193.943 316.993 194.557 317.62 194.983 318.42C195.423 319.207 195.643 320.1 195.643 321.1ZM193.763 320.72C193.763 320.027 193.61 319.433 193.303 318.94C192.997 318.433 192.577 318.053 192.043 317.8C191.523 317.533 190.943 317.4 190.303 317.4C189.383 317.4 188.597 317.693 187.943 318.28C187.303 318.867 186.937 319.68 186.843 320.72H193.763ZM203.926 327.18C203.086 327.18 202.332 327.04 201.666 326.76C200.999 326.467 200.472 326.067 200.086 325.56C199.699 325.04 199.486 324.447 199.446 323.78H201.326C201.379 324.327 201.632 324.773 202.086 325.12C202.552 325.467 203.159 325.64 203.906 325.64C204.599 325.64 205.146 325.487 205.546 325.18C205.946 324.873 206.146 324.487 206.146 324.02C206.146 323.54 205.932 323.187 205.506 322.96C205.079 322.72 204.419 322.487 203.526 322.26C202.712 322.047 202.046 321.833 201.526 321.62C201.019 321.393 200.579 321.067 200.206 320.64C199.846 320.2 199.666 319.627 199.666 318.92C199.666 318.36 199.832 317.847 200.166 317.38C200.499 316.913 200.972 316.547 201.586 316.28C202.199 316 202.899 315.86 203.686 315.86C204.899 315.86 205.879 316.167 206.626 316.78C207.372 317.393 207.772 318.233 207.826 319.3H206.006C205.966 318.727 205.732 318.267 205.306 317.92C204.892 317.573 204.332 317.4 203.626 317.4C202.972 317.4 202.452 317.54 202.066 317.82C201.679 318.1 201.486 318.467 201.486 318.92C201.486 319.28 201.599 319.58 201.826 319.82C202.066 320.047 202.359 320.233 202.706 320.38C203.066 320.513 203.559 320.667 204.186 320.84C204.972 321.053 205.612 321.267 206.106 321.48C206.599 321.68 207.019 321.987 207.366 322.4C207.726 322.813 207.912 323.353 207.926 324.02C207.926 324.62 207.759 325.16 207.426 325.64C207.092 326.12 206.619 326.5 206.006 326.78C205.406 327.047 204.712 327.18 203.926 327.18ZM222.215 316.04V327H220.395V325.38C220.048 325.94 219.562 326.38 218.935 326.7C218.322 327.007 217.642 327.16 216.895 327.16C216.042 327.16 215.275 326.987 214.595 326.64C213.915 326.28 213.375 325.747 212.975 325.04C212.588 324.333 212.395 323.473 212.395 322.46V316.04H214.195V322.22C214.195 323.3 214.468 324.133 215.015 324.72C215.562 325.293 216.308 325.58 217.255 325.58C218.228 325.58 218.995 325.28 219.555 324.68C220.115 324.08 220.395 323.207 220.395 322.06V316.04H222.215ZM229.108 312.2V327H227.288V312.2H229.108ZM236.43 317.54V324C236.43 324.533 236.543 324.913 236.77 325.14C236.996 325.353 237.39 325.46 237.95 325.46H239.29V327H237.65C236.636 327 235.876 326.767 235.37 326.3C234.863 325.833 234.61 325.067 234.61 324V317.54H233.19V316.04H234.61V313.28H236.43V316.04H239.29V317.54H236.43ZM72.927 350.24C71.567 350.493 70.887 351.193 70.887 352.34C70.887 352.847 70.9537 353.713 71.087 354.94C71.2204 356.247 71.287 357.193 71.287 357.78C71.287 358.74 71.0137 359.473 70.467 359.98C69.9337 360.487 69.2137 360.74 68.307 360.74H67.147V359.16H67.967C68.487 359.16 68.8737 359.04 69.127 358.8C69.3804 358.573 69.507 358.193 69.507 357.66C69.507 357.273 69.4804 356.8 69.427 356.24C69.3737 355.667 69.3404 355.28 69.327 355.08C69.1937 353.8 69.127 352.867 69.127 352.28C69.127 351.573 69.3004 350.98 69.647 350.5C70.007 350.02 70.5537 349.7 71.287 349.54V349.5C70.5537 349.34 70.007 349.027 69.647 348.56C69.3004 348.08 69.127 347.487 69.127 346.78C69.127 346.193 69.1937 345.26 69.327 343.98C69.3404 343.78 69.3737 343.4 69.427 342.84C69.4804 342.267 69.507 341.787 69.507 341.4C69.507 340.867 69.3804 340.487 69.127 340.26C68.8737 340.02 68.487 339.9 67.967 339.9H67.147V338.32H68.307C69.2137 338.32 69.9337 338.573 70.467 339.08C71.0137 339.587 71.287 340.32 71.287 341.28C71.287 341.867 71.2204 342.813 71.087 344.12C70.9537 345.347 70.887 346.213 70.887 346.72C70.887 347.867 71.567 348.567 72.927 348.82V350.24Z" fill="#CFD4FF"/>
<path d="M194.986 44.26C194.639 44.26 194.346 44.14 194.106 43.9C193.866 43.66 193.746 43.3667 193.746 43.02C193.746 42.6733 193.866 42.38 194.106 42.14C194.346 41.9 194.639 41.78 194.986 41.78C195.319 41.78 195.599 41.9 195.826 42.14C196.066 42.38 196.186 42.6733 196.186 43.02C196.186 43.3667 196.066 43.66 195.826 43.9C195.599 44.14 195.319 44.26 194.986 44.26ZM195.866 46.04V57H194.046V46.04H195.866ZM205.748 57.18C204.721 57.18 203.788 56.9467 202.948 56.48C202.121 56.0133 201.468 55.3533 200.988 54.5C200.521 53.6333 200.288 52.6333 200.288 51.5C200.288 50.38 200.528 49.3933 201.008 48.54C201.501 47.6733 202.168 47.0133 203.008 46.56C203.848 46.0933 204.788 45.86 205.828 45.86C206.868 45.86 207.808 46.0933 208.648 46.56C209.488 47.0133 210.148 47.6667 210.628 48.52C211.121 49.3733 211.368 50.3667 211.368 51.5C211.368 52.6333 211.114 53.6333 210.608 54.5C210.114 55.3533 209.441 56.0133 208.588 56.48C207.734 56.9467 206.788 57.18 205.748 57.18ZM205.748 55.58C206.401 55.58 207.014 55.4267 207.588 55.12C208.161 54.8133 208.621 54.3533 208.968 53.74C209.328 53.1267 209.508 52.38 209.508 51.5C209.508 50.62 209.334 49.8733 208.988 49.26C208.641 48.6467 208.188 48.1933 207.628 47.9C207.068 47.5933 206.461 47.44 205.808 47.44C205.141 47.44 204.528 47.5933 203.968 47.9C203.421 48.1933 202.981 48.6467 202.648 49.26C202.314 49.8733 202.148 50.62 202.148 51.5C202.148 52.3933 202.308 53.1467 202.628 53.76C202.961 54.3733 203.401 54.8333 203.948 55.14C204.494 55.4333 205.094 55.58 205.748 55.58ZM219.641 57.18C218.801 57.18 218.047 57.04 217.381 56.76C216.714 56.4667 216.187 56.0667 215.801 55.56C215.414 55.04 215.201 54.4467 215.161 53.78H217.041C217.094 54.3267 217.347 54.7733 217.801 55.12C218.267 55.4667 218.874 55.64 219.621 55.64C220.314 55.64 220.861 55.4867 221.261 55.18C221.661 54.8733 221.861 54.4867 221.861 54.02C221.861 53.54 221.647 53.1867 221.221 52.96C220.794 52.72 220.134 52.4867 219.241 52.26C218.427 52.0467 217.761 51.8333 217.241 51.62C216.734 51.3933 216.294 51.0667 215.921 50.64C215.561 50.2 215.381 49.6267 215.381 48.92C215.381 48.36 215.547 47.8467 215.881 47.38C216.214 46.9133 216.687 46.5467 217.301 46.28C217.914 46 218.614 45.86 219.401 45.86C220.614 45.86 221.594 46.1667 222.341 46.78C223.087 47.3933 223.487 48.2333 223.541 49.3H221.721C221.681 48.7267 221.447 48.2667 221.021 47.92C220.607 47.5733 220.047 47.4 219.341 47.4C218.687 47.4 218.167 47.54 217.781 47.82C217.394 48.1 217.201 48.4667 217.201 48.92C217.201 49.28 217.314 49.58 217.541 49.82C217.781 50.0467 218.074 50.2333 218.421 50.38C218.781 50.5133 219.274 50.6667 219.901 50.84C220.687 51.0533 221.327 51.2667 221.821 51.48C222.314 51.68 222.734 51.9867 223.081 52.4C223.441 52.8133 223.627 53.3533 223.641 54.02C223.641 54.62 223.474 55.16 223.141 55.64C222.807 56.12 222.334 56.5 221.721 56.78C221.121 57.0467 220.427 57.18 219.641 57.18ZM230.43 47.54V54C230.43 54.5333 230.543 54.9133 230.77 55.14C230.996 55.3533 231.39 55.46 231.95 55.46H233.29V57H231.65C230.636 57 229.876 56.7667 229.37 56.3C228.863 55.8333 228.61 55.0667 228.61 54V47.54H227.19V46.04H228.61V43.28H230.43V46.04H233.29V47.54H230.43ZM239.315 47.82C239.635 47.1933 240.088 46.7067 240.675 46.36C241.275 46.0133 242.002 45.84 242.855 45.84V47.72H242.375C240.335 47.72 239.315 48.8267 239.315 51.04V57H237.495V46.04H239.315V47.82ZM256.956 51.1C256.956 51.4467 256.936 51.8133 256.896 52.2H248.136C248.203 53.28 248.569 54.1267 249.236 54.74C249.916 55.34 250.736 55.64 251.696 55.64C252.483 55.64 253.136 55.46 253.656 55.1C254.189 54.7267 254.563 54.2333 254.776 53.62H256.736C256.443 54.6733 255.856 55.5333 254.976 56.2C254.096 56.8533 253.003 57.18 251.696 57.18C250.656 57.18 249.723 56.9467 248.896 56.48C248.083 56.0133 247.443 55.3533 246.976 54.5C246.509 53.6333 246.276 52.6333 246.276 51.5C246.276 50.3667 246.503 49.3733 246.956 48.52C247.409 47.6667 248.043 47.0133 248.856 46.56C249.683 46.0933 250.629 45.86 251.696 45.86C252.736 45.86 253.656 46.0867 254.456 46.54C255.256 46.9933 255.869 47.62 256.296 48.42C256.736 49.2067 256.956 50.1 256.956 51.1ZM255.076 50.72C255.076 50.0267 254.923 49.4333 254.616 48.94C254.309 48.4333 253.889 48.0533 253.356 47.8C252.836 47.5333 252.256 47.4 251.616 47.4C250.696 47.4 249.909 47.6933 249.256 48.28C248.616 48.8667 248.249 49.68 248.156 50.72H255.076ZM260.678 51.48C260.678 50.36 260.905 49.38 261.358 48.54C261.812 47.6867 262.432 47.0267 263.218 46.56C264.018 46.0933 264.905 45.86 265.878 45.86C266.838 45.86 267.672 46.0667 268.378 46.48C269.085 46.8933 269.612 47.4133 269.958 48.04V46.04H271.798V57H269.958V54.96C269.598 55.6 269.058 56.1333 268.338 56.56C267.632 56.9733 266.805 57.18 265.858 57.18C264.885 57.18 264.005 56.94 263.218 56.46C262.432 55.98 261.812 55.3067 261.358 54.44C260.905 53.5733 260.678 52.5867 260.678 51.48ZM269.958 51.5C269.958 50.6733 269.792 49.9533 269.458 49.34C269.125 48.7267 268.672 48.26 268.098 47.94C267.538 47.6067 266.918 47.44 266.238 47.44C265.558 47.44 264.938 47.6 264.378 47.92C263.818 48.24 263.372 48.7067 263.038 49.32C262.705 49.9333 262.538 50.6533 262.538 51.48C262.538 52.32 262.705 53.0533 263.038 53.68C263.372 54.2933 263.818 54.7667 264.378 55.1C264.938 55.42 265.558 55.58 266.238 55.58C266.918 55.58 267.538 55.42 268.098 55.1C268.672 54.7667 269.125 54.2933 269.458 53.68C269.792 53.0533 269.958 52.3267 269.958 51.5ZM290.054 45.84C290.907 45.84 291.667 46.02 292.334 46.38C293.001 46.7267 293.527 47.2533 293.914 47.96C294.301 48.6667 294.494 49.5267 294.494 50.54V57H292.694V50.8C292.694 49.7067 292.421 48.8733 291.874 48.3C291.341 47.7133 290.614 47.42 289.694 47.42C288.747 47.42 287.994 47.7267 287.434 48.34C286.874 48.94 286.594 49.8133 286.594 50.96V57H284.794V50.8C284.794 49.7067 284.521 48.8733 283.974 48.3C283.441 47.7133 282.714 47.42 281.794 47.42C280.847 47.42 280.094 47.7267 279.534 48.34C278.974 48.94 278.694 49.8133 278.694 50.96V57H276.874V46.04H278.694V47.62C279.054 47.0467 279.534 46.6067 280.134 46.3C280.747 45.9933 281.421 45.84 282.154 45.84C283.074 45.84 283.887 46.0467 284.594 46.46C285.301 46.8733 285.827 47.48 286.174 48.28C286.481 47.5067 286.987 46.9067 287.694 46.48C288.401 46.0533 289.187 45.84 290.054 45.84Z" fill="#96FFBA"/>
<path d="M289.691 117.18C288.851 117.18 288.098 117.04 287.431 116.76C286.765 116.467 286.238 116.067 285.851 115.56C285.465 115.04 285.251 114.447 285.211 113.78H287.091C287.145 114.327 287.398 114.773 287.851 115.12C288.318 115.467 288.925 115.64 289.671 115.64C290.365 115.64 290.911 115.487 291.311 115.18C291.711 114.873 291.911 114.487 291.911 114.02C291.911 113.54 291.698 113.187 291.271 112.96C290.845 112.72 290.185 112.487 289.291 112.26C288.478 112.047 287.811 111.833 287.291 111.62C286.785 111.393 286.345 111.067 285.971 110.64C285.611 110.2 285.431 109.627 285.431 108.92C285.431 108.36 285.598 107.847 285.931 107.38C286.265 106.913 286.738 106.547 287.351 106.28C287.965 106 288.665 105.86 289.451 105.86C290.665 105.86 291.645 106.167 292.391 106.78C293.138 107.393 293.538 108.233 293.591 109.3H291.771C291.731 108.727 291.498 108.267 291.071 107.92C290.658 107.573 290.098 107.4 289.391 107.4C288.738 107.4 288.218 107.54 287.831 107.82C287.445 108.1 287.251 108.467 287.251 108.92C287.251 109.28 287.365 109.58 287.591 109.82C287.831 110.047 288.125 110.233 288.471 110.38C288.831 110.513 289.325 110.667 289.951 110.84C290.738 111.053 291.378 111.267 291.871 111.48C292.365 111.68 292.785 111.987 293.131 112.4C293.491 112.813 293.678 113.353 293.691 114.02C293.691 114.62 293.525 115.16 293.191 115.64C292.858 116.12 292.385 116.5 291.771 116.78C291.171 117.047 290.478 117.18 289.691 117.18ZM300.481 107.54V114C300.481 114.533 300.594 114.913 300.821 115.14C301.047 115.353 301.441 115.46 302.001 115.46H303.341V117H301.701C300.687 117 299.927 116.767 299.421 116.3C298.914 115.833 298.661 115.067 298.661 114V107.54H297.241V106.04H298.661V103.28H300.481V106.04H303.341V107.54H300.481ZM306.866 111.48C306.866 110.36 307.092 109.38 307.546 108.54C307.999 107.687 308.619 107.027 309.406 106.56C310.206 106.093 311.099 105.86 312.086 105.86C312.939 105.86 313.732 106.06 314.466 106.46C315.199 106.847 315.759 107.36 316.146 108V102.2H317.986V117H316.146V114.94C315.786 115.593 315.252 116.133 314.546 116.56C313.839 116.973 313.012 117.18 312.066 117.18C311.092 117.18 310.206 116.94 309.406 116.46C308.619 115.98 307.999 115.307 307.546 114.44C307.092 113.573 306.866 112.587 306.866 111.48ZM316.146 111.5C316.146 110.673 315.979 109.953 315.646 109.34C315.312 108.727 314.859 108.26 314.286 107.94C313.726 107.607 313.106 107.44 312.426 107.44C311.746 107.44 311.126 107.6 310.566 107.92C310.006 108.24 309.559 108.707 309.226 109.32C308.892 109.933 308.726 110.653 308.726 111.48C308.726 112.32 308.892 113.053 309.226 113.68C309.559 114.293 310.006 114.767 310.566 115.1C311.126 115.42 311.746 115.58 312.426 115.58C313.106 115.58 313.726 115.42 314.286 115.1C314.859 114.767 315.312 114.293 315.646 113.68C315.979 113.053 316.146 112.327 316.146 111.5Z" fill="#00A962"/>
<path d="M107.479 168.06C107.839 167.433 108.372 166.913 109.079 166.5C109.799 166.073 110.632 165.86 111.579 165.86C112.552 165.86 113.432 166.093 114.219 166.56C115.019 167.027 115.646 167.687 116.099 168.54C116.552 169.38 116.779 170.36 116.779 171.48C116.779 172.587 116.552 173.573 116.099 174.44C115.646 175.307 115.019 175.98 114.219 176.46C113.432 176.94 112.552 177.18 111.579 177.18C110.646 177.18 109.819 176.973 109.099 176.56C108.392 176.133 107.852 175.607 107.479 174.98V182.2H105.659V166.04H107.479V168.06ZM114.919 171.48C114.919 170.653 114.752 169.933 114.419 169.32C114.086 168.707 113.632 168.24 113.059 167.92C112.499 167.6 111.879 167.44 111.199 167.44C110.532 167.44 109.912 167.607 109.339 167.94C108.779 168.26 108.326 168.733 107.979 169.36C107.646 169.973 107.479 170.687 107.479 171.5C107.479 172.327 107.646 173.053 107.979 173.68C108.326 174.293 108.779 174.767 109.339 175.1C109.912 175.42 110.532 175.58 111.199 175.58C111.879 175.58 112.499 175.42 113.059 175.1C113.632 174.767 114.086 174.293 114.419 173.68C114.752 173.053 114.919 172.32 114.919 171.48ZM125.955 177.18C124.928 177.18 123.995 176.947 123.155 176.48C122.328 176.013 121.675 175.353 121.195 174.5C120.728 173.633 120.495 172.633 120.495 171.5C120.495 170.38 120.735 169.393 121.215 168.54C121.708 167.673 122.375 167.013 123.215 166.56C124.055 166.093 124.995 165.86 126.035 165.86C127.075 165.86 128.015 166.093 128.855 166.56C129.695 167.013 130.355 167.667 130.835 168.52C131.328 169.373 131.575 170.367 131.575 171.5C131.575 172.633 131.321 173.633 130.815 174.5C130.321 175.353 129.648 176.013 128.795 176.48C127.941 176.947 126.995 177.18 125.955 177.18ZM125.955 175.58C126.608 175.58 127.221 175.427 127.795 175.12C128.368 174.813 128.828 174.353 129.175 173.74C129.535 173.127 129.715 172.38 129.715 171.5C129.715 170.62 129.541 169.873 129.195 169.26C128.848 168.647 128.395 168.193 127.835 167.9C127.275 167.593 126.668 167.44 126.015 167.44C125.348 167.44 124.735 167.593 124.175 167.9C123.628 168.193 123.188 168.647 122.855 169.26C122.521 169.873 122.355 170.62 122.355 171.5C122.355 172.393 122.515 173.147 122.835 173.76C123.168 174.373 123.608 174.833 124.155 175.14C124.701 175.433 125.301 175.58 125.955 175.58ZM150.568 166.04L147.148 177H145.268L142.628 168.3L139.988 177H138.108L134.668 166.04H136.528L139.048 175.24L141.768 166.04H143.628L146.288 175.26L148.768 166.04H150.568ZM164.374 171.1C164.374 171.447 164.354 171.813 164.314 172.2H155.554C155.621 173.28 155.987 174.127 156.654 174.74C157.334 175.34 158.154 175.64 159.114 175.64C159.901 175.64 160.554 175.46 161.074 175.1C161.607 174.727 161.981 174.233 162.194 173.62H164.154C163.861 174.673 163.274 175.533 162.394 176.2C161.514 176.853 160.421 177.18 159.114 177.18C158.074 177.18 157.141 176.947 156.314 176.48C155.501 176.013 154.861 175.353 154.394 174.5C153.927 173.633 153.694 172.633 153.694 171.5C153.694 170.367 153.921 169.373 154.374 168.52C154.827 167.667 155.461 167.013 156.274 166.56C157.101 166.093 158.047 165.86 159.114 165.86C160.154 165.86 161.074 166.087 161.874 166.54C162.674 166.993 163.287 167.62 163.714 168.42C164.154 169.207 164.374 170.1 164.374 171.1ZM162.494 170.72C162.494 170.027 162.341 169.433 162.034 168.94C161.727 168.433 161.307 168.053 160.774 167.8C160.254 167.533 159.674 167.4 159.034 167.4C158.114 167.4 157.327 167.693 156.674 168.28C156.034 168.867 155.667 169.68 155.574 170.72H162.494ZM170.596 167.82C170.916 167.193 171.37 166.707 171.956 166.36C172.556 166.013 173.283 165.84 174.136 165.84V167.72H173.656C171.616 167.72 170.596 168.827 170.596 171.04V177H168.776V166.04H170.596V167.82Z" fill="#4FBAFF"/>
<path d="M233.371 177L230.771 172.92L228.271 177H226.371L229.911 171.56L226.371 166.04H228.431L231.031 170.1L233.511 166.04H235.411L231.891 171.46L235.431 177H233.371ZM300.29 166.04L293.69 182.16H291.81L293.97 176.88L289.55 166.04H291.57L295.01 174.92L298.41 166.04H300.29ZM307.861 226.04L301.261 242.16H299.381L301.541 236.88L297.121 226.04H299.141L302.581 234.92L305.981 226.04H307.861ZM241.86 267L239.26 262.92L236.76 267H234.86L238.4 261.56L234.86 256.04H236.92L239.52 260.1L242 256.04H243.9L240.38 261.46L243.92 267H241.86Z" fill="white"/>
<path d="M232.637 194.2V192.54H236.397V207H234.557V194.2H232.637ZM223.496 224.2V222.54H227.256V237H225.416V224.2H223.496Z" fill="#FFB445"/>
<path d="M0 15C0 6.71574 6.71573 0 15 0H554C562.284 0 569 6.71573 569 15V385C569 393.284 562.284 400 554 400H15C6.71574 400 0 393.284 0 385V15Z" fill="url(#paint0_linear_509:5)"/>
<defs>
<linearGradient id="paint0_linear_509:5" x1="0" y1="0" x2="524.436" y2="-51.7362" gradientUnits="userSpaceOnUse">
<stop stop-color="#1B1C26" stop-opacity="0.1"/>
<stop offset="0.53125" stop-color="#1B1C26" stop-opacity="0.35"/>
<stop offset="1" stop-color="#1B1C26"/>
</linearGradient>
</defs>
</svg>
