<svg width="76" height="76" viewBox="0 0 76 76" fill="none" xmlns="http://www.w3.org/2000/svg">
<path d="M0 26C0 14.9543 8.95431 6 20 6H68C69.1046 6 70 6.89543 70 8V56C70 67.0457 61.0457 76 50 76H20C8.9543 76 0 67.0457 0 56V26Z" fill="#262837"/>
<path d="M46.0203 48.6691C46.6798 48.9989 47.6691 49.2411 48.3287 49.6147C48.9882 49.9882 50.3073 50.9776 50.6371 51.3073C50.9669 51.6371 50.9669 51.6371 50.9669 51.9669C50.9669 52.2967 50.3073 52.9562 50.3073 52.9562L47.3394 55.5944L45.3607 56.9135C45.3607 56.9135 44.4158 57.552 44.384 57.552L44.4422 57.8738C44.7758 59.8367 44.1299 61.0925 43.5317 61.7942C42.6211 62.8653 41.1282 63.4774 39.4288 63.4774C37.8035 63.4774 36.1994 62.9128 35.1459 61.9736C34.8812 61.7415 34.6588 61.4882 34.4682 61.2244C34.2829 61.4829 34.0553 61.7362 33.7906 61.9736C32.7318 62.9128 31.133 63.4774 29.5077 63.4774C27.8083 63.4774 26.3154 62.8653 25.4048 61.7942C24.8489 61.1452 24.2613 59.6045 24.4307 57.895C24.4466 57.7525 19.629 55.2409 18.1149 54.2859C16.1455 53.0459 17.2202 51.5633 18.0408 50.9565C19.6607 49.7587 25.2407 47.073 25.2407 47.073V44.9466L25.2354 44.7936C23.7319 43.2635 23.1707 41.3376 22.7207 39.7863C22.4984 39.0371 22.2972 38.33 22.0325 37.8657L21.8948 37.4647C21.6301 35.5705 20.9843 33.8767 20.296 32.088L20.2708 32.0222C19.9344 31.1454 19.5845 30.2336 19.2902 29.2968L19.2637 29.2124C18.856 27.4078 19.0572 25.6086 19.8672 23.8515L19.9784 23.6616C20.026 23.593 20.0684 23.5297 20.116 23.4664L20.1168 23.4652C20.7679 22.5526 21.5729 21.4241 24.0442 20.6118L24.3195 20.5591C25.4366 20.4799 26.7124 19.9048 27.9459 19.3455C29.0948 18.8231 30.18 18.3324 31.2441 18.1794C32.0912 18.058 32.9435 18 33.8647 18C36.03 18 38.1317 18.3324 40.0746 18.6912L40.154 18.707C40.3817 18.7651 40.6517 18.8231 40.964 18.8864C41.7211 19.0447 42.6634 19.2452 43.7117 19.6199C47.2004 20.844 49.8686 23.3292 51.8645 27.2232L51.9863 27.6611C52.1769 30.6528 50.3504 33.1961 48.5822 35.6549C47.5551 37.0795 46.5016 38.5516 45.7869 40.1346C45.7075 40.5092 45.6281 40.8838 45.554 41.2531C44.9716 44.0919 44.6011 45.7012 43.6269 46.3291V48.2813C43.7646 48.2338 43.8916 48.2022 44.0028 48.1916C44.1299 48.1652 44.2622 48.1547 44.3946 48.1547C44.4793 48.1547 45.3607 48.3394 46.0203 48.6691Z" fill="white"/>
<path d="M45.88 50.0726C47.0446 50.4525 48.0029 50.9906 48.7493 51.6871C48.9135 51.8032 48.9929 51.9351 48.9929 52.0881C48.9929 52.3361 48.8076 52.5736 48.4317 52.8057C47.9923 53.0801 47.3358 53.5655 46.4676 54.262C45.6629 54.9005 45.0117 55.3648 44.5194 55.6603C44.4241 55.7078 44.3288 55.7341 44.2335 55.7341C44.0906 55.7341 43.9635 55.6814 43.8629 55.5864C43.757 55.4862 43.7041 55.3701 43.7041 55.2382C43.7041 55.1221 43.7465 55.0218 43.8312 54.9216C43.9476 54.7316 44.2123 54.5206 44.6359 54.2937C44.9111 54.1512 45.2553 53.9191 45.6682 53.5919C46.1658 53.1909 46.5099 52.9271 46.7005 52.8057C47.1188 52.5947 47.3305 52.4469 47.3305 52.3625C47.3305 52.3414 47.3252 52.3256 47.3146 52.3045C47.087 51.9035 46.7058 51.6027 46.1817 51.4022C45.7158 51.2703 45.2394 51.1331 44.7629 50.9854C44.2017 50.8165 43.7835 50.5738 43.5135 50.2572C43.4923 50.2308 43.487 50.1939 43.487 50.157C43.487 50.0409 43.5559 49.9143 43.6882 49.7771C43.8206 49.6399 43.9529 49.5713 44.0747 49.5713C44.1488 49.5502 44.2282 49.5449 44.3023 49.5449C44.5247 49.5449 44.7947 49.6135 45.1176 49.7454C45.3664 49.8509 45.6205 49.9565 45.88 50.0726ZM23.5126 49.603C23.7296 49.603 23.9096 49.661 24.0526 49.7771C24.1902 49.8932 24.259 50.0251 24.259 50.1781C24.259 50.2942 24.2167 50.3944 24.132 50.4788C23.8143 50.8218 23.1684 51.1912 22.1838 51.5816C21.2732 51.9457 20.6644 52.3625 20.3467 52.8374C20.8814 53.1593 21.5855 53.5128 22.4538 53.8927C23.8408 54.51 24.5555 54.8319 24.6031 54.853C24.7831 54.9374 24.8731 55.0746 24.8731 55.2698C24.8943 55.5073 24.799 55.7078 24.5926 55.8766C24.3861 56.0455 24.1478 56.1246 23.8831 56.1246C23.7773 56.1246 23.6767 56.1035 23.5814 56.0666C23.4649 55.9505 23.3114 55.8186 23.1102 55.6656C21.8502 54.9796 20.5002 54.3253 19.0656 53.708C18.9226 53.65 18.7797 53.5972 18.6367 53.5497C18.4567 53.4653 18.3509 53.3387 18.3191 53.1804C18.3191 52.7688 18.4991 52.3889 18.8644 52.0354C19.3038 51.6819 20.0291 51.2809 21.0455 50.8218C22.0302 50.3839 22.7396 49.9776 23.1843 49.6082C23.1843 49.603 23.2902 49.603 23.5126 49.603Z" fill="#5B4538"/>
<path d="M32.5072 49.5818C32.269 49.2389 32.0466 48.9962 31.8455 48.8537C31.6443 48.7112 31.4114 48.6426 31.1414 48.6426C31.0461 48.6426 30.9614 48.6585 30.8925 48.6849L29.3043 49.2336C29.2143 49.2653 29.1084 49.2758 28.992 49.2758C28.7802 49.2758 28.6108 49.2283 28.4837 49.1281C28.3514 49.0331 28.1926 48.8379 28.0073 48.5477L27.5679 48.8379C27.8432 49.2336 28.0814 49.4974 28.272 49.6241C28.4679 49.756 28.7114 49.8193 29.0131 49.8193C29.1455 49.8193 29.2779 49.7982 29.4049 49.7612L30.8608 49.2336C30.9561 49.1967 31.0619 49.1756 31.1731 49.1756C31.3584 49.1756 31.5119 49.2125 31.6231 49.2916C31.7343 49.3655 31.8931 49.5396 32.0943 49.814L32.5072 49.5818Z" fill="#5B4538"/>
<path fill-rule="evenodd" clip-rule="evenodd" d="M43.2383 58.3249C44.0377 63.0842 38.1984 63.5432 35.8002 61.4063C34.1431 59.9289 34.609 57.8764 36.986 58.003C39.0772 58.1138 40.3107 60.8048 43.2383 58.3249Z" fill="#5B4538"/>
<path fill-rule="evenodd" clip-rule="evenodd" d="M25.5033 58.3249C24.7039 63.0842 30.5432 63.5432 32.9414 61.4063C34.5985 59.9289 34.1326 57.8764 31.7556 58.003C29.6644 58.1138 28.4309 60.8048 25.5033 58.3249Z" fill="#5B4538"/>
<path d="M31.2367 51.418C30.972 51.2334 30.6438 51.1384 30.252 51.1384C29.7809 51.1384 29.3997 51.2809 29.1032 51.5605C28.7591 51.8718 28.6268 52.315 28.7062 52.8954C28.7538 53.365 28.9232 53.7766 29.2091 54.1354C29.5003 54.4942 29.8497 54.6736 30.252 54.6736C30.5009 54.6736 30.7603 54.605 31.025 54.4625C31.4961 54.1829 31.7291 53.6447 31.7291 52.848C31.7291 52.1304 31.565 51.6555 31.2367 51.418ZM30.2309 53.3123C29.9556 53.3123 29.7279 53.0907 29.7279 52.811C29.7279 52.5366 29.9503 52.3098 30.2309 52.3098C30.5062 52.3098 30.7338 52.5314 30.7338 52.811C30.7338 53.0907 30.5062 53.3123 30.2309 53.3123Z" fill="#5B4538"/>
<path d="M34.7307 57.5967C34.879 57.5967 35.0219 57.5703 35.1543 57.5176C35.2866 57.4648 35.4084 57.4015 35.5196 57.3171C35.6307 57.2326 35.7313 57.1377 35.8213 57.0374C35.9113 56.9319 35.9907 56.8316 36.0543 56.7208C36.1231 56.6153 36.176 56.5151 36.2184 56.4148C36.2607 56.3198 36.2925 56.2407 36.3084 56.1721C36.3031 56.1615 36.2978 56.1457 36.2872 56.1246C36.2766 56.1088 36.266 56.0929 36.2607 56.0771C36.2501 56.0666 36.2395 56.0613 36.2343 56.0613C36.1072 56.2934 35.9696 56.4834 35.8107 56.6311C35.6519 56.7789 35.4772 56.8844 35.2919 56.953C35.1013 57.0216 34.8949 57.0532 34.6778 57.0532C34.4872 57.0532 34.3178 57.0269 34.1696 56.9794C34.016 56.9319 33.8837 56.858 33.7619 56.7683C33.6402 56.6733 33.5343 56.5625 33.4337 56.4359C33.3384 56.3093 33.2484 56.1615 33.169 56.0032C33.1637 56.0032 33.1584 56.0085 33.1478 56.0191C33.1372 56.0296 33.1266 56.0455 33.1214 56.0613C33.1108 56.0771 33.1108 56.0877 33.1055 56.0982C33.1796 56.304 33.2696 56.4939 33.3808 56.6786C33.4866 56.858 33.6084 57.0163 33.746 57.1535C33.8837 57.2907 34.0319 57.4015 34.2013 57.4806C34.3602 57.5492 34.5402 57.5914 34.7307 57.5967Z" fill="#5B4538"/>
<path d="M39.3842 51.3864C39.1195 51.2017 38.7913 51.1067 38.3995 51.1067C37.9283 51.1067 37.5472 51.2492 37.2507 51.5288C36.9066 51.8401 36.7742 52.2886 36.8536 52.8638C36.9013 53.3334 37.0707 53.7449 37.3566 54.1037C37.6477 54.4625 37.9972 54.6419 38.3995 54.6419C38.6483 54.6419 38.9077 54.5733 39.1724 54.4309C39.6436 54.1512 39.8765 53.613 39.8765 52.8163C39.8818 52.0934 39.7177 51.6185 39.3842 51.3864ZM38.2301 53.3703C37.9548 53.3703 37.7272 53.1434 37.7272 52.869C37.7272 52.5947 37.9495 52.3678 38.2301 52.3678C38.5054 52.3678 38.733 52.5894 38.733 52.869C38.733 53.1487 38.5054 53.3703 38.2301 53.3703Z" fill="#5B4538"/>
<path d="M42.836 45.709C43.6512 45.3554 44.0695 42.6117 44.6201 40.0579C46.6053 35.536 51.0365 32.2066 50.7717 28.0013C47.1347 20.9045 42.0418 20.6513 39.8607 20.0867C37.0337 19.5643 34.2119 19.1792 31.3902 19.5854C29.3838 19.8809 26.7844 21.8068 24.3809 21.9704C22.0885 22.7249 21.5168 23.7274 20.8762 24.6086C20.1615 26.1599 19.9974 27.7058 20.3468 29.2571C21.2256 32.0431 22.5756 34.5757 22.9938 37.6097C23.9203 39.2401 23.9838 42.3215 26.1014 44.3899C32.5814 41.3137 37.8754 43.6986 42.836 45.709Z" fill="url(#paint0_linear_241:2)"/>
<path d="M42.7566 45.7406L42.1477 45.4926C37.2825 43.514 32.2479 41.4614 26.0432 44.411L26.0062 44.4268L25.9797 44.4004C24.5979 43.0496 24.0897 41.3032 23.645 39.7572C23.4068 38.9446 23.1844 38.1795 22.8615 37.6044L22.8562 37.5833C22.5756 35.5677 21.8768 33.7368 21.1992 31.9692C20.8603 31.0827 20.5056 30.1647 20.2145 29.236C19.8598 27.6636 20.0398 26.086 20.7439 24.5505C20.7968 24.4767 20.8445 24.4081 20.8921 24.3395C21.4797 23.5164 22.1415 22.5824 24.2803 21.8807C25.6038 21.7857 26.9697 21.1684 28.2879 20.5721C29.3679 20.0814 30.3896 19.6224 31.3002 19.4905C33.9843 19.1053 36.6313 19.4113 39.7813 19.9917C40.0354 20.055 40.316 20.1184 40.6389 20.187C43.0371 20.6935 47.5 21.6274 50.7294 27.938L50.7347 27.9591C50.8988 30.5762 49.263 32.8556 47.5265 35.2669C46.4518 36.7654 45.3348 38.3167 44.5777 40.0421C44.493 40.4431 44.4083 40.8599 44.3236 41.2715C43.8683 43.4929 43.4766 45.4135 42.7619 45.7248L42.7566 45.7406ZM32.359 42.8228C35.8849 42.8228 39.0719 44.1208 42.1954 45.3924L42.7566 45.6193C43.4024 45.3027 43.8048 43.3346 44.2336 41.2557C44.3183 40.8441 44.403 40.4273 44.493 40.0157C45.2607 38.2692 46.3777 36.7127 47.4577 35.2089C49.1783 32.8134 50.8035 30.5551 50.6447 27.9802C47.4312 21.7329 43.1748 20.8412 40.6284 20.303C40.3001 20.2344 40.0195 20.1764 39.7654 20.1078C36.6313 19.5327 33.9896 19.2267 31.3214 19.6118C30.4267 19.7437 29.4155 20.2028 28.3408 20.6829C27.012 21.2845 25.6409 21.9018 24.3068 21.9968C22.2156 22.688 21.5644 23.6008 20.9874 24.4134C20.9397 24.482 20.8921 24.5453 20.8445 24.6139C20.1509 26.1176 19.9762 27.6742 20.3256 29.2149C20.6168 30.1383 20.9662 31.0511 21.3103 31.9375C21.988 33.7051 22.6921 35.536 22.9727 37.5622C23.3009 38.1426 23.5232 38.9129 23.7615 39.7255C24.2009 41.2451 24.7038 42.9652 26.0432 44.2949C28.2826 43.2343 30.3738 42.8228 32.359 42.8228Z" fill="#C8BCA8"/>
<path fill-rule="evenodd" clip-rule="evenodd" d="M26.2869 46.1838C28.6216 44.9492 34.4662 41.8941 42.2909 47.2497C42.5132 45.9939 42.5344 44.7381 42.3597 43.4823C42.1373 40.5117 30.4586 36.8762 26.2234 43.419L26.2869 46.1838Z" fill="url(#paint1_linear_241:2)"/>
<path d="M42.312 47.2919L42.2802 47.2708C38.9291 44.9755 35.5515 43.9677 32.2321 44.2685C29.4898 44.5165 27.4145 45.614 26.2974 46.2049L26.2657 46.2208V46.1838L26.2021 43.4137L26.2074 43.4084C27.351 41.6461 29.0821 40.4959 31.3639 39.9999C33.2327 39.5883 35.4138 39.6569 37.505 40.1898C40.2896 40.8969 42.2961 42.2529 42.3861 43.4823C42.5608 44.7328 42.5396 46.0044 42.3173 47.255L42.312 47.2919ZM33.3809 44.1682C36.3244 44.1682 39.3102 45.1866 42.2749 47.2127C42.4867 45.9781 42.5079 44.7223 42.3331 43.4876C42.2431 42.2951 40.2049 40.9233 37.4838 40.232C35.4032 39.7044 33.2274 39.6358 31.3639 40.0421C29.098 40.5381 27.3721 41.6778 26.2392 43.4243L26.3027 46.1416C27.4304 45.5454 29.4951 44.4637 32.2215 44.2157C32.6133 44.1841 32.9997 44.1682 33.3809 44.1682Z" fill="#C8BCA8"/>
<path fill-rule="evenodd" clip-rule="evenodd" d="M22.9993 24.139C22.6393 25.9488 24.2487 31.6631 23.7087 34.6601C23.4334 33.0878 22.4275 29.9694 22.4699 28.2124C21.9828 27.1571 21.4957 25.8802 20.961 25.3895C20.4793 24.9515 22.0675 22.3397 22.9993 24.139Z" fill="url(#paint2_linear_241:2)"/>
<path d="M26.668 42.5326C26.6627 42.5273 26.6627 42.5273 26.6627 42.522C24.5451 40.0526 23.6716 35.7999 22.9357 32.2172C22.3534 29.3732 21.8557 26.946 20.8922 26.181L20.8869 26.1757C20.7652 26.0174 20.6963 25.8327 20.6699 25.6375C20.6222 25.2998 20.7069 24.9304 20.8816 24.5875C21.051 24.2445 21.3104 23.9385 21.6175 23.7274C21.8293 23.5797 22.0675 23.4847 22.311 23.453L22.3163 23.5005C22.0781 23.5269 21.8504 23.6272 21.644 23.7644C21.4163 24.0757 21.2469 24.2762 21.0775 24.6086C20.6063 25.5478 21.5857 25.5003 21.9722 26.0121C22.9463 26.793 23.0257 29.3521 23.6134 32.2066C24.3492 35.784 24.5875 40.0315 26.6945 42.4903C26.6998 42.4956 26.6998 42.4956 26.6998 42.5009L26.668 42.5326Z" fill="#A99675"/>
<path fill-rule="evenodd" clip-rule="evenodd" d="M26.5885 23.4003C26.2285 25.2101 27.1497 29.3626 26.615 32.3649C26.3397 30.7925 25.3339 27.6742 25.3762 25.9171C24.8891 24.8619 24.3068 23.6588 23.9627 23.0362C23.6503 22.4769 25.2597 21.7224 26.5885 23.4003Z" fill="url(#paint3_linear_241:2)"/>
<path d="M25.8845 22.7671C25.4239 22.4558 25.2386 22.4716 24.8415 22.5244C24.6774 22.5455 24.5398 22.5983 24.4339 22.6721C24.328 22.746 24.2592 22.8515 24.238 22.9782C24.2168 23.1681 24.0898 23.1998 24.2645 23.548C25.4398 25.1362 26.3345 27.7692 26.5833 30.5709C26.8956 34.122 26.4827 38.0582 28.8438 40.8441L28.8068 40.8758C26.435 38.074 26.0856 34.1325 25.7733 30.5762C25.5245 27.7797 25.2968 25.2207 24.1321 23.643C23.8886 23.3159 23.8145 23.0468 23.8515 22.8357C23.878 22.6933 23.9521 22.5824 24.0686 22.498C24.1798 22.4136 24.328 22.3608 24.5027 22.3397C24.9104 22.287 25.4451 22.4083 25.9162 22.7302L25.8845 22.7671Z" fill="#A99675"/>
<path d="M32.3644 20.2239C33.455 22.039 31.4486 30.2069 31.0939 35.3408C31.0621 35.7735 27.2186 18.3982 32.3644 20.2239Z" fill="url(#paint4_linear_241:2)"/>
<path d="M31.9039 39.8732C30.6598 36.6441 29.3257 31.0405 29.1192 26.6189C29.0398 24.8777 29.1298 23.3159 29.4739 22.1551C29.818 20.989 30.4162 20.2292 31.3427 20.092C31.6445 20.0445 31.9833 20.0709 32.3592 20.1658L32.3433 20.2133C31.9727 20.1184 31.6286 20.1975 31.3321 20.245C30.5592 20.4191 30.6492 20.9045 30.141 21.9968C29.8021 23.1523 29.6115 24.5822 29.7651 26.3234C30.4268 30.6342 31.2368 36.5122 31.9409 39.8574L31.9039 39.8732Z" fill="#B5A584"/>
<path d="M35.5251 39.5936C35.4774 39.2454 35.4298 38.8866 35.3768 38.5225C34.5668 32.7079 33.5768 25.5953 37.0498 20.4824L37.0921 20.5088C35.668 24.292 35.4774 31.4943 35.308 33.8212C35.2339 34.8237 35.3504 36.9765 35.4298 38.5119C35.4774 38.8707 35.5304 39.2295 35.578 39.583L35.5251 39.5936Z" fill="#CABB9C"/>
<path d="M39.2944 40.3428C39.4161 37.33 39.7391 33.8054 40.0303 30.7503C40.7608 26.8986 42.7249 25.0782 43.2385 21.1842L43.249 21.1367C41.3749 24.1812 40.332 27.4737 39.7867 30.7609C39.2467 34.0481 39.2044 37.33 39.3473 40.3428H39.2944Z" fill="url(#paint5_linear_241:2)"/>
<path d="M48.379 25.7588C46.8173 30.592 44.9432 35.3144 43.0532 40.0949C43.1062 33.7684 46.5102 26.1493 48.379 25.7588Z" fill="url(#paint6_linear_241:2)"/>
<path d="M42.1584 42.2265C42.9843 41.3665 43.0426 40.0474 43.1167 38.5172C43.1802 37.1031 43.2543 35.5097 43.9478 33.932C43.9637 33.874 43.9955 33.7737 44.0325 33.6365C44.4931 32.0378 46.3355 25.6111 48.4848 25.7272L48.4796 25.7747C46.7907 25.7114 44.6467 32.0694 44.1384 33.6576C44.1014 33.7895 44.0908 33.874 44.0696 33.9373V33.9426C43.4661 35.5097 43.429 37.1084 43.2278 38.5172C43.159 40.0526 43.0267 41.3823 42.1902 42.2529L42.1584 42.2265Z" fill="#A99675"/>
<path d="M59 7H69V17" stroke="#8186B1" stroke-width="2" stroke-linecap="square" stroke-linejoin="round"/>
<defs>
<linearGradient id="paint0_linear_241:2" x1="20.1697" y1="32.5615" x2="50.7818" y2="32.5615" gradientUnits="userSpaceOnUse">
<stop offset="0.0397" stop-color="#F9F9EC"/>
<stop offset="0.4183" stop-color="#F9F9EC"/>
<stop offset="0.4932" stop-color="#F3F1E2"/>
<stop offset="0.6217" stop-color="#E4DDC6"/>
<stop offset="0.7873" stop-color="#CCBC9A"/>
<stop offset="0.7969" stop-color="#CABA97"/>
<stop offset="1" stop-color="#BAA685"/>
</linearGradient>
<linearGradient id="paint1_linear_241:2" x1="26.2229" y1="43.5043" x2="42.478" y2="43.5043" gradientUnits="userSpaceOnUse">
<stop stop-color="#F9F9EC"/>
<stop offset="0.0526" stop-color="#F9F9EC"/>
<stop offset="0.3844" stop-color="#F9F9EC"/>
<stop offset="0.5145" stop-color="#F5F4E5"/>
<stop offset="0.7094" stop-color="#EAE5D0"/>
<stop offset="0.9441" stop-color="#D9CCAF"/>
<stop offset="0.9987" stop-color="#D4C6A6"/>
</linearGradient>
<linearGradient id="paint2_linear_241:2" x1="20.8721" y1="29.0902" x2="23.821" y2="29.0902" gradientUnits="userSpaceOnUse">
<stop stop-color="#E8DBCA"/>
<stop offset="1" stop-color="#F2ECDE"/>
</linearGradient>
<linearGradient id="paint3_linear_241:2" x1="25.2343" y1="25.8977" x2="26.8458" y2="28.2572" gradientUnits="userSpaceOnUse">
<stop stop-color="#ECE1D1"/>
<stop offset="0.4318" stop-color="#EEE6D9"/>
<stop offset="1" stop-color="#EFE9DE"/>
</linearGradient>
<linearGradient id="paint4_linear_241:2" x1="29.6848" y1="27.7201" x2="32.6834" y2="27.7201" gradientUnits="userSpaceOnUse">
<stop stop-color="#ECE1D1"/>
<stop offset="1" stop-color="#EDE4D5"/>
</linearGradient>
<linearGradient id="paint5_linear_241:2" x1="41.2872" y1="27.5198" x2="41.2101" y2="31.4709" gradientUnits="userSpaceOnUse">
<stop stop-color="#BAA68A"/>
<stop offset="1" stop-color="#C7BAA0"/>
</linearGradient>
<linearGradient id="paint6_linear_241:2" x1="43.0544" y1="32.9269" x2="48.3784" y2="32.9269" gradientUnits="userSpaceOnUse">
<stop stop-color="#BDAE99"/>
<stop offset="0.2551" stop-color="#BFB19C"/>
<stop offset="1" stop-color="#C2B5A1"/>
</linearGradient>
</defs>
</svg>
