<svg width="250" height="28" viewBox="0 0 250 28" fill="none" xmlns="http://www.w3.org/2000/svg">
<path d="M19.182 0.0131226H13.3337C13.1093 0.0131226 12.9244 0.196698 12.9244 0.419612V9.92624H6.66684V0.419612C6.66684 0.196698 6.48202 0.0131226 6.25759 0.0131226H0.409252C0.184824 0.0131226 0 0.196698 0 0.419612V26.199C0 26.4219 0.184824 26.6055 0.409252 26.6055H6.24439C6.46882 26.6055 6.65364 26.4219 6.65364 26.199V15.8531H12.9112V26.199C12.9112 26.4219 13.0961 26.6055 13.3205 26.6055H19.182C19.4064 26.6055 19.5913 26.4219 19.5913 26.199V0.419612C19.5913 0.196698 19.4064 0.0131226 19.182 0.0131226Z" fill="white"/>
<path d="M33.3343 5.70395C31.6048 5.70395 29.915 5.9662 28.3308 6.47759C26.7598 6.98898 25.268 7.6315 23.8951 8.40515C23.697 8.51005 23.631 8.75918 23.7366 8.95587L25.8093 12.7454C25.9149 12.9421 26.1657 13.0208 26.3638 12.9159C27.4463 12.3783 28.4892 11.9324 29.4398 11.6177C30.3639 11.303 31.288 11.1457 32.1857 11.1457C33.4399 11.1457 34.3772 11.3686 34.9845 11.8144C35.4597 12.1685 35.7634 12.6143 35.9086 13.1912C33.7567 13.3355 31.8821 13.5715 30.3375 13.8993C28.6609 14.2665 27.2615 14.7516 26.179 15.3417C25.07 15.958 24.2515 16.7185 23.7366 17.6102C23.2218 18.5018 22.9709 19.5509 22.9709 20.7179C22.9709 21.6095 23.1426 22.4487 23.4594 23.2093C23.7894 23.9698 24.2515 24.6385 24.8456 25.2155C25.4397 25.7924 26.1657 26.2514 27.0239 26.5661C27.8688 26.8808 28.8193 27.0513 29.8754 27.0513C31.1956 27.0513 32.5025 26.7759 33.7435 26.2514C34.8128 25.7925 35.8162 25.2286 36.7403 24.573L37.0703 26.2514C37.1099 26.4481 37.2816 26.5792 37.4796 26.5792H42.2586C42.483 26.5792 42.6678 26.3956 42.6678 26.1727V14.9483C42.6678 11.8406 41.8229 9.49349 40.1463 7.95932C38.4697 6.46448 36.1858 5.70395 33.3343 5.70395ZM35.9878 20.1016C35.3673 20.5605 34.7204 20.9408 34.0339 21.2555C33.3211 21.5833 32.5554 21.7538 31.7369 21.7538C30.9712 21.7538 30.3639 21.6226 29.9414 21.3604C29.5718 21.1375 29.4002 20.7965 29.4002 20.3114C29.4002 19.9705 29.4926 19.6426 29.6774 19.3411C29.8622 19.0395 30.2055 18.7641 30.6807 18.5281C31.2088 18.2658 31.9349 18.0429 32.8458 17.8724C33.6907 17.7151 34.7336 17.584 35.9746 17.5053V20.1016H35.9878Z" fill="white"/>
<path d="M63.7772 19.8918C63.7112 19.8 63.6188 19.7345 63.4999 19.7083C63.3943 19.682 63.2755 19.7083 63.1831 19.7738C62.523 20.259 61.7573 20.6786 60.9124 21.0326C60.0939 21.3736 59.183 21.5571 58.2061 21.5571C56.6615 21.5571 55.4469 21.0982 54.4964 20.1803C53.5459 19.2493 53.0838 18.0167 53.0838 16.4039C53.0838 14.791 53.5591 13.5584 54.5492 12.6275C55.5261 11.7096 56.8199 11.2375 58.4041 11.2375C59.7639 11.2375 61.1632 11.7358 62.5362 12.7061C62.721 12.8373 62.9719 12.7979 63.1039 12.6143L65.8102 9.02149C65.9423 8.85103 65.9158 8.615 65.7574 8.47076C64.8729 7.684 63.764 7.01526 62.4702 6.49076C59.9091 5.46797 56.4899 5.45486 53.6119 6.42519C52.1861 6.89725 50.9188 7.59222 49.8362 8.49699C48.7537 9.40175 47.8692 10.5294 47.2223 11.8538C46.5754 13.1782 46.2454 14.7124 46.2454 16.4039C46.2454 18.0823 46.5358 19.6165 47.1167 20.9408C47.6975 22.2652 48.516 23.406 49.5458 24.3108C50.5755 25.2155 51.7901 25.9105 53.163 26.3826C54.5228 26.8546 56.0278 27.1038 57.6384 27.1038C59.0246 27.1038 60.4768 26.8677 61.9685 26.3957C63.4603 25.9236 64.8333 25.15 66.0743 24.1272C66.2327 23.9961 66.2723 23.7601 66.1535 23.5896L63.7772 19.8918Z" fill="white"/>
<path d="M82.563 14.6861L89.8239 6.871C89.9295 6.75299 89.9692 6.58252 89.9031 6.42517C89.8371 6.28093 89.6919 6.17603 89.5203 6.17603H83.1175C82.9987 6.17603 82.8931 6.22849 82.8139 6.30716L76.1339 13.4142V0.406491C76.1339 0.183577 75.949 0 75.7246 0H69.8763C69.6519 0 69.467 0.183577 69.467 0.406491V26.1859C69.467 26.4088 69.6519 26.5923 69.8763 26.5923H75.7246C75.949 26.5923 76.1339 26.4088 76.1339 26.1859V21.4915L78.5894 19.1182L83.4475 26.4088C83.5268 26.5268 83.6588 26.5923 83.7908 26.5923H90.1144C90.2728 26.5923 90.4048 26.5006 90.484 26.3694C90.55 26.2383 90.55 26.0678 90.4576 25.9498L82.563 14.6861Z" fill="white"/>
<path d="M108.716 8.52315C107.91 7.63149 106.881 6.93652 105.666 6.43825C104.452 5.93997 103.052 5.69083 101.494 5.69083C100.121 5.69083 98.7748 5.93997 97.5075 6.42513C96.2269 6.9103 95.0784 7.63149 94.0882 8.54937C93.0981 9.46726 92.2928 10.5949 91.6987 11.9062C91.1047 13.2175 90.801 14.7254 90.801 16.3776C90.801 18.0691 91.1047 19.5771 91.6987 20.8883C92.2928 22.1996 93.1113 23.3273 94.1278 24.2452C95.1444 25.163 96.3589 25.8711 97.7319 26.3432C99.0917 26.8152 100.583 27.0644 102.168 27.0644C103.527 27.0644 104.94 26.8546 106.339 26.435C107.752 26.0154 109.046 25.4384 110.181 24.7041C110.366 24.5861 110.419 24.3501 110.326 24.1665L108.425 20.7048C108.32 20.5081 108.069 20.4294 107.871 20.5343C107.026 20.967 106.194 21.2948 105.415 21.5177C104.65 21.7275 103.818 21.8324 102.96 21.8324C101.587 21.8324 100.412 21.5177 99.4481 20.8883C98.6164 20.3507 98.0619 19.5246 97.7451 18.3838H110.524C110.722 18.3838 110.881 18.2527 110.934 18.056C110.986 17.8069 111.039 17.4659 111.105 17.007C111.158 16.5612 111.184 16.0498 111.184 15.5122C111.184 14.1353 110.973 12.8241 110.564 11.6439C110.141 10.4638 109.521 9.40169 108.716 8.52315ZM97.6659 13.9649C97.9167 13.0077 98.3656 12.2734 99.0125 11.8013C99.7782 11.2375 100.636 10.949 101.613 10.949C102.828 10.949 103.712 11.2637 104.24 11.8669C104.702 12.4176 104.98 13.1126 105.046 13.9518H97.6659V13.9649Z" fill="white"/>
<path d="M133.495 6.53004C132.888 6.25468 132.294 6.04488 131.726 5.91375C131.159 5.76951 130.406 5.70395 129.495 5.70395C127.845 5.70395 126.274 6.11044 124.835 6.92342C123.647 7.59216 122.591 8.57561 121.68 9.83442L121.31 6.54315C121.284 6.33335 121.112 6.176 120.901 6.176H116.122C115.897 6.176 115.713 6.35958 115.713 6.58249V26.1858C115.713 26.4087 115.897 26.5923 116.122 26.5923H121.97C122.195 26.5923 122.379 26.4087 122.379 26.1858V16.076C123.185 14.4369 124.135 13.2699 125.218 12.6143C126.327 11.9455 127.462 11.6046 128.611 11.6046C129.324 11.6046 129.918 11.644 130.38 11.7357C130.855 11.8275 131.396 11.9587 131.99 12.1422C132.096 12.1816 132.215 12.1553 132.32 12.1029C132.413 12.0504 132.492 11.9587 132.518 11.8406L133.706 6.97587C133.772 6.80541 133.68 6.60872 133.495 6.53004Z" fill="white"/>
<path d="M152.07 16.0629C153.324 15.4335 154.367 14.5288 155.172 13.3617C156.07 12.0767 156.519 10.4245 156.519 8.44451C156.519 6.85789 156.242 5.50729 155.674 4.41895C155.106 3.3306 154.341 2.45206 153.364 1.79643C152.413 1.15391 151.291 0.681856 150.037 0.406491C148.809 0.144239 147.476 0 146.063 0H136.875C136.65 0 136.466 0.183577 136.466 0.406491V26.1859C136.466 26.4088 136.65 26.5923 136.875 26.5923H142.723C142.948 26.5923 143.132 26.4088 143.132 26.1859V17.3086H145.535L150.393 26.3825C150.459 26.5137 150.605 26.6055 150.763 26.6055H157.324C157.469 26.6055 157.602 26.5268 157.681 26.3957C157.76 26.2645 157.76 26.1072 157.681 25.9892L152.07 16.0629ZM145.601 11.8669H143.146V5.45484H145.601C147.08 5.45484 148.202 5.69087 148.915 6.1367C149.588 6.5563 149.918 7.31683 149.918 8.4314C149.918 10.7786 148.545 11.8669 145.601 11.8669Z" fill="white"/>
<path d="M169.259 5.70395C167.529 5.70395 165.839 5.9662 164.255 6.47759C162.684 6.98898 161.192 7.6315 159.819 8.40515C159.621 8.51005 159.555 8.75918 159.661 8.95587L161.734 12.7454C161.839 12.9421 162.09 13.0208 162.288 12.9159C163.371 12.3783 164.414 11.9324 165.364 11.6177C166.288 11.303 167.212 11.1457 168.11 11.1457C169.364 11.1457 170.302 11.3686 170.909 11.8144C171.384 12.1685 171.688 12.6143 171.833 13.1912C169.681 13.3355 167.806 13.5715 166.262 13.8993C164.585 14.2665 163.186 14.7516 162.103 15.3417C160.994 15.958 160.176 16.7185 159.661 17.6102C159.146 18.5018 158.895 19.5509 158.895 20.7179C158.895 21.6095 159.067 22.4487 159.384 23.2093C159.714 23.9698 160.176 24.6385 160.77 25.2155C161.364 25.7924 162.09 26.2514 162.948 26.5661C163.793 26.8808 164.744 27.0513 165.8 27.0513C167.12 27.0513 168.427 26.7759 169.668 26.2514C170.737 25.7925 171.74 25.2286 172.665 24.573L172.995 26.2514C173.034 26.4481 173.206 26.5792 173.404 26.5792H178.183C178.407 26.5792 178.592 26.3956 178.592 26.1727V14.9483C178.592 11.8406 177.747 9.49349 176.071 7.95932C174.407 6.46448 172.123 5.70395 169.259 5.70395ZM171.912 20.1016C171.292 20.5605 170.645 20.9408 169.958 21.2555C169.245 21.5833 168.48 21.7538 167.661 21.7538C166.895 21.7538 166.288 21.6226 165.866 21.3604C165.496 21.1375 165.324 20.7965 165.324 20.3114C165.324 19.9705 165.417 19.6426 165.602 19.3411C165.787 19.0395 166.13 18.7641 166.605 18.5281C167.133 18.2658 167.859 18.0429 168.77 17.8724C169.615 17.7151 170.658 17.584 171.899 17.5053V20.1016H171.912Z" fill="white"/>
<path d="M195.477 5.70395C193.933 5.70395 192.56 6.03176 191.398 6.66117C190.447 7.18567 189.589 7.80196 188.81 8.49693L188.48 6.53004C188.441 6.33335 188.269 6.18911 188.071 6.18911H183.292C183.068 6.18911 182.883 6.37269 182.883 6.59561V26.1989C182.883 26.4219 183.068 26.6054 183.292 26.6054H189.14C189.365 26.6054 189.55 26.4219 189.55 26.1989V13.283C190.17 12.6799 190.738 12.234 191.279 11.9193C191.807 11.6177 192.441 11.4604 193.167 11.4604C194.104 11.4604 194.751 11.7095 195.094 12.1947C195.464 12.7323 195.662 13.624 195.662 14.8434V26.1858C195.662 26.4087 195.847 26.5923 196.071 26.5923H201.92C202.144 26.5923 202.329 26.4087 202.329 26.1858V14.096C202.329 11.5391 201.774 9.49349 200.692 7.99865C199.609 6.47759 197.84 5.70395 195.477 5.70395Z" fill="white"/>
<path d="M227.663 25.9629L219.768 14.6861L227.029 6.871C227.135 6.75299 227.174 6.58252 227.108 6.42517C227.042 6.28093 226.897 6.17603 226.725 6.17603H220.323C220.204 6.17603 220.098 6.22849 220.019 6.30716L213.339 13.4142V0.406491C213.339 0.183577 213.154 0 212.93 0H207.081C206.857 0 206.672 0.183577 206.672 0.406491V26.1859C206.672 26.4088 206.857 26.5923 207.081 26.5923H212.93C213.154 26.5923 213.339 26.4088 213.339 26.1859V21.4915L215.794 19.1182L220.639 26.4219C220.719 26.5399 220.851 26.6055 220.983 26.6055H227.306C227.465 26.6055 227.597 26.5137 227.676 26.3825C227.755 26.2514 227.742 26.081 227.663 25.9629Z" fill="white"/>
<path d="M249.591 26.6055C249.815 26.6055 250 26.4219 250 26.199V0.419612C250 0.196698 249.815 0.0131226 249.591 0.0131226H230.805C230.58 0.0131226 230.396 0.196698 230.396 0.419612V26.199C230.396 26.4219 230.58 26.6055 230.805 26.6055H249.591Z" fill="#32C766"/>
</svg>
