<svg xmlns="http://www.w3.org/2000/svg" width="500" height="120" fill="none" viewBox="0 0 500 120"><rect width="500" height="120" fill="#292B3C" rx="15"/><path fill="#fff" d="M144.182 46.0131H138.334C138.109 46.0131 137.924 46.1967 137.924 46.4196V55.9262H131.667V46.4196C131.667 46.1967 131.482 46.0131 131.258 46.0131H125.409C125.185 46.0131 125 46.1967 125 46.4196V72.199C125 72.4219 125.185 72.6055 125.409 72.6055H131.244C131.469 72.6055 131.654 72.4219 131.654 72.199V61.8531H137.911V72.199C137.911 72.4219 138.096 72.6055 138.32 72.6055H144.182C144.406 72.6055 144.591 72.4219 144.591 72.199V46.4196C144.591 46.1967 144.406 46.0131 144.182 46.0131Z"/><path fill="#fff" d="M158.334 51.7039C156.605 51.7039 154.915 51.9662 153.331 52.4776C151.76 52.989 150.268 53.6315 148.895 54.4051C148.697 54.51 148.631 54.7592 148.737 54.9559L150.809 58.7454C150.915 58.9421 151.166 59.0208 151.364 58.9159C152.446 58.3783 153.489 57.9324 154.44 57.6177C155.364 57.303 156.288 57.1457 157.186 57.1457C158.44 57.1457 159.377 57.3686 159.984 57.8144C160.46 58.1685 160.763 58.6143 160.909 59.1912C158.757 59.3355 156.882 59.5715 155.337 59.8993C153.661 60.2665 152.261 60.7516 151.179 61.3417C150.07 61.958 149.252 62.7185 148.737 63.6102C148.222 64.5018 147.971 65.5509 147.971 66.7179C147.971 67.6095 148.143 68.4487 148.459 69.2093C148.789 69.9698 149.252 70.6385 149.846 71.2155C150.44 71.7924 151.166 72.2514 152.024 72.5661C152.869 72.8808 153.819 73.0513 154.875 73.0513C156.196 73.0513 157.503 72.7759 158.744 72.2514C159.813 71.7925 160.816 71.2286 161.74 70.573L162.07 72.2514C162.11 72.4481 162.282 72.5792 162.48 72.5792H167.259C167.483 72.5792 167.668 72.3956 167.668 72.1727V60.9483C167.668 57.8406 166.823 55.4935 165.146 53.9593C163.47 52.4645 161.186 51.7039 158.334 51.7039ZM160.988 66.1016C160.367 66.5605 159.72 66.9408 159.034 67.2555C158.321 67.5833 157.555 67.7538 156.737 67.7538C155.971 67.7538 155.364 67.6226 154.941 67.3604C154.572 67.1375 154.4 66.7965 154.4 66.3114C154.4 65.9705 154.493 65.6426 154.677 65.3411C154.862 65.0395 155.205 64.7641 155.681 64.5281C156.209 64.2658 156.935 64.0429 157.846 63.8724C158.691 63.7151 159.734 63.584 160.975 63.5053V66.1016H160.988Z"/><path fill="#fff" d="M188.777 65.8918C188.711 65.8 188.619 65.7345 188.5 65.7083C188.394 65.682 188.276 65.7083 188.183 65.7738C187.523 66.259 186.757 66.6786 185.912 67.0326C185.094 67.3736 184.183 67.5571 183.206 67.5571C181.661 67.5571 180.447 67.0982 179.496 66.1803C178.546 65.2493 178.084 64.0167 178.084 62.4039C178.084 60.791 178.559 59.5584 179.549 58.6275C180.526 57.7096 181.82 57.2375 183.404 57.2375C184.764 57.2375 186.163 57.7358 187.536 58.7061C187.721 58.8373 187.972 58.7979 188.104 58.6143L190.81 55.0215C190.942 54.851 190.916 54.615 190.757 54.4708C189.873 53.684 188.764 53.0153 187.47 52.4908C184.909 51.468 181.49 51.4549 178.612 52.4252C177.186 52.8972 175.919 53.5922 174.836 54.497C173.754 55.4018 172.869 56.5294 172.222 57.8538C171.575 59.1782 171.245 60.7124 171.245 62.4039C171.245 64.0823 171.536 65.6165 172.117 66.9408C172.698 68.2652 173.516 69.406 174.546 70.3108C175.576 71.2155 176.79 71.9105 178.163 72.3826C179.523 72.8546 181.028 73.1038 182.638 73.1038C184.025 73.1038 185.477 72.8677 186.969 72.3957C188.46 71.9236 189.833 71.15 191.074 70.1272C191.233 69.9961 191.272 69.7601 191.153 69.5896L188.777 65.8918Z"/><path fill="#fff" d="M207.563 60.6861L214.824 52.871C214.93 52.753 214.969 52.5825 214.903 52.4252C214.837 52.2809 214.692 52.176 214.52 52.176H208.118C207.999 52.176 207.893 52.2285 207.814 52.3072L201.134 59.4142V46.4065C201.134 46.1836 200.949 46 200.725 46H194.876C194.652 46 194.467 46.1836 194.467 46.4065V72.1859C194.467 72.4088 194.652 72.5923 194.876 72.5923H200.725C200.949 72.5923 201.134 72.4088 201.134 72.1859V67.4915L203.589 65.1182L208.448 72.4088C208.527 72.5268 208.659 72.5923 208.791 72.5923H215.114C215.273 72.5923 215.405 72.5006 215.484 72.3694C215.55 72.2383 215.55 72.0678 215.458 71.9498L207.563 60.6861Z"/><path fill="#fff" d="M233.716 54.5231C232.91 53.6315 231.881 52.9365 230.666 52.4382C229.452 51.94 228.052 51.6908 226.494 51.6908C225.121 51.6908 223.775 51.94 222.507 52.4251C221.227 52.9103 220.078 53.6315 219.088 54.5494C218.098 55.4673 217.293 56.5949 216.699 57.9062C216.105 59.2175 215.801 60.7254 215.801 62.3776C215.801 64.0691 216.105 65.5771 216.699 66.8883C217.293 68.1996 218.111 69.3273 219.128 70.2452C220.144 71.163 221.359 71.8711 222.732 72.3432C224.092 72.8152 225.583 73.0644 227.168 73.0644C228.527 73.0644 229.94 72.8546 231.339 72.435C232.752 72.0154 234.046 71.4384 235.181 70.7041C235.366 70.5861 235.419 70.3501 235.326 70.1665L233.425 66.7048C233.32 66.5081 233.069 66.4294 232.871 66.5343C232.026 66.967 231.194 67.2948 230.415 67.5177C229.65 67.7275 228.818 67.8324 227.96 67.8324C226.587 67.8324 225.412 67.5177 224.448 66.8883C223.616 66.3507 223.062 65.5246 222.745 64.3838H235.524C235.722 64.3838 235.881 64.2527 235.934 64.056C235.986 63.8069 236.039 63.4659 236.105 63.007C236.158 62.5612 236.184 62.0498 236.184 61.5122C236.184 60.1353 235.973 58.8241 235.564 57.6439C235.141 56.4638 234.521 55.4017 233.716 54.5231ZM222.666 59.9649C222.917 59.0077 223.366 58.2734 224.012 57.8013C224.778 57.2375 225.636 56.949 226.613 56.949C227.828 56.949 228.712 57.2637 229.24 57.8669C229.702 58.4176 229.98 59.1126 230.046 59.9518H222.666V59.9649Z"/><path fill="#fff" d="M258.495 52.53C257.888 52.2547 257.294 52.0449 256.726 51.9138C256.158 51.7695 255.406 51.7039 254.495 51.7039C252.845 51.7039 251.274 52.1104 249.835 52.9234C248.647 53.5922 247.591 54.5756 246.68 55.8344L246.31 52.5432C246.284 52.3334 246.112 52.176 245.901 52.176H241.122C240.897 52.176 240.713 52.3596 240.713 52.5825V72.1858C240.713 72.4087 240.897 72.5923 241.122 72.5923H246.97C247.195 72.5923 247.379 72.4087 247.379 72.1858V62.076C248.185 60.4369 249.135 59.2699 250.218 58.6143C251.327 57.9455 252.462 57.6046 253.611 57.6046C254.323 57.6046 254.917 57.644 255.38 57.7357C255.855 57.8275 256.396 57.9587 256.99 58.1422C257.096 58.1816 257.215 58.1553 257.32 58.1029C257.413 58.0504 257.492 57.9587 257.518 57.8406L258.706 52.9759C258.772 52.8054 258.68 52.6087 258.495 52.53Z"/><path fill="#fff" d="M277.07 62.0629C278.324 61.4335 279.367 60.5288 280.173 59.3617C281.07 58.0767 281.519 56.4245 281.519 54.4445C281.519 52.8579 281.242 51.5073 280.674 50.4189C280.107 49.3306 279.341 48.4521 278.364 47.7964C277.413 47.1539 276.291 46.6819 275.037 46.4065C273.809 46.1442 272.476 46 271.063 46H261.875C261.651 46 261.466 46.1836 261.466 46.4065V72.1859C261.466 72.4088 261.651 72.5923 261.875 72.5923H267.723C267.948 72.5923 268.133 72.4088 268.133 72.1859V63.3086H270.535L275.394 72.3825C275.46 72.5137 275.605 72.6055 275.763 72.6055H282.324C282.47 72.6055 282.602 72.5268 282.681 72.3957C282.76 72.2645 282.76 72.1072 282.681 71.9892L277.07 62.0629ZM270.601 57.8669H268.146V51.4548H270.601C272.08 51.4548 273.202 51.6909 273.915 52.1367C274.588 52.5563 274.918 53.3168 274.918 54.4314C274.918 56.7786 273.545 57.8669 270.601 57.8669Z"/><path fill="#fff" d="M294.259 51.7039C292.529 51.7039 290.839 51.9662 289.255 52.4776C287.684 52.989 286.192 53.6315 284.819 54.4051C284.621 54.51 284.555 54.7592 284.661 54.9559L286.734 58.7454C286.839 58.9421 287.09 59.0208 287.288 58.9159C288.371 58.3783 289.414 57.9324 290.364 57.6177C291.288 57.303 292.212 57.1457 293.11 57.1457C294.364 57.1457 295.302 57.3686 295.909 57.8144C296.384 58.1685 296.688 58.6143 296.833 59.1912C294.681 59.3355 292.806 59.5715 291.262 59.8993C289.585 60.2665 288.186 60.7516 287.103 61.3417C285.994 61.958 285.176 62.7185 284.661 63.6102C284.146 64.5018 283.895 65.5509 283.895 66.7179C283.895 67.6095 284.067 68.4487 284.384 69.2093C284.714 69.9698 285.176 70.6385 285.77 71.2155C286.364 71.7924 287.09 72.2514 287.948 72.5661C288.793 72.8808 289.744 73.0513 290.8 73.0513C292.12 73.0513 293.427 72.7759 294.668 72.2514C295.737 71.7925 296.74 71.2286 297.665 70.573L297.995 72.2514C298.034 72.4481 298.206 72.5792 298.404 72.5792H303.183C303.407 72.5792 303.592 72.3956 303.592 72.1727V60.9483C303.592 57.8406 302.747 55.4935 301.071 53.9593C299.407 52.4645 297.123 51.7039 294.259 51.7039ZM296.912 66.1016C296.292 66.5605 295.645 66.9408 294.958 67.2555C294.245 67.5833 293.48 67.7538 292.661 67.7538C291.895 67.7538 291.288 67.6226 290.866 67.3604C290.496 67.1375 290.324 66.7965 290.324 66.3114C290.324 65.9705 290.417 65.6426 290.602 65.3411C290.787 65.0395 291.13 64.7641 291.605 64.5281C292.133 64.2658 292.859 64.0429 293.77 63.8724C294.615 63.7151 295.658 63.584 296.899 63.5053V66.1016H296.912Z"/><path fill="#fff" d="M320.477 51.7039C318.932 51.7039 317.56 52.0318 316.398 52.6612C315.447 53.1857 314.589 53.802 313.81 54.4969L313.48 52.53C313.441 52.3334 313.269 52.1891 313.071 52.1891H308.292C308.068 52.1891 307.883 52.3727 307.883 52.5956V72.1989C307.883 72.4219 308.068 72.6054 308.292 72.6054H314.14C314.365 72.6054 314.55 72.4219 314.55 72.1989V59.283C315.17 58.6799 315.738 58.234 316.279 57.9193C316.807 57.6177 317.441 57.4604 318.167 57.4604C319.104 57.4604 319.751 57.7095 320.094 58.1947C320.464 58.7323 320.662 59.624 320.662 60.8434V72.1858C320.662 72.4087 320.847 72.5923 321.071 72.5923H326.919C327.144 72.5923 327.329 72.4087 327.329 72.1858V60.096C327.329 57.5391 326.774 55.4935 325.692 53.9987C324.609 52.4776 322.84 51.7039 320.477 51.7039Z"/><path fill="#fff" d="M352.663 71.9629L344.768 60.6861L352.029 52.871C352.135 52.753 352.174 52.5825 352.108 52.4252C352.042 52.2809 351.897 52.176 351.725 52.176H345.323C345.204 52.176 345.098 52.2285 345.019 52.3072L338.339 59.4142V46.4065C338.339 46.1836 338.154 46 337.93 46H332.081C331.857 46 331.672 46.1836 331.672 46.4065V72.1859C331.672 72.4088 331.857 72.5923 332.081 72.5923H337.93C338.154 72.5923 338.339 72.4088 338.339 72.1859V67.4915L340.794 65.1182L345.639 72.4219C345.719 72.5399 345.851 72.6055 345.983 72.6055H352.306C352.465 72.6055 352.597 72.5137 352.676 72.3825C352.755 72.2514 352.742 72.081 352.663 71.9629Z"/><path fill="#32C766" d="M374.591 72.6055C374.815 72.6055 375 72.4219 375 72.199V46.4196C375 46.1967 374.815 46.0131 374.591 46.0131H355.805C355.58 46.0131 355.396 46.1967 355.396 46.4196V72.199C355.396 72.4219 355.58 72.6055 355.805 72.6055H374.591Z"/></svg>