<svg width="658" height="414" viewBox="0 0 658 414" fill="none" xmlns="http://www.w3.org/2000/svg">
<path fill-rule="evenodd" clip-rule="evenodd" d="M461.655 408.887C355.784 433.123 287.094 363.331 147.263 363.331C99.4797 363.331 -16.0192 365.056 1.86396 180.402C12.0119 75.6183 121.388 28.0631 223.601 89.3084C253.679 102.371 277.425 98.3226 303.207 85.3437C328.99 72.3649 362.149 14.4242 424.644 2.50428C612.713 -33.3666 820.932 326.642 461.655 408.887Z" fill="#292B3B"/>
<path fill-rule="evenodd" clip-rule="evenodd" d="M462.834 128.66C470.203 133.031 477.603 137.654 486.083 139.849C494.564 142.044 504.53 141.373 511.061 136.029C537.414 114.463 579.853 110.857 610.219 127.604C640.586 144.351 656.313 180.036 646.966 210.981C637.619 241.927 603.988 265.518 568.387 266.102C549.941 266.404 532.884 274.346 515.258 279.254C497.632 284.163 476.434 285.422 462.65 274.378C447.794 262.475 449.49 237.947 465.87 227.796C440.128 229.533 414.386 231.27 388.644 233.007C394.306 235.075 400.335 237.412 403.581 242.074C406.827 246.736 405.338 254.363 399.425 255.748C377.404 260.908 354.857 251.506 333.721 243.917C312.585 236.329 287.116 230.756 268.268 242.237C225.792 268.112 169.676 263.816 119.085 256.271C106.949 254.461 92.3489 250.479 89.8253 239.635C66.5962 243.573 42.9075 245.309 19.277 244.805C13.5088 244.682 6.69939 243.864 4.00362 239.269C0.510679 233.316 6.78092 226.562 12.8874 222.677C31.5351 210.814 54.3024 204.288 77.1324 204.26C83.6352 204.252 87.9769 198.131 89.6323 192.467C91.2878 186.803 91.7518 180.5 95.9743 176.046C81.6151 174.105 66.403 178.053 55.3925 186.579C53.349 188.161 49.8995 186.572 49.0417 184.271C48.1839 181.97 49.0676 179.467 49.9749 177.182C55.0553 164.384 61.4251 151.381 72.9715 142.631C84.518 133.88 102.558 130.724 114.73 138.757C118.549 141.277 125.032 144.512 134.18 148.462C143.56 147.184 150.535 146.167 155.104 145.411C168.941 143.12 181.771 137.46 194.314 131.72C238.021 111.718 282.835 89.4498 331.84 88.1935C378.721 86.9917 423.664 105.428 462.834 128.66ZM512.431 163.334L516.828 173.311C517.043 173.799 517.277 174.311 517.731 174.642C518.281 175.043 519.037 175.096 519.738 175.187C525.114 175.885 529.325 179.561 533.135 183.047C538.015 187.512 542.895 191.977 547.775 196.442C549.237 197.78 551.667 196.333 553.066 194.942C556.213 191.815 559.418 188.607 561.235 184.717C563.052 180.826 563.249 176.055 560.541 172.611C558.932 170.564 556.481 169.184 553.969 168.102C549.822 166.317 545.324 165.197 540.748 164.811C536.286 164.434 531.792 164.751 527.311 164.721C522.317 164.688 517.327 164.223 512.431 163.334Z" fill="white"/>
<path fill-rule="evenodd" clip-rule="evenodd" d="M89.8253 239.635C66.5962 243.573 42.9075 245.309 19.277 244.805C12.4766 235.879 86.0648 219.433 88.7331 230.275C90.843 238.848 90.9396 244.423 89.8253 239.635Z" fill="#E7EAEE"/>
<path fill-rule="evenodd" clip-rule="evenodd" d="M446.196 210.718C448.679 210.479 458.544 208.301 468.901 209.31C474.467 206.737 501.14 208.758 517.062 211.568C527.282 213.371 553.184 214.569 562.59 218.891C578.917 226.392 579.292 231.029 576.835 232.022C569.857 234.844 561.449 236.234 556.93 236.308C548.793 236.442 532.425 229.668 514.47 225.425C506.452 223.53 500.56 221.92 495.916 220.359L496.674 220.06C486.63 224.143 476.24 224.794 465.87 227.796C440.128 229.533 414.386 231.27 388.644 233.007C394.306 235.075 309.117 207.139 333.721 203.063C335.237 202.812 336.909 202.659 338.722 202.591C361.763 201.721 407.544 214.438 446.196 210.718Z" fill="#E7EAEE"/>
<path fill-rule="evenodd" clip-rule="evenodd" d="M216.301 176.231C216.615 176.737 216.378 177.409 215.906 177.802C215.435 178.196 214.787 178.366 214.155 178.473C209.501 179.26 204.417 176.973 202.318 173.15C202.084 172.724 201.88 172.256 201.952 171.785C202.023 171.313 202.463 170.858 202.99 170.886C204.344 172.232 205.719 173.593 207.405 174.59C209.092 175.586 211.154 176.193 213.138 175.865C214.264 175.679 215.742 175.332 216.301 176.231Z" fill="#00160A"/>
<path fill-rule="evenodd" clip-rule="evenodd" d="M219.352 228.383C219.417 227.203 221.059 226.71 222.371 226.666C228.245 226.47 233.716 229.064 239.141 231.101C244.567 233.139 250.885 234.642 256.184 232.349C257.29 231.871 258.449 231.217 259.649 231.448C257.658 234.925 252.901 236.503 248.564 236.289C244.227 236.075 240.163 234.423 236.164 232.896C232.165 231.368 227.958 229.915 223.622 230.133C222.732 230.178 221.821 230.291 220.964 230.073C220.107 229.855 219.307 229.185 219.352 228.383Z" fill="#00160A"/>
<path fill-rule="evenodd" clip-rule="evenodd" d="M229.636 238.285C225.583 237.22 220.846 237.753 217.517 235.415C217.111 235.129 216.709 234.754 216.693 234.29C216.671 233.639 217.45 233.163 218.173 233.146C218.895 233.129 219.574 233.426 220.253 233.651C222.731 234.471 225.458 234.361 228.045 234.835C231.926 235.548 235.343 237.54 238.998 238.914C242.653 240.287 247.037 240.99 250.441 239.166C251.814 238.43 253.619 237.332 254.757 238.342C251.052 242.143 244.778 243.727 239.419 242.215C236.006 241.252 233.069 239.187 229.636 238.285Z" fill="#00160A"/>
<path fill-rule="evenodd" clip-rule="evenodd" d="M112.855 199.798C112.203 199.048 112.209 197.959 112.625 197.083C113.04 196.207 113.804 195.506 114.592 194.872C118.337 191.859 123.519 189.82 128.38 190.952C132.023 191.801 134.906 194.26 137.457 196.752C138.549 197.819 139.676 199.347 138.858 200.597C137.985 201.933 135.793 201.65 134.132 201.245C128.977 199.986 123.514 199.244 118.305 200.306C116.415 200.691 114.048 201.173 112.855 199.798Z" fill="#00160A"/>
<path fill-rule="evenodd" clip-rule="evenodd" d="M197.279 245.031C197.997 245.421 197.898 246.466 197.299 246.996C196.701 247.526 195.819 247.678 194.992 247.806C190.354 248.522 185.717 249.238 181.079 249.955C180.111 250.104 179.029 250.233 178.222 249.729C177.414 249.225 177.391 247.824 178.352 247.641C184.166 246.535 190.027 245.627 195.916 244.917C196.378 244.861 196.88 244.814 197.279 245.031Z" fill="#00160A"/>
<path fill-rule="evenodd" clip-rule="evenodd" d="M185.445 201.39C184.425 201.73 183.298 200.843 183.161 199.871C183.023 198.899 183.581 197.958 184.228 197.17C187.235 193.501 192.596 191.623 197.62 192.187C202.645 192.751 207.209 195.618 209.848 199.51C210.256 200.111 210.633 200.801 210.478 201.49C210.311 202.237 209.536 202.779 208.715 202.964C207.895 203.148 207.031 203.042 206.198 202.913C202.728 202.372 199.345 201.437 195.873 200.91C192.401 200.384 188.746 200.286 185.445 201.39Z" fill="#00160A"/>
<path fill-rule="evenodd" clip-rule="evenodd" d="M119.874 176.286C120.268 175.244 121.94 175.502 123.138 175.716C126.873 176.384 130.526 174.508 133.766 172.707C134.198 172.466 134.774 172.923 134.764 173.381C134.755 173.839 134.389 174.22 134.032 174.546C130.801 177.486 125.971 179.497 121.604 178.218C120.628 177.932 119.542 177.16 119.874 176.286Z" fill="#00160A"/>
<path fill-rule="evenodd" clip-rule="evenodd" d="M249.597 194.105C248.337 193.889 247.684 192.512 247.919 191.376C248.155 190.241 249.011 189.304 249.819 188.406C252.871 185.017 255.651 181.412 257.843 177.52C259.728 174.173 261.172 170.623 263.291 167.392C269.355 158.146 281.116 152.169 293.038 152.274C288.26 149.194 282.612 147.372 276.892 146.166C259.196 142.437 240.077 144.46 223.823 151.782C221.254 152.94 218.748 154.227 216.069 155.16C214.833 155.59 213.466 155.946 212.2 155.593C210.934 155.24 209.941 153.898 210.53 152.828C210.869 152.212 211.6 151.867 212.285 151.563C219.21 148.486 226.163 145.397 233.503 143.237C249.923 138.404 268.066 138.452 284.454 143.374C289.952 145.025 295.699 147.59 298.08 152.35C298.445 153.081 298.479 154.248 297.599 154.367C288.156 155.649 278.547 158.593 272.029 164.879C263.587 173.021 261.542 185.522 252.388 193.013C251.608 193.651 250.632 194.283 249.597 194.105Z" fill="#00160A"/>
<path fill-rule="evenodd" clip-rule="evenodd" d="M388.644 233.007C394.306 235.075 400.335 237.412 403.581 242.074C406.827 246.736 405.338 254.363 399.425 255.748C377.404 260.908 354.857 251.506 333.721 243.917C312.585 236.329 287.116 230.756 268.268 242.237C225.792 268.112 169.676 263.816 119.085 256.271C106.949 254.461 92.3489 250.479 89.8253 239.635C66.5962 243.573 42.9075 245.309 19.277 244.805C13.5088 244.682 6.69939 243.864 4.00362 239.269C0.510679 233.316 6.78092 226.562 12.8874 222.677C31.5351 210.814 54.3024 204.288 77.1324 204.26C83.6352 204.252 87.9769 198.131 89.6323 192.467C91.2878 186.803 91.7518 180.5 95.9743 176.046C81.6151 174.105 66.403 178.053 55.3925 186.579C53.349 188.161 49.8995 186.572 49.0417 184.271C48.1839 181.97 49.0676 179.467 49.9749 177.182C55.0553 164.384 61.4251 151.381 72.9715 142.631C84.518 133.88 97.2978 130.559 114.651 137.676C119.196 139.54 125.686 142.852 134.123 147.612C143.447 146.917 150.441 146.183 155.104 145.411C168.941 143.12 181.771 137.46 194.314 131.72C238.021 111.718 282.835 89.4498 331.84 88.1935C378.721 86.9917 423.664 105.428 462.834 128.66C470.203 133.031 477.603 137.654 486.083 139.849C494.564 142.044 504.53 141.373 511.061 136.029C537.414 114.463 579.853 110.857 610.219 127.604C640.586 144.351 656.313 180.036 646.966 210.981C637.619 241.927 603.988 265.518 568.387 266.102C549.941 266.404 532.884 274.346 515.258 279.254C497.632 284.163 476.434 285.422 462.65 274.378C447.794 262.475 449.49 237.947 465.87 227.796C440.128 229.533 414.386 231.27 388.644 233.007ZM537.652 190.233C524.662 178.464 505.281 172.71 487.066 175.213C495.886 172.745 505.335 172.123 514.459 173.41C488.596 139.77 446.857 118.759 404.315 104.405C383.64 97.4288 362.11 91.6946 340.038 91.2557C311.304 90.6844 283.3 99.096 256.759 109.03C227.629 119.933 199.451 132.775 171.305 145.605C179.989 145.205 188.791 148.642 194.404 154.624C170.829 145.869 142.904 147.219 120.506 158.197C120.613 154.186 124.172 150.468 128.561 149.782C115.743 139.611 96.0529 137.142 80.6388 143.774C65.2248 150.405 54.9829 165.752 55.7128 181.124C68.7302 171.427 87.5055 168.429 103.431 173.503C93.9519 187.749 89.0584 204.438 89.4917 221.042C94.4727 219.152 100.61 220.04 104.683 223.241C100.133 223.682 95.5831 224.123 91.0332 224.564C91.2255 226.434 91.4178 228.304 91.61 230.173C96.4244 229.534 101.239 228.895 106.053 228.256C102.955 231.466 98.5859 233.66 93.9252 234.346C93.34 239.688 97.4568 244.729 102.622 247.406C107.787 250.084 113.853 250.882 119.754 251.631C134.462 253.497 149.171 255.363 163.879 257.229C160.468 253.764 159.909 248.185 157.683 244.328C154.798 239.332 150.633 237.298 148.545 230.67C147.825 228.383 146.165 225.164 148.488 223.71C149.464 223.099 150.735 223.076 151.924 223.074C156.779 223.07 161.634 223.065 166.49 223.061C168.058 223.059 169.699 223.073 171.086 223.733C175.288 225.735 173.961 231.648 170.823 234.864C167.685 238.08 163.197 240.649 162.125 244.82C161.024 249.105 164.227 253.547 168.481 255.707C172.735 257.867 177.796 258.233 182.677 258.383C192.963 258.7 203.277 258.27 213.487 257.1C239.19 254.155 266.572 244.722 278.502 224.006C277.781 229.228 274.751 234.162 270.224 237.488C288.951 231.276 310.157 231.345 328.832 237.681C346.543 243.689 363.348 255.292 382.131 253.21C381.326 252.622 381.014 251.606 380.209 251.018C378.018 249.417 375.334 248.245 373.143 246.644C379.84 248.85 386.537 251.057 393.234 253.263C392.474 252.26 393.234 251.248 391.817 249.713C390.401 248.179 387.307 245.441 385.484 243.035C390.555 244.364 395 247.534 397.599 251.676C399.767 251.198 401.934 250.721 404.102 250.243C393.098 236.865 377.885 226.328 360.705 220.184C352.37 217.202 342.037 213.634 340.994 205.612C359.73 221.908 386.578 228.859 412.618 229.356C438.657 229.852 464.351 224.523 489.724 219.226C483.915 216.581 478.677 212.923 474.387 208.515C502.885 222.895 534.77 231.8 567.301 234.464C565.456 231.647 563.611 228.83 561.766 226.013C565.801 226.116 569.572 228.873 570.514 232.409C572.538 231.691 574.562 230.973 576.586 230.256C573.771 227.77 570.956 225.284 568.141 222.799C572.669 221.816 577.749 224.961 578.352 229.121C580.247 228.233 581.811 226.784 582.741 225.053C579.375 222.758 576.009 220.463 572.643 218.168C577.746 218.074 582.867 219.612 586.887 222.445C582.131 212.032 566.041 211.784 555.352 205.944C548.244 202.06 543.514 195.544 537.652 190.233ZM513.456 160.316C519.813 161.704 526.471 160.629 533.013 160.647C539.79 160.665 546.542 161.876 552.892 164.008C556.812 165.325 560.731 167.094 563.28 170.082C567.32 174.819 566.968 181.691 564.15 187.098C561.331 192.505 556.453 196.779 551.679 200.925C561.701 204.952 571.724 208.979 581.746 213.006C584.578 214.144 587.639 215.479 588.934 218.017C591.173 222.405 586.827 227.218 582.362 229.893C568.435 238.236 549.493 239.26 534.558 232.476C524.976 228.123 514.354 226.047 503.863 224.013C498.136 222.902 492.17 221.791 486.48 223.048C482.441 223.94 478.634 226.008 474.479 225.881C470.765 225.768 467.878 228.656 465.703 231.368C458.543 240.293 452.64 251.699 456.832 262.042C459.714 269.154 467.019 274.277 474.979 276.708C482.94 279.139 491.543 279.208 499.932 278.727C510.431 278.125 521.127 276.625 530.347 272.061C536.35 269.089 541.723 264.83 548.364 263.314C556.331 261.495 564.726 263.936 572.923 263.396C579.451 262.967 585.628 260.666 591.605 258.263C606.205 252.394 620.807 245.466 631.163 234.495C646.606 218.136 650.278 194.164 642.899 173.745C635.521 153.326 618.085 136.538 597.217 126.155C591.479 123.3 585.438 120.874 579.077 119.45C563.807 116.029 547.093 118.723 533.749 126.232C526.878 130.099 520.909 135.136 514.177 139.196C507.445 143.255 499.531 146.381 491.468 145.672C497.682 151.857 504.455 158.351 513.456 160.316ZM32.825 216.242C23.4714 219.526 14.1122 223.884 8.18408 231.182C10.9116 229.828 14.3366 229.678 17.1973 230.786C15.1119 231.714 13.0265 232.642 10.9411 233.57C9.77291 234.09 8.56532 234.638 7.75394 235.557C6.94257 236.475 6.64916 237.877 7.43467 238.813C8.22019 239.75 10.2068 239.664 10.5868 238.541C11.9811 234.422 17.365 231.789 21.9598 232.98C18.5088 234.75 14.7406 236.883 13.7857 240.356C14.3017 241.92 16.8448 242.177 18.3395 241.255C19.8342 240.332 20.5801 238.734 21.4398 237.298C22.2994 235.861 23.5478 234.39 25.3406 234.154C25.719 234.104 26.1514 234.13 26.4142 234.381C26.8722 234.817 26.4941 235.53 26.0632 235.988C25.0868 237.026 23.8408 237.934 23.3608 239.224C22.8808 240.514 23.7386 242.317 25.246 242.234C46.412 241.069 67.5381 239.317 88.5842 236.98C89.3447 235.496 87.0341 234.291 85.2363 234.072C80.673 233.515 75.9788 233.844 71.5661 235.03C72.3812 232.587 75.1203 230.988 77.9062 230.53C80.6921 230.071 83.5511 230.543 86.3345 231.013C86.3562 229.252 85.9913 227.488 85.2671 225.853C80.8415 225.769 76.455 224.438 72.8759 222.092C75.8675 221.084 79.3428 221.314 82.139 222.704C83.4742 223.368 84.4691 221.425 84.4912 220.051C84.5628 215.587 84.6344 211.123 84.7061 206.659C66.9773 207.183 49.3518 210.438 32.825 216.242ZM519.738 175.187C525.114 175.885 529.325 179.561 533.135 183.047C538.015 187.512 542.895 191.977 547.775 196.442C549.237 197.78 551.667 196.333 553.066 194.942C556.213 191.815 559.418 188.607 561.235 184.717C563.052 180.826 563.249 176.055 560.541 172.611C558.932 170.564 556.481 169.184 553.969 168.102C549.822 166.317 545.324 165.197 540.748 164.811C536.286 164.434 531.792 164.751 527.311 164.721C522.317 164.688 517.327 164.223 512.431 163.334C513.897 166.66 515.362 169.985 516.828 173.311C517.043 173.799 517.277 174.311 517.731 174.642C518.281 175.043 519.037 175.096 519.738 175.187Z" fill="#00160A"/>
<path d="M264.957 387.418L264.957 387.419C264.938 388.48 264.47 389.705 263.641 390.508C263.137 390.995 262.505 391.016 262.303 391.019C262.01 391.023 261.722 390.979 261.496 390.935C261.036 390.846 260.547 390.694 260.238 390.598L260.238 390.598C259.181 390.265 258.171 389.847 257.221 389.428C255.603 388.716 253.963 388.016 252.315 387.312C243.778 383.668 235.005 379.924 227.746 373.798C226.133 372.436 224.771 370.871 224.679 369.011C224.592 367.232 225.667 365.783 227.227 364.553C226.678 364.654 226.156 364.757 225.655 364.892C224.926 365.089 224.402 365.317 224.06 365.584L223.14 364.407L224.06 365.584C222.239 367.008 221.585 368.631 221.461 370.37C221.329 372.208 221.787 374.182 222.324 376.255C224.395 384.254 230.843 388.975 239.176 393.258C255.529 401.662 272.598 406.184 291.527 405.757C306.037 405.429 320.515 405.538 334.966 405.646C365.487 405.874 395.89 406.102 426.238 402.221C429.424 401.813 432.571 401.466 435.702 401.121C440.02 400.645 444.309 400.172 448.632 399.548C452.66 398.967 455.514 397.488 456.223 394.182C456.701 391.956 457.282 389.655 457.855 387.384C458.277 385.712 458.695 384.057 459.064 382.461C459.959 378.595 460.641 374.808 460.7 371.053C460.872 360.053 460.26 349.064 459.645 338.015C459.42 333.963 459.194 329.903 459.006 325.831C458.839 322.21 458.561 318.604 458.043 315.049C457.645 312.312 457.144 309.523 456.637 306.706C455.689 301.429 454.722 296.053 454.383 290.73C453.926 283.585 451.811 277.299 447.185 271.812L448.332 270.846L447.185 271.812C446.468 270.962 445.464 270.071 444.359 269.368C443.241 268.658 442.123 268.205 441.173 268.103C430.661 266.977 420.116 266.146 409.547 265.313C406.017 265.034 402.484 264.756 398.949 264.466C396.453 264.261 393.952 264.062 391.45 263.862C386.821 263.493 382.186 263.123 377.559 262.72C373.413 262.358 369.298 261.915 365.202 261.475C356.353 260.523 347.587 259.58 338.761 259.48C330.469 259.387 322.244 260.083 313.932 260.786C309.335 261.175 304.712 261.566 300.037 261.827C289.797 262.399 279.997 264.464 270.449 267.832C266.673 269.164 263.876 270.99 262.069 273.256C260.282 275.495 259.378 278.269 259.552 281.696C259.946 289.446 260.475 297.103 261.006 304.776C261.467 311.453 261.93 318.143 262.305 324.916C262.402 326.674 262.175 328.413 261.949 330.013C261.931 330.141 261.913 330.267 261.895 330.393C261.683 331.89 261.488 333.264 261.486 334.627C261.484 336.086 261.638 337.565 261.824 339.118C261.851 339.351 261.88 339.586 261.909 339.823C262.069 341.14 262.237 342.514 262.314 343.889M264.957 387.418L260.816 343.972M264.957 387.418C264.965 386.983 264.865 386.601 264.771 386.322C264.691 386.086 264.589 385.849 264.517 385.683C264.506 385.657 264.496 385.634 264.487 385.612C264.413 385.439 264.374 385.339 264.353 385.269M264.957 387.418L262.861 385.059M262.314 343.889L260.816 343.972M262.314 343.889C262.314 343.888 262.314 343.888 262.314 343.888L260.816 343.972M262.314 343.889C262.316 343.933 262.33 344.169 262.354 344.57C262.501 347.039 263.022 355.758 263.5 364.426C263.778 369.474 264.042 374.528 264.213 378.367C264.298 380.285 264.36 381.909 264.388 383.079C264.402 383.662 264.408 384.147 264.404 384.505C264.402 384.682 264.397 384.848 264.386 384.99C264.381 385.058 264.373 385.145 264.358 385.236L264.358 385.241C264.357 385.247 264.355 385.257 264.353 385.269M260.816 343.972C260.819 344.023 260.834 344.28 260.86 344.714C261.19 350.238 263.229 384.39 262.861 385.059M264.353 385.269C264.35 385.258 264.347 385.247 264.344 385.237C264.341 385.227 264.34 385.22 264.339 385.216C264.341 385.23 264.346 385.286 264.329 385.369L262.861 385.059M264.353 385.269C264.339 385.351 264.295 385.564 264.175 385.782L262.861 385.059" fill="#B3B7D8" stroke="black" stroke-width="3"/>
<path d="M367.251 334.132H366.645C365.797 332.714 365.191 330.859 364.586 329.004L365.676 329.986C368.947 332.278 371.854 331.841 371.854 331.841C371.854 331.841 372.702 327.695 369.432 325.513C366.645 323.549 364.101 323.549 363.374 323.658C363.253 323.003 363.253 322.457 363.132 322.021L361.436 322.13C361.436 325.622 358.165 332.059 357.075 334.132C354.652 334.351 352.714 336.206 352.714 338.497C352.714 340.897 354.894 342.861 357.559 342.861C358.892 342.861 359.982 342.425 360.83 341.661C360.346 340.679 359.982 339.588 359.982 338.497C359.982 337.406 360.346 336.315 360.83 335.333C360.346 334.896 359.619 334.569 359.013 334.351C359.861 332.714 361.315 329.768 362.284 326.931C362.769 329.441 363.738 332.387 364.949 334.678C363.495 335.442 362.405 336.86 362.405 338.497C362.405 340.897 364.586 342.861 367.251 342.861C369.916 342.861 372.097 340.897 372.097 338.497C372.097 336.096 369.916 334.132 367.251 334.132ZM357.559 336.86C356.59 336.86 355.742 337.624 355.742 338.497H354.531C354.531 336.969 355.863 335.769 357.559 335.769V336.86ZM367.251 336.86C366.282 336.86 365.434 337.624 365.434 338.497H364.222C364.222 336.969 365.555 335.769 367.251 335.769V336.86Z" fill="black"/>
<path d="M246.646 361.298L246.574 361.304L246.503 361.316L228.889 364.376L228.244 364.488L227.888 365.036L226.434 367.273L225.904 368.088L226.432 368.905L230.083 374.554L230.283 374.864L230.604 375.045L246.832 384.226L246.927 384.28L247.029 384.319L260.102 389.38L261.433 389.896L262.014 388.591L263.952 384.237L264.1 383.905L264.079 383.542L262.862 362.003L262.782 360.588H261.364H256.09H256.034L255.977 360.592L246.646 361.298Z" fill="#656987" stroke="black" stroke-width="3"/>
</svg>
