<svg xmlns="http://www.w3.org/2000/svg" width="243" height="86" fill="none" viewBox="0 0 243 86"><path fill="#fff" d="M11.9 45.48C8.26 45.48 5.42 44.52 3.38 42.6C1.34 40.64 0.32 37.88 0.32 34.32V0.479997H9.68V33.78C9.68 35.14 10.02 36.2 10.7 36.96C11.42 37.68 12.42 38.04 13.7 38.04C14.18 38.04 14.66 37.98 15.14 37.86C15.66 37.74 16.06 37.6 16.34 37.44L16.76 44.7C15.2 45.22 13.58 45.48 11.9 45.48ZM59.5292 12.72V45H50.5892V41.28C48.2692 44.08 44.9092 45.48 40.5092 45.48C37.4692 45.48 34.7092 44.8 32.2292 43.44C29.7892 42.08 27.8692 40.14 26.4692 37.62C25.0692 35.1 24.3692 32.18 24.3692 28.86C24.3692 25.54 25.0692 22.62 26.4692 20.1C27.8692 17.58 29.7892 15.64 32.2292 14.28C34.7092 12.92 37.4692 12.24 40.5092 12.24C44.6292 12.24 47.8492 13.54 50.1692 16.14V12.72H59.5292ZM42.1292 37.8C44.4892 37.8 46.4492 37 48.0092 35.4C49.5692 33.76 50.3492 31.58 50.3492 28.86C50.3492 26.14 49.5692 23.98 48.0092 22.38C46.4492 20.74 44.4892 19.92 42.1292 19.92C39.7292 19.92 37.7492 20.74 36.1892 22.38C34.6292 23.98 33.8492 26.14 33.8492 28.86C33.8492 31.58 34.6292 33.76 36.1892 35.4C37.7492 37 39.7292 37.8 42.1292 37.8ZM101.075 37.8V45H72.275V39.36L78.695 31.8H74.315V25.56H83.975L88.715 19.92H72.695V12.72H100.535V18.36L94.415 25.62H98.975V31.86H89.135L84.095 37.8H101.075ZM145.879 12.72V39.6C145.879 45.52 144.379 49.92 141.379 52.8C138.379 55.68 134.019 57.12 128.299 57.12C125.259 57.12 122.379 56.74 119.659 55.98C116.979 55.22 114.719 54.12 112.879 52.68L116.599 45.96C117.959 47.08 119.619 47.96 121.579 48.6C123.539 49.24 125.519 49.56 127.519 49.56C130.639 49.56 132.919 48.84 134.359 47.4C135.799 45.96 136.519 43.76 136.519 40.8V39.72C135.319 40.92 133.899 41.84 132.259 42.48C130.619 43.12 128.859 43.44 126.979 43.44C122.739 43.44 119.379 42.24 116.899 39.84C114.419 37.4 113.179 33.76 113.179 28.92V12.72H122.539V27.54C122.539 32.78 124.719 35.4 129.079 35.4C131.319 35.4 133.119 34.68 134.479 33.24C135.839 31.76 136.519 29.58 136.519 26.7V12.72H145.879Z"/><path fill="#8186B1" d="M90.0566 85.72C85.7766 85.72 81.8966 84.8 78.4166 82.96C74.9766 81.08 72.2566 78.5 70.2566 75.22C68.2966 71.9 67.3166 68.16 67.3166 64C67.3166 59.84 68.2966 56.12 70.2566 52.84C72.2566 49.52 74.9766 46.94 78.4166 45.1C81.8966 43.22 85.7966 42.28 90.1166 42.28C93.7566 42.28 97.0366 42.92 99.9566 44.2C102.917 45.48 105.397 47.32 107.397 49.72L101.157 55.48C98.3166 52.2 94.7966 50.56 90.5966 50.56C87.9966 50.56 85.6766 51.14 83.6366 52.3C81.5966 53.42 79.9966 55 78.8366 57.04C77.7166 59.08 77.1566 61.4 77.1566 64C77.1566 66.6 77.7166 68.92 78.8366 70.96C79.9966 73 81.5966 74.6 83.6366 75.76C85.6766 76.88 87.9966 77.44 90.5966 77.44C94.7966 77.44 98.3166 75.78 101.157 72.46L107.397 78.22C105.397 80.66 102.917 82.52 99.9566 83.8C96.9966 85.08 93.6966 85.72 90.0566 85.72ZM133.547 85.48C130.147 85.48 127.087 84.78 124.367 83.38C121.687 81.94 119.587 79.96 118.067 77.44C116.547 74.92 115.787 72.06 115.787 68.86C115.787 65.66 116.547 62.8 118.067 60.28C119.587 57.76 121.687 55.8 124.367 54.4C127.087 52.96 130.147 52.24 133.547 52.24C136.947 52.24 139.987 52.96 142.667 54.4C145.347 55.8 147.447 57.76 148.967 60.28C150.487 62.8 151.247 65.66 151.247 68.86C151.247 72.06 150.487 74.92 148.967 77.44C147.447 79.96 145.347 81.94 142.667 83.38C139.987 84.78 136.947 85.48 133.547 85.48ZM133.547 77.8C135.947 77.8 137.907 77 139.427 75.4C140.987 73.76 141.767 71.58 141.767 68.86C141.767 66.14 140.987 63.98 139.427 62.38C137.907 60.74 135.947 59.92 133.547 59.92C131.147 59.92 129.167 60.74 127.607 62.38C126.047 63.98 125.267 66.14 125.267 68.86C125.267 71.58 126.047 73.76 127.607 75.4C129.167 77 131.147 77.8 133.547 77.8ZM196.384 40.48V85H187.444V81.28C185.124 84.08 181.764 85.48 177.364 85.48C174.324 85.48 171.564 84.8 169.084 83.44C166.644 82.08 164.724 80.14 163.324 77.62C161.924 75.1 161.224 72.18 161.224 68.86C161.224 65.54 161.924 62.62 163.324 60.1C164.724 57.58 166.644 55.64 169.084 54.28C171.564 52.92 174.324 52.24 177.364 52.24C181.484 52.24 184.704 53.54 187.024 56.14V40.48H196.384ZM178.984 77.8C181.344 77.8 183.304 77 184.864 75.4C186.424 73.76 187.204 71.58 187.204 68.86C187.204 66.14 186.424 63.98 184.864 62.38C183.304 60.74 181.344 59.92 178.984 59.92C176.584 59.92 174.604 60.74 173.044 62.38C171.484 63.98 170.704 66.14 170.704 68.86C170.704 71.58 171.484 73.76 173.044 75.4C174.604 77 176.584 77.8 178.984 77.8ZM227.307 77.98C228.987 77.98 230.467 77.74 231.747 77.26C233.067 76.74 234.287 75.94 235.407 74.86L240.387 80.26C237.347 83.74 232.907 85.48 227.067 85.48C223.427 85.48 220.207 84.78 217.407 83.38C214.607 81.94 212.447 79.96 210.927 77.44C209.407 74.92 208.647 72.06 208.647 68.86C208.647 65.7 209.387 62.86 210.867 60.34C212.387 57.78 214.447 55.8 217.047 54.4C219.687 52.96 222.647 52.24 225.927 52.24C229.007 52.24 231.807 52.9 234.327 54.22C236.847 55.5 238.847 57.38 240.327 59.86C241.847 62.3 242.607 65.2 242.607 68.56L218.727 73.18C219.407 74.78 220.467 75.98 221.907 76.78C223.387 77.58 225.187 77.98 227.307 77.98ZM225.927 59.32C223.567 59.32 221.647 60.08 220.167 61.6C218.687 63.12 217.907 65.22 217.827 67.9L233.547 64.84C233.107 63.16 232.207 61.82 230.847 60.82C229.487 59.82 227.847 59.32 225.927 59.32Z"/></svg>