<svg width="211" height="74" viewBox="0 0 211 74" fill="none" xmlns="http://www.w3.org/2000/svg">
<path d="M11.95 38.5C8.35 38.5 5.53333 37.6 3.5 35.8C1.5 33.9667 0.5 31.3333 0.5 27.9V0.899998H11.8V27.3C11.8 28.1667 12.0167 28.8333 12.45 29.3C12.8833 29.7333 13.5 29.95 14.3 29.95C14.6667 29.95 15.0333 29.9 15.4 29.8C15.8 29.7 16.1167 29.5833 16.35 29.45L16.8 37.8C15.2 38.2667 13.5833 38.5 11.95 38.5ZM54.2988 10.65V38H43.5488V35.75C41.9155 37.5833 39.4155 38.5 36.0488 38.5C33.6488 38.5 31.4322 37.9333 29.3988 36.8C27.3988 35.6333 25.7988 33.9667 24.5988 31.8C23.4322 29.6333 22.8488 27.1333 22.8488 24.3C22.8488 21.4667 23.4322 18.9833 24.5988 16.85C25.7988 14.6833 27.3988 13.0333 29.3988 11.9C31.4322 10.7333 33.6488 10.15 36.0488 10.15C39.0822 10.15 41.3988 10.9333 42.9988 12.5V10.65H54.2988ZM38.7488 29.7C40.0488 29.7 41.1155 29.2333 41.9488 28.3C42.7822 27.3333 43.1988 26 43.1988 24.3C43.1988 22.6 42.7822 21.2833 41.9488 20.35C41.1155 19.4167 40.0488 18.95 38.7488 18.95C37.4488 18.95 36.3822 19.4167 35.5488 20.35C34.7155 21.2833 34.2988 22.6 34.2988 24.3C34.2988 26 34.7155 27.3333 35.5488 28.3C36.3822 29.2333 37.4488 29.7 38.7488 29.7ZM89.6586 29.75V38H63.5586V31.5L67.1586 27.5H64.9586V20.85H73.1086L74.8586 18.9H63.9586V10.65H89.1086V17.15L85.7586 20.9H88.1586V27.55H79.7586L77.8086 29.75H89.6586ZM128.213 10.65V32.55C128.213 37.75 126.763 41.65 123.863 44.25C120.996 46.8833 116.929 48.2 111.663 48.2C108.963 48.2 106.429 47.9 104.063 47.3C101.729 46.7333 99.7292 45.9 98.0625 44.8L101.863 37.1C102.929 37.9 104.263 38.55 105.863 39.05C107.496 39.55 109.046 39.8 110.512 39.8C112.746 39.8 114.363 39.3167 115.363 38.35C116.396 37.3833 116.913 35.9667 116.913 34.1V33.9C114.946 35.6333 112.546 36.5 109.713 36.5C106.246 36.5 103.463 35.45 101.363 33.35C99.2625 31.2167 98.2125 28.0167 98.2125 23.75V10.65H109.513V21.8C109.513 23.6667 109.813 25 110.413 25.8C111.013 26.6 111.896 27 113.063 27C114.163 27 115.079 26.5667 115.813 25.7C116.546 24.8 116.913 23.4 116.913 21.5V10.65H128.213Z" fill="white"/>
<path d="M78.9207 73.8C75.2207 73.8 71.8874 73.0333 68.9207 71.5C65.954 69.9333 63.6207 67.7667 61.9207 65C60.254 62.2 59.4207 59.0333 59.4207 55.5C59.4207 51.9667 60.254 48.8167 61.9207 46.05C63.6207 43.25 65.954 41.0833 68.9207 39.55C71.8874 37.9833 75.2207 37.2 78.9207 37.2C82.3207 37.2 85.354 37.8 88.0207 39C90.6874 40.2 92.8874 41.9333 94.6207 44.2L87.1707 50.85C85.004 48.1167 82.454 46.75 79.5207 46.75C77.054 46.75 75.0707 47.55 73.5707 49.15C72.0707 50.7167 71.3207 52.8333 71.3207 55.5C71.3207 58.1667 72.0707 60.3 73.5707 61.9C75.0707 63.4667 77.054 64.25 79.5207 64.25C82.454 64.25 85.004 62.8833 87.1707 60.15L94.6207 66.8C92.8874 69.0667 90.6874 70.8 88.0207 72C85.354 73.2 82.3207 73.8 78.9207 73.8ZM116.395 73.5C113.362 73.5 110.629 72.9 108.195 71.7C105.795 70.4667 103.912 68.7833 102.545 66.65C101.179 64.4833 100.495 62.0333 100.495 59.3C100.495 56.5667 101.179 54.1333 102.545 52C103.912 49.8333 105.795 48.15 108.195 46.95C110.629 45.75 113.362 45.15 116.395 45.15C119.462 45.15 122.195 45.75 124.595 46.95C127.029 48.15 128.912 49.8333 130.245 52C131.612 54.1333 132.295 56.5667 132.295 59.3C132.295 62.0333 131.612 64.4833 130.245 66.65C128.912 68.7833 127.029 70.4667 124.595 71.7C122.195 72.9 119.462 73.5 116.395 73.5ZM116.395 64.7C117.695 64.7 118.762 64.2333 119.595 63.3C120.429 62.3333 120.845 61 120.845 59.3C120.845 57.6 120.429 56.2833 119.595 55.35C118.762 54.4167 117.695 53.95 116.395 53.95C115.095 53.95 114.029 54.4167 113.195 55.35C112.362 56.2833 111.945 57.6 111.945 59.3C111.945 61 112.362 62.3333 113.195 63.3C114.029 64.2333 115.095 64.7 116.395 64.7ZM171.082 35.9V73H160.332V70.75C158.699 72.5833 156.199 73.5 152.832 73.5C150.432 73.5 148.215 72.9333 146.182 71.8C144.182 70.6333 142.582 68.9667 141.382 66.8C140.215 64.6333 139.632 62.1333 139.632 59.3C139.632 56.4667 140.215 53.9833 141.382 51.85C142.582 49.6833 144.182 48.0333 146.182 46.9C148.215 45.7333 150.432 45.15 152.832 45.15C155.865 45.15 158.182 45.9333 159.782 47.5V35.9H171.082ZM155.532 64.7C156.832 64.7 157.899 64.2333 158.732 63.3C159.565 62.3333 159.982 61 159.982 59.3C159.982 57.6 159.565 56.2833 158.732 55.35C157.899 54.4167 156.832 53.95 155.532 53.95C154.232 53.95 153.165 54.4167 152.332 55.35C151.499 56.2833 151.082 57.6 151.082 59.3C151.082 61 151.499 62.3333 152.332 63.3C153.165 64.2333 154.232 64.7 155.532 64.7ZM196.536 65.15C197.736 65.15 198.736 65 199.536 64.7C200.369 64.4 201.269 63.8833 202.236 63.15L208.136 69.1C205.403 72.0333 201.419 73.5 196.186 73.5C192.886 73.5 189.986 72.9 187.486 71.7C184.986 70.4667 183.053 68.7667 181.686 66.6C180.319 64.4333 179.636 62 179.636 59.3C179.636 56.5667 180.319 54.1333 181.686 52C183.053 49.8333 184.919 48.15 187.286 46.95C189.686 45.75 192.369 45.15 195.336 45.15C198.036 45.15 200.519 45.7 202.786 46.8C205.053 47.8667 206.853 49.4667 208.186 51.6C209.519 53.7 210.186 56.2167 210.186 59.15L191.486 62.75C192.319 64.35 194.003 65.15 196.536 65.15ZM195.386 52.85C194.086 52.85 193.019 53.2333 192.186 54C191.386 54.7667 190.903 55.9 190.736 57.4L199.486 55.7C199.186 54.8333 198.669 54.15 197.936 53.65C197.236 53.1167 196.386 52.85 195.386 52.85Z" fill="#8186B1"/>
</svg>
