<svg width="660" height="396" viewBox="0 0 660 396" fill="none" xmlns="http://www.w3.org/2000/svg">
<path fill-rule="evenodd" clip-rule="evenodd" d="M463.637 387.391C357.756 410.353 289.059 344.23 149.215 344.23C101.427 344.23 -14.0824 345.865 3.80236 170.918C13.9513 71.6429 123.337 26.5878 225.56 84.6133C255.641 96.9891 279.389 93.1536 305.174 80.8571C330.959 68.5606 364.121 13.6659 426.622 2.37263C614.709 -31.6124 822.947 309.47 463.637 387.391Z" fill="#292B3B"/>
<path fill-rule="evenodd" clip-rule="evenodd" d="M459.834 116.66C467.203 121.031 474.603 125.654 483.083 127.849C491.564 130.044 501.53 129.373 508.061 124.029C534.414 102.463 576.853 98.8567 607.219 115.604C637.586 132.351 653.313 168.036 643.966 198.981C634.619 229.927 600.988 253.518 565.387 254.102C546.941 254.404 529.884 262.346 512.258 267.254C494.632 272.163 473.434 273.422 459.65 262.378C444.794 250.475 446.49 225.947 462.87 215.796C437.128 217.533 411.386 219.27 385.644 221.007C391.306 223.075 397.335 225.412 400.581 230.074C403.827 234.736 402.338 242.363 396.425 243.748C374.404 248.908 351.857 239.506 330.721 231.917C309.585 224.329 284.116 218.756 265.268 230.237C222.792 256.112 166.676 251.816 116.085 244.271C103.949 242.461 89.3489 238.479 86.8253 227.635C63.5962 231.573 39.9075 233.309 16.277 232.805C10.5088 232.682 3.69939 231.864 1.00362 227.269C-2.48932 221.316 3.78092 214.562 9.88741 210.677C28.5351 198.814 51.3024 192.288 74.1324 192.26C80.6352 192.252 84.9769 186.131 86.6323 180.467C88.2878 174.803 88.7518 168.5 92.9743 164.046C78.6151 162.105 63.403 166.053 52.3925 174.579C50.349 176.161 46.8995 174.572 46.0417 172.271C45.1839 169.97 46.0676 167.467 46.9749 165.182C52.0553 152.384 58.4251 139.381 69.9715 130.631C81.518 121.88 99.5582 118.724 111.73 126.757C115.549 129.277 122.032 132.512 131.18 136.462C140.56 135.184 147.535 134.167 152.104 133.411C165.941 131.12 178.771 125.46 191.314 119.72C235.021 99.7182 279.835 77.4498 328.84 76.1935C375.721 74.9917 420.664 93.4276 459.834 116.66ZM509.431 151.334L513.828 161.311C514.043 161.799 514.277 162.311 514.731 162.642C515.281 163.043 516.037 163.096 516.738 163.187C522.114 163.885 526.325 167.561 530.135 171.047C535.015 175.512 539.895 179.977 544.775 184.442C546.237 185.78 548.667 184.333 550.066 182.942C553.213 179.815 556.418 176.607 558.235 172.717C560.052 168.826 560.249 164.055 557.541 160.611C555.932 158.564 553.481 157.184 550.969 156.102C546.822 154.317 542.324 153.197 537.748 152.811C533.286 152.434 528.792 152.751 524.311 152.721C519.317 152.688 514.327 152.223 509.431 151.334Z" fill="white"/>
<path fill-rule="evenodd" clip-rule="evenodd" d="M86.8253 227.635C63.5962 231.573 39.9075 233.309 16.277 232.805C9.47662 223.879 83.0648 207.433 85.7331 218.275C87.843 226.848 87.9396 232.423 86.8253 227.635Z" fill="#E7EAEE"/>
<path fill-rule="evenodd" clip-rule="evenodd" d="M443.196 198.718C445.679 198.479 455.544 196.301 465.901 197.31C471.467 194.737 498.14 196.758 514.062 199.568C524.282 201.371 550.184 202.569 559.59 206.891C575.917 214.392 576.292 219.029 573.835 220.022C566.857 222.844 558.449 224.234 553.93 224.308C545.793 224.442 529.425 217.668 511.47 213.425C503.452 211.53 497.56 209.92 492.916 208.359L493.674 208.06C483.63 212.143 473.24 212.794 462.87 215.796C437.128 217.533 411.386 219.27 385.644 221.007C391.306 223.075 306.117 195.139 330.721 191.063C332.237 190.812 333.909 190.659 335.722 190.591C358.763 189.721 404.544 202.438 443.196 198.718Z" fill="#E7EAEE"/>
<path fill-rule="evenodd" clip-rule="evenodd" d="M213.301 164.231C213.615 164.737 213.378 165.409 212.906 165.802C212.435 166.196 211.787 166.366 211.155 166.473C206.501 167.26 201.417 164.973 199.318 161.15C199.084 160.724 198.88 160.256 198.952 159.785C199.023 159.313 199.463 158.858 199.99 158.886C201.344 160.232 202.719 161.593 204.405 162.59C206.092 163.586 208.154 164.193 210.138 163.865C211.264 163.679 212.742 163.332 213.301 164.231Z" fill="#00160A"/>
<path fill-rule="evenodd" clip-rule="evenodd" d="M216.352 216.383C216.417 215.203 218.059 214.71 219.371 214.666C225.245 214.47 230.716 217.064 236.141 219.101C241.567 221.139 247.885 222.642 253.184 220.349C254.29 219.871 255.449 219.217 256.649 219.448C254.658 222.925 249.901 224.503 245.564 224.289C241.227 224.075 237.163 222.423 233.164 220.896C229.165 219.368 224.958 217.915 220.622 218.133C219.732 218.178 218.821 218.291 217.964 218.073C217.107 217.855 216.307 217.185 216.352 216.383Z" fill="#00160A"/>
<path fill-rule="evenodd" clip-rule="evenodd" d="M226.636 226.285C222.583 225.22 217.846 225.753 214.517 223.415C214.111 223.129 213.709 222.754 213.693 222.29C213.671 221.639 214.45 221.163 215.173 221.146C215.895 221.129 216.574 221.426 217.253 221.651C219.731 222.471 222.458 222.361 225.045 222.835C228.926 223.548 232.343 225.54 235.998 226.914C239.653 228.287 244.037 228.99 247.441 227.166C248.814 226.43 250.619 225.332 251.757 226.342C248.052 230.143 241.778 231.727 236.419 230.215C233.006 229.252 230.069 227.187 226.636 226.285Z" fill="#00160A"/>
<path fill-rule="evenodd" clip-rule="evenodd" d="M109.855 187.798C109.203 187.048 109.209 185.959 109.625 185.083C110.04 184.207 110.804 183.506 111.592 182.872C115.337 179.859 120.519 177.82 125.38 178.952C129.023 179.801 131.906 182.26 134.457 184.752C135.549 185.819 136.676 187.347 135.858 188.597C134.985 189.933 132.793 189.65 131.132 189.245C125.977 187.986 120.514 187.244 115.305 188.306C113.415 188.691 111.048 189.173 109.855 187.798Z" fill="#00160A"/>
<path fill-rule="evenodd" clip-rule="evenodd" d="M194.279 233.031C194.997 233.421 194.898 234.466 194.299 234.996C193.701 235.526 192.819 235.678 191.992 235.806C187.354 236.522 182.717 237.238 178.079 237.955C177.111 238.104 176.029 238.233 175.222 237.729C174.414 237.225 174.391 235.824 175.352 235.641C181.166 234.535 187.027 233.627 192.916 232.917C193.378 232.861 193.88 232.814 194.279 233.031Z" fill="#00160A"/>
<path fill-rule="evenodd" clip-rule="evenodd" d="M182.445 189.39C181.425 189.73 180.298 188.843 180.161 187.871C180.023 186.899 180.581 185.958 181.228 185.17C184.235 181.501 189.596 179.623 194.62 180.187C199.645 180.751 204.209 183.618 206.848 187.51C207.256 188.111 207.633 188.801 207.478 189.49C207.311 190.237 206.536 190.779 205.715 190.964C204.895 191.148 204.031 191.042 203.198 190.913C199.728 190.372 196.345 189.437 192.873 188.91C189.401 188.384 185.746 188.286 182.445 189.39Z" fill="#00160A"/>
<path fill-rule="evenodd" clip-rule="evenodd" d="M116.874 164.286C117.268 163.244 118.94 163.502 120.138 163.716C123.873 164.384 127.526 162.508 130.766 160.707C131.198 160.466 131.774 160.923 131.764 161.381C131.755 161.839 131.389 162.22 131.032 162.546C127.801 165.486 122.971 167.497 118.604 166.218C117.628 165.932 116.542 165.16 116.874 164.286Z" fill="#00160A"/>
<path fill-rule="evenodd" clip-rule="evenodd" d="M246.597 182.105C245.337 181.889 244.684 180.512 244.919 179.376C245.155 178.241 246.011 177.304 246.819 176.406C249.871 173.017 252.651 169.412 254.843 165.52C256.728 162.173 258.172 158.623 260.291 155.392C266.355 146.146 278.116 140.169 290.038 140.274C285.26 137.194 279.612 135.372 273.892 134.166C256.196 130.437 237.077 132.46 220.823 139.782C218.254 140.94 215.748 142.227 213.069 143.16C211.833 143.59 210.466 143.946 209.2 143.593C207.934 143.24 206.941 141.898 207.53 140.828C207.869 140.212 208.6 139.867 209.285 139.563C216.21 136.486 223.163 133.397 230.503 131.237C246.923 126.404 265.066 126.452 281.454 131.374C286.952 133.025 292.699 135.59 295.08 140.35C295.445 141.081 295.479 142.248 294.599 142.367C285.156 143.649 275.547 146.593 269.029 152.879C260.587 161.021 258.542 173.522 249.388 181.013C248.608 181.651 247.632 182.283 246.597 182.105Z" fill="#00160A"/>
<path fill-rule="evenodd" clip-rule="evenodd" d="M385.644 221.007C391.306 223.075 397.335 225.412 400.581 230.074C403.827 234.736 402.338 242.363 396.425 243.748C374.404 248.908 351.857 239.506 330.721 231.917C309.585 224.329 284.116 218.756 265.268 230.237C222.792 256.112 166.676 251.816 116.085 244.271C103.949 242.461 89.3489 238.479 86.8253 227.635C63.5962 231.573 39.9075 233.309 16.277 232.805C10.5088 232.682 3.69939 231.864 1.00362 227.269C-2.48932 221.316 3.78092 214.562 9.88741 210.677C28.5351 198.814 51.3024 192.288 74.1324 192.26C80.6352 192.252 84.9769 186.131 86.6323 180.467C88.2878 174.803 88.7518 168.5 92.9743 164.046C78.6151 162.105 63.403 166.053 52.3925 174.579C50.349 176.161 46.8995 174.572 46.0417 172.271C45.1839 169.97 46.0676 167.467 46.9749 165.182C52.0553 152.384 58.4251 139.381 69.9715 130.631C81.518 121.88 94.2978 118.559 111.651 125.676C116.196 127.54 122.686 130.852 131.123 135.612C140.447 134.917 147.441 134.183 152.104 133.411C165.941 131.12 178.771 125.46 191.314 119.72C235.021 99.7182 279.835 77.4498 328.84 76.1935C375.721 74.9917 420.664 93.4276 459.834 116.66C467.203 121.031 474.603 125.654 483.083 127.849C491.564 130.044 501.53 129.373 508.061 124.029C534.414 102.463 576.853 98.8567 607.219 115.604C637.586 132.351 653.313 168.036 643.966 198.981C634.619 229.927 600.988 253.518 565.387 254.102C546.941 254.404 529.884 262.346 512.258 267.254C494.632 272.163 473.434 273.422 459.65 262.378C444.794 250.475 446.49 225.947 462.87 215.796C437.128 217.533 411.386 219.27 385.644 221.007ZM534.652 178.233C521.662 166.464 502.281 160.71 484.066 163.213C492.886 160.745 502.335 160.123 511.459 161.41C485.596 127.77 443.857 106.759 401.315 92.4046C380.64 85.4288 359.11 79.6946 337.038 79.2557C308.304 78.6844 280.3 87.096 253.759 97.0299C224.629 107.933 196.451 120.775 168.305 133.605C176.989 133.205 185.791 136.642 191.404 142.624C167.829 133.869 139.904 135.219 117.506 146.197C117.613 142.186 121.172 138.468 125.561 137.782C112.743 127.611 93.0529 125.142 77.6388 131.774C62.2248 138.405 51.9829 153.752 52.7128 169.124C65.7302 159.427 84.5055 156.429 100.431 161.503C90.9519 175.749 86.0584 192.438 86.4917 209.042C91.4727 207.152 97.6105 208.04 101.683 211.241C97.1329 211.682 92.5831 212.123 88.0332 212.564C88.2255 214.434 88.4178 216.304 88.61 218.173C93.4244 217.534 98.2388 216.895 103.053 216.256C99.9549 219.466 95.5859 221.66 90.9252 222.346C90.34 227.688 94.4568 232.729 99.6219 235.406C104.787 238.084 110.853 238.882 116.754 239.631C131.462 241.497 146.171 243.363 160.879 245.229C157.468 241.764 156.909 236.185 154.683 232.328C151.798 227.332 147.633 225.298 145.545 218.67C144.825 216.383 143.165 213.164 145.488 211.71C146.464 211.099 147.735 211.076 148.924 211.074C153.779 211.07 158.634 211.065 163.49 211.061C165.058 211.059 166.699 211.073 168.086 211.733C172.288 213.735 170.961 219.648 167.823 222.864C164.685 226.08 160.197 228.649 159.125 232.82C158.024 237.105 161.227 241.547 165.481 243.707C169.735 245.867 174.796 246.233 179.677 246.383C189.963 246.7 200.277 246.27 210.487 245.1C236.19 242.155 263.572 232.722 275.502 212.006C274.781 217.228 271.751 222.162 267.224 225.488C285.951 219.276 307.157 219.345 325.832 225.681C343.543 231.689 360.348 243.292 379.131 241.21C378.326 240.622 378.014 239.606 377.209 239.018C375.018 237.417 372.334 236.245 370.143 234.644C376.84 236.85 383.537 239.057 390.234 241.263C389.474 240.26 390.234 239.248 388.817 237.713C387.401 236.179 384.307 233.441 382.484 231.035C387.555 232.364 392 235.534 394.599 239.676C396.767 239.198 398.934 238.721 401.102 238.243C390.098 224.865 374.885 214.328 357.705 208.184C349.37 205.202 339.037 201.634 337.994 193.612C356.73 209.908 383.578 216.859 409.618 217.356C435.657 217.852 461.351 212.523 486.724 207.226C480.915 204.581 475.677 200.923 471.387 196.515C499.885 210.895 531.77 219.8 564.301 222.464C562.456 219.647 560.611 216.83 558.766 214.013C562.801 214.116 566.572 216.873 567.514 220.409C569.538 219.691 571.562 218.973 573.586 218.256C570.771 215.77 567.956 213.284 565.141 210.799C569.669 209.816 574.749 212.961 575.352 217.121C577.247 216.233 578.811 214.784 579.741 213.053C576.375 210.758 573.009 208.463 569.643 206.168C574.746 206.074 579.867 207.612 583.887 210.445C579.131 200.032 563.041 199.784 552.352 193.944C545.244 190.06 540.514 183.544 534.652 178.233ZM510.456 148.316C516.813 149.704 523.471 148.629 530.013 148.647C536.79 148.665 543.542 149.876 549.892 152.008C553.812 153.325 557.731 155.094 560.28 158.082C564.32 162.819 563.968 169.691 561.15 175.098C558.331 180.505 553.453 184.779 548.679 188.925C558.701 192.952 568.724 196.979 578.746 201.006C581.578 202.144 584.639 203.479 585.934 206.017C588.173 210.405 583.827 215.218 579.362 217.893C565.435 226.236 546.493 227.26 531.558 220.476C521.976 216.123 511.354 214.047 500.863 212.013C495.136 210.902 489.17 209.791 483.48 211.048C479.441 211.94 475.634 214.008 471.479 213.881C467.765 213.768 464.878 216.656 462.703 219.368C455.543 228.293 449.64 239.699 453.832 250.042C456.714 257.154 464.019 262.277 471.979 264.708C479.94 267.139 488.543 267.208 496.932 266.727C507.431 266.125 518.127 264.625 527.347 260.061C533.35 257.089 538.723 252.83 545.364 251.314C553.331 249.495 561.726 251.936 569.923 251.396C576.451 250.967 582.628 248.666 588.605 246.263C603.205 240.394 617.807 233.466 628.163 222.495C643.606 206.136 647.278 182.164 639.899 161.745C632.521 141.326 615.085 124.538 594.217 114.155C588.479 111.3 582.438 108.874 576.077 107.45C560.807 104.029 544.093 106.723 530.749 114.232C523.878 118.099 517.909 123.136 511.177 127.196C504.445 131.255 496.531 134.381 488.468 133.672C494.682 139.857 501.455 146.351 510.456 148.316ZM29.825 204.242C20.4714 207.526 11.1122 211.884 5.18408 219.182C7.91163 217.828 11.3366 217.678 14.1973 218.786C12.1119 219.714 10.0265 220.642 7.94114 221.57C6.77291 222.09 5.56532 222.638 4.75394 223.557C3.94257 224.475 3.64916 225.877 4.43467 226.813C5.22019 227.75 7.20684 227.664 7.58683 226.541C8.98106 222.422 14.365 219.789 18.9598 220.98C15.5088 222.75 11.7406 224.883 10.7857 228.356C11.3017 229.92 13.8448 230.177 15.3395 229.255C16.8342 228.332 17.5801 226.734 18.4398 225.298C19.2994 223.861 20.5478 222.39 22.3406 222.154C22.719 222.104 23.1514 222.13 23.4142 222.381C23.8722 222.817 23.4941 223.53 23.0632 223.988C22.0868 225.026 20.8408 225.934 20.3608 227.224C19.8808 228.514 20.7386 230.317 22.246 230.234C43.412 229.069 64.5381 227.317 85.5842 224.98C86.3447 223.496 84.0341 222.291 82.2363 222.072C77.673 221.515 72.9788 221.844 68.5661 223.03C69.3812 220.587 72.1203 218.988 74.9062 218.53C77.6921 218.071 80.5511 218.543 83.3345 219.013C83.3562 217.252 82.9913 215.488 82.2671 213.853C77.8415 213.769 73.455 212.438 69.8759 210.092C72.8675 209.084 76.3428 209.314 79.139 210.704C80.4742 211.368 81.4691 209.425 81.4912 208.051C81.5628 203.587 81.6344 199.123 81.7061 194.659C63.9773 195.183 46.3518 198.438 29.825 204.242ZM516.738 163.187C522.114 163.885 526.325 167.561 530.135 171.047C535.015 175.512 539.895 179.977 544.775 184.442C546.237 185.78 548.667 184.333 550.066 182.942C553.213 179.815 556.418 176.607 558.235 172.717C560.052 168.826 560.249 164.055 557.541 160.611C555.932 158.564 553.481 157.184 550.969 156.102C546.822 154.317 542.324 153.197 537.748 152.811C533.286 152.434 528.792 152.751 524.311 152.721C519.317 152.688 514.327 152.223 509.431 151.334C510.897 154.66 512.362 157.985 513.828 161.311C514.043 161.799 514.277 162.311 514.731 162.642C515.281 163.043 516.037 163.096 516.738 163.187Z" fill="#00160A"/>
<path d="M266.957 375.418L266.957 375.419C266.938 376.48 266.47 377.705 265.641 378.508C265.137 378.995 264.505 379.016 264.303 379.019C264.01 379.023 263.722 378.979 263.496 378.935C263.036 378.846 262.547 378.694 262.238 378.598L262.238 378.598C261.181 378.265 260.171 377.847 259.221 377.428C257.603 376.716 255.963 376.016 254.315 375.312C245.778 371.668 237.005 367.924 229.746 361.798C228.133 360.436 226.771 358.871 226.679 357.011C226.592 355.232 227.667 353.783 229.227 352.553C228.678 352.654 228.156 352.757 227.655 352.892C226.926 353.089 226.402 353.317 226.06 353.584L225.14 352.407L226.06 353.584C224.239 355.008 223.585 356.631 223.461 358.37C223.329 360.208 223.787 362.182 224.324 364.255C226.395 372.254 232.843 376.975 241.176 381.258C257.529 389.662 274.598 394.184 293.527 393.757C308.037 393.429 322.515 393.538 336.966 393.646C367.487 393.874 397.89 394.102 428.238 390.221C431.424 389.813 434.571 389.466 437.702 389.121C442.02 388.645 446.309 388.172 450.632 387.548C454.66 386.967 457.514 385.488 458.223 382.182C458.701 379.956 459.282 377.655 459.855 375.384C460.277 373.712 460.695 372.057 461.064 370.461C461.959 366.595 462.641 362.808 462.7 359.053C462.872 348.053 462.26 337.064 461.645 326.015C461.42 321.963 461.194 317.903 461.006 313.831C460.839 310.21 460.561 306.604 460.043 303.049C459.645 300.312 459.144 297.523 458.637 294.706C457.689 289.429 456.722 284.053 456.383 278.73C455.926 271.585 453.811 265.299 449.185 259.812L450.332 258.846L449.185 259.812C448.468 258.962 447.464 258.071 446.359 257.368C445.241 256.658 444.123 256.205 443.173 256.103C432.661 254.977 422.116 254.146 411.547 253.313C408.017 253.034 404.484 252.756 400.949 252.466C398.453 252.261 395.952 252.062 393.45 251.862C388.821 251.493 384.186 251.123 379.559 250.72C375.413 250.358 371.298 249.915 367.202 249.475C358.353 248.523 349.587 247.58 340.761 247.48C332.469 247.387 324.244 248.083 315.932 248.786C311.335 249.175 306.712 249.566 302.037 249.827C291.797 250.399 281.997 252.464 272.449 255.832C268.673 257.164 265.876 258.99 264.069 261.256C262.282 263.495 261.378 266.269 261.552 269.696C261.946 277.446 262.475 285.103 263.006 292.776C263.467 299.453 263.93 306.143 264.305 312.916C264.402 314.674 264.175 316.413 263.949 318.013C263.931 318.141 263.913 318.267 263.895 318.393C263.683 319.89 263.488 321.264 263.486 322.627C263.484 324.086 263.638 325.565 263.824 327.118C263.851 327.351 263.88 327.586 263.909 327.823C264.069 329.14 264.237 330.514 264.314 331.889M266.957 375.418L262.816 331.972M266.957 375.418C266.965 374.983 266.865 374.601 266.771 374.322C266.691 374.086 266.589 373.849 266.517 373.683C266.506 373.657 266.496 373.634 266.487 373.612C266.413 373.439 266.374 373.339 266.353 373.269M266.957 375.418L264.861 373.059M264.314 331.889L262.816 331.972M264.314 331.889C264.314 331.888 264.314 331.888 264.314 331.888L262.816 331.972M264.314 331.889C264.316 331.933 264.33 332.169 264.354 332.57C264.501 335.039 265.022 343.758 265.5 352.426C265.778 357.474 266.042 362.528 266.213 366.367C266.298 368.285 266.36 369.909 266.388 371.079C266.402 371.662 266.408 372.147 266.404 372.505C266.402 372.682 266.397 372.848 266.386 372.99C266.381 373.058 266.373 373.145 266.358 373.236L266.358 373.241C266.357 373.247 266.355 373.257 266.353 373.269M262.816 331.972C262.819 332.023 262.834 332.28 262.86 332.714C263.19 338.238 265.229 372.39 264.861 373.059M266.353 373.269C266.35 373.258 266.347 373.247 266.344 373.237C266.341 373.227 266.34 373.22 266.339 373.216C266.341 373.23 266.346 373.286 266.329 373.369L264.861 373.059M266.353 373.269C266.339 373.351 266.295 373.564 266.175 373.782L264.861 373.059" fill="#B3B7D8" stroke="black" stroke-width="3"/>
<path d="M369.251 322.132H368.645C367.797 320.714 367.191 318.859 366.586 317.004L367.676 317.986C370.947 320.278 373.854 319.841 373.854 319.841C373.854 319.841 374.702 315.695 371.432 313.513C368.645 311.549 366.101 311.549 365.374 311.658C365.253 311.003 365.253 310.457 365.132 310.021L363.436 310.13C363.436 313.622 360.165 320.059 359.075 322.132C356.652 322.351 354.714 324.206 354.714 326.497C354.714 328.897 356.894 330.861 359.559 330.861C360.892 330.861 361.982 330.425 362.83 329.661C362.346 328.679 361.982 327.588 361.982 326.497C361.982 325.406 362.346 324.315 362.83 323.333C362.346 322.896 361.619 322.569 361.013 322.351C361.861 320.714 363.315 317.768 364.284 314.931C364.769 317.441 365.738 320.387 366.949 322.678C365.495 323.442 364.405 324.86 364.405 326.497C364.405 328.897 366.586 330.861 369.251 330.861C371.916 330.861 374.097 328.897 374.097 326.497C374.097 324.096 371.916 322.132 369.251 322.132ZM359.559 324.86C358.59 324.86 357.742 325.624 357.742 326.497H356.531C356.531 324.969 357.863 323.769 359.559 323.769V324.86ZM369.251 324.86C368.282 324.86 367.434 325.624 367.434 326.497H366.222C366.222 324.969 367.555 323.769 369.251 323.769V324.86Z" fill="black"/>
<path d="M248.646 349.298L248.574 349.304L248.503 349.316L230.889 352.376L230.244 352.488L229.888 353.036L228.434 355.273L227.904 356.088L228.432 356.905L232.083 362.554L232.283 362.864L232.604 363.045L248.832 372.226L248.927 372.28L249.029 372.319L262.102 377.38L263.433 377.896L264.014 376.591L265.952 372.237L266.1 371.905L266.079 371.542L264.862 350.003L264.782 348.588H263.364H258.09H258.034L257.977 348.592L248.646 349.298Z" fill="#656987" stroke="black" stroke-width="3"/>
</svg>
