<svg width="76" height="76" viewBox="0 0 76 76" fill="none" xmlns="http://www.w3.org/2000/svg">
<path d="M0 26C0 14.9543 8.95431 6 20 6H68C69.1046 6 70 6.89543 70 8V56C70 67.0457 61.0457 76 50 76H20C8.9543 76 0 67.0457 0 56V26Z" fill="#262837"/>
<path d="M42.1355 50.929C43.064 50.0019 44.567 50.0043 45.4925 50.9344C46.4181 51.8645 46.4157 53.3701 45.4871 54.2973L41.3641 58.4142C37.5604 62.2125 31.3576 62.2676 27.4897 58.5422C27.4673 58.5207 25.745 56.832 20.0633 51.2606C16.2833 47.5543 15.9067 41.6236 19.4638 37.8151L26.0958 30.7139C29.6261 26.9337 36.1336 26.5205 40.17 29.7847L46.1935 34.6561C47.2135 35.481 47.3729 36.9782 46.5493 38C45.7258 39.0219 44.2313 39.1815 43.2112 38.3565L37.1878 33.4852C35.0769 31.7781 31.3842 32.0125 29.5627 33.963L22.9306 41.0643C21.199 42.9184 21.3886 45.9052 23.3842 47.8619C27.5564 51.9531 30.7719 55.106 30.7756 55.1096C32.7865 57.0464 36.0381 57.0175 38.0125 55.0459L42.1355 50.929Z" fill="#FFA116"/>
<path fill-rule="evenodd" clip-rule="evenodd" d="M32.1196 46.809C30.8086 46.809 29.7458 45.7444 29.7458 44.4311C29.7458 43.1178 30.8086 42.0532 32.1196 42.0532H49.6262C50.9372 42.0532 52 43.1178 52 44.4311C52 45.7444 50.9372 46.809 49.6262 46.809H32.1196Z" fill="#B3B3B3"/>
<path fill-rule="evenodd" clip-rule="evenodd" d="M35.3984 20.7534C36.2941 19.7943 37.7963 19.7442 38.7536 20.6415C39.711 21.5387 39.761 23.0435 38.8653 24.0025L22.9309 41.0644C21.1992 42.9183 21.3889 45.9051 23.3843 47.8619L30.7431 55.0779C31.6799 55.9965 31.696 57.5021 30.7789 58.4406C29.8618 59.379 28.3589 59.3951 27.4221 58.4764L20.0633 51.2605C16.2836 47.554 15.907 41.6233 19.4642 37.8151L35.3984 20.7534Z" fill="white"/>
<path d="M59 7H69V17" stroke="#8186B1" stroke-width="2" stroke-linecap="square" stroke-linejoin="round"/>
</svg>
