<svg width="35" height="42" viewBox="0 0 35 42" fill="none" xmlns="http://www.w3.org/2000/svg">
<path d="M25.1355 30.929C26.064 30.0019 27.567 30.0043 28.4925 30.9344C29.4181 31.8645 29.4157 33.3701 28.4871 34.2973L24.3641 38.4142C20.5604 42.2125 14.3576 42.2676 10.4897 38.5422C10.4673 38.5207 8.745 36.832 3.06325 31.2606C-0.716678 27.5543 -1.09325 21.6236 2.46376 17.8151L9.09579 10.7139C12.6261 6.93367 19.1336 6.52051 23.17 9.78471L29.1935 14.6561C30.2135 15.481 30.3729 16.9782 29.5493 18C28.7258 19.0219 27.2313 19.1815 26.2112 18.3565L20.1878 13.4852C18.0769 11.7781 14.3842 12.0125 12.5627 13.963L5.9306 21.0643C4.19896 22.9184 4.38861 25.9052 6.38419 27.8619C10.5564 31.9531 13.7719 35.106 13.7756 35.1096C15.7865 37.0464 19.0381 37.0175 21.0125 35.0459L25.1355 30.929Z" fill="#FFA116"/>
<path fill-rule="evenodd" clip-rule="evenodd" d="M15.1196 26.809C13.8086 26.809 12.7458 25.7444 12.7458 24.4311C12.7458 23.1178 13.8086 22.0532 15.1196 22.0532H32.6262C33.9372 22.0532 35 23.1178 35 24.4311C35 25.7444 33.9372 26.809 32.6262 26.809H15.1196Z" fill="#B3B3B3"/>
<path fill-rule="evenodd" clip-rule="evenodd" d="M18.3984 0.753375C19.2941 -0.205651 20.7963 -0.255758 21.7536 0.641458C22.711 1.53867 22.761 3.04346 21.8653 4.00248L5.93092 21.0644C4.19922 22.9183 4.38887 25.9051 6.38432 27.8619L13.7431 35.0779C14.6799 35.9965 14.696 37.5021 13.7789 38.4406C12.8618 39.379 11.3589 39.3951 10.4221 38.4764L3.06327 31.2605C-0.716437 27.554 -1.09301 21.6233 2.46417 17.8151L18.3984 0.753375Z" fill="white"/>
</svg>
