<svg width="500" height="120" viewBox="0 0 500 120" fill="none" xmlns="http://www.w3.org/2000/svg">
<rect width="500" height="120" rx="15" fill="#292B3C"/>
<path d="M177.43 72.4443C178.555 71.3219 180.374 71.3248 181.495 72.4508C182.615 73.5769 182.612 75.3997 181.488 76.5221L176.497 81.5063C171.891 86.1047 164.382 86.1714 159.699 81.6612C159.672 81.6353 157.587 79.5908 150.709 72.8458C146.132 68.3587 145.676 61.1787 149.983 56.568L158.012 47.9709C162.286 43.3943 170.164 42.8941 175.051 46.8459L182.343 52.7434C183.578 53.7422 183.771 55.5547 182.774 56.7918C181.777 58.0289 179.968 58.2221 178.733 57.2234L171.44 51.3259C168.885 49.2592 164.414 49.543 162.209 51.9044L154.18 60.5016C152.083 62.7462 152.313 66.3623 154.729 68.7312C159.78 73.6842 163.673 77.5012 163.678 77.5055C166.112 79.8503 170.049 79.8154 172.439 77.4285L177.43 72.4443Z" fill="#FFA116"/>
<path fill-rule="evenodd" clip-rule="evenodd" d="M165.305 67.4565C163.717 67.4565 162.431 66.1676 162.431 64.5776C162.431 62.9877 163.717 61.6988 165.305 61.6988H186.499C188.086 61.6988 189.373 62.9877 189.373 64.5776C189.373 66.1676 188.086 67.4565 186.499 67.4565H165.305Z" fill="#B3B3B3"/>
<path fill-rule="evenodd" clip-rule="evenodd" d="M169.274 35.9121C170.358 34.751 172.177 34.6904 173.336 35.7766C174.495 36.8628 174.555 38.6846 173.471 39.8456L154.18 60.5017C152.084 62.7461 152.313 66.3621 154.729 68.7311L163.638 77.4671C164.772 78.5793 164.792 80.402 163.681 81.5382C162.571 82.6744 160.752 82.6938 159.617 81.5816L150.708 72.8456C146.132 68.3583 145.677 61.1784 149.983 56.5679L169.274 35.9121Z" fill="white"/>
<path fill-rule="evenodd" clip-rule="evenodd" d="M206.464 52.5274V71.4741C206.464 72.2019 206.722 72.824 207.238 73.3406C207.755 73.8571 208.377 74.1153 209.105 74.1153H214.229C214.675 74.1153 215.057 74.2738 215.373 74.5908C215.69 74.9077 215.849 75.2892 215.849 75.7353V75.7705C215.849 76.2166 215.69 76.5922 215.373 76.8975C215.057 77.2144 214.675 77.3729 214.229 77.3729H209.105C207.473 77.3729 206.082 76.7977 204.932 75.6473C203.781 74.4968 203.206 73.1058 203.206 71.4741V52.5274C203.206 52.0813 203.365 51.6998 203.681 51.3829C203.998 51.0777 204.374 50.925 204.808 50.925H204.861C205.296 50.925 205.671 51.0777 205.988 51.3829C206.305 51.6998 206.464 52.0813 206.464 52.5274ZM226.872 61.4373C225.111 61.4373 223.608 62.0594 222.364 63.3038C221.131 64.5481 220.515 66.0507 220.515 67.8115C220.515 68.1285 220.539 68.4395 220.586 68.7448L231.732 63.7088C230.464 62.1944 228.844 61.4373 226.872 61.4373ZM235.606 63.7616C235.793 64.1607 235.811 64.5716 235.658 64.9942C235.506 65.405 235.224 65.7044 234.813 65.8922C233.17 66.6318 231.01 67.6061 228.333 68.8152C225.011 70.3178 222.857 71.2921 221.871 71.7382C223.139 73.3582 224.806 74.1682 226.872 74.1682C228.245 74.1682 229.49 73.7632 230.605 72.9532C231.685 72.1667 232.442 71.1454 232.876 69.8893C233.134 69.1615 233.651 68.7976 234.426 68.7976C234.978 68.7976 235.418 69.0265 235.746 69.4843C236.063 69.9304 236.128 70.4176 235.94 70.9458C235.283 72.8475 234.132 74.3853 232.489 75.5592C230.81 76.7683 228.938 77.3729 226.872 77.3729C224.219 77.3729 221.953 76.4338 220.075 74.5555C218.197 72.6773 217.258 70.4117 217.258 67.7587C217.258 65.1057 218.197 62.8401 220.075 60.9618C221.953 59.0836 224.219 58.1445 226.872 58.1445C228.785 58.1445 230.534 58.6669 232.119 59.7116C233.68 60.7329 234.842 62.0829 235.606 63.7616ZM248.301 61.4373C246.54 61.4373 245.038 62.0594 243.793 63.3038C242.561 64.5481 241.945 66.0507 241.945 67.8115C241.945 68.1285 241.968 68.4395 242.015 68.7448L253.161 63.7088C251.893 62.1944 250.273 61.4373 248.301 61.4373ZM257.035 63.7616C257.223 64.1607 257.24 64.5716 257.088 64.9942C256.935 65.405 256.653 65.7044 256.243 65.8922C254.599 66.6318 252.439 67.6061 249.763 68.8152C246.441 70.3178 244.286 71.2921 243.3 71.7382C244.568 73.3582 246.235 74.1682 248.301 74.1682C249.675 74.1682 250.919 73.7632 252.034 72.9532C253.114 72.1667 253.871 71.1454 254.306 69.8893C254.564 69.1615 255.08 68.7976 255.855 68.7976C256.407 68.7976 256.847 69.0265 257.176 69.4843C257.493 69.9304 257.557 70.4176 257.37 70.9458C256.712 72.8475 255.562 74.3853 253.918 75.5592C252.24 76.7683 250.367 77.3729 248.301 77.3729C245.648 77.3729 243.383 76.4338 241.504 74.5555C239.626 72.6773 238.687 70.4117 238.687 67.7587C238.687 65.1057 239.626 62.8401 241.504 60.9618C243.383 59.0836 245.648 58.1445 248.301 58.1445C250.215 58.1445 251.964 58.6669 253.549 59.7116C255.11 60.7329 256.272 62.0829 257.035 63.7616ZM262.3 50.925C262.734 50.925 263.11 51.0777 263.427 51.3829C263.744 51.6998 263.902 52.0813 263.902 52.5274V58.1445H267.072C267.506 58.1445 267.882 58.303 268.199 58.6199C268.516 58.9369 268.674 59.3184 268.674 59.7645V59.7997C268.674 60.2458 268.516 60.6214 268.199 60.9266C267.882 61.2436 267.506 61.4021 267.072 61.4021H263.902V72.3721C263.902 72.8534 264.072 73.2643 264.413 73.6047C264.753 73.9451 265.17 74.1153 265.663 74.1153H267.072C267.506 74.1153 267.882 74.2738 268.199 74.5908C268.516 74.9077 268.674 75.2892 268.674 75.7353V75.7705C268.674 76.2166 268.516 76.5922 268.199 76.8975C267.882 77.2144 267.506 77.3729 267.072 77.3729H265.663C264.278 77.3729 263.092 76.8857 262.106 75.9114C261.132 74.9253 260.645 73.7456 260.645 72.3721V52.5274C260.645 52.0813 260.803 51.6998 261.12 51.3829C261.437 51.0777 261.813 50.925 262.247 50.925H262.3ZM283.923 50.925C285.038 50.925 286.136 51.06 287.216 51.33C288.026 51.5413 288.431 52.0579 288.431 52.8796V52.9324C288.431 53.4489 288.219 53.8715 287.797 54.2002C287.386 54.5172 286.928 54.6111 286.423 54.4819C285.602 54.2706 284.768 54.165 283.923 54.165C281.176 54.165 278.828 55.1393 276.88 57.088C274.931 59.0367 273.957 61.3903 273.957 64.149C273.957 66.9076 274.931 69.2613 276.88 71.2099C278.828 73.1469 281.176 74.1153 283.923 74.1153C284.768 74.1153 285.602 74.0155 286.423 73.816C286.928 73.6869 287.386 73.7808 287.797 74.0977C288.219 74.4147 288.431 74.8373 288.431 75.3655V75.4007C288.431 76.2342 288.026 76.7566 287.216 76.9679C286.136 77.2379 285.038 77.3729 283.923 77.3729C280.272 77.3729 277.156 76.0816 274.573 73.499C271.99 70.9165 270.699 67.7998 270.699 64.149C270.699 60.4981 271.99 57.3815 274.573 54.7989C277.156 52.2163 280.272 50.925 283.923 50.925ZM300.334 61.4373C298.573 61.4373 297.071 62.0594 295.826 63.3038C294.594 64.5481 293.977 66.0507 293.977 67.8115C293.977 69.5606 294.594 71.0573 295.826 72.3017C297.071 73.546 298.573 74.1682 300.334 74.1682C302.095 74.1682 303.592 73.546 304.824 72.3017C306.069 71.0573 306.691 69.5606 306.691 67.8115C306.691 66.0507 306.069 64.5481 304.824 63.3038C303.592 62.0594 302.095 61.4373 300.334 61.4373ZM300.334 58.1445C302.987 58.1445 305.253 59.0836 307.131 60.9618C309.009 62.8401 309.948 65.1057 309.948 67.7587C309.948 70.4117 309.009 72.6773 307.131 74.5555C305.253 76.4338 302.987 77.3729 300.334 77.3729C297.681 77.3729 295.415 76.4338 293.537 74.5555C291.659 72.6773 290.72 70.4117 290.72 67.7587C290.72 65.1057 291.659 62.8401 293.537 60.9618C295.415 59.0836 297.681 58.1445 300.334 58.1445ZM322.028 61.4373C320.267 61.4373 318.764 62.0594 317.52 63.3038C316.287 64.5481 315.671 66.0507 315.671 67.8115C315.671 69.5606 316.287 71.0573 317.52 72.3017C318.764 73.546 320.267 74.1682 322.028 74.1682C323.788 74.1682 325.285 73.546 326.518 72.3017C327.762 71.0573 328.384 69.5606 328.384 67.8115C328.384 66.0507 327.762 64.5481 326.518 63.3038C325.285 62.0594 323.788 61.4373 322.028 61.4373ZM330.039 50.925C330.474 50.925 330.849 51.0777 331.166 51.3829C331.483 51.6998 331.642 52.0813 331.642 52.5274V67.8115C331.63 70.4528 330.685 72.7066 328.807 74.5731C326.929 76.4396 324.669 77.3729 322.028 77.3729C319.375 77.3729 317.109 76.4338 315.231 74.5555C313.353 72.6773 312.413 70.4117 312.413 67.7587C312.413 65.1057 313.353 62.8401 315.231 60.9618C317.109 59.0836 319.375 58.1445 322.028 58.1445C324.446 58.1445 326.565 58.9486 328.384 60.5568V52.5274C328.384 52.0813 328.543 51.6998 328.86 51.3829C329.177 51.0777 329.552 50.925 329.987 50.925H330.039ZM344.249 61.4373C342.489 61.4373 340.986 62.0594 339.742 63.3038C338.509 64.5481 337.893 66.0507 337.893 67.8115C337.893 68.1285 337.916 68.4395 337.963 68.7448L349.109 63.7088C347.842 62.1944 346.222 61.4373 344.249 61.4373ZM352.983 63.7616C353.171 64.1607 353.189 64.5716 353.036 64.9942C352.883 65.405 352.602 65.7044 352.191 65.8922C350.547 66.6318 348.387 67.6061 345.711 68.8152C342.389 70.3178 340.235 71.2921 339.249 71.7382C340.516 73.3582 342.183 74.1682 344.249 74.1682C345.623 74.1682 346.867 73.7632 347.982 72.9532C349.062 72.1667 349.82 71.1454 350.254 69.8893C350.512 69.1615 351.029 68.7976 351.803 68.7976C352.355 68.7976 352.795 69.0265 353.124 69.4843C353.441 69.9304 353.506 70.4176 353.318 70.9458C352.66 72.8475 351.51 74.3853 349.867 75.5592C348.188 76.7683 346.316 77.3729 344.249 77.3729C341.596 77.3729 339.331 76.4338 337.453 74.5555C335.574 72.6773 334.635 70.4117 334.635 67.7587C334.635 65.1057 335.574 62.8401 337.453 60.9618C339.331 59.0836 341.596 58.1445 344.249 58.1445C346.163 58.1445 347.912 58.6669 349.497 59.7116C351.058 60.7329 352.22 62.0829 352.983 63.7616Z" fill="white"/>
</svg>
