<svg width="207" height="50" viewBox="0 0 207 50" fill="none" xmlns="http://www.w3.org/2000/svg">
<path d="M30.4304 37.4443C31.5545 36.3219 33.3741 36.3248 34.4946 37.4508C35.6151 38.5769 35.6122 40.3997 34.4881 41.5221L29.4965 46.5063C24.8915 51.1047 17.3821 51.1714 12.6994 46.6612C12.6723 46.6353 10.5872 44.5908 3.70854 37.8458C-0.867649 33.3587 -1.32355 26.1787 2.98277 21.568L11.0118 12.9709C15.2858 8.39429 23.1642 7.89409 28.0508 11.8459L35.3432 17.7434C36.5781 18.7422 36.771 20.5547 35.774 21.7918C34.777 23.0289 32.9677 23.2221 31.7327 22.2234L24.4404 16.3259C21.8848 14.2592 17.4143 14.543 15.2091 16.9044L7.1799 25.5016C5.08348 27.7462 5.31309 31.3623 7.72905 33.7312C12.7802 38.6842 16.673 42.5012 16.6775 42.5055C19.112 44.8503 23.0485 44.8154 25.4389 42.4285L30.4304 37.4443Z" fill="#FFA116"/>
<path fill-rule="evenodd" clip-rule="evenodd" d="M18.3047 32.4565C16.7176 32.4565 15.4309 31.1676 15.4309 29.5776C15.4309 27.9877 16.7176 26.6988 18.3047 26.6988H39.4992C41.0863 26.6988 42.373 27.9877 42.373 29.5776C42.373 31.1676 41.0863 32.4565 39.4992 32.4565H18.3047Z" fill="#B3B3B3"/>
<path fill-rule="evenodd" clip-rule="evenodd" d="M22.2741 0.912076C23.3584 -0.248972 25.177 -0.309635 26.336 0.776583C27.4951 1.8628 27.5556 3.68457 26.4713 4.84562L7.18024 25.5017C5.08375 27.7461 5.31335 31.3621 7.72915 33.7311L16.638 42.4671C17.7723 43.5793 17.7917 45.402 16.6814 46.5382C15.5712 47.6744 13.7517 47.6938 12.6174 46.5816L3.70851 37.8456C-0.867408 33.3583 -1.3233 26.1784 2.9832 21.5679L22.2741 0.912076Z" fill="white"/>
<path fill-rule="evenodd" clip-rule="evenodd" d="M59.4636 17.5274V36.4741C59.4636 37.2019 59.7219 37.824 60.2384 38.3406C60.7549 38.8571 61.3771 39.1153 62.1049 39.1153H67.2289C67.675 39.1153 68.0565 39.2738 68.3735 39.5908C68.6904 39.9077 68.8489 40.2892 68.8489 40.7353V40.7705C68.8489 41.2166 68.6904 41.5922 68.3735 41.8975C68.0565 42.2144 67.675 42.3729 67.2289 42.3729H62.1049C60.4732 42.3729 59.0821 41.7977 57.9317 40.6473C56.7813 39.4968 56.2061 38.1058 56.2061 36.4741V17.5274C56.2061 17.0813 56.3645 16.6998 56.6815 16.3829C56.9984 16.0777 57.3741 15.925 57.8084 15.925H57.8612C58.2956 15.925 58.6712 16.0777 58.9882 16.3829C59.3051 16.6998 59.4636 17.0813 59.4636 17.5274ZM79.8718 26.4373C78.1109 26.4373 76.6083 27.0594 75.364 28.3038C74.1314 29.5481 73.5151 31.0507 73.5151 32.8115C73.5151 33.1285 73.5386 33.4395 73.5856 33.7448L84.7317 28.7088C83.4639 27.1944 81.8439 26.4373 79.8718 26.4373ZM88.6055 28.7616C88.7934 29.1607 88.811 29.5716 88.6584 29.9942C88.5058 30.405 88.224 30.7044 87.8132 30.8922C86.1697 31.6318 84.0098 32.6061 81.3333 33.8152C78.0111 35.3178 75.857 36.2921 74.871 36.7382C76.1388 38.3582 77.8057 39.1682 79.8718 39.1682C81.2452 39.1682 82.4895 38.7632 83.6047 37.9532C84.6847 37.1667 85.4419 36.1454 85.8762 34.8893C86.1345 34.1615 86.651 33.7976 87.4258 33.7976C87.9775 33.7976 88.4177 34.0265 88.7464 34.4843C89.0634 34.9304 89.1279 35.4176 88.9401 35.9458C88.2827 37.8475 87.1323 39.3853 85.4888 40.5592C83.8102 41.7683 81.9378 42.3729 79.8718 42.3729C77.2187 42.3729 74.9532 41.4338 73.0749 39.5555C71.1967 37.6773 70.2576 35.4117 70.2576 32.7587C70.2576 30.1057 71.1967 27.8401 73.0749 25.9618C74.9532 24.0836 77.2187 23.1445 79.8718 23.1445C81.7852 23.1445 83.5343 23.6669 85.1191 24.7116C86.6804 25.7329 87.8425 27.0829 88.6055 28.7616ZM101.301 26.4373C99.5403 26.4373 98.0378 27.0594 96.7934 28.3038C95.5609 29.5481 94.9446 31.0507 94.9446 32.8115C94.9446 33.1285 94.968 33.4395 95.015 33.7448L106.161 28.7088C104.893 27.1944 103.273 26.4373 101.301 26.4373ZM110.035 28.7616C110.223 29.1607 110.24 29.5716 110.088 29.9942C109.935 30.405 109.653 30.7044 109.243 30.8922C107.599 31.6318 105.439 32.6061 102.763 33.8152C99.4406 35.3178 97.2865 36.2921 96.3004 36.7382C97.5682 38.3582 99.2351 39.1682 101.301 39.1682C102.675 39.1682 103.919 38.7632 105.034 37.9532C106.114 37.1667 106.871 36.1454 107.306 34.8893C107.564 34.1615 108.08 33.7976 108.855 33.7976C109.407 33.7976 109.847 34.0265 110.176 34.4843C110.493 34.9304 110.557 35.4176 110.37 35.9458C109.712 37.8475 108.562 39.3853 106.918 40.5592C105.24 41.7683 103.367 42.3729 101.301 42.3729C98.6482 42.3729 96.3826 41.4338 94.5044 39.5555C92.6261 37.6773 91.687 35.4117 91.687 32.7587C91.687 30.1057 92.6261 27.8401 94.5044 25.9618C96.3826 24.0836 98.6482 23.1445 101.301 23.1445C103.215 23.1445 104.964 23.6669 106.549 24.7116C108.11 25.7329 109.272 27.0829 110.035 28.7616ZM115.3 15.925C115.734 15.925 116.11 16.0777 116.427 16.3829C116.744 16.6998 116.902 17.0813 116.902 17.5274V23.1445H120.072C120.506 23.1445 120.882 23.303 121.199 23.6199C121.516 23.9369 121.674 24.3184 121.674 24.7645V24.7997C121.674 25.2458 121.516 25.6214 121.199 25.9266C120.882 26.2436 120.506 26.4021 120.072 26.4021H116.902V37.3721C116.902 37.8534 117.072 38.2643 117.413 38.6047C117.753 38.9451 118.17 39.1153 118.663 39.1153H120.072C120.506 39.1153 120.882 39.2738 121.199 39.5908C121.516 39.9077 121.674 40.2892 121.674 40.7353V40.7705C121.674 41.2166 121.516 41.5922 121.199 41.8975C120.882 42.2144 120.506 42.3729 120.072 42.3729H118.663C117.278 42.3729 116.092 41.8857 115.106 40.9114C114.132 39.9253 113.645 38.7456 113.645 37.3721V17.5274C113.645 17.0813 113.803 16.6998 114.12 16.3829C114.437 16.0777 114.813 15.925 115.247 15.925H115.3ZM136.923 15.925C138.038 15.925 139.136 16.06 140.216 16.33C141.026 16.5413 141.431 17.0579 141.431 17.8796V17.9324C141.431 18.4489 141.219 18.8715 140.797 19.2002C140.386 19.5172 139.928 19.6111 139.423 19.4819C138.602 19.2706 137.768 19.165 136.923 19.165C134.176 19.165 131.828 20.1393 129.88 22.088C127.931 24.0367 126.957 26.3903 126.957 29.149C126.957 31.9076 127.931 34.2613 129.88 36.2099C131.828 38.1469 134.176 39.1153 136.923 39.1153C137.768 39.1153 138.602 39.0155 139.423 38.816C139.928 38.6869 140.386 38.7808 140.797 39.0977C141.219 39.4147 141.431 39.8373 141.431 40.3655V40.4007C141.431 41.2342 141.026 41.7566 140.216 41.9679C139.136 42.2379 138.038 42.3729 136.923 42.3729C133.272 42.3729 130.156 41.0816 127.573 38.499C124.99 35.9165 123.699 32.7998 123.699 29.149C123.699 25.4981 124.99 22.3815 127.573 19.7989C130.156 17.2163 133.272 15.925 136.923 15.925ZM153.334 26.4373C151.573 26.4373 150.071 27.0594 148.826 28.3038C147.594 29.5481 146.977 31.0507 146.977 32.8115C146.977 34.5606 147.594 36.0573 148.826 37.3017C150.071 38.546 151.573 39.1682 153.334 39.1682C155.095 39.1682 156.592 38.546 157.824 37.3017C159.069 36.0573 159.691 34.5606 159.691 32.8115C159.691 31.0507 159.069 29.5481 157.824 28.3038C156.592 27.0594 155.095 26.4373 153.334 26.4373ZM153.334 23.1445C155.987 23.1445 158.253 24.0836 160.131 25.9618C162.009 27.8401 162.948 30.1057 162.948 32.7587C162.948 35.4117 162.009 37.6773 160.131 39.5555C158.253 41.4338 155.987 42.3729 153.334 42.3729C150.681 42.3729 148.415 41.4338 146.537 39.5555C144.659 37.6773 143.72 35.4117 143.72 32.7587C143.72 30.1057 144.659 27.8401 146.537 25.9618C148.415 24.0836 150.681 23.1445 153.334 23.1445ZM175.028 26.4373C173.267 26.4373 171.764 27.0594 170.52 28.3038C169.287 29.5481 168.671 31.0507 168.671 32.8115C168.671 34.5606 169.287 36.0573 170.52 37.3017C171.764 38.546 173.267 39.1682 175.028 39.1682C176.788 39.1682 178.285 38.546 179.518 37.3017C180.762 36.0573 181.384 34.5606 181.384 32.8115C181.384 31.0507 180.762 29.5481 179.518 28.3038C178.285 27.0594 176.788 26.4373 175.028 26.4373ZM183.039 15.925C183.474 15.925 183.849 16.0777 184.166 16.3829C184.483 16.6998 184.642 17.0813 184.642 17.5274V32.8115C184.63 35.4528 183.685 37.7066 181.807 39.5731C179.929 41.4396 177.669 42.3729 175.028 42.3729C172.375 42.3729 170.109 41.4338 168.231 39.5555C166.353 37.6773 165.413 35.4117 165.413 32.7587C165.413 30.1057 166.353 27.8401 168.231 25.9618C170.109 24.0836 172.375 23.1445 175.028 23.1445C177.446 23.1445 179.565 23.9486 181.384 25.5568V17.5274C181.384 17.0813 181.543 16.6998 181.86 16.3829C182.177 16.0777 182.552 15.925 182.987 15.925H183.039ZM197.249 26.4373C195.489 26.4373 193.986 27.0594 192.742 28.3038C191.509 29.5481 190.893 31.0507 190.893 32.8115C190.893 33.1285 190.916 33.4395 190.963 33.7448L202.109 28.7088C200.842 27.1944 199.222 26.4373 197.249 26.4373ZM205.983 28.7616C206.171 29.1607 206.189 29.5716 206.036 29.9942C205.883 30.405 205.602 30.7044 205.191 30.8922C203.547 31.6318 201.387 32.6061 198.711 33.8152C195.389 35.3178 193.235 36.2921 192.249 36.7382C193.516 38.3582 195.183 39.1682 197.249 39.1682C198.623 39.1682 199.867 38.7632 200.982 37.9532C202.062 37.1667 202.82 36.1454 203.254 34.8893C203.512 34.1615 204.029 33.7976 204.803 33.7976C205.355 33.7976 205.795 34.0265 206.124 34.4843C206.441 34.9304 206.506 35.4176 206.318 35.9458C205.66 37.8475 204.51 39.3853 202.867 40.5592C201.188 41.7683 199.316 42.3729 197.249 42.3729C194.596 42.3729 192.331 41.4338 190.453 39.5555C188.574 37.6773 187.635 35.4117 187.635 32.7587C187.635 30.1057 188.574 27.8401 190.453 25.9618C192.331 24.0836 194.596 23.1445 197.249 23.1445C199.163 23.1445 200.912 23.6669 202.497 24.7116C204.058 25.7329 205.22 27.0829 205.983 28.7616Z" fill="white"/>
</svg>
