<svg width="681" height="454" viewBox="0 0 681 454" fill="none" xmlns="http://www.w3.org/2000/svg">
<path fill-rule="evenodd" clip-rule="evenodd" d="M478.389 413.45C369.139 439.755 298.257 364.005 153.963 364.005C104.655 364.005 -14.5304 396.438 3.92345 196.018C14.3953 82.2879 127.262 30.6724 232.737 97.1468C263.775 111.325 288.279 106.931 314.884 92.8436C341.49 78.7567 375.707 15.869 440.197 2.93138C634.268 -36.0021 849.132 324.184 478.389 413.45Z" fill="#292B3B"/>
<path fill-rule="evenodd" clip-rule="evenodd" d="M474.465 133.859C482.069 138.867 489.704 144.164 498.454 146.678C507.204 149.193 517.488 148.424 524.226 142.301C551.418 117.595 595.208 113.464 626.54 132.649C657.872 151.835 674.1 192.716 664.456 228.167C654.812 263.619 620.11 290.645 583.377 291.313C564.344 291.66 546.744 300.758 528.557 306.381C510.371 312.005 488.498 313.447 474.275 300.795C458.946 287.159 460.696 259.059 477.598 247.43C451.037 249.42 424.476 251.41 397.914 253.4C403.756 255.769 409.977 258.446 413.327 263.787C416.676 269.128 415.14 277.866 409.039 279.453C386.317 285.363 363.053 274.592 341.244 265.899C319.435 257.206 293.156 250.821 273.709 263.974C229.881 293.617 171.979 288.695 119.779 280.052C107.256 277.978 92.1918 273.416 89.588 260.993C65.6197 265.505 41.1773 267.494 16.7949 266.916C10.8431 266.775 3.8171 265.838 1.03555 260.574C-2.56853 253.754 3.90122 246.016 10.202 241.566C29.4431 227.976 52.9348 220.499 76.4912 220.467C83.2009 220.458 87.6807 213.446 89.3888 206.957C91.097 200.469 91.5757 193.248 95.9326 188.145C81.1165 185.921 65.4204 190.444 54.0595 200.211C51.951 202.024 48.3917 200.204 47.5066 197.568C46.6216 194.932 47.5334 192.065 48.4696 189.446C53.7116 174.785 60.2841 159.889 72.1979 149.864C84.1117 139.84 102.726 136.224 115.285 145.427C119.225 148.314 125.915 152.02 135.354 156.544C145.033 155.081 152.229 153.916 156.943 153.049C171.221 150.425 184.459 143.941 197.401 137.365C242.499 114.451 288.739 88.9401 339.303 87.5009C387.676 86.1241 434.049 107.244 474.465 133.859ZM525.64 173.583L530.177 185.011C530.399 185.572 530.64 186.157 531.109 186.536C531.677 186.996 532.456 187.057 533.18 187.162C538.726 187.96 543.072 192.172 547.003 196.165C552.038 201.28 557.073 206.396 562.109 211.511C563.617 213.043 566.124 211.386 567.569 209.792C570.816 206.21 574.123 202.535 575.997 198.078C577.872 193.622 578.075 188.156 575.281 184.21C573.62 181.865 571.091 180.284 568.499 179.045C564.221 177 559.58 175.716 554.858 175.274C550.254 174.843 545.617 175.205 540.994 175.171C535.841 175.133 530.692 174.6 525.64 173.583Z" fill="white"/>
<path fill-rule="evenodd" clip-rule="evenodd" d="M89.588 260.993C65.6198 265.505 41.1773 267.494 16.7949 266.916C9.77821 256.691 85.7078 237.85 88.461 250.271C90.6381 260.092 90.7378 266.479 89.588 260.993Z" fill="#E7EAEE"/>
<path fill-rule="evenodd" clip-rule="evenodd" d="M457.298 227.865C459.86 227.591 470.038 225.096 480.725 226.253C486.468 223.304 513.99 225.621 530.419 228.839C540.964 230.905 567.69 232.278 577.395 237.228C594.242 245.822 594.629 251.134 592.094 252.272C584.893 255.504 576.218 257.097 571.555 257.182C563.16 257.335 546.27 249.575 527.744 244.714C519.471 242.543 513.391 240.699 508.6 238.91L509.382 238.568C499.019 243.246 488.298 243.992 477.598 247.43C451.037 249.42 424.476 251.41 397.914 253.4C403.756 255.769 315.857 223.766 341.244 219.096C342.809 218.808 344.534 218.634 346.404 218.555C370.179 217.559 417.416 232.127 457.298 227.865Z" fill="#E7EAEE"/>
<path fill-rule="evenodd" clip-rule="evenodd" d="M220.088 188.358C220.412 188.937 220.167 189.706 219.681 190.157C219.194 190.608 218.526 190.803 217.874 190.925C213.072 191.827 207.825 189.208 205.66 184.828C205.419 184.339 205.209 183.803 205.282 183.264C205.356 182.724 205.809 182.202 206.353 182.234C207.751 183.776 209.169 185.336 210.909 186.477C212.65 187.618 214.778 188.314 216.825 187.938C217.986 187.725 219.511 187.327 220.088 188.358Z" fill="#00160A"/>
<path fill-rule="evenodd" clip-rule="evenodd" d="M223.236 248.103C223.303 246.751 224.998 246.186 226.351 246.136C232.412 245.911 238.057 248.883 243.655 251.217C249.253 253.551 255.772 255.274 261.24 252.647C262.381 252.098 263.577 251.349 264.815 251.614C262.761 255.597 257.853 257.406 253.377 257.16C248.902 256.915 244.709 255.022 240.583 253.273C236.457 251.523 232.116 249.858 227.642 250.108C226.724 250.159 225.784 250.289 224.899 250.039C224.015 249.789 223.19 249.021 223.236 248.103Z" fill="#00160A"/>
<path fill-rule="evenodd" clip-rule="evenodd" d="M233.847 259.447C229.666 258.227 224.777 258.838 221.343 256.159C220.923 255.832 220.509 255.402 220.493 254.87C220.47 254.124 221.273 253.579 222.019 253.56C222.765 253.54 223.465 253.881 224.165 254.138C226.722 255.077 229.537 254.951 232.206 255.495C236.21 256.311 239.736 258.594 243.507 260.167C247.279 261.74 251.802 262.545 255.314 260.456C256.731 259.613 258.593 258.355 259.768 259.511C255.944 263.866 249.471 265.681 243.941 263.949C240.42 262.846 237.389 260.481 233.847 259.447Z" fill="#00160A"/>
<path fill-rule="evenodd" clip-rule="evenodd" d="M113.35 215.356C112.678 214.496 112.684 213.249 113.113 212.245C113.542 211.242 114.329 210.439 115.143 209.712C119.007 206.261 124.354 203.924 129.37 205.221C133.129 206.194 136.103 209.012 138.735 211.866C139.862 213.089 141.025 214.839 140.181 216.271C139.28 217.801 137.018 217.478 135.304 217.013C129.986 215.571 124.349 214.721 118.974 215.938C117.024 216.379 114.582 216.931 113.35 215.356Z" fill="#00160A"/>
<path fill-rule="evenodd" clip-rule="evenodd" d="M200.46 267.174C201.202 267.622 201.099 268.819 200.482 269.426C199.864 270.033 198.954 270.207 198.101 270.353C193.316 271.174 188.531 271.995 183.746 272.815C182.747 272.987 181.63 273.134 180.797 272.557C179.964 271.98 179.94 270.374 180.932 270.165C186.931 268.898 192.977 267.857 199.054 267.044C199.531 266.98 200.049 266.926 200.46 267.174Z" fill="#00160A"/>
<path fill-rule="evenodd" clip-rule="evenodd" d="M188.25 217.179C187.198 217.57 186.035 216.553 185.893 215.439C185.751 214.326 186.327 213.248 186.994 212.345C190.097 208.142 195.628 205.99 200.813 206.637C205.997 207.283 210.706 210.568 213.43 215.026C213.85 215.714 214.239 216.505 214.08 217.295C213.907 218.15 213.108 218.771 212.261 218.982C211.414 219.194 210.523 219.073 209.663 218.924C206.083 218.305 202.593 217.233 199.01 216.63C195.427 216.028 191.656 215.916 188.25 217.179Z" fill="#00160A"/>
<path fill-rule="evenodd" clip-rule="evenodd" d="M120.593 188.42C121 187.227 122.724 187.522 123.961 187.767C127.814 188.532 131.583 186.384 134.926 184.32C135.373 184.044 135.967 184.568 135.957 185.092C135.947 185.617 135.57 186.054 135.201 186.427C131.868 189.795 126.884 192.099 122.378 190.633C121.371 190.306 120.25 189.422 120.593 188.42Z" fill="#00160A"/>
<path fill-rule="evenodd" clip-rule="evenodd" d="M254.444 208.834C253.144 208.586 252.469 207.008 252.713 205.708C252.956 204.407 253.839 203.333 254.673 202.305C257.821 198.422 260.691 194.292 262.952 189.834C264.897 185.999 266.387 181.933 268.573 178.231C274.83 167.639 286.965 160.792 299.266 160.912C294.337 157.383 288.51 155.296 282.607 153.915C264.348 149.643 244.62 151.961 227.849 160.349C225.199 161.674 222.613 163.149 219.849 164.218C218.574 164.711 217.163 165.118 215.857 164.714C214.551 164.31 213.526 162.772 214.133 161.547C214.483 160.841 215.238 160.446 215.945 160.097C223.09 156.572 230.264 153.034 237.838 150.559C254.78 145.022 273.5 145.078 290.409 150.716C296.083 152.607 302.012 155.546 304.469 160.999C304.846 161.836 304.881 163.173 303.973 163.31C294.23 164.778 284.315 168.151 277.589 175.352C268.879 184.679 266.769 199.001 257.323 207.582C256.519 208.313 255.511 209.037 254.444 208.834Z" fill="#00160A"/>
<path fill-rule="evenodd" clip-rule="evenodd" d="M397.914 253.4C403.756 255.769 409.977 258.446 413.327 263.787C416.676 269.128 415.14 277.866 409.039 279.453C386.317 285.363 363.053 274.592 341.244 265.899C319.435 257.206 293.156 250.821 273.709 263.974C229.881 293.617 171.979 288.695 119.779 280.052C107.256 277.978 92.1918 273.416 89.588 260.993C65.6197 265.505 41.1773 267.494 16.7949 266.916C10.8431 266.775 3.8171 265.838 1.03555 260.574C-2.56853 253.754 3.90122 246.016 10.202 241.566C29.4431 227.976 52.9348 220.499 76.4912 220.467C83.2009 220.458 87.6807 213.446 89.3888 206.957C91.097 200.469 91.5757 193.248 95.9326 188.145C81.1165 185.921 65.4204 190.444 54.0595 200.211C51.951 202.024 48.3917 200.204 47.5066 197.568C46.6216 194.932 47.5334 192.065 48.4696 189.446C53.7116 174.785 60.2841 159.889 72.1979 149.864C84.1117 139.84 97.2982 136.035 115.204 144.189C119.893 146.324 126.59 150.118 135.295 155.571C144.916 154.774 152.132 153.934 156.943 153.049C171.221 150.425 184.459 143.941 197.401 137.365C242.499 114.451 288.739 88.9401 339.303 87.5009C387.676 86.1241 434.049 107.244 474.465 133.859C482.069 138.867 489.704 144.164 498.454 146.678C507.204 149.193 517.488 148.424 524.226 142.301C551.418 117.595 595.208 113.464 626.54 132.649C657.872 151.835 674.1 192.716 664.456 228.167C654.812 263.619 620.11 290.645 583.377 291.313C564.344 291.66 546.744 300.758 528.557 306.381C510.371 312.005 488.498 313.447 474.275 300.795C458.946 287.159 460.696 259.059 477.598 247.43C451.037 249.42 424.476 251.41 397.914 253.4ZM551.664 204.398C538.26 190.916 518.262 184.323 499.468 187.191C508.568 184.363 518.318 183.651 527.733 185.125C501.047 146.588 457.98 122.517 414.084 106.072C392.752 98.0809 370.537 91.5118 347.762 91.009C318.113 90.3544 289.218 99.9908 261.833 111.371C231.776 123.862 202.702 138.574 173.66 153.272C182.621 152.814 191.703 156.751 197.494 163.604C173.169 153.574 144.356 155.12 121.245 167.697C121.355 163.102 125.027 158.843 129.556 158.057C116.331 146.405 96.0136 143.577 80.1091 151.174C64.2046 158.771 53.6369 176.353 54.39 193.962C67.8216 182.854 87.1943 179.419 103.626 185.232C93.8458 201.552 88.7966 220.671 89.2437 239.692C94.3832 237.527 100.716 238.546 104.918 242.213C100.224 242.718 95.5289 243.223 90.8343 243.727C91.0327 245.87 91.231 248.012 91.4295 250.154C96.397 249.422 101.365 248.689 106.332 247.957C103.135 251.635 98.6273 254.148 93.8183 254.934C93.2145 261.054 97.4623 266.828 102.792 269.896C108.121 272.963 114.38 273.878 120.469 274.735C135.645 276.873 150.822 279.011 165.998 281.149C162.478 277.18 161.902 270.788 159.604 266.37C156.628 260.646 152.331 258.316 150.176 250.723C149.433 248.103 147.72 244.415 150.117 242.749C151.124 242.049 152.436 242.023 153.662 242.021C158.672 242.016 163.682 242.011 168.692 242.005C170.31 242.004 172.003 242.019 173.434 242.776C177.77 245.069 176.401 251.843 173.163 255.527C169.925 259.212 165.294 262.154 164.188 266.933C163.052 271.842 166.357 276.931 170.746 279.405C175.136 281.879 180.358 282.299 185.394 282.471C196.007 282.834 206.65 282.342 217.184 281.002C243.705 277.628 271.959 266.821 284.268 243.089C283.524 249.071 280.398 254.723 275.727 258.534C295.049 251.417 316.93 251.496 336.2 258.754C354.474 265.637 371.813 278.93 391.195 276.544C390.364 275.871 390.042 274.707 389.211 274.033C386.95 272.2 384.181 270.856 381.92 269.023C388.83 271.55 395.74 274.078 402.65 276.606C401.866 275.457 402.65 274.297 401.189 272.539C399.727 270.781 396.535 267.645 394.654 264.888C399.887 266.411 404.473 270.043 407.155 274.787C409.391 274.24 411.628 273.693 413.864 273.146C402.51 257.82 386.814 245.749 369.087 238.71C360.486 235.294 349.824 231.207 348.749 222.016C368.08 240.685 395.783 248.648 422.651 249.217C449.519 249.786 476.03 243.681 502.21 237.612C496.217 234.583 490.812 230.392 486.386 225.341C515.79 241.816 548.69 252.017 582.256 255.069C580.352 251.842 578.448 248.615 576.544 245.387C580.708 245.506 584.599 248.664 585.572 252.715C587.66 251.892 589.748 251.07 591.836 250.248C588.932 247.401 586.027 244.553 583.123 241.706C587.795 240.579 593.037 244.183 593.659 248.948C595.614 247.931 597.227 246.271 598.188 244.288C594.714 241.659 591.241 239.029 587.768 236.4C593.033 236.293 598.317 238.055 602.465 241.3C597.558 229.371 580.956 229.086 569.927 222.397C562.592 217.947 557.713 210.482 551.664 204.398ZM526.697 170.125C533.257 171.715 540.127 170.483 546.877 170.503C553.87 170.524 560.836 171.912 567.389 174.355C571.434 175.863 575.477 177.889 578.107 181.313C582.276 186.74 581.913 194.612 579.004 200.806C576.096 207 571.063 211.897 566.137 216.647C576.478 221.26 586.82 225.874 597.161 230.487C600.083 231.79 603.241 233.32 604.577 236.227C606.888 241.254 602.403 246.769 597.797 249.833C583.426 259.391 563.882 260.563 548.471 252.791C538.584 247.805 527.624 245.427 516.8 243.096C510.89 241.823 504.734 240.551 498.863 241.991C494.696 243.013 490.768 245.383 486.48 245.237C482.649 245.107 479.67 248.415 477.425 251.523C470.037 261.747 463.947 274.813 468.272 286.663C471.246 294.81 478.783 300.679 486.997 303.464C495.211 306.249 504.088 306.328 512.743 305.777C523.577 305.087 534.613 303.369 544.126 298.14C550.321 294.735 555.864 289.857 562.716 288.12C570.937 286.036 579.599 288.832 588.057 288.214C594.792 287.723 601.167 285.086 607.334 282.334C622.398 275.61 637.465 267.673 648.15 255.105C664.085 236.364 667.873 208.901 660.26 185.509C652.647 162.117 634.656 142.885 613.124 130.99C607.204 127.719 600.97 124.94 594.407 123.308C578.651 119.39 561.406 122.475 547.636 131.078C540.547 135.508 534.388 141.279 527.442 145.929C520.495 150.579 512.329 154.161 504.01 153.348C510.422 160.434 517.41 167.874 526.697 170.125ZM30.774 234.193C21.1228 237.956 11.4657 242.949 5.34902 251.309C8.16337 249.758 11.6973 249.586 14.649 250.856C12.4973 251.919 10.3455 252.982 8.19381 254.046C6.98841 254.641 5.7424 255.269 4.90521 256.321C4.06802 257.373 3.76527 258.979 4.57578 260.052C5.38628 261.125 7.43615 261.026 7.82823 259.74C9.26682 255.021 14.8221 252.005 19.563 253.369C16.0023 255.397 12.1141 257.841 11.1288 261.819C11.6613 263.611 14.2853 263.906 15.8276 262.849C17.3699 261.792 18.1395 259.961 19.0265 258.316C19.9134 256.67 21.2016 254.985 23.0515 254.714C23.4418 254.657 23.8881 254.687 24.1592 254.974C24.6317 255.473 24.2416 256.29 23.797 256.815C22.7896 258.004 21.5039 259.045 21.0086 260.522C20.5133 262 21.3984 264.065 22.9538 263.97C44.7933 262.636 66.5916 260.629 88.3073 257.951C89.0921 256.252 86.7079 254.871 84.8529 254.62C80.1444 253.981 75.3008 254.358 70.7477 255.717C71.5888 252.919 74.415 251.087 77.2896 250.562C80.1641 250.037 83.1141 250.577 85.986 251.116C86.0084 249.099 85.6319 247.078 84.8846 245.204C80.3183 245.109 75.7922 243.583 72.0992 240.896C75.186 239.741 78.7719 240.004 81.657 241.597C83.0348 242.358 84.0613 240.132 84.0841 238.558C84.158 233.444 84.2319 228.33 84.3058 223.216C66.0129 223.816 47.8267 227.545 30.774 234.193ZM533.18 187.162C538.726 187.96 543.072 192.172 547.003 196.165C552.038 201.28 557.073 206.396 562.109 211.511C563.617 213.043 566.124 211.386 567.569 209.792C570.816 206.21 574.123 202.535 575.997 198.078C577.872 193.622 578.075 188.156 575.281 184.21C573.62 181.865 571.091 180.284 568.499 179.045C564.221 177 559.58 175.716 554.858 175.274C550.254 174.843 545.617 175.205 540.994 175.171C535.841 175.133 530.692 174.6 525.64 173.583C527.152 177.392 528.665 181.202 530.177 185.011C530.399 185.572 530.64 186.157 531.109 186.536C531.677 186.996 532.456 187.057 533.18 187.162Z" fill="#00160A"/>
<path d="M276.404 430.304L276.404 430.304C276.382 431.632 275.863 433.21 274.847 434.302M276.404 430.304L273.675 380.397C273.595 378.803 273.42 377.208 273.255 375.7C273.225 375.43 273.195 375.162 273.167 374.898C272.976 373.121 272.82 371.454 272.822 369.817C272.824 368.296 273.02 366.758 273.241 365.033C273.259 364.892 273.277 364.75 273.295 364.606C273.528 362.775 273.769 360.735 273.666 358.662C273.278 350.876 272.801 343.214 272.325 335.57C271.778 326.794 271.233 318.041 270.826 309.151C270.651 305.332 271.561 302.304 273.291 299.896C275.039 297.463 277.762 295.473 281.515 294.003C291.273 290.181 301.274 287.843 311.716 287.196C316.617 286.892 321.421 286.44 326.176 285.993C334.708 285.191 343.085 284.403 351.59 284.51C360.638 284.623 369.584 285.692 378.683 286.779C382.924 287.285 387.197 287.796 391.53 288.215C396.307 288.678 401.099 289.103 405.878 289.526C408.459 289.755 411.037 289.983 413.607 290.217C417.263 290.549 420.913 290.869 424.559 291.188C435.459 292.142 446.315 293.092 457.144 294.38C457.875 294.467 458.863 294.881 459.95 295.648C461.009 296.396 461.98 297.352 462.67 298.26C467.329 304.395 469.486 311.458 469.953 319.562C470.305 325.687 471.311 331.906 472.293 337.974C472.814 341.192 473.328 344.368 473.734 347.465C474.265 351.514 474.551 355.627 474.723 359.765C474.917 364.441 475.15 369.099 475.383 373.744C476.017 386.396 476.647 398.957 476.47 411.538C476.41 415.784 475.715 420.078 474.795 424.493C474.42 426.293 473.99 428.182 473.555 430.098C472.96 432.715 472.354 435.38 471.862 437.929L474.316 438.404L471.862 437.929C471.51 439.749 470.665 440.897 469.551 441.701C468.366 442.557 466.749 443.11 464.796 443.423C460.338 444.137 455.964 444.672 451.537 445.214C448.306 445.609 445.048 446.008 441.709 446.482C410.476 450.916 379.247 450.656 347.802 450.394C332.871 450.27 317.891 450.145 302.838 450.522C283.54 451.005 266.119 445.893 249.382 436.342L248.143 438.513L249.382 436.342C240.874 431.487 234.467 426.24 232.398 417.369C231.268 412.523 230.713 408.747 233.791 405.946C233.215 406.928 232.886 408.018 232.94 409.233C233.046 411.624 234.626 413.591 236.345 415.202C243.952 422.33 253.167 426.695 261.977 430.868C263.669 431.67 265.346 432.465 266.995 433.27C267.987 433.755 269.072 434.256 270.223 434.658L270.223 434.658C270.537 434.767 271.099 434.962 271.648 435.081C271.913 435.138 272.305 435.208 272.73 435.201C273.024 435.196 274.05 435.158 274.847 434.302M276.404 430.304C276.413 429.72 276.292 429.215 276.184 428.861C276.095 428.564 275.979 428.267 275.905 428.078C275.895 428.05 275.885 428.025 275.876 428.002C275.838 427.902 275.811 427.83 275.793 427.779M276.404 430.304L275.793 427.779M274.847 434.302L273.017 432.599L274.847 434.302C274.847 434.302 274.847 434.302 274.847 434.302ZM275.793 427.779C275.803 427.692 275.809 427.613 275.813 427.551C275.825 427.374 275.83 427.17 275.833 426.964C275.837 426.544 275.831 425.98 275.816 425.311C275.787 423.964 275.723 422.1 275.635 419.902C275.459 415.501 275.186 409.708 274.899 403.925C274.406 393.981 273.867 383.958 273.716 381.157C273.692 380.709 273.678 380.446 273.675 380.397L275.793 427.779Z" fill="#B3B7D8" stroke="black" stroke-width="5"/>
<path d="M381 369.25H380.375C379.5 367.625 378.875 365.5 378.25 363.375L379.375 364.5C382.75 367.125 385.75 366.625 385.75 366.625C385.75 366.625 386.625 361.875 383.25 359.375C380.375 357.125 377.75 357.125 377 357.25C376.875 356.5 376.875 355.875 376.75 355.375L375 355.5C375 359.5 371.625 366.875 370.5 369.25C368 369.5 366 371.625 366 374.25C366 377 368.25 379.25 371 379.25C372.375 379.25 373.5 378.75 374.375 377.875C373.875 376.75 373.5 375.5 373.5 374.25C373.5 373 373.875 371.75 374.375 370.625C373.875 370.125 373.125 369.75 372.5 369.5C373.375 367.625 374.875 364.25 375.875 361C376.375 363.875 377.375 367.25 378.625 369.875C377.125 370.75 376 372.375 376 374.25C376 377 378.25 379.25 381 379.25C383.75 379.25 386 377 386 374.25C386 371.5 383.75 369.25 381 369.25ZM371 372.375C370 372.375 369.125 373.25 369.125 374.25H367.875C367.875 372.5 369.25 371.125 371 371.125V372.375ZM381 372.375C380 372.375 379.125 373.25 379.125 374.25H377.875C377.875 372.5 379.25 371.125 381 371.125V372.375Z" fill="black"/>
<path d="M256.509 402.144L256.442 402.149L256.375 402.157L240.468 404.074L239.792 404.155L239.251 404.568L235.483 407.443L233.529 408.935L234.988 410.914L238.755 416.025L239.114 416.512L239.657 416.781L256.401 425.087L256.58 425.176L256.771 425.235L270.167 429.388L272.047 429.971L273.055 428.279L275.148 424.765L275.545 424.099L275.495 423.325L274.239 403.839L274.088 401.5H271.744H266.302H266.219L266.137 401.505L256.509 402.144Z" fill="#656987" stroke="black" stroke-width="5"/>
</svg>
