<svg width="500" height="120" viewBox="0 0 500 120" fill="none" xmlns="http://www.w3.org/2000/svg">
<rect width="500" height="120" rx="15" fill="#292B3C"/>
<path d="M129.163 47.43V72H123.178V57.265L117.683 72H112.853L107.323 57.23V72H101.338V47.43H108.408L115.303 64.44L122.128 47.43H129.163ZM139.977 50.44C138.927 50.44 138.064 50.1367 137.387 49.53C136.734 48.9 136.407 48.13 136.407 47.22C136.407 46.2867 136.734 45.5167 137.387 44.91C138.064 44.28 138.927 43.965 139.977 43.965C141.004 43.965 141.844 44.28 142.497 44.91C143.174 45.5167 143.512 46.2867 143.512 47.22C143.512 48.13 143.174 48.9 142.497 49.53C141.844 50.1367 141.004 50.44 139.977 50.44ZM142.952 52.47V72H136.967V52.47H142.952ZM158.735 72.28C157.031 72.28 155.515 71.9883 154.185 71.405C152.855 70.8217 151.805 70.0283 151.035 69.025C150.265 67.9983 149.833 66.855 149.74 65.595H155.655C155.725 66.2717 156.04 66.82 156.6 67.24C157.16 67.66 157.848 67.87 158.665 67.87C159.411 67.87 159.983 67.73 160.38 67.45C160.8 67.1467 161.01 66.7617 161.01 66.295C161.01 65.735 160.718 65.3267 160.135 65.07C159.551 64.79 158.606 64.4867 157.3 64.16C155.9 63.8333 154.733 63.495 153.8 63.145C152.866 62.7717 152.061 62.2 151.385 61.43C150.708 60.6367 150.37 59.575 150.37 58.245C150.37 57.125 150.673 56.11 151.28 55.2C151.91 54.2667 152.82 53.5317 154.01 52.995C155.223 52.4583 156.658 52.19 158.315 52.19C160.765 52.19 162.69 52.7967 164.09 54.01C165.513 55.2233 166.33 56.8333 166.54 58.84H161.01C160.916 58.1633 160.613 57.6267 160.1 57.23C159.61 56.8333 158.956 56.635 158.14 56.635C157.44 56.635 156.903 56.775 156.53 57.055C156.156 57.3117 155.97 57.6733 155.97 58.14C155.97 58.7 156.261 59.12 156.845 59.4C157.451 59.68 158.385 59.96 159.645 60.24C161.091 60.6133 162.27 60.9867 163.18 61.36C164.09 61.71 164.883 62.2933 165.56 63.11C166.26 63.9033 166.621 64.9767 166.645 66.33C166.645 67.4733 166.318 68.5 165.665 69.41C165.035 70.2967 164.113 70.9967 162.9 71.51C161.71 72.0233 160.321 72.28 158.735 72.28ZM172.616 62.235C172.616 60.205 173.025 58.4317 173.841 56.915C174.681 55.3983 175.836 54.2317 177.306 53.415C178.8 52.5983 180.503 52.19 182.416 52.19C184.866 52.19 186.908 52.8317 188.541 54.115C190.198 55.3983 191.283 57.2067 191.796 59.54H185.426C184.89 58.0467 183.851 57.3 182.311 57.3C181.215 57.3 180.34 57.7317 179.686 58.595C179.033 59.435 178.706 60.6483 178.706 62.235C178.706 63.8217 179.033 65.0467 179.686 65.91C180.34 66.75 181.215 67.17 182.311 67.17C183.851 67.17 184.89 66.4233 185.426 64.93H191.796C191.283 67.2167 190.198 69.0133 188.541 70.32C186.885 71.6267 184.843 72.28 182.416 72.28C180.503 72.28 178.8 71.8717 177.306 71.055C175.836 70.2383 174.681 69.0717 173.841 67.555C173.025 66.0383 172.616 64.265 172.616 62.235ZM216.908 61.92C216.908 62.48 216.873 63.0633 216.803 63.67H203.258C203.351 64.8833 203.736 65.8167 204.413 66.47C205.113 67.1 205.964 67.415 206.968 67.415C208.461 67.415 209.499 66.785 210.083 65.525H216.453C216.126 66.8083 215.531 67.9633 214.668 68.99C213.828 70.0167 212.766 70.8217 211.483 71.405C210.199 71.9883 208.764 72.28 207.178 72.28C205.264 72.28 203.561 71.8717 202.068 71.055C200.574 70.2383 199.408 69.0717 198.568 67.555C197.728 66.0383 197.308 64.265 197.308 62.235C197.308 60.205 197.716 58.4317 198.533 56.915C199.373 55.3983 200.539 54.2317 202.033 53.415C203.526 52.5983 205.241 52.19 207.178 52.19C209.068 52.19 210.748 52.5867 212.218 53.38C213.688 54.1733 214.831 55.305 215.648 56.775C216.488 58.245 216.908 59.96 216.908 61.92ZM210.783 60.345C210.783 59.3183 210.433 58.5017 209.733 57.895C209.033 57.2883 208.158 56.985 207.108 56.985C206.104 56.985 205.253 57.2767 204.553 57.86C203.876 58.4433 203.456 59.2717 203.293 60.345H210.783ZM229.55 46.1V72H223.565V46.1H229.55Z" fill="white"/>
<path d="M243.372 46.1V72H237.387V46.1H243.372ZM250.02 62.2C250.02 60.1933 250.393 58.4317 251.14 56.915C251.91 55.3983 252.948 54.2317 254.255 53.415C255.561 52.5983 257.02 52.19 258.63 52.19C260.006 52.19 261.208 52.47 262.235 53.03C263.285 53.59 264.09 54.325 264.65 55.235V52.47H270.635V72H264.65V69.235C264.066 70.145 263.25 70.88 262.2 71.44C261.173 72 259.971 72.28 258.595 72.28C257.008 72.28 255.561 71.8717 254.255 71.055C252.948 70.215 251.91 69.0367 251.14 67.52C250.393 65.98 250.02 64.2067 250.02 62.2ZM264.65 62.235C264.65 60.7417 264.23 59.5633 263.39 58.7C262.573 57.8367 261.57 57.405 260.38 57.405C259.19 57.405 258.175 57.8367 257.335 58.7C256.518 59.54 256.11 60.7067 256.11 62.2C256.11 63.6933 256.518 64.8833 257.335 65.77C258.175 66.6333 259.19 67.065 260.38 67.065C261.57 67.065 262.573 66.6333 263.39 65.77C264.23 64.9067 264.65 63.7283 264.65 62.235ZM290.364 52.26C292.651 52.26 294.471 53.0067 295.824 54.5C297.201 55.97 297.889 58 297.889 60.59V72H291.939V61.395C291.939 60.0883 291.601 59.0733 290.924 58.35C290.248 57.6267 289.338 57.265 288.194 57.265C287.051 57.265 286.141 57.6267 285.464 58.35C284.788 59.0733 284.449 60.0883 284.449 61.395V72H278.464V52.47H284.449V55.06C285.056 54.1967 285.873 53.52 286.899 53.03C287.926 52.5167 289.081 52.26 290.364 52.26ZM323.958 61.92C323.958 62.48 323.923 63.0633 323.853 63.67H310.308C310.402 64.8833 310.787 65.8167 311.463 66.47C312.163 67.1 313.015 67.415 314.018 67.415C315.512 67.415 316.55 66.785 317.133 65.525H323.503C323.177 66.8083 322.582 67.9633 321.718 68.99C320.878 70.0167 319.817 70.8217 318.533 71.405C317.25 71.9883 315.815 72.28 314.228 72.28C312.315 72.28 310.612 71.8717 309.118 71.055C307.625 70.2383 306.458 69.0717 305.618 67.555C304.778 66.0383 304.358 64.265 304.358 62.235C304.358 60.205 304.767 58.4317 305.583 56.915C306.423 55.3983 307.59 54.2317 309.083 53.415C310.577 52.5983 312.292 52.19 314.228 52.19C316.118 52.19 317.798 52.5867 319.268 53.38C320.738 54.1733 321.882 55.305 322.698 56.775C323.538 58.245 323.958 59.96 323.958 61.92ZM317.833 60.345C317.833 59.3183 317.483 58.5017 316.783 57.895C316.083 57.2883 315.208 56.985 314.158 56.985C313.155 56.985 312.303 57.2767 311.603 57.86C310.927 58.4433 310.507 59.2717 310.343 60.345H317.833ZM339.506 72.28C337.592 72.28 335.866 71.8717 334.326 71.055C332.809 70.2383 331.607 69.0717 330.721 67.555C329.857 66.0383 329.426 64.265 329.426 62.235C329.426 60.2283 329.869 58.4667 330.756 56.95C331.642 55.41 332.856 54.2317 334.396 53.415C335.936 52.5983 337.662 52.19 339.576 52.19C341.489 52.19 343.216 52.5983 344.756 53.415C346.296 54.2317 347.509 55.41 348.396 56.95C349.282 58.4667 349.726 60.2283 349.726 62.235C349.726 64.2417 349.271 66.015 348.361 67.555C347.474 69.0717 346.249 70.2383 344.686 71.055C343.146 71.8717 341.419 72.28 339.506 72.28ZM339.506 67.1C340.649 67.1 341.617 66.68 342.411 65.84C343.227 65 343.636 63.7983 343.636 62.235C343.636 60.6717 343.239 59.47 342.446 58.63C341.676 57.79 340.719 57.37 339.576 57.37C338.409 57.37 337.441 57.79 336.671 58.63C335.901 59.4467 335.516 60.6483 335.516 62.235C335.516 63.7983 335.889 65 336.636 65.84C337.406 66.68 338.362 67.1 339.506 67.1ZM375.686 52.47V72H369.701V69.34C369.094 70.2033 368.266 70.9033 367.216 71.44C366.189 71.9533 365.046 72.21 363.786 72.21C362.293 72.21 360.974 71.8833 359.831 71.23C358.688 70.5533 357.801 69.585 357.171 68.325C356.541 67.065 356.226 65.5833 356.226 63.88V52.47H362.176V63.075C362.176 64.3817 362.514 65.3967 363.191 66.12C363.868 66.8433 364.778 67.205 365.921 67.205C367.088 67.205 368.009 66.8433 368.686 66.12C369.363 65.3967 369.701 64.3817 369.701 63.075V52.47H375.686ZM391.43 72.28C389.727 72.28 388.21 71.9883 386.88 71.405C385.55 70.8217 384.5 70.0283 383.73 69.025C382.96 67.9983 382.528 66.855 382.435 65.595H388.35C388.42 66.2717 388.735 66.82 389.295 67.24C389.855 67.66 390.543 67.87 391.36 67.87C392.107 67.87 392.678 67.73 393.075 67.45C393.495 67.1467 393.705 66.7617 393.705 66.295C393.705 65.735 393.413 65.3267 392.83 65.07C392.247 64.79 391.302 64.4867 389.995 64.16C388.595 63.8333 387.428 63.495 386.495 63.145C385.562 62.7717 384.757 62.2 384.08 61.43C383.403 60.6367 383.065 59.575 383.065 58.245C383.065 57.125 383.368 56.11 383.975 55.2C384.605 54.2667 385.515 53.5317 386.705 52.995C387.918 52.4583 389.353 52.19 391.01 52.19C393.46 52.19 395.385 52.7967 396.785 54.01C398.208 55.2233 399.025 56.8333 399.235 58.84H393.705C393.612 58.1633 393.308 57.6267 392.795 57.23C392.305 56.8333 391.652 56.635 390.835 56.635C390.135 56.635 389.598 56.775 389.225 57.055C388.852 57.3117 388.665 57.6733 388.665 58.14C388.665 58.7 388.957 59.12 389.54 59.4C390.147 59.68 391.08 59.96 392.34 60.24C393.787 60.6133 394.965 60.9867 395.875 61.36C396.785 61.71 397.578 62.2933 398.255 63.11C398.955 63.9033 399.317 64.9767 399.34 66.33C399.34 67.4733 399.013 68.5 398.36 69.41C397.73 70.2967 396.808 70.9967 395.595 71.51C394.405 72.0233 393.017 72.28 391.43 72.28Z" fill="#8186B1"/>
</svg>
