<svg width="299" height="30" viewBox="0 0 299 30" fill="none" xmlns="http://www.w3.org/2000/svg">
<path d="M28.1635 4.43V29H22.1785V14.265L16.6835 29H11.8535L6.32346 14.23V29H0.338457V4.43H7.40846L14.3035 21.44L21.1285 4.43H28.1635ZM38.9774 7.44C37.9274 7.44 37.064 7.13667 36.3874 6.53C35.734 5.9 35.4074 5.13 35.4074 4.22C35.4074 3.28667 35.734 2.51667 36.3874 1.91C37.064 1.28 37.9274 0.964998 38.9774 0.964998C40.004 0.964998 40.844 1.28 41.4974 1.91C42.174 2.51667 42.5124 3.28667 42.5124 4.22C42.5124 5.13 42.174 5.9 41.4974 6.53C40.844 7.13667 40.004 7.44 38.9774 7.44ZM41.9524 9.47V29H35.9674V9.47H41.9524ZM57.7346 29.28C56.0313 29.28 54.5146 28.9883 53.1846 28.405C51.8546 27.8217 50.8046 27.0283 50.0346 26.025C49.2646 24.9983 48.833 23.855 48.7396 22.595H54.6546C54.7246 23.2717 55.0396 23.82 55.5996 24.24C56.1596 24.66 56.848 24.87 57.6646 24.87C58.4113 24.87 58.983 24.73 59.3796 24.45C59.7996 24.1467 60.0096 23.7617 60.0096 23.295C60.0096 22.735 59.718 22.3267 59.1346 22.07C58.5513 21.79 57.6063 21.4867 56.2996 21.16C54.8996 20.8333 53.733 20.495 52.7996 20.145C51.8663 19.7717 51.0613 19.2 50.3846 18.43C49.708 17.6367 49.3696 16.575 49.3696 15.245C49.3696 14.125 49.673 13.11 50.2796 12.2C50.9096 11.2667 51.8196 10.5317 53.0096 9.995C54.223 9.45833 55.658 9.19 57.3146 9.19C59.7646 9.19 61.6896 9.79667 63.0896 11.01C64.513 12.2233 65.3296 13.8333 65.5396 15.84H60.0096C59.9163 15.1633 59.613 14.6267 59.0996 14.23C58.6096 13.8333 57.9563 13.635 57.1396 13.635C56.4396 13.635 55.903 13.775 55.5296 14.055C55.1563 14.3117 54.9696 14.6733 54.9696 15.14C54.9696 15.7 55.2613 16.12 55.8446 16.4C56.4513 16.68 57.3846 16.96 58.6446 17.24C60.0913 17.6133 61.2696 17.9867 62.1796 18.36C63.0896 18.71 63.883 19.2933 64.5596 20.11C65.2596 20.9033 65.6213 21.9767 65.6446 23.33C65.6446 24.4733 65.318 25.5 64.6646 26.41C64.0346 27.2967 63.113 27.9967 61.8996 28.51C60.7096 29.0233 59.3213 29.28 57.7346 29.28ZM71.6162 19.235C71.6162 17.205 72.0246 15.4317 72.8412 13.915C73.6812 12.3983 74.8362 11.2317 76.3062 10.415C77.7996 9.59833 79.5029 9.19 81.4162 9.19C83.8662 9.19 85.9079 9.83167 87.5412 11.115C89.1979 12.3983 90.2829 14.2067 90.7962 16.54H84.4262C83.8896 15.0467 82.8512 14.3 81.3112 14.3C80.2146 14.3 79.3396 14.7317 78.6862 15.595C78.0329 16.435 77.7062 17.6483 77.7062 19.235C77.7062 20.8217 78.0329 22.0467 78.6862 22.91C79.3396 23.75 80.2146 24.17 81.3112 24.17C82.8512 24.17 83.8896 23.4233 84.4262 21.93H90.7962C90.2829 24.2167 89.1979 26.0133 87.5412 27.32C85.8846 28.6267 83.8429 29.28 81.4162 29.28C79.5029 29.28 77.7996 28.8717 76.3062 28.055C74.8362 27.2383 73.6812 26.0717 72.8412 24.555C72.0246 23.0383 71.6162 21.265 71.6162 19.235ZM115.908 18.92C115.908 19.48 115.873 20.0633 115.803 20.67H102.258C102.351 21.8833 102.736 22.8167 103.413 23.47C104.113 24.1 104.964 24.415 105.968 24.415C107.461 24.415 108.499 23.785 109.083 22.525H115.453C115.126 23.8083 114.531 24.9633 113.668 25.99C112.828 27.0167 111.766 27.8217 110.483 28.405C109.199 28.9883 107.764 29.28 106.178 29.28C104.264 29.28 102.561 28.8717 101.068 28.055C99.5743 27.2383 98.4076 26.0717 97.5676 24.555C96.7276 23.0383 96.3076 21.265 96.3076 19.235C96.3076 17.205 96.716 15.4317 97.5326 13.915C98.3726 12.3983 99.5393 11.2317 101.033 10.415C102.526 9.59833 104.241 9.19 106.178 9.19C108.068 9.19 109.748 9.58667 111.218 10.38C112.688 11.1733 113.831 12.305 114.648 13.775C115.488 15.245 115.908 16.96 115.908 18.92ZM109.783 17.345C109.783 16.3183 109.433 15.5017 108.733 14.895C108.033 14.2883 107.158 13.985 106.108 13.985C105.104 13.985 104.253 14.2767 103.553 14.86C102.876 15.4433 102.456 16.2717 102.293 17.345H109.783ZM128.55 3.1V29H122.565V3.1H128.55Z" fill="white"/>
<path d="M142.372 3.1V29H136.387V3.1H142.372ZM149.02 19.2C149.02 17.1933 149.393 15.4317 150.14 13.915C150.91 12.3983 151.948 11.2317 153.255 10.415C154.561 9.59833 156.02 9.19 157.63 9.19C159.006 9.19 160.208 9.47 161.235 10.03C162.285 10.59 163.09 11.325 163.65 12.235V9.47H169.635V29H163.65V26.235C163.066 27.145 162.25 27.88 161.2 28.44C160.173 29 158.971 29.28 157.595 29.28C156.008 29.28 154.561 28.8717 153.255 28.055C151.948 27.215 150.91 26.0367 150.14 24.52C149.393 22.98 149.02 21.2067 149.02 19.2ZM163.65 19.235C163.65 17.7417 163.23 16.5633 162.39 15.7C161.573 14.8367 160.57 14.405 159.38 14.405C158.19 14.405 157.175 14.8367 156.335 15.7C155.518 16.54 155.11 17.7067 155.11 19.2C155.11 20.6933 155.518 21.8833 156.335 22.77C157.175 23.6333 158.19 24.065 159.38 24.065C160.57 24.065 161.573 23.6333 162.39 22.77C163.23 21.9067 163.65 20.7283 163.65 19.235ZM189.364 9.26C191.651 9.26 193.471 10.0067 194.824 11.5C196.201 12.97 196.889 15 196.889 17.59V29H190.939V18.395C190.939 17.0883 190.601 16.0733 189.924 15.35C189.248 14.6267 188.338 14.265 187.194 14.265C186.051 14.265 185.141 14.6267 184.464 15.35C183.788 16.0733 183.449 17.0883 183.449 18.395V29H177.464V9.47H183.449V12.06C184.056 11.1967 184.873 10.52 185.899 10.03C186.926 9.51667 188.081 9.26 189.364 9.26ZM222.958 18.92C222.958 19.48 222.923 20.0633 222.853 20.67H209.308C209.402 21.8833 209.787 22.8167 210.463 23.47C211.163 24.1 212.015 24.415 213.018 24.415C214.512 24.415 215.55 23.785 216.133 22.525H222.503C222.177 23.8083 221.582 24.9633 220.718 25.99C219.878 27.0167 218.817 27.8217 217.533 28.405C216.25 28.9883 214.815 29.28 213.228 29.28C211.315 29.28 209.612 28.8717 208.118 28.055C206.625 27.2383 205.458 26.0717 204.618 24.555C203.778 23.0383 203.358 21.265 203.358 19.235C203.358 17.205 203.767 15.4317 204.583 13.915C205.423 12.3983 206.59 11.2317 208.083 10.415C209.577 9.59833 211.292 9.19 213.228 9.19C215.118 9.19 216.798 9.58667 218.268 10.38C219.738 11.1733 220.882 12.305 221.698 13.775C222.538 15.245 222.958 16.96 222.958 18.92ZM216.833 17.345C216.833 16.3183 216.483 15.5017 215.783 14.895C215.083 14.2883 214.208 13.985 213.158 13.985C212.155 13.985 211.303 14.2767 210.603 14.86C209.927 15.4433 209.507 16.2717 209.343 17.345H216.833ZM238.506 29.28C236.592 29.28 234.866 28.8717 233.326 28.055C231.809 27.2383 230.607 26.0717 229.721 24.555C228.857 23.0383 228.426 21.265 228.426 19.235C228.426 17.2283 228.869 15.4667 229.756 13.95C230.642 12.41 231.856 11.2317 233.396 10.415C234.936 9.59833 236.662 9.19 238.576 9.19C240.489 9.19 242.216 9.59833 243.756 10.415C245.296 11.2317 246.509 12.41 247.396 13.95C248.282 15.4667 248.726 17.2283 248.726 19.235C248.726 21.2417 248.271 23.015 247.361 24.555C246.474 26.0717 245.249 27.2383 243.686 28.055C242.146 28.8717 240.419 29.28 238.506 29.28ZM238.506 24.1C239.649 24.1 240.617 23.68 241.411 22.84C242.227 22 242.636 20.7983 242.636 19.235C242.636 17.6717 242.239 16.47 241.446 15.63C240.676 14.79 239.719 14.37 238.576 14.37C237.409 14.37 236.441 14.79 235.671 15.63C234.901 16.4467 234.516 17.6483 234.516 19.235C234.516 20.7983 234.889 22 235.636 22.84C236.406 23.68 237.362 24.1 238.506 24.1ZM274.686 9.47V29H268.701V26.34C268.094 27.2033 267.266 27.9033 266.216 28.44C265.189 28.9533 264.046 29.21 262.786 29.21C261.293 29.21 259.974 28.8833 258.831 28.23C257.688 27.5533 256.801 26.585 256.171 25.325C255.541 24.065 255.226 22.5833 255.226 20.88V9.47H261.176V20.075C261.176 21.3817 261.514 22.3967 262.191 23.12C262.868 23.8433 263.778 24.205 264.921 24.205C266.088 24.205 267.009 23.8433 267.686 23.12C268.363 22.3967 268.701 21.3817 268.701 20.075V9.47H274.686ZM290.43 29.28C288.727 29.28 287.21 28.9883 285.88 28.405C284.55 27.8217 283.5 27.0283 282.73 26.025C281.96 24.9983 281.528 23.855 281.435 22.595H287.35C287.42 23.2717 287.735 23.82 288.295 24.24C288.855 24.66 289.543 24.87 290.36 24.87C291.107 24.87 291.678 24.73 292.075 24.45C292.495 24.1467 292.705 23.7617 292.705 23.295C292.705 22.735 292.413 22.3267 291.83 22.07C291.247 21.79 290.302 21.4867 288.995 21.16C287.595 20.8333 286.428 20.495 285.495 20.145C284.562 19.7717 283.757 19.2 283.08 18.43C282.403 17.6367 282.065 16.575 282.065 15.245C282.065 14.125 282.368 13.11 282.975 12.2C283.605 11.2667 284.515 10.5317 285.705 9.995C286.918 9.45833 288.353 9.19 290.01 9.19C292.46 9.19 294.385 9.79667 295.785 11.01C297.208 12.2233 298.025 13.8333 298.235 15.84H292.705C292.612 15.1633 292.308 14.6267 291.795 14.23C291.305 13.8333 290.652 13.635 289.835 13.635C289.135 13.635 288.598 13.775 288.225 14.055C287.852 14.3117 287.665 14.6733 287.665 15.14C287.665 15.7 287.957 16.12 288.54 16.4C289.147 16.68 290.08 16.96 291.34 17.24C292.787 17.6133 293.965 17.9867 294.875 18.36C295.785 18.71 296.578 19.2933 297.255 20.11C297.955 20.9033 298.317 21.9767 298.34 23.33C298.34 24.4733 298.013 25.5 297.36 26.41C296.73 27.2967 295.808 27.9967 294.595 28.51C293.405 29.0233 292.017 29.28 290.43 29.28Z" fill="#8186B1"/>
</svg>
